%TF.GenerationSoftware,KiCad,Pcbnew,9.0.7*%
%TF.CreationDate,2026-01-19T10:27:03-08:00*%
%TF.ProjectId,Tesla Ambient Lighting,5465736c-6120-4416-9d62-69656e74204c,rev?*%
%TF.SameCoordinates,Original*%
%TF.FileFunction,Drillmap*%
%TF.FilePolarity,Positive*%
%FSLAX45Y45*%
G04 Gerber Fmt 4.5, Leading zero omitted, Abs format (unit mm)*
G04 Created by KiCad (PCBNEW 9.0.7) date 2026-01-19 10:27:03*
%MOMM*%
%LPD*%
G01*
G04 APERTURE LIST*
%ADD10C,0.050000*%
%ADD11C,0.200000*%
%ADD12C,0.100000*%
%ADD13C,0.220000*%
G04 APERTURE END LIST*
D10*
X11900000Y-7762500D02*
X17550000Y-7762500D01*
X17550000Y-12787500D01*
X11900000Y-12787500D01*
X11900000Y-7762500D01*
D11*
D12*
X16849500Y-8778500D02*
X16914500Y-8843500D01*
X16914500Y-8778500D02*
X16849500Y-8843500D01*
X16849500Y-9356500D02*
X16914500Y-9421500D01*
X16914500Y-9356500D02*
X16849500Y-9421500D01*
D13*
X12385000Y-9625000D02*
G75*
G02*
X12165000Y-9625000I-110000J0D01*
G01*
X12165000Y-9625000D02*
G75*
G02*
X12385000Y-9625000I110000J0D01*
G01*
X17310000Y-8125000D02*
G75*
G02*
X17090000Y-8125000I-110000J0D01*
G01*
X17090000Y-8125000D02*
G75*
G02*
X17310000Y-8125000I110000J0D01*
G01*
X17335000Y-12475000D02*
G75*
G02*
X17115000Y-12475000I-110000J0D01*
G01*
X17115000Y-12475000D02*
G75*
G02*
X17335000Y-12475000I110000J0D01*
G01*
D11*
X12158277Y-13101484D02*
X12158277Y-12901484D01*
X12158277Y-12901484D02*
X12205896Y-12901484D01*
X12205896Y-12901484D02*
X12234467Y-12911008D01*
X12234467Y-12911008D02*
X12253515Y-12930055D01*
X12253515Y-12930055D02*
X12263039Y-12949103D01*
X12263039Y-12949103D02*
X12272562Y-12987198D01*
X12272562Y-12987198D02*
X12272562Y-13015769D01*
X12272562Y-13015769D02*
X12263039Y-13053865D01*
X12263039Y-13053865D02*
X12253515Y-13072912D01*
X12253515Y-13072912D02*
X12234467Y-13091960D01*
X12234467Y-13091960D02*
X12205896Y-13101484D01*
X12205896Y-13101484D02*
X12158277Y-13101484D01*
X12358277Y-13101484D02*
X12358277Y-12968150D01*
X12358277Y-13006246D02*
X12367801Y-12987198D01*
X12367801Y-12987198D02*
X12377324Y-12977674D01*
X12377324Y-12977674D02*
X12396372Y-12968150D01*
X12396372Y-12968150D02*
X12415420Y-12968150D01*
X12482086Y-13101484D02*
X12482086Y-12968150D01*
X12482086Y-12901484D02*
X12472562Y-12911008D01*
X12472562Y-12911008D02*
X12482086Y-12920531D01*
X12482086Y-12920531D02*
X12491610Y-12911008D01*
X12491610Y-12911008D02*
X12482086Y-12901484D01*
X12482086Y-12901484D02*
X12482086Y-12920531D01*
X12605896Y-13101484D02*
X12586848Y-13091960D01*
X12586848Y-13091960D02*
X12577324Y-13072912D01*
X12577324Y-13072912D02*
X12577324Y-12901484D01*
X12710658Y-13101484D02*
X12691610Y-13091960D01*
X12691610Y-13091960D02*
X12682086Y-13072912D01*
X12682086Y-13072912D02*
X12682086Y-12901484D01*
X12939229Y-13101484D02*
X12939229Y-12901484D01*
X12939229Y-12901484D02*
X13005896Y-13044341D01*
X13005896Y-13044341D02*
X13072562Y-12901484D01*
X13072562Y-12901484D02*
X13072562Y-13101484D01*
X13253515Y-13101484D02*
X13253515Y-12996722D01*
X13253515Y-12996722D02*
X13243991Y-12977674D01*
X13243991Y-12977674D02*
X13224943Y-12968150D01*
X13224943Y-12968150D02*
X13186848Y-12968150D01*
X13186848Y-12968150D02*
X13167801Y-12977674D01*
X13253515Y-13091960D02*
X13234467Y-13101484D01*
X13234467Y-13101484D02*
X13186848Y-13101484D01*
X13186848Y-13101484D02*
X13167801Y-13091960D01*
X13167801Y-13091960D02*
X13158277Y-13072912D01*
X13158277Y-13072912D02*
X13158277Y-13053865D01*
X13158277Y-13053865D02*
X13167801Y-13034817D01*
X13167801Y-13034817D02*
X13186848Y-13025293D01*
X13186848Y-13025293D02*
X13234467Y-13025293D01*
X13234467Y-13025293D02*
X13253515Y-13015769D01*
X13348753Y-12968150D02*
X13348753Y-13168150D01*
X13348753Y-12977674D02*
X13367801Y-12968150D01*
X13367801Y-12968150D02*
X13405896Y-12968150D01*
X13405896Y-12968150D02*
X13424943Y-12977674D01*
X13424943Y-12977674D02*
X13434467Y-12987198D01*
X13434467Y-12987198D02*
X13443991Y-13006246D01*
X13443991Y-13006246D02*
X13443991Y-13063388D01*
X13443991Y-13063388D02*
X13434467Y-13082436D01*
X13434467Y-13082436D02*
X13424943Y-13091960D01*
X13424943Y-13091960D02*
X13405896Y-13101484D01*
X13405896Y-13101484D02*
X13367801Y-13101484D01*
X13367801Y-13101484D02*
X13348753Y-13091960D01*
X13529705Y-13082436D02*
X13539229Y-13091960D01*
X13539229Y-13091960D02*
X13529705Y-13101484D01*
X13529705Y-13101484D02*
X13520182Y-13091960D01*
X13520182Y-13091960D02*
X13529705Y-13082436D01*
X13529705Y-13082436D02*
X13529705Y-13101484D01*
X13529705Y-12977674D02*
X13539229Y-12987198D01*
X13539229Y-12987198D02*
X13529705Y-12996722D01*
X13529705Y-12996722D02*
X13520182Y-12987198D01*
X13520182Y-12987198D02*
X13529705Y-12977674D01*
X13529705Y-12977674D02*
X13529705Y-12996722D01*
D12*
X11832500Y-13397500D02*
X11897500Y-13462500D01*
X11897500Y-13397500D02*
X11832500Y-13462500D01*
D11*
X12196372Y-13321484D02*
X12215420Y-13321484D01*
X12215420Y-13321484D02*
X12234467Y-13331008D01*
X12234467Y-13331008D02*
X12243991Y-13340531D01*
X12243991Y-13340531D02*
X12253515Y-13359579D01*
X12253515Y-13359579D02*
X12263039Y-13397674D01*
X12263039Y-13397674D02*
X12263039Y-13445293D01*
X12263039Y-13445293D02*
X12253515Y-13483388D01*
X12253515Y-13483388D02*
X12243991Y-13502436D01*
X12243991Y-13502436D02*
X12234467Y-13511960D01*
X12234467Y-13511960D02*
X12215420Y-13521484D01*
X12215420Y-13521484D02*
X12196372Y-13521484D01*
X12196372Y-13521484D02*
X12177324Y-13511960D01*
X12177324Y-13511960D02*
X12167801Y-13502436D01*
X12167801Y-13502436D02*
X12158277Y-13483388D01*
X12158277Y-13483388D02*
X12148753Y-13445293D01*
X12148753Y-13445293D02*
X12148753Y-13397674D01*
X12148753Y-13397674D02*
X12158277Y-13359579D01*
X12158277Y-13359579D02*
X12167801Y-13340531D01*
X12167801Y-13340531D02*
X12177324Y-13331008D01*
X12177324Y-13331008D02*
X12196372Y-13321484D01*
X12348753Y-13502436D02*
X12358277Y-13511960D01*
X12358277Y-13511960D02*
X12348753Y-13521484D01*
X12348753Y-13521484D02*
X12339229Y-13511960D01*
X12339229Y-13511960D02*
X12348753Y-13502436D01*
X12348753Y-13502436D02*
X12348753Y-13521484D01*
X12529705Y-13321484D02*
X12491610Y-13321484D01*
X12491610Y-13321484D02*
X12472562Y-13331008D01*
X12472562Y-13331008D02*
X12463039Y-13340531D01*
X12463039Y-13340531D02*
X12443991Y-13369103D01*
X12443991Y-13369103D02*
X12434467Y-13407198D01*
X12434467Y-13407198D02*
X12434467Y-13483388D01*
X12434467Y-13483388D02*
X12443991Y-13502436D01*
X12443991Y-13502436D02*
X12453515Y-13511960D01*
X12453515Y-13511960D02*
X12472562Y-13521484D01*
X12472562Y-13521484D02*
X12510658Y-13521484D01*
X12510658Y-13521484D02*
X12529705Y-13511960D01*
X12529705Y-13511960D02*
X12539229Y-13502436D01*
X12539229Y-13502436D02*
X12548753Y-13483388D01*
X12548753Y-13483388D02*
X12548753Y-13435769D01*
X12548753Y-13435769D02*
X12539229Y-13416722D01*
X12539229Y-13416722D02*
X12529705Y-13407198D01*
X12529705Y-13407198D02*
X12510658Y-13397674D01*
X12510658Y-13397674D02*
X12472562Y-13397674D01*
X12472562Y-13397674D02*
X12453515Y-13407198D01*
X12453515Y-13407198D02*
X12443991Y-13416722D01*
X12443991Y-13416722D02*
X12434467Y-13435769D01*
X12729705Y-13321484D02*
X12634467Y-13321484D01*
X12634467Y-13321484D02*
X12624943Y-13416722D01*
X12624943Y-13416722D02*
X12634467Y-13407198D01*
X12634467Y-13407198D02*
X12653515Y-13397674D01*
X12653515Y-13397674D02*
X12701134Y-13397674D01*
X12701134Y-13397674D02*
X12720182Y-13407198D01*
X12720182Y-13407198D02*
X12729705Y-13416722D01*
X12729705Y-13416722D02*
X12739229Y-13435769D01*
X12739229Y-13435769D02*
X12739229Y-13483388D01*
X12739229Y-13483388D02*
X12729705Y-13502436D01*
X12729705Y-13502436D02*
X12720182Y-13511960D01*
X12720182Y-13511960D02*
X12701134Y-13521484D01*
X12701134Y-13521484D02*
X12653515Y-13521484D01*
X12653515Y-13521484D02*
X12634467Y-13511960D01*
X12634467Y-13511960D02*
X12624943Y-13502436D01*
X12863039Y-13321484D02*
X12882086Y-13321484D01*
X12882086Y-13321484D02*
X12901134Y-13331008D01*
X12901134Y-13331008D02*
X12910658Y-13340531D01*
X12910658Y-13340531D02*
X12920182Y-13359579D01*
X12920182Y-13359579D02*
X12929705Y-13397674D01*
X12929705Y-13397674D02*
X12929705Y-13445293D01*
X12929705Y-13445293D02*
X12920182Y-13483388D01*
X12920182Y-13483388D02*
X12910658Y-13502436D01*
X12910658Y-13502436D02*
X12901134Y-13511960D01*
X12901134Y-13511960D02*
X12882086Y-13521484D01*
X12882086Y-13521484D02*
X12863039Y-13521484D01*
X12863039Y-13521484D02*
X12843991Y-13511960D01*
X12843991Y-13511960D02*
X12834467Y-13502436D01*
X12834467Y-13502436D02*
X12824943Y-13483388D01*
X12824943Y-13483388D02*
X12815420Y-13445293D01*
X12815420Y-13445293D02*
X12815420Y-13397674D01*
X12815420Y-13397674D02*
X12824943Y-13359579D01*
X12824943Y-13359579D02*
X12834467Y-13340531D01*
X12834467Y-13340531D02*
X12843991Y-13331008D01*
X12843991Y-13331008D02*
X12863039Y-13321484D01*
X13015420Y-13521484D02*
X13015420Y-13388150D01*
X13015420Y-13407198D02*
X13024943Y-13397674D01*
X13024943Y-13397674D02*
X13043991Y-13388150D01*
X13043991Y-13388150D02*
X13072563Y-13388150D01*
X13072563Y-13388150D02*
X13091610Y-13397674D01*
X13091610Y-13397674D02*
X13101134Y-13416722D01*
X13101134Y-13416722D02*
X13101134Y-13521484D01*
X13101134Y-13416722D02*
X13110658Y-13397674D01*
X13110658Y-13397674D02*
X13129705Y-13388150D01*
X13129705Y-13388150D02*
X13158277Y-13388150D01*
X13158277Y-13388150D02*
X13177324Y-13397674D01*
X13177324Y-13397674D02*
X13186848Y-13416722D01*
X13186848Y-13416722D02*
X13186848Y-13521484D01*
X13282086Y-13521484D02*
X13282086Y-13388150D01*
X13282086Y-13407198D02*
X13291610Y-13397674D01*
X13291610Y-13397674D02*
X13310658Y-13388150D01*
X13310658Y-13388150D02*
X13339229Y-13388150D01*
X13339229Y-13388150D02*
X13358277Y-13397674D01*
X13358277Y-13397674D02*
X13367801Y-13416722D01*
X13367801Y-13416722D02*
X13367801Y-13521484D01*
X13367801Y-13416722D02*
X13377324Y-13397674D01*
X13377324Y-13397674D02*
X13396372Y-13388150D01*
X13396372Y-13388150D02*
X13424943Y-13388150D01*
X13424943Y-13388150D02*
X13443991Y-13397674D01*
X13443991Y-13397674D02*
X13453515Y-13416722D01*
X13453515Y-13416722D02*
X13453515Y-13521484D01*
X13843991Y-13311960D02*
X13672563Y-13569103D01*
X14101134Y-13321484D02*
X14120182Y-13321484D01*
X14120182Y-13321484D02*
X14139229Y-13331008D01*
X14139229Y-13331008D02*
X14148753Y-13340531D01*
X14148753Y-13340531D02*
X14158277Y-13359579D01*
X14158277Y-13359579D02*
X14167801Y-13397674D01*
X14167801Y-13397674D02*
X14167801Y-13445293D01*
X14167801Y-13445293D02*
X14158277Y-13483388D01*
X14158277Y-13483388D02*
X14148753Y-13502436D01*
X14148753Y-13502436D02*
X14139229Y-13511960D01*
X14139229Y-13511960D02*
X14120182Y-13521484D01*
X14120182Y-13521484D02*
X14101134Y-13521484D01*
X14101134Y-13521484D02*
X14082086Y-13511960D01*
X14082086Y-13511960D02*
X14072563Y-13502436D01*
X14072563Y-13502436D02*
X14063039Y-13483388D01*
X14063039Y-13483388D02*
X14053515Y-13445293D01*
X14053515Y-13445293D02*
X14053515Y-13397674D01*
X14053515Y-13397674D02*
X14063039Y-13359579D01*
X14063039Y-13359579D02*
X14072563Y-13340531D01*
X14072563Y-13340531D02*
X14082086Y-13331008D01*
X14082086Y-13331008D02*
X14101134Y-13321484D01*
X14253515Y-13502436D02*
X14263039Y-13511960D01*
X14263039Y-13511960D02*
X14253515Y-13521484D01*
X14253515Y-13521484D02*
X14243991Y-13511960D01*
X14243991Y-13511960D02*
X14253515Y-13502436D01*
X14253515Y-13502436D02*
X14253515Y-13521484D01*
X14386848Y-13321484D02*
X14405896Y-13321484D01*
X14405896Y-13321484D02*
X14424944Y-13331008D01*
X14424944Y-13331008D02*
X14434467Y-13340531D01*
X14434467Y-13340531D02*
X14443991Y-13359579D01*
X14443991Y-13359579D02*
X14453515Y-13397674D01*
X14453515Y-13397674D02*
X14453515Y-13445293D01*
X14453515Y-13445293D02*
X14443991Y-13483388D01*
X14443991Y-13483388D02*
X14434467Y-13502436D01*
X14434467Y-13502436D02*
X14424944Y-13511960D01*
X14424944Y-13511960D02*
X14405896Y-13521484D01*
X14405896Y-13521484D02*
X14386848Y-13521484D01*
X14386848Y-13521484D02*
X14367801Y-13511960D01*
X14367801Y-13511960D02*
X14358277Y-13502436D01*
X14358277Y-13502436D02*
X14348753Y-13483388D01*
X14348753Y-13483388D02*
X14339229Y-13445293D01*
X14339229Y-13445293D02*
X14339229Y-13397674D01*
X14339229Y-13397674D02*
X14348753Y-13359579D01*
X14348753Y-13359579D02*
X14358277Y-13340531D01*
X14358277Y-13340531D02*
X14367801Y-13331008D01*
X14367801Y-13331008D02*
X14386848Y-13321484D01*
X14529706Y-13340531D02*
X14539229Y-13331008D01*
X14539229Y-13331008D02*
X14558277Y-13321484D01*
X14558277Y-13321484D02*
X14605896Y-13321484D01*
X14605896Y-13321484D02*
X14624944Y-13331008D01*
X14624944Y-13331008D02*
X14634467Y-13340531D01*
X14634467Y-13340531D02*
X14643991Y-13359579D01*
X14643991Y-13359579D02*
X14643991Y-13378627D01*
X14643991Y-13378627D02*
X14634467Y-13407198D01*
X14634467Y-13407198D02*
X14520182Y-13521484D01*
X14520182Y-13521484D02*
X14643991Y-13521484D01*
X14824944Y-13321484D02*
X14729706Y-13321484D01*
X14729706Y-13321484D02*
X14720182Y-13416722D01*
X14720182Y-13416722D02*
X14729706Y-13407198D01*
X14729706Y-13407198D02*
X14748753Y-13397674D01*
X14748753Y-13397674D02*
X14796372Y-13397674D01*
X14796372Y-13397674D02*
X14815420Y-13407198D01*
X14815420Y-13407198D02*
X14824944Y-13416722D01*
X14824944Y-13416722D02*
X14834467Y-13435769D01*
X14834467Y-13435769D02*
X14834467Y-13483388D01*
X14834467Y-13483388D02*
X14824944Y-13502436D01*
X14824944Y-13502436D02*
X14815420Y-13511960D01*
X14815420Y-13511960D02*
X14796372Y-13521484D01*
X14796372Y-13521484D02*
X14748753Y-13521484D01*
X14748753Y-13521484D02*
X14729706Y-13511960D01*
X14729706Y-13511960D02*
X14720182Y-13502436D01*
X15005896Y-13321484D02*
X14967801Y-13321484D01*
X14967801Y-13321484D02*
X14948753Y-13331008D01*
X14948753Y-13331008D02*
X14939229Y-13340531D01*
X14939229Y-13340531D02*
X14920182Y-13369103D01*
X14920182Y-13369103D02*
X14910658Y-13407198D01*
X14910658Y-13407198D02*
X14910658Y-13483388D01*
X14910658Y-13483388D02*
X14920182Y-13502436D01*
X14920182Y-13502436D02*
X14929706Y-13511960D01*
X14929706Y-13511960D02*
X14948753Y-13521484D01*
X14948753Y-13521484D02*
X14986848Y-13521484D01*
X14986848Y-13521484D02*
X15005896Y-13511960D01*
X15005896Y-13511960D02*
X15015420Y-13502436D01*
X15015420Y-13502436D02*
X15024944Y-13483388D01*
X15024944Y-13483388D02*
X15024944Y-13435769D01*
X15024944Y-13435769D02*
X15015420Y-13416722D01*
X15015420Y-13416722D02*
X15005896Y-13407198D01*
X15005896Y-13407198D02*
X14986848Y-13397674D01*
X14986848Y-13397674D02*
X14948753Y-13397674D01*
X14948753Y-13397674D02*
X14929706Y-13407198D01*
X14929706Y-13407198D02*
X14920182Y-13416722D01*
X14920182Y-13416722D02*
X14910658Y-13435769D01*
X15101134Y-13321484D02*
X15101134Y-13359579D01*
X15177325Y-13321484D02*
X15177325Y-13359579D01*
X15472563Y-13597674D02*
X15463039Y-13588150D01*
X15463039Y-13588150D02*
X15443991Y-13559579D01*
X15443991Y-13559579D02*
X15434468Y-13540531D01*
X15434468Y-13540531D02*
X15424944Y-13511960D01*
X15424944Y-13511960D02*
X15415420Y-13464341D01*
X15415420Y-13464341D02*
X15415420Y-13426246D01*
X15415420Y-13426246D02*
X15424944Y-13378627D01*
X15424944Y-13378627D02*
X15434468Y-13350055D01*
X15434468Y-13350055D02*
X15443991Y-13331008D01*
X15443991Y-13331008D02*
X15463039Y-13302436D01*
X15463039Y-13302436D02*
X15472563Y-13292912D01*
X15539229Y-13340531D02*
X15548753Y-13331008D01*
X15548753Y-13331008D02*
X15567801Y-13321484D01*
X15567801Y-13321484D02*
X15615420Y-13321484D01*
X15615420Y-13321484D02*
X15634468Y-13331008D01*
X15634468Y-13331008D02*
X15643991Y-13340531D01*
X15643991Y-13340531D02*
X15653515Y-13359579D01*
X15653515Y-13359579D02*
X15653515Y-13378627D01*
X15653515Y-13378627D02*
X15643991Y-13407198D01*
X15643991Y-13407198D02*
X15529706Y-13521484D01*
X15529706Y-13521484D02*
X15653515Y-13521484D01*
X15891610Y-13521484D02*
X15891610Y-13321484D01*
X15977325Y-13521484D02*
X15977325Y-13416722D01*
X15977325Y-13416722D02*
X15967801Y-13397674D01*
X15967801Y-13397674D02*
X15948753Y-13388150D01*
X15948753Y-13388150D02*
X15920182Y-13388150D01*
X15920182Y-13388150D02*
X15901134Y-13397674D01*
X15901134Y-13397674D02*
X15891610Y-13407198D01*
X16101134Y-13521484D02*
X16082087Y-13511960D01*
X16082087Y-13511960D02*
X16072563Y-13502436D01*
X16072563Y-13502436D02*
X16063039Y-13483388D01*
X16063039Y-13483388D02*
X16063039Y-13426246D01*
X16063039Y-13426246D02*
X16072563Y-13407198D01*
X16072563Y-13407198D02*
X16082087Y-13397674D01*
X16082087Y-13397674D02*
X16101134Y-13388150D01*
X16101134Y-13388150D02*
X16129706Y-13388150D01*
X16129706Y-13388150D02*
X16148753Y-13397674D01*
X16148753Y-13397674D02*
X16158277Y-13407198D01*
X16158277Y-13407198D02*
X16167801Y-13426246D01*
X16167801Y-13426246D02*
X16167801Y-13483388D01*
X16167801Y-13483388D02*
X16158277Y-13502436D01*
X16158277Y-13502436D02*
X16148753Y-13511960D01*
X16148753Y-13511960D02*
X16129706Y-13521484D01*
X16129706Y-13521484D02*
X16101134Y-13521484D01*
X16282087Y-13521484D02*
X16263039Y-13511960D01*
X16263039Y-13511960D02*
X16253515Y-13492912D01*
X16253515Y-13492912D02*
X16253515Y-13321484D01*
X16434468Y-13511960D02*
X16415420Y-13521484D01*
X16415420Y-13521484D02*
X16377325Y-13521484D01*
X16377325Y-13521484D02*
X16358277Y-13511960D01*
X16358277Y-13511960D02*
X16348753Y-13492912D01*
X16348753Y-13492912D02*
X16348753Y-13416722D01*
X16348753Y-13416722D02*
X16358277Y-13397674D01*
X16358277Y-13397674D02*
X16377325Y-13388150D01*
X16377325Y-13388150D02*
X16415420Y-13388150D01*
X16415420Y-13388150D02*
X16434468Y-13397674D01*
X16434468Y-13397674D02*
X16443991Y-13416722D01*
X16443991Y-13416722D02*
X16443991Y-13435769D01*
X16443991Y-13435769D02*
X16348753Y-13454817D01*
X16520182Y-13511960D02*
X16539230Y-13521484D01*
X16539230Y-13521484D02*
X16577325Y-13521484D01*
X16577325Y-13521484D02*
X16596372Y-13511960D01*
X16596372Y-13511960D02*
X16605896Y-13492912D01*
X16605896Y-13492912D02*
X16605896Y-13483388D01*
X16605896Y-13483388D02*
X16596372Y-13464341D01*
X16596372Y-13464341D02*
X16577325Y-13454817D01*
X16577325Y-13454817D02*
X16548753Y-13454817D01*
X16548753Y-13454817D02*
X16529706Y-13445293D01*
X16529706Y-13445293D02*
X16520182Y-13426246D01*
X16520182Y-13426246D02*
X16520182Y-13416722D01*
X16520182Y-13416722D02*
X16529706Y-13397674D01*
X16529706Y-13397674D02*
X16548753Y-13388150D01*
X16548753Y-13388150D02*
X16577325Y-13388150D01*
X16577325Y-13388150D02*
X16596372Y-13397674D01*
X16672563Y-13597674D02*
X16682087Y-13588150D01*
X16682087Y-13588150D02*
X16701134Y-13559579D01*
X16701134Y-13559579D02*
X16710658Y-13540531D01*
X16710658Y-13540531D02*
X16720182Y-13511960D01*
X16720182Y-13511960D02*
X16729706Y-13464341D01*
X16729706Y-13464341D02*
X16729706Y-13426246D01*
X16729706Y-13426246D02*
X16720182Y-13378627D01*
X16720182Y-13378627D02*
X16710658Y-13350055D01*
X16710658Y-13350055D02*
X16701134Y-13331008D01*
X16701134Y-13331008D02*
X16682087Y-13302436D01*
X16682087Y-13302436D02*
X16672563Y-13292912D01*
X17034468Y-13597674D02*
X17024944Y-13588150D01*
X17024944Y-13588150D02*
X17005896Y-13559579D01*
X17005896Y-13559579D02*
X16996373Y-13540531D01*
X16996373Y-13540531D02*
X16986849Y-13511960D01*
X16986849Y-13511960D02*
X16977325Y-13464341D01*
X16977325Y-13464341D02*
X16977325Y-13426246D01*
X16977325Y-13426246D02*
X16986849Y-13378627D01*
X16986849Y-13378627D02*
X16996373Y-13350055D01*
X16996373Y-13350055D02*
X17005896Y-13331008D01*
X17005896Y-13331008D02*
X17024944Y-13302436D01*
X17024944Y-13302436D02*
X17034468Y-13292912D01*
X17110658Y-13388150D02*
X17110658Y-13521484D01*
X17110658Y-13407198D02*
X17120182Y-13397674D01*
X17120182Y-13397674D02*
X17139230Y-13388150D01*
X17139230Y-13388150D02*
X17167801Y-13388150D01*
X17167801Y-13388150D02*
X17186849Y-13397674D01*
X17186849Y-13397674D02*
X17196373Y-13416722D01*
X17196373Y-13416722D02*
X17196373Y-13521484D01*
X17320182Y-13521484D02*
X17301134Y-13511960D01*
X17301134Y-13511960D02*
X17291611Y-13502436D01*
X17291611Y-13502436D02*
X17282087Y-13483388D01*
X17282087Y-13483388D02*
X17282087Y-13426246D01*
X17282087Y-13426246D02*
X17291611Y-13407198D01*
X17291611Y-13407198D02*
X17301134Y-13397674D01*
X17301134Y-13397674D02*
X17320182Y-13388150D01*
X17320182Y-13388150D02*
X17348754Y-13388150D01*
X17348754Y-13388150D02*
X17367801Y-13397674D01*
X17367801Y-13397674D02*
X17377325Y-13407198D01*
X17377325Y-13407198D02*
X17386849Y-13426246D01*
X17386849Y-13426246D02*
X17386849Y-13483388D01*
X17386849Y-13483388D02*
X17377325Y-13502436D01*
X17377325Y-13502436D02*
X17367801Y-13511960D01*
X17367801Y-13511960D02*
X17348754Y-13521484D01*
X17348754Y-13521484D02*
X17320182Y-13521484D01*
X17443992Y-13388150D02*
X17520182Y-13388150D01*
X17472563Y-13321484D02*
X17472563Y-13492912D01*
X17472563Y-13492912D02*
X17482087Y-13511960D01*
X17482087Y-13511960D02*
X17501134Y-13521484D01*
X17501134Y-13521484D02*
X17520182Y-13521484D01*
X17739230Y-13388150D02*
X17739230Y-13588150D01*
X17739230Y-13397674D02*
X17758277Y-13388150D01*
X17758277Y-13388150D02*
X17796373Y-13388150D01*
X17796373Y-13388150D02*
X17815420Y-13397674D01*
X17815420Y-13397674D02*
X17824944Y-13407198D01*
X17824944Y-13407198D02*
X17834468Y-13426246D01*
X17834468Y-13426246D02*
X17834468Y-13483388D01*
X17834468Y-13483388D02*
X17824944Y-13502436D01*
X17824944Y-13502436D02*
X17815420Y-13511960D01*
X17815420Y-13511960D02*
X17796373Y-13521484D01*
X17796373Y-13521484D02*
X17758277Y-13521484D01*
X17758277Y-13521484D02*
X17739230Y-13511960D01*
X17948754Y-13521484D02*
X17929706Y-13511960D01*
X17929706Y-13511960D02*
X17920182Y-13492912D01*
X17920182Y-13492912D02*
X17920182Y-13321484D01*
X18110658Y-13521484D02*
X18110658Y-13416722D01*
X18110658Y-13416722D02*
X18101135Y-13397674D01*
X18101135Y-13397674D02*
X18082087Y-13388150D01*
X18082087Y-13388150D02*
X18043992Y-13388150D01*
X18043992Y-13388150D02*
X18024944Y-13397674D01*
X18110658Y-13511960D02*
X18091611Y-13521484D01*
X18091611Y-13521484D02*
X18043992Y-13521484D01*
X18043992Y-13521484D02*
X18024944Y-13511960D01*
X18024944Y-13511960D02*
X18015420Y-13492912D01*
X18015420Y-13492912D02*
X18015420Y-13473865D01*
X18015420Y-13473865D02*
X18024944Y-13454817D01*
X18024944Y-13454817D02*
X18043992Y-13445293D01*
X18043992Y-13445293D02*
X18091611Y-13445293D01*
X18091611Y-13445293D02*
X18110658Y-13435769D01*
X18177325Y-13388150D02*
X18253515Y-13388150D01*
X18205896Y-13321484D02*
X18205896Y-13492912D01*
X18205896Y-13492912D02*
X18215420Y-13511960D01*
X18215420Y-13511960D02*
X18234468Y-13521484D01*
X18234468Y-13521484D02*
X18253515Y-13521484D01*
X18396373Y-13511960D02*
X18377325Y-13521484D01*
X18377325Y-13521484D02*
X18339230Y-13521484D01*
X18339230Y-13521484D02*
X18320182Y-13511960D01*
X18320182Y-13511960D02*
X18310658Y-13492912D01*
X18310658Y-13492912D02*
X18310658Y-13416722D01*
X18310658Y-13416722D02*
X18320182Y-13397674D01*
X18320182Y-13397674D02*
X18339230Y-13388150D01*
X18339230Y-13388150D02*
X18377325Y-13388150D01*
X18377325Y-13388150D02*
X18396373Y-13397674D01*
X18396373Y-13397674D02*
X18405896Y-13416722D01*
X18405896Y-13416722D02*
X18405896Y-13435769D01*
X18405896Y-13435769D02*
X18310658Y-13454817D01*
X18577325Y-13521484D02*
X18577325Y-13321484D01*
X18577325Y-13511960D02*
X18558277Y-13521484D01*
X18558277Y-13521484D02*
X18520182Y-13521484D01*
X18520182Y-13521484D02*
X18501135Y-13511960D01*
X18501135Y-13511960D02*
X18491611Y-13502436D01*
X18491611Y-13502436D02*
X18482087Y-13483388D01*
X18482087Y-13483388D02*
X18482087Y-13426246D01*
X18482087Y-13426246D02*
X18491611Y-13407198D01*
X18491611Y-13407198D02*
X18501135Y-13397674D01*
X18501135Y-13397674D02*
X18520182Y-13388150D01*
X18520182Y-13388150D02*
X18558277Y-13388150D01*
X18558277Y-13388150D02*
X18577325Y-13397674D01*
X18653516Y-13597674D02*
X18663039Y-13588150D01*
X18663039Y-13588150D02*
X18682087Y-13559579D01*
X18682087Y-13559579D02*
X18691611Y-13540531D01*
X18691611Y-13540531D02*
X18701135Y-13511960D01*
X18701135Y-13511960D02*
X18710658Y-13464341D01*
X18710658Y-13464341D02*
X18710658Y-13426246D01*
X18710658Y-13426246D02*
X18701135Y-13378627D01*
X18701135Y-13378627D02*
X18691611Y-13350055D01*
X18691611Y-13350055D02*
X18682087Y-13331008D01*
X18682087Y-13331008D02*
X18663039Y-13302436D01*
X18663039Y-13302436D02*
X18653516Y-13292912D01*
X11897500Y-13694000D02*
G75*
G02*
X11697500Y-13694000I-100000J0D01*
G01*
X11697500Y-13694000D02*
G75*
G02*
X11897500Y-13694000I100000J0D01*
G01*
X12148753Y-13604531D02*
X12158277Y-13595008D01*
X12158277Y-13595008D02*
X12177324Y-13585484D01*
X12177324Y-13585484D02*
X12224943Y-13585484D01*
X12224943Y-13585484D02*
X12243991Y-13595008D01*
X12243991Y-13595008D02*
X12253515Y-13604531D01*
X12253515Y-13604531D02*
X12263039Y-13623579D01*
X12263039Y-13623579D02*
X12263039Y-13642627D01*
X12263039Y-13642627D02*
X12253515Y-13671198D01*
X12253515Y-13671198D02*
X12139229Y-13785484D01*
X12139229Y-13785484D02*
X12263039Y-13785484D01*
X12348753Y-13766436D02*
X12358277Y-13775960D01*
X12358277Y-13775960D02*
X12348753Y-13785484D01*
X12348753Y-13785484D02*
X12339229Y-13775960D01*
X12339229Y-13775960D02*
X12348753Y-13766436D01*
X12348753Y-13766436D02*
X12348753Y-13785484D01*
X12434467Y-13604531D02*
X12443991Y-13595008D01*
X12443991Y-13595008D02*
X12463039Y-13585484D01*
X12463039Y-13585484D02*
X12510658Y-13585484D01*
X12510658Y-13585484D02*
X12529705Y-13595008D01*
X12529705Y-13595008D02*
X12539229Y-13604531D01*
X12539229Y-13604531D02*
X12548753Y-13623579D01*
X12548753Y-13623579D02*
X12548753Y-13642627D01*
X12548753Y-13642627D02*
X12539229Y-13671198D01*
X12539229Y-13671198D02*
X12424943Y-13785484D01*
X12424943Y-13785484D02*
X12548753Y-13785484D01*
X12672562Y-13585484D02*
X12691610Y-13585484D01*
X12691610Y-13585484D02*
X12710658Y-13595008D01*
X12710658Y-13595008D02*
X12720182Y-13604531D01*
X12720182Y-13604531D02*
X12729705Y-13623579D01*
X12729705Y-13623579D02*
X12739229Y-13661674D01*
X12739229Y-13661674D02*
X12739229Y-13709293D01*
X12739229Y-13709293D02*
X12729705Y-13747388D01*
X12729705Y-13747388D02*
X12720182Y-13766436D01*
X12720182Y-13766436D02*
X12710658Y-13775960D01*
X12710658Y-13775960D02*
X12691610Y-13785484D01*
X12691610Y-13785484D02*
X12672562Y-13785484D01*
X12672562Y-13785484D02*
X12653515Y-13775960D01*
X12653515Y-13775960D02*
X12643991Y-13766436D01*
X12643991Y-13766436D02*
X12634467Y-13747388D01*
X12634467Y-13747388D02*
X12624943Y-13709293D01*
X12624943Y-13709293D02*
X12624943Y-13661674D01*
X12624943Y-13661674D02*
X12634467Y-13623579D01*
X12634467Y-13623579D02*
X12643991Y-13604531D01*
X12643991Y-13604531D02*
X12653515Y-13595008D01*
X12653515Y-13595008D02*
X12672562Y-13585484D01*
X12863039Y-13585484D02*
X12882086Y-13585484D01*
X12882086Y-13585484D02*
X12901134Y-13595008D01*
X12901134Y-13595008D02*
X12910658Y-13604531D01*
X12910658Y-13604531D02*
X12920182Y-13623579D01*
X12920182Y-13623579D02*
X12929705Y-13661674D01*
X12929705Y-13661674D02*
X12929705Y-13709293D01*
X12929705Y-13709293D02*
X12920182Y-13747388D01*
X12920182Y-13747388D02*
X12910658Y-13766436D01*
X12910658Y-13766436D02*
X12901134Y-13775960D01*
X12901134Y-13775960D02*
X12882086Y-13785484D01*
X12882086Y-13785484D02*
X12863039Y-13785484D01*
X12863039Y-13785484D02*
X12843991Y-13775960D01*
X12843991Y-13775960D02*
X12834467Y-13766436D01*
X12834467Y-13766436D02*
X12824943Y-13747388D01*
X12824943Y-13747388D02*
X12815420Y-13709293D01*
X12815420Y-13709293D02*
X12815420Y-13661674D01*
X12815420Y-13661674D02*
X12824943Y-13623579D01*
X12824943Y-13623579D02*
X12834467Y-13604531D01*
X12834467Y-13604531D02*
X12843991Y-13595008D01*
X12843991Y-13595008D02*
X12863039Y-13585484D01*
X13015420Y-13785484D02*
X13015420Y-13652150D01*
X13015420Y-13671198D02*
X13024943Y-13661674D01*
X13024943Y-13661674D02*
X13043991Y-13652150D01*
X13043991Y-13652150D02*
X13072563Y-13652150D01*
X13072563Y-13652150D02*
X13091610Y-13661674D01*
X13091610Y-13661674D02*
X13101134Y-13680722D01*
X13101134Y-13680722D02*
X13101134Y-13785484D01*
X13101134Y-13680722D02*
X13110658Y-13661674D01*
X13110658Y-13661674D02*
X13129705Y-13652150D01*
X13129705Y-13652150D02*
X13158277Y-13652150D01*
X13158277Y-13652150D02*
X13177324Y-13661674D01*
X13177324Y-13661674D02*
X13186848Y-13680722D01*
X13186848Y-13680722D02*
X13186848Y-13785484D01*
X13282086Y-13785484D02*
X13282086Y-13652150D01*
X13282086Y-13671198D02*
X13291610Y-13661674D01*
X13291610Y-13661674D02*
X13310658Y-13652150D01*
X13310658Y-13652150D02*
X13339229Y-13652150D01*
X13339229Y-13652150D02*
X13358277Y-13661674D01*
X13358277Y-13661674D02*
X13367801Y-13680722D01*
X13367801Y-13680722D02*
X13367801Y-13785484D01*
X13367801Y-13680722D02*
X13377324Y-13661674D01*
X13377324Y-13661674D02*
X13396372Y-13652150D01*
X13396372Y-13652150D02*
X13424943Y-13652150D01*
X13424943Y-13652150D02*
X13443991Y-13661674D01*
X13443991Y-13661674D02*
X13453515Y-13680722D01*
X13453515Y-13680722D02*
X13453515Y-13785484D01*
X13843991Y-13575960D02*
X13672563Y-13833103D01*
X14101134Y-13585484D02*
X14120182Y-13585484D01*
X14120182Y-13585484D02*
X14139229Y-13595008D01*
X14139229Y-13595008D02*
X14148753Y-13604531D01*
X14148753Y-13604531D02*
X14158277Y-13623579D01*
X14158277Y-13623579D02*
X14167801Y-13661674D01*
X14167801Y-13661674D02*
X14167801Y-13709293D01*
X14167801Y-13709293D02*
X14158277Y-13747388D01*
X14158277Y-13747388D02*
X14148753Y-13766436D01*
X14148753Y-13766436D02*
X14139229Y-13775960D01*
X14139229Y-13775960D02*
X14120182Y-13785484D01*
X14120182Y-13785484D02*
X14101134Y-13785484D01*
X14101134Y-13785484D02*
X14082086Y-13775960D01*
X14082086Y-13775960D02*
X14072563Y-13766436D01*
X14072563Y-13766436D02*
X14063039Y-13747388D01*
X14063039Y-13747388D02*
X14053515Y-13709293D01*
X14053515Y-13709293D02*
X14053515Y-13661674D01*
X14053515Y-13661674D02*
X14063039Y-13623579D01*
X14063039Y-13623579D02*
X14072563Y-13604531D01*
X14072563Y-13604531D02*
X14082086Y-13595008D01*
X14082086Y-13595008D02*
X14101134Y-13585484D01*
X14253515Y-13766436D02*
X14263039Y-13775960D01*
X14263039Y-13775960D02*
X14253515Y-13785484D01*
X14253515Y-13785484D02*
X14243991Y-13775960D01*
X14243991Y-13775960D02*
X14253515Y-13766436D01*
X14253515Y-13766436D02*
X14253515Y-13785484D01*
X14386848Y-13585484D02*
X14405896Y-13585484D01*
X14405896Y-13585484D02*
X14424944Y-13595008D01*
X14424944Y-13595008D02*
X14434467Y-13604531D01*
X14434467Y-13604531D02*
X14443991Y-13623579D01*
X14443991Y-13623579D02*
X14453515Y-13661674D01*
X14453515Y-13661674D02*
X14453515Y-13709293D01*
X14453515Y-13709293D02*
X14443991Y-13747388D01*
X14443991Y-13747388D02*
X14434467Y-13766436D01*
X14434467Y-13766436D02*
X14424944Y-13775960D01*
X14424944Y-13775960D02*
X14405896Y-13785484D01*
X14405896Y-13785484D02*
X14386848Y-13785484D01*
X14386848Y-13785484D02*
X14367801Y-13775960D01*
X14367801Y-13775960D02*
X14358277Y-13766436D01*
X14358277Y-13766436D02*
X14348753Y-13747388D01*
X14348753Y-13747388D02*
X14339229Y-13709293D01*
X14339229Y-13709293D02*
X14339229Y-13661674D01*
X14339229Y-13661674D02*
X14348753Y-13623579D01*
X14348753Y-13623579D02*
X14358277Y-13604531D01*
X14358277Y-13604531D02*
X14367801Y-13595008D01*
X14367801Y-13595008D02*
X14386848Y-13585484D01*
X14567801Y-13671198D02*
X14548753Y-13661674D01*
X14548753Y-13661674D02*
X14539229Y-13652150D01*
X14539229Y-13652150D02*
X14529706Y-13633103D01*
X14529706Y-13633103D02*
X14529706Y-13623579D01*
X14529706Y-13623579D02*
X14539229Y-13604531D01*
X14539229Y-13604531D02*
X14548753Y-13595008D01*
X14548753Y-13595008D02*
X14567801Y-13585484D01*
X14567801Y-13585484D02*
X14605896Y-13585484D01*
X14605896Y-13585484D02*
X14624944Y-13595008D01*
X14624944Y-13595008D02*
X14634467Y-13604531D01*
X14634467Y-13604531D02*
X14643991Y-13623579D01*
X14643991Y-13623579D02*
X14643991Y-13633103D01*
X14643991Y-13633103D02*
X14634467Y-13652150D01*
X14634467Y-13652150D02*
X14624944Y-13661674D01*
X14624944Y-13661674D02*
X14605896Y-13671198D01*
X14605896Y-13671198D02*
X14567801Y-13671198D01*
X14567801Y-13671198D02*
X14548753Y-13680722D01*
X14548753Y-13680722D02*
X14539229Y-13690246D01*
X14539229Y-13690246D02*
X14529706Y-13709293D01*
X14529706Y-13709293D02*
X14529706Y-13747388D01*
X14529706Y-13747388D02*
X14539229Y-13766436D01*
X14539229Y-13766436D02*
X14548753Y-13775960D01*
X14548753Y-13775960D02*
X14567801Y-13785484D01*
X14567801Y-13785484D02*
X14605896Y-13785484D01*
X14605896Y-13785484D02*
X14624944Y-13775960D01*
X14624944Y-13775960D02*
X14634467Y-13766436D01*
X14634467Y-13766436D02*
X14643991Y-13747388D01*
X14643991Y-13747388D02*
X14643991Y-13709293D01*
X14643991Y-13709293D02*
X14634467Y-13690246D01*
X14634467Y-13690246D02*
X14624944Y-13680722D01*
X14624944Y-13680722D02*
X14605896Y-13671198D01*
X14815420Y-13585484D02*
X14777325Y-13585484D01*
X14777325Y-13585484D02*
X14758277Y-13595008D01*
X14758277Y-13595008D02*
X14748753Y-13604531D01*
X14748753Y-13604531D02*
X14729706Y-13633103D01*
X14729706Y-13633103D02*
X14720182Y-13671198D01*
X14720182Y-13671198D02*
X14720182Y-13747388D01*
X14720182Y-13747388D02*
X14729706Y-13766436D01*
X14729706Y-13766436D02*
X14739229Y-13775960D01*
X14739229Y-13775960D02*
X14758277Y-13785484D01*
X14758277Y-13785484D02*
X14796372Y-13785484D01*
X14796372Y-13785484D02*
X14815420Y-13775960D01*
X14815420Y-13775960D02*
X14824944Y-13766436D01*
X14824944Y-13766436D02*
X14834467Y-13747388D01*
X14834467Y-13747388D02*
X14834467Y-13699769D01*
X14834467Y-13699769D02*
X14824944Y-13680722D01*
X14824944Y-13680722D02*
X14815420Y-13671198D01*
X14815420Y-13671198D02*
X14796372Y-13661674D01*
X14796372Y-13661674D02*
X14758277Y-13661674D01*
X14758277Y-13661674D02*
X14739229Y-13671198D01*
X14739229Y-13671198D02*
X14729706Y-13680722D01*
X14729706Y-13680722D02*
X14720182Y-13699769D01*
X15005896Y-13585484D02*
X14967801Y-13585484D01*
X14967801Y-13585484D02*
X14948753Y-13595008D01*
X14948753Y-13595008D02*
X14939229Y-13604531D01*
X14939229Y-13604531D02*
X14920182Y-13633103D01*
X14920182Y-13633103D02*
X14910658Y-13671198D01*
X14910658Y-13671198D02*
X14910658Y-13747388D01*
X14910658Y-13747388D02*
X14920182Y-13766436D01*
X14920182Y-13766436D02*
X14929706Y-13775960D01*
X14929706Y-13775960D02*
X14948753Y-13785484D01*
X14948753Y-13785484D02*
X14986848Y-13785484D01*
X14986848Y-13785484D02*
X15005896Y-13775960D01*
X15005896Y-13775960D02*
X15015420Y-13766436D01*
X15015420Y-13766436D02*
X15024944Y-13747388D01*
X15024944Y-13747388D02*
X15024944Y-13699769D01*
X15024944Y-13699769D02*
X15015420Y-13680722D01*
X15015420Y-13680722D02*
X15005896Y-13671198D01*
X15005896Y-13671198D02*
X14986848Y-13661674D01*
X14986848Y-13661674D02*
X14948753Y-13661674D01*
X14948753Y-13661674D02*
X14929706Y-13671198D01*
X14929706Y-13671198D02*
X14920182Y-13680722D01*
X14920182Y-13680722D02*
X14910658Y-13699769D01*
X15101134Y-13585484D02*
X15101134Y-13623579D01*
X15177325Y-13585484D02*
X15177325Y-13623579D01*
X15472563Y-13861674D02*
X15463039Y-13852150D01*
X15463039Y-13852150D02*
X15443991Y-13823579D01*
X15443991Y-13823579D02*
X15434468Y-13804531D01*
X15434468Y-13804531D02*
X15424944Y-13775960D01*
X15424944Y-13775960D02*
X15415420Y-13728341D01*
X15415420Y-13728341D02*
X15415420Y-13690246D01*
X15415420Y-13690246D02*
X15424944Y-13642627D01*
X15424944Y-13642627D02*
X15434468Y-13614055D01*
X15434468Y-13614055D02*
X15443991Y-13595008D01*
X15443991Y-13595008D02*
X15463039Y-13566436D01*
X15463039Y-13566436D02*
X15472563Y-13556912D01*
X15529706Y-13585484D02*
X15653515Y-13585484D01*
X15653515Y-13585484D02*
X15586848Y-13661674D01*
X15586848Y-13661674D02*
X15615420Y-13661674D01*
X15615420Y-13661674D02*
X15634468Y-13671198D01*
X15634468Y-13671198D02*
X15643991Y-13680722D01*
X15643991Y-13680722D02*
X15653515Y-13699769D01*
X15653515Y-13699769D02*
X15653515Y-13747388D01*
X15653515Y-13747388D02*
X15643991Y-13766436D01*
X15643991Y-13766436D02*
X15634468Y-13775960D01*
X15634468Y-13775960D02*
X15615420Y-13785484D01*
X15615420Y-13785484D02*
X15558277Y-13785484D01*
X15558277Y-13785484D02*
X15539229Y-13775960D01*
X15539229Y-13775960D02*
X15529706Y-13766436D01*
X15891610Y-13785484D02*
X15891610Y-13585484D01*
X15977325Y-13785484D02*
X15977325Y-13680722D01*
X15977325Y-13680722D02*
X15967801Y-13661674D01*
X15967801Y-13661674D02*
X15948753Y-13652150D01*
X15948753Y-13652150D02*
X15920182Y-13652150D01*
X15920182Y-13652150D02*
X15901134Y-13661674D01*
X15901134Y-13661674D02*
X15891610Y-13671198D01*
X16101134Y-13785484D02*
X16082087Y-13775960D01*
X16082087Y-13775960D02*
X16072563Y-13766436D01*
X16072563Y-13766436D02*
X16063039Y-13747388D01*
X16063039Y-13747388D02*
X16063039Y-13690246D01*
X16063039Y-13690246D02*
X16072563Y-13671198D01*
X16072563Y-13671198D02*
X16082087Y-13661674D01*
X16082087Y-13661674D02*
X16101134Y-13652150D01*
X16101134Y-13652150D02*
X16129706Y-13652150D01*
X16129706Y-13652150D02*
X16148753Y-13661674D01*
X16148753Y-13661674D02*
X16158277Y-13671198D01*
X16158277Y-13671198D02*
X16167801Y-13690246D01*
X16167801Y-13690246D02*
X16167801Y-13747388D01*
X16167801Y-13747388D02*
X16158277Y-13766436D01*
X16158277Y-13766436D02*
X16148753Y-13775960D01*
X16148753Y-13775960D02*
X16129706Y-13785484D01*
X16129706Y-13785484D02*
X16101134Y-13785484D01*
X16282087Y-13785484D02*
X16263039Y-13775960D01*
X16263039Y-13775960D02*
X16253515Y-13756912D01*
X16253515Y-13756912D02*
X16253515Y-13585484D01*
X16434468Y-13775960D02*
X16415420Y-13785484D01*
X16415420Y-13785484D02*
X16377325Y-13785484D01*
X16377325Y-13785484D02*
X16358277Y-13775960D01*
X16358277Y-13775960D02*
X16348753Y-13756912D01*
X16348753Y-13756912D02*
X16348753Y-13680722D01*
X16348753Y-13680722D02*
X16358277Y-13661674D01*
X16358277Y-13661674D02*
X16377325Y-13652150D01*
X16377325Y-13652150D02*
X16415420Y-13652150D01*
X16415420Y-13652150D02*
X16434468Y-13661674D01*
X16434468Y-13661674D02*
X16443991Y-13680722D01*
X16443991Y-13680722D02*
X16443991Y-13699769D01*
X16443991Y-13699769D02*
X16348753Y-13718817D01*
X16520182Y-13775960D02*
X16539230Y-13785484D01*
X16539230Y-13785484D02*
X16577325Y-13785484D01*
X16577325Y-13785484D02*
X16596372Y-13775960D01*
X16596372Y-13775960D02*
X16605896Y-13756912D01*
X16605896Y-13756912D02*
X16605896Y-13747388D01*
X16605896Y-13747388D02*
X16596372Y-13728341D01*
X16596372Y-13728341D02*
X16577325Y-13718817D01*
X16577325Y-13718817D02*
X16548753Y-13718817D01*
X16548753Y-13718817D02*
X16529706Y-13709293D01*
X16529706Y-13709293D02*
X16520182Y-13690246D01*
X16520182Y-13690246D02*
X16520182Y-13680722D01*
X16520182Y-13680722D02*
X16529706Y-13661674D01*
X16529706Y-13661674D02*
X16548753Y-13652150D01*
X16548753Y-13652150D02*
X16577325Y-13652150D01*
X16577325Y-13652150D02*
X16596372Y-13661674D01*
X16672563Y-13861674D02*
X16682087Y-13852150D01*
X16682087Y-13852150D02*
X16701134Y-13823579D01*
X16701134Y-13823579D02*
X16710658Y-13804531D01*
X16710658Y-13804531D02*
X16720182Y-13775960D01*
X16720182Y-13775960D02*
X16729706Y-13728341D01*
X16729706Y-13728341D02*
X16729706Y-13690246D01*
X16729706Y-13690246D02*
X16720182Y-13642627D01*
X16720182Y-13642627D02*
X16710658Y-13614055D01*
X16710658Y-13614055D02*
X16701134Y-13595008D01*
X16701134Y-13595008D02*
X16682087Y-13566436D01*
X16682087Y-13566436D02*
X16672563Y-13556912D01*
X17034468Y-13861674D02*
X17024944Y-13852150D01*
X17024944Y-13852150D02*
X17005896Y-13823579D01*
X17005896Y-13823579D02*
X16996373Y-13804531D01*
X16996373Y-13804531D02*
X16986849Y-13775960D01*
X16986849Y-13775960D02*
X16977325Y-13728341D01*
X16977325Y-13728341D02*
X16977325Y-13690246D01*
X16977325Y-13690246D02*
X16986849Y-13642627D01*
X16986849Y-13642627D02*
X16996373Y-13614055D01*
X16996373Y-13614055D02*
X17005896Y-13595008D01*
X17005896Y-13595008D02*
X17024944Y-13566436D01*
X17024944Y-13566436D02*
X17034468Y-13556912D01*
X17110658Y-13652150D02*
X17110658Y-13785484D01*
X17110658Y-13671198D02*
X17120182Y-13661674D01*
X17120182Y-13661674D02*
X17139230Y-13652150D01*
X17139230Y-13652150D02*
X17167801Y-13652150D01*
X17167801Y-13652150D02*
X17186849Y-13661674D01*
X17186849Y-13661674D02*
X17196373Y-13680722D01*
X17196373Y-13680722D02*
X17196373Y-13785484D01*
X17320182Y-13785484D02*
X17301134Y-13775960D01*
X17301134Y-13775960D02*
X17291611Y-13766436D01*
X17291611Y-13766436D02*
X17282087Y-13747388D01*
X17282087Y-13747388D02*
X17282087Y-13690246D01*
X17282087Y-13690246D02*
X17291611Y-13671198D01*
X17291611Y-13671198D02*
X17301134Y-13661674D01*
X17301134Y-13661674D02*
X17320182Y-13652150D01*
X17320182Y-13652150D02*
X17348754Y-13652150D01*
X17348754Y-13652150D02*
X17367801Y-13661674D01*
X17367801Y-13661674D02*
X17377325Y-13671198D01*
X17377325Y-13671198D02*
X17386849Y-13690246D01*
X17386849Y-13690246D02*
X17386849Y-13747388D01*
X17386849Y-13747388D02*
X17377325Y-13766436D01*
X17377325Y-13766436D02*
X17367801Y-13775960D01*
X17367801Y-13775960D02*
X17348754Y-13785484D01*
X17348754Y-13785484D02*
X17320182Y-13785484D01*
X17443992Y-13652150D02*
X17520182Y-13652150D01*
X17472563Y-13585484D02*
X17472563Y-13756912D01*
X17472563Y-13756912D02*
X17482087Y-13775960D01*
X17482087Y-13775960D02*
X17501134Y-13785484D01*
X17501134Y-13785484D02*
X17520182Y-13785484D01*
X17739230Y-13652150D02*
X17739230Y-13852150D01*
X17739230Y-13661674D02*
X17758277Y-13652150D01*
X17758277Y-13652150D02*
X17796373Y-13652150D01*
X17796373Y-13652150D02*
X17815420Y-13661674D01*
X17815420Y-13661674D02*
X17824944Y-13671198D01*
X17824944Y-13671198D02*
X17834468Y-13690246D01*
X17834468Y-13690246D02*
X17834468Y-13747388D01*
X17834468Y-13747388D02*
X17824944Y-13766436D01*
X17824944Y-13766436D02*
X17815420Y-13775960D01*
X17815420Y-13775960D02*
X17796373Y-13785484D01*
X17796373Y-13785484D02*
X17758277Y-13785484D01*
X17758277Y-13785484D02*
X17739230Y-13775960D01*
X17948754Y-13785484D02*
X17929706Y-13775960D01*
X17929706Y-13775960D02*
X17920182Y-13756912D01*
X17920182Y-13756912D02*
X17920182Y-13585484D01*
X18110658Y-13785484D02*
X18110658Y-13680722D01*
X18110658Y-13680722D02*
X18101135Y-13661674D01*
X18101135Y-13661674D02*
X18082087Y-13652150D01*
X18082087Y-13652150D02*
X18043992Y-13652150D01*
X18043992Y-13652150D02*
X18024944Y-13661674D01*
X18110658Y-13775960D02*
X18091611Y-13785484D01*
X18091611Y-13785484D02*
X18043992Y-13785484D01*
X18043992Y-13785484D02*
X18024944Y-13775960D01*
X18024944Y-13775960D02*
X18015420Y-13756912D01*
X18015420Y-13756912D02*
X18015420Y-13737865D01*
X18015420Y-13737865D02*
X18024944Y-13718817D01*
X18024944Y-13718817D02*
X18043992Y-13709293D01*
X18043992Y-13709293D02*
X18091611Y-13709293D01*
X18091611Y-13709293D02*
X18110658Y-13699769D01*
X18177325Y-13652150D02*
X18253515Y-13652150D01*
X18205896Y-13585484D02*
X18205896Y-13756912D01*
X18205896Y-13756912D02*
X18215420Y-13775960D01*
X18215420Y-13775960D02*
X18234468Y-13785484D01*
X18234468Y-13785484D02*
X18253515Y-13785484D01*
X18396373Y-13775960D02*
X18377325Y-13785484D01*
X18377325Y-13785484D02*
X18339230Y-13785484D01*
X18339230Y-13785484D02*
X18320182Y-13775960D01*
X18320182Y-13775960D02*
X18310658Y-13756912D01*
X18310658Y-13756912D02*
X18310658Y-13680722D01*
X18310658Y-13680722D02*
X18320182Y-13661674D01*
X18320182Y-13661674D02*
X18339230Y-13652150D01*
X18339230Y-13652150D02*
X18377325Y-13652150D01*
X18377325Y-13652150D02*
X18396373Y-13661674D01*
X18396373Y-13661674D02*
X18405896Y-13680722D01*
X18405896Y-13680722D02*
X18405896Y-13699769D01*
X18405896Y-13699769D02*
X18310658Y-13718817D01*
X18577325Y-13785484D02*
X18577325Y-13585484D01*
X18577325Y-13775960D02*
X18558277Y-13785484D01*
X18558277Y-13785484D02*
X18520182Y-13785484D01*
X18520182Y-13785484D02*
X18501135Y-13775960D01*
X18501135Y-13775960D02*
X18491611Y-13766436D01*
X18491611Y-13766436D02*
X18482087Y-13747388D01*
X18482087Y-13747388D02*
X18482087Y-13690246D01*
X18482087Y-13690246D02*
X18491611Y-13671198D01*
X18491611Y-13671198D02*
X18501135Y-13661674D01*
X18501135Y-13661674D02*
X18520182Y-13652150D01*
X18520182Y-13652150D02*
X18558277Y-13652150D01*
X18558277Y-13652150D02*
X18577325Y-13661674D01*
X18653516Y-13861674D02*
X18663039Y-13852150D01*
X18663039Y-13852150D02*
X18682087Y-13823579D01*
X18682087Y-13823579D02*
X18691611Y-13804531D01*
X18691611Y-13804531D02*
X18701135Y-13775960D01*
X18701135Y-13775960D02*
X18710658Y-13728341D01*
X18710658Y-13728341D02*
X18710658Y-13690246D01*
X18710658Y-13690246D02*
X18701135Y-13642627D01*
X18701135Y-13642627D02*
X18691611Y-13614055D01*
X18691611Y-13614055D02*
X18682087Y-13595008D01*
X18682087Y-13595008D02*
X18663039Y-13566436D01*
X18663039Y-13566436D02*
X18653516Y-13556912D01*
M02*
