M48
; DRILL file {KiCad 9.0.7} date 2026-01-19T10:27:03-0800
; FORMAT={-:-/ absolute / metric / decimal}
; #@! TF.CreationDate,2026-01-19T10:27:03-08:00
; #@! TF.GenerationSoftware,Kicad,Pcbnew,9.0.7
; #@! TF.FileFunction,Plated,1,2,PTH
FMAT,2
METRIC
; #@! TA.AperFunction,Plated,PTH,ViaDrill
T1C0.300
; #@! TA.AperFunction,Plated,PTH,ComponentDrill
T2C0.300
; #@! TA.AperFunction,Plated,PTH,ComponentDrill
T3C0.600
; #@! TA.AperFunction,Plated,PTH,ComponentDrill
T4C0.950
; #@! TA.AperFunction,Plated,PTH,ComponentDrill
T5C1.000
; #@! TA.AperFunction,Plated,PTH,ComponentDrill
T6C1.100
%
G90
G05
T1
X126.2Y-88.2
X126.95Y-102.8
X128.0Y-92.525
X130.0Y-100.7
X130.72Y-92.525
X132.5Y-111.938
X133.5Y-86.0
X135.5Y-88.5
X136.0Y-112.0
X138.0Y-107.0
X138.535Y-103.75
X140.8Y-108.82
X143.5Y-98.635
X146.088Y-114.0
X146.5Y-110.5
X148.0Y-107.18
X151.5Y-102.5
X152.025Y-110.365
X152.75Y-103.5
X152.75Y-106.25
X153.0Y-85.99
X153.0Y-88.53
X153.0Y-112.9
X153.5Y-107.0
X154.026Y-105.35
X155.0Y-92.0
X155.0Y-111.0
X156.699Y-95.0
X157.868Y-96.127
X157.975Y-109.025
X158.0Y-99.0
X159.977Y-87.7
X159.977Y-90.7
X160.0Y-113.5
X161.25Y-106.0
X163.25Y-100.795
X163.75Y-98.125
X163.75Y-101.5
X165.75Y-87.75
X165.755Y-94.2
X166.25Y-90.25
X166.25Y-91.25
X169.25Y-91.0
X171.5Y-90.25
X172.55Y-104.05
T2
X141.35Y-93.01
X141.35Y-94.41
X142.05Y-92.31
X142.05Y-93.71
X142.05Y-95.11
X142.75Y-93.01
X142.75Y-94.41
X143.45Y-92.31
X143.45Y-93.71
X143.45Y-95.11
X144.15Y-93.01
X144.15Y-94.41
T4
X125.5Y-118.0
X128.0Y-118.0
X130.5Y-118.0
X137.45Y-118.0
X139.95Y-118.0
X142.45Y-118.0
X149.4Y-118.0
X151.9Y-118.0
X154.4Y-118.0
X161.35Y-118.0
X163.85Y-118.0
X166.35Y-118.0
T5
X165.805Y-108.5
X165.805Y-111.0
T6
X122.867Y-106.25
X122.867Y-108.79
T3
X167.77Y-86.68G85X168.87Y-86.68
G05
X167.77Y-95.32G85X168.87Y-95.32
G05
X172.1Y-86.68G85X172.9Y-86.68
G05
X172.1Y-95.32G85X172.9Y-95.32
G05
M30
