G04 #@! TF.GenerationSoftware,KiCad,Pcbnew,9.0.7*
G04 #@! TF.CreationDate,2026-01-19T10:27:03-08:00*
G04 #@! TF.ProjectId,Tesla Ambient Lighting,5465736c-6120-4416-9d62-69656e74204c,rev?*
G04 #@! TF.SameCoordinates,Original*
G04 #@! TF.FileFunction,Paste,Top*
G04 #@! TF.FilePolarity,Positive*
%FSLAX46Y46*%
G04 Gerber Fmt 4.6, Leading zero omitted, Abs format (unit mm)*
G04 Created by KiCad (PCBNEW 9.0.7) date 2026-01-19 10:27:03*
%MOMM*%
%LPD*%
G01*
G04 APERTURE LIST*
G04 Aperture macros list*
%AMRoundRect*
0 Rectangle with rounded corners*
0 $1 Rounding radius*
0 $2 $3 $4 $5 $6 $7 $8 $9 X,Y pos of 4 corners*
0 Add a 4 corners polygon primitive as box body*
4,1,4,$2,$3,$4,$5,$6,$7,$8,$9,$2,$3,0*
0 Add four circle primitives for the rounded corners*
1,1,$1+$1,$2,$3*
1,1,$1+$1,$4,$5*
1,1,$1+$1,$6,$7*
1,1,$1+$1,$8,$9*
0 Add four rect primitives between the rounded corners*
20,1,$1+$1,$2,$3,$4,$5,0*
20,1,$1+$1,$4,$5,$6,$7,0*
20,1,$1+$1,$6,$7,$8,$9,0*
20,1,$1+$1,$8,$9,$2,$3,0*%
%AMFreePoly0*
4,1,9,3.862500,-0.866500,0.737500,-0.866500,0.737500,-0.450000,-0.737500,-0.450000,-0.737500,0.450000,0.737500,0.450000,0.737500,0.866500,3.862500,0.866500,3.862500,-0.866500,3.862500,-0.866500,$1*%
G04 Aperture macros list end*
%ADD10RoundRect,0.225000X0.225000X-0.425000X0.225000X0.425000X-0.225000X0.425000X-0.225000X-0.425000X0*%
%ADD11FreePoly0,90.000000*%
%ADD12R,1.150000X0.600000*%
%ADD13R,1.150000X0.300000*%
%ADD14R,1.200000X0.400000*%
%ADD15RoundRect,0.250000X-0.250000X-0.475000X0.250000X-0.475000X0.250000X0.475000X-0.250000X0.475000X0*%
%ADD16RoundRect,0.250000X0.450000X-0.262500X0.450000X0.262500X-0.450000X0.262500X-0.450000X-0.262500X0*%
%ADD17RoundRect,0.250000X0.262500X0.450000X-0.262500X0.450000X-0.262500X-0.450000X0.262500X-0.450000X0*%
%ADD18R,0.900000X1.700000*%
%ADD19R,0.800000X1.100000*%
%ADD20RoundRect,0.250000X-0.262500X-0.450000X0.262500X-0.450000X0.262500X0.450000X-0.262500X0.450000X0*%
%ADD21RoundRect,0.250000X-0.475000X0.250000X-0.475000X-0.250000X0.475000X-0.250000X0.475000X0.250000X0*%
%ADD22RoundRect,0.243750X0.456250X-0.243750X0.456250X0.243750X-0.456250X0.243750X-0.456250X-0.243750X0*%
%ADD23R,1.500000X0.900000*%
%ADD24R,0.900000X1.500000*%
%ADD25R,0.900000X0.900000*%
%ADD26RoundRect,0.150000X-0.825000X-0.150000X0.825000X-0.150000X0.825000X0.150000X-0.825000X0.150000X0*%
G04 APERTURE END LIST*
D10*
G04 #@! TO.C,U4*
X127000000Y-100700000D03*
D11*
X128500000Y-100612500D03*
D10*
X130000000Y-100700000D03*
G04 #@! TD*
D12*
G04 #@! TO.C,J6*
X167745000Y-94200000D03*
X167745000Y-93400000D03*
D13*
X167745000Y-92250000D03*
X167745000Y-91250000D03*
X167745000Y-90750000D03*
X167745000Y-89750000D03*
D12*
X167745000Y-87800000D03*
X167745000Y-88600000D03*
D13*
X167745000Y-89250000D03*
X167745000Y-90250000D03*
X167745000Y-91750000D03*
X167745000Y-92750000D03*
G04 #@! TD*
D14*
G04 #@! TO.C,U5*
X156800000Y-95750000D03*
X156800000Y-96385000D03*
X156800000Y-97020000D03*
X156800000Y-97655000D03*
X156800000Y-98290000D03*
X156800000Y-98925000D03*
X156800000Y-99560000D03*
X156800000Y-100195000D03*
X156800000Y-100830000D03*
X156800000Y-101465000D03*
X162000000Y-101465000D03*
X162000000Y-100830000D03*
X162000000Y-100195000D03*
X162000000Y-99560000D03*
X162000000Y-98925000D03*
X162000000Y-98290000D03*
X162000000Y-97655000D03*
X162000000Y-97020000D03*
X162000000Y-96385000D03*
X162000000Y-95750000D03*
G04 #@! TD*
D15*
G04 #@! TO.C,C4*
X166300000Y-102750000D03*
X168200000Y-102750000D03*
G04 #@! TD*
D16*
G04 #@! TO.C,R6*
X136000000Y-111912500D03*
X136000000Y-110087500D03*
G04 #@! TD*
D17*
G04 #@! TO.C,R5*
X163662500Y-87750000D03*
X161837500Y-87750000D03*
G04 #@! TD*
D18*
G04 #@! TO.C,RESET*
X144200000Y-108820000D03*
X140800000Y-108820000D03*
D19*
X142500000Y-107180000D03*
G04 #@! TD*
D18*
G04 #@! TO.C,SW1*
X149700000Y-108820000D03*
X146300000Y-108820000D03*
D19*
X148000000Y-107180000D03*
G04 #@! TD*
D20*
G04 #@! TO.C,R1*
X128337500Y-86250000D03*
X130162500Y-86250000D03*
G04 #@! TD*
G04 #@! TO.C,R4*
X161837500Y-90700000D03*
X163662500Y-90700000D03*
G04 #@! TD*
D17*
G04 #@! TO.C,R7*
X147912500Y-114000000D03*
X146087500Y-114000000D03*
G04 #@! TD*
D21*
G04 #@! TO.C,C1*
X130720000Y-90625000D03*
X130720000Y-92525000D03*
G04 #@! TD*
D22*
G04 #@! TO.C,PWR*
X132500000Y-111937500D03*
X132500000Y-110062500D03*
G04 #@! TD*
D16*
G04 #@! TO.C,R2*
X170500000Y-103950000D03*
X170500000Y-102125000D03*
G04 #@! TD*
D15*
G04 #@! TO.C,C3*
X128300000Y-88250000D03*
X130200000Y-88250000D03*
G04 #@! TD*
D23*
G04 #@! TO.C,U1*
X135500000Y-85990000D03*
X135500000Y-87260000D03*
X135500000Y-88530000D03*
X135500000Y-89800000D03*
X135500000Y-91070000D03*
X135500000Y-92340000D03*
X135500000Y-93610000D03*
X135500000Y-94880000D03*
X135500000Y-96150000D03*
X135500000Y-97420000D03*
X135500000Y-98690000D03*
X135500000Y-99960000D03*
X135500000Y-101230000D03*
X135500000Y-102500000D03*
D24*
X138535000Y-103750000D03*
X139805000Y-103750000D03*
X141075000Y-103750000D03*
X142345000Y-103750000D03*
X143615000Y-103750000D03*
X144885000Y-103750000D03*
X146155000Y-103750000D03*
X147425000Y-103750000D03*
X148695000Y-103750000D03*
X149965000Y-103750000D03*
D23*
X153000000Y-102500000D03*
X153000000Y-101230000D03*
X153000000Y-99960000D03*
X153000000Y-98690000D03*
X153000000Y-97420000D03*
X153000000Y-96150000D03*
X153000000Y-94880000D03*
X153000000Y-93610000D03*
X153000000Y-92340000D03*
X153000000Y-91070000D03*
X153000000Y-89800000D03*
X153000000Y-88530000D03*
X153000000Y-87260000D03*
X153000000Y-85990000D03*
D25*
X141350000Y-92310000D03*
X141350000Y-93710000D03*
X141350000Y-95110000D03*
X142750000Y-92310000D03*
X142750000Y-93710000D03*
X142750000Y-95110000D03*
X144150000Y-92310000D03*
X144150000Y-93710000D03*
X144150000Y-95110000D03*
G04 #@! TD*
D16*
G04 #@! TO.C,R3*
X170500000Y-100250000D03*
X170500000Y-98425000D03*
G04 #@! TD*
D21*
G04 #@! TO.C,C2*
X128000000Y-90625000D03*
X128000000Y-92525000D03*
G04 #@! TD*
D26*
G04 #@! TO.C,U2*
X152025000Y-109095000D03*
X152025000Y-110365000D03*
X152025000Y-111635000D03*
X152025000Y-112905000D03*
X156975000Y-112905000D03*
X156975000Y-111635000D03*
X156975000Y-110365000D03*
X156975000Y-109095000D03*
G04 #@! TD*
M02*
