G04 #@! TF.GenerationSoftware,KiCad,Pcbnew,9.0.7*
G04 #@! TF.CreationDate,2026-01-19T10:27:03-08:00*
G04 #@! TF.ProjectId,Tesla Ambient Lighting,5465736c-6120-4416-9d62-69656e74204c,rev?*
G04 #@! TF.SameCoordinates,Original*
G04 #@! TF.FileFunction,Soldermask,Bot*
G04 #@! TF.FilePolarity,Negative*
%FSLAX46Y46*%
G04 Gerber Fmt 4.6, Leading zero omitted, Abs format (unit mm)*
G04 Created by KiCad (PCBNEW 9.0.7) date 2026-01-19 10:27:03*
%MOMM*%
%LPD*%
G01*
G04 APERTURE LIST*
G04 Aperture macros list*
%AMRoundRect*
0 Rectangle with rounded corners*
0 $1 Rounding radius*
0 $2 $3 $4 $5 $6 $7 $8 $9 X,Y pos of 4 corners*
0 Add a 4 corners polygon primitive as box body*
4,1,4,$2,$3,$4,$5,$6,$7,$8,$9,$2,$3,0*
0 Add four circle primitives for the rounded corners*
1,1,$1+$1,$2,$3*
1,1,$1+$1,$4,$5*
1,1,$1+$1,$6,$7*
1,1,$1+$1,$8,$9*
0 Add four rect primitives between the rounded corners*
20,1,$1+$1,$2,$3,$4,$5,0*
20,1,$1+$1,$4,$5,$6,$7,0*
20,1,$1+$1,$6,$7,$8,$9,0*
20,1,$1+$1,$8,$9,$2,$3,0*%
G04 Aperture macros list end*
%ADD10RoundRect,0.250000X0.750000X-0.600000X0.750000X0.600000X-0.750000X0.600000X-0.750000X-0.600000X0*%
%ADD11O,2.000000X1.700000*%
%ADD12C,2.200000*%
%ADD13C,0.650000*%
%ADD14O,2.304000X1.204000*%
%ADD15O,2.004000X1.204000*%
%ADD16RoundRect,0.250000X-0.600000X-0.725000X0.600000X-0.725000X0.600000X0.725000X-0.600000X0.725000X0*%
%ADD17O,1.700000X1.950000*%
%ADD18RoundRect,0.250001X0.799999X-0.799999X0.799999X0.799999X-0.799999X0.799999X-0.799999X-0.799999X0*%
%ADD19C,2.100000*%
%ADD20C,0.600000*%
%ADD21RoundRect,0.250000X-0.450000X0.262500X-0.450000X-0.262500X0.450000X-0.262500X0.450000X0.262500X0*%
%ADD22RoundRect,0.150000X0.587500X0.150000X-0.587500X0.150000X-0.587500X-0.150000X0.587500X-0.150000X0*%
%ADD23RoundRect,0.250000X0.262500X0.450000X-0.262500X0.450000X-0.262500X-0.450000X0.262500X-0.450000X0*%
G04 APERTURE END LIST*
D10*
G04 #@! TO.C,J5*
X165805000Y-111000000D03*
D11*
X165805000Y-108500000D03*
G04 #@! TD*
D12*
G04 #@! TO.C,REF\u002A\u002A*
X122750000Y-96250000D03*
G04 #@! TD*
G04 #@! TO.C,REF\u002A\u002A*
X172250000Y-124750000D03*
G04 #@! TD*
D13*
G04 #@! TO.C,J6*
X168820000Y-93890000D03*
X168820000Y-88110000D03*
D14*
X168320000Y-95320000D03*
X168320000Y-86680000D03*
D15*
X172500000Y-95320000D03*
X172500000Y-86680000D03*
G04 #@! TD*
D16*
G04 #@! TO.C,J3*
X149400000Y-118000000D03*
D17*
X151900000Y-118000000D03*
X154400000Y-118000000D03*
G04 #@! TD*
D16*
G04 #@! TO.C,J2*
X137450000Y-118000000D03*
D17*
X139950000Y-118000000D03*
X142450000Y-118000000D03*
G04 #@! TD*
D18*
G04 #@! TO.C,J7*
X122867500Y-108790000D03*
D19*
X122867500Y-106250000D03*
G04 #@! TD*
D12*
G04 #@! TO.C,REF\u002A\u002A*
X172000000Y-81250000D03*
G04 #@! TD*
D20*
G04 #@! TO.C,U1*
X141350000Y-93010000D03*
X141350000Y-94410000D03*
X142050000Y-92310000D03*
X142050000Y-93710000D03*
X142050000Y-95110000D03*
X142750000Y-93010000D03*
X142750000Y-94410000D03*
X143450000Y-92310000D03*
X143450000Y-93710000D03*
X143450000Y-95110000D03*
X144150000Y-93010000D03*
X144150000Y-94410000D03*
G04 #@! TD*
D16*
G04 #@! TO.C,J4*
X161350000Y-118000000D03*
D17*
X163850000Y-118000000D03*
X166350000Y-118000000D03*
G04 #@! TD*
D16*
G04 #@! TO.C,J1*
X125500000Y-118000000D03*
D17*
X128000000Y-118000000D03*
X130500000Y-118000000D03*
G04 #@! TD*
D21*
G04 #@! TO.C,R9*
X150000000Y-99000000D03*
X150000000Y-100825000D03*
G04 #@! TD*
D22*
G04 #@! TO.C,Q2*
X146875000Y-101462500D03*
X146875000Y-103362500D03*
X145000000Y-102412500D03*
G04 #@! TD*
D23*
G04 #@! TO.C,R8*
X150912500Y-96412500D03*
X149087500Y-96412500D03*
G04 #@! TD*
D22*
G04 #@! TO.C,Q1*
X146875000Y-96512500D03*
X146875000Y-98412500D03*
X145000000Y-97462500D03*
G04 #@! TD*
M02*
