%TF.GenerationSoftware,KiCad,Pcbnew,9.0.7*%
%TF.CreationDate,2026-01-19T10:27:03-08:00*%
%TF.ProjectId,Tesla Ambient Lighting,5465736c-6120-4416-9d62-69656e74204c,rev?*%
%TF.SameCoordinates,Original*%
%TF.FileFunction,Drillmap*%
%TF.FilePolarity,Positive*%
%FSLAX45Y45*%
G04 Gerber Fmt 4.5, Leading zero omitted, Abs format (unit mm)*
G04 Created by KiCad (PCBNEW 9.0.7) date 2026-01-19 10:27:03*
%MOMM*%
%LPD*%
G01*
G04 APERTURE LIST*
%ADD10C,0.050000*%
%ADD11C,0.200000*%
%ADD12C,0.100000*%
%ADD13C,0.110000*%
G04 APERTURE END LIST*
D10*
X11900000Y-7762500D02*
X17550000Y-7762500D01*
X17550000Y-12787500D01*
X11900000Y-12787500D01*
X11900000Y-7762500D01*
D11*
D12*
X12605000Y-8805000D02*
X12635000Y-8835000D01*
X12635000Y-8805000D02*
X12605000Y-8835000D01*
X12680000Y-10265000D02*
X12710000Y-10295000D01*
X12710000Y-10265000D02*
X12680000Y-10295000D01*
X12785000Y-9237500D02*
X12815000Y-9267500D01*
X12815000Y-9237500D02*
X12785000Y-9267500D01*
X12985000Y-10055000D02*
X13015000Y-10085000D01*
X13015000Y-10055000D02*
X12985000Y-10085000D01*
X13057000Y-9237500D02*
X13087000Y-9267500D01*
X13087000Y-9237500D02*
X13057000Y-9267500D01*
X13235000Y-11178750D02*
X13265000Y-11208750D01*
X13265000Y-11178750D02*
X13235000Y-11208750D01*
X13335000Y-8585000D02*
X13365000Y-8615000D01*
X13365000Y-8585000D02*
X13335000Y-8615000D01*
X13535000Y-8835000D02*
X13565000Y-8865000D01*
X13565000Y-8835000D02*
X13535000Y-8865000D01*
X13585000Y-11185000D02*
X13615000Y-11215000D01*
X13615000Y-11185000D02*
X13585000Y-11215000D01*
X13785000Y-10685000D02*
X13815000Y-10715000D01*
X13815000Y-10685000D02*
X13785000Y-10715000D01*
X13838500Y-10360000D02*
X13868500Y-10390000D01*
X13868500Y-10360000D02*
X13838500Y-10390000D01*
X14065000Y-10867000D02*
X14095000Y-10897000D01*
X14095000Y-10867000D02*
X14065000Y-10897000D01*
X14335000Y-9848500D02*
X14365000Y-9878500D01*
X14365000Y-9848500D02*
X14335000Y-9878500D01*
X14593750Y-11385000D02*
X14623750Y-11415000D01*
X14623750Y-11385000D02*
X14593750Y-11415000D01*
X14635000Y-11035000D02*
X14665000Y-11065000D01*
X14665000Y-11035000D02*
X14635000Y-11065000D01*
X14785000Y-10703000D02*
X14815000Y-10733000D01*
X14815000Y-10703000D02*
X14785000Y-10733000D01*
X15135000Y-10235000D02*
X15165000Y-10265000D01*
X15165000Y-10235000D02*
X15135000Y-10265000D01*
X15187500Y-11021500D02*
X15217500Y-11051500D01*
X15217500Y-11021500D02*
X15187500Y-11051500D01*
X15260000Y-10335000D02*
X15290000Y-10365000D01*
X15290000Y-10335000D02*
X15260000Y-10365000D01*
X15260000Y-10610000D02*
X15290000Y-10640000D01*
X15290000Y-10610000D02*
X15260000Y-10640000D01*
X15285000Y-8584000D02*
X15315000Y-8614000D01*
X15315000Y-8584000D02*
X15285000Y-8614000D01*
X15285000Y-8838000D02*
X15315000Y-8868000D01*
X15315000Y-8838000D02*
X15285000Y-8868000D01*
X15285000Y-11275000D02*
X15315000Y-11305000D01*
X15315000Y-11275000D02*
X15285000Y-11305000D01*
X15335000Y-10685000D02*
X15365000Y-10715000D01*
X15365000Y-10685000D02*
X15335000Y-10715000D01*
X15387600Y-10520047D02*
X15417600Y-10550047D01*
X15417600Y-10520047D02*
X15387600Y-10550047D01*
X15485000Y-9185000D02*
X15515000Y-9215000D01*
X15515000Y-9185000D02*
X15485000Y-9215000D01*
X15485000Y-11085000D02*
X15515000Y-11115000D01*
X15515000Y-11085000D02*
X15485000Y-11115000D01*
X15654900Y-9485000D02*
X15684900Y-9515000D01*
X15684900Y-9485000D02*
X15654900Y-9515000D01*
X15771759Y-9597709D02*
X15801759Y-9627709D01*
X15801759Y-9597709D02*
X15771759Y-9627709D01*
X15782500Y-10887500D02*
X15812500Y-10917500D01*
X15812500Y-10887500D02*
X15782500Y-10917500D01*
X15785000Y-9885000D02*
X15815000Y-9915000D01*
X15815000Y-9885000D02*
X15785000Y-9915000D01*
X15982750Y-8755000D02*
X16012750Y-8785000D01*
X16012750Y-8755000D02*
X15982750Y-8785000D01*
X15982750Y-9055000D02*
X16012750Y-9085000D01*
X16012750Y-9055000D02*
X15982750Y-9085000D01*
X15985000Y-11335000D02*
X16015000Y-11365000D01*
X16015000Y-11335000D02*
X15985000Y-11365000D01*
X16110000Y-10585000D02*
X16140000Y-10615000D01*
X16140000Y-10585000D02*
X16110000Y-10615000D01*
X16310000Y-10064500D02*
X16340000Y-10094500D01*
X16340000Y-10064500D02*
X16310000Y-10094500D01*
X16360000Y-9797500D02*
X16390000Y-9827500D01*
X16390000Y-9797500D02*
X16360000Y-9827500D01*
X16360000Y-10135000D02*
X16390000Y-10165000D01*
X16390000Y-10135000D02*
X16360000Y-10165000D01*
X16560000Y-8760000D02*
X16590000Y-8790000D01*
X16590000Y-8760000D02*
X16560000Y-8790000D01*
X16560500Y-9405000D02*
X16590500Y-9435000D01*
X16590500Y-9405000D02*
X16560500Y-9435000D01*
X16610000Y-9010000D02*
X16640000Y-9040000D01*
X16640000Y-9010000D02*
X16610000Y-9040000D01*
X16610000Y-9110000D02*
X16640000Y-9140000D01*
X16640000Y-9110000D02*
X16610000Y-9140000D01*
X16910000Y-9085000D02*
X16940000Y-9115000D01*
X16940000Y-9085000D02*
X16910000Y-9115000D01*
X17135000Y-9010000D02*
X17165000Y-9040000D01*
X17165000Y-9010000D02*
X17135000Y-9040000D01*
X17240000Y-10390000D02*
X17270000Y-10420000D01*
X17270000Y-10390000D02*
X17240000Y-10420000D01*
X14150000Y-9301000D02*
G75*
G02*
X14120000Y-9301000I-15000J0D01*
G01*
X14120000Y-9301000D02*
G75*
G02*
X14150000Y-9301000I15000J0D01*
G01*
X14150000Y-9441000D02*
G75*
G02*
X14120000Y-9441000I-15000J0D01*
G01*
X14120000Y-9441000D02*
G75*
G02*
X14150000Y-9441000I15000J0D01*
G01*
X14220000Y-9231000D02*
G75*
G02*
X14190000Y-9231000I-15000J0D01*
G01*
X14190000Y-9231000D02*
G75*
G02*
X14220000Y-9231000I15000J0D01*
G01*
X14220000Y-9371000D02*
G75*
G02*
X14190000Y-9371000I-15000J0D01*
G01*
X14190000Y-9371000D02*
G75*
G02*
X14220000Y-9371000I15000J0D01*
G01*
X14220000Y-9511000D02*
G75*
G02*
X14190000Y-9511000I-15000J0D01*
G01*
X14190000Y-9511000D02*
G75*
G02*
X14220000Y-9511000I15000J0D01*
G01*
X14290000Y-9301000D02*
G75*
G02*
X14260000Y-9301000I-15000J0D01*
G01*
X14260000Y-9301000D02*
G75*
G02*
X14290000Y-9301000I15000J0D01*
G01*
X14290000Y-9441000D02*
G75*
G02*
X14260000Y-9441000I-15000J0D01*
G01*
X14260000Y-9441000D02*
G75*
G02*
X14290000Y-9441000I15000J0D01*
G01*
X14360000Y-9231000D02*
G75*
G02*
X14330000Y-9231000I-15000J0D01*
G01*
X14330000Y-9231000D02*
G75*
G02*
X14360000Y-9231000I15000J0D01*
G01*
X14360000Y-9371000D02*
G75*
G02*
X14330000Y-9371000I-15000J0D01*
G01*
X14330000Y-9371000D02*
G75*
G02*
X14360000Y-9371000I15000J0D01*
G01*
X14360000Y-9511000D02*
G75*
G02*
X14330000Y-9511000I-15000J0D01*
G01*
X14330000Y-9511000D02*
G75*
G02*
X14360000Y-9511000I15000J0D01*
G01*
X14430000Y-9301000D02*
G75*
G02*
X14400000Y-9301000I-15000J0D01*
G01*
X14400000Y-9301000D02*
G75*
G02*
X14430000Y-9301000I15000J0D01*
G01*
X14430000Y-9441000D02*
G75*
G02*
X14400000Y-9441000I-15000J0D01*
G01*
X14400000Y-9441000D02*
G75*
G02*
X14430000Y-9441000I15000J0D01*
G01*
X16832000Y-8638000D02*
X16832000Y-8698000D01*
X16802000Y-8668000D02*
X16862000Y-8668000D01*
X16777000Y-8698000D02*
X16887000Y-8698000D01*
X16887000Y-8638000D02*
G75*
G02*
X16887000Y-8698000I0J-30000D01*
G01*
X16887000Y-8638000D02*
X16777000Y-8638000D01*
X16777000Y-8638000D02*
G75*
G03*
X16777000Y-8698000I0J-30000D01*
G01*
X16832000Y-9502000D02*
X16832000Y-9562000D01*
X16802000Y-9532000D02*
X16862000Y-9532000D01*
X16777000Y-9562000D02*
X16887000Y-9562000D01*
X16887000Y-9502000D02*
G75*
G02*
X16887000Y-9562000I0J-30000D01*
G01*
X16887000Y-9502000D02*
X16777000Y-9502000D01*
X16777000Y-9502000D02*
G75*
G03*
X16777000Y-9562000I0J-30000D01*
G01*
X17250000Y-8638000D02*
X17250000Y-8698000D01*
X17220000Y-8668000D02*
X17280000Y-8668000D01*
X17210000Y-8698000D02*
X17290000Y-8698000D01*
X17290000Y-8638000D02*
G75*
G02*
X17290000Y-8698000I0J-30000D01*
G01*
X17290000Y-8638000D02*
X17210000Y-8638000D01*
X17210000Y-8638000D02*
G75*
G03*
X17210000Y-8698000I0J-30000D01*
G01*
X17250000Y-9502000D02*
X17250000Y-9562000D01*
X17220000Y-9532000D02*
X17280000Y-9532000D01*
X17210000Y-9562000D02*
X17290000Y-9562000D01*
X17290000Y-9502000D02*
G75*
G02*
X17290000Y-9562000I0J-30000D01*
G01*
X17290000Y-9502000D02*
X17210000Y-9502000D01*
X17210000Y-9502000D02*
G75*
G03*
X17210000Y-9562000I0J-30000D01*
G01*
X12583588Y-11833588D02*
X12583588Y-11766412D01*
X12516412Y-11766412D01*
X12516412Y-11833588D01*
X12583588Y-11833588D01*
X12833588Y-11833588D02*
X12833588Y-11766412D01*
X12766412Y-11766412D01*
X12766412Y-11833588D01*
X12833588Y-11833588D01*
X13083588Y-11833588D02*
X13083588Y-11766412D01*
X13016412Y-11766412D01*
X13016412Y-11833588D01*
X13083588Y-11833588D01*
X13778588Y-11833588D02*
X13778588Y-11766412D01*
X13711412Y-11766412D01*
X13711412Y-11833588D01*
X13778588Y-11833588D01*
X14028588Y-11833588D02*
X14028588Y-11766412D01*
X13961412Y-11766412D01*
X13961412Y-11833588D01*
X14028588Y-11833588D01*
X14278588Y-11833588D02*
X14278588Y-11766412D01*
X14211412Y-11766412D01*
X14211412Y-11833588D01*
X14278588Y-11833588D01*
X14973588Y-11833588D02*
X14973588Y-11766412D01*
X14906412Y-11766412D01*
X14906412Y-11833588D01*
X14973588Y-11833588D01*
X15223588Y-11833588D02*
X15223588Y-11766412D01*
X15156412Y-11766412D01*
X15156412Y-11833588D01*
X15223588Y-11833588D01*
X15473588Y-11833588D02*
X15473588Y-11766412D01*
X15406412Y-11766412D01*
X15406412Y-11833588D01*
X15473588Y-11833588D01*
X16168588Y-11833588D02*
X16168588Y-11766412D01*
X16101412Y-11766412D01*
X16101412Y-11833588D01*
X16168588Y-11833588D01*
X16418588Y-11833588D02*
X16418588Y-11766412D01*
X16351412Y-11766412D01*
X16351412Y-11833588D01*
X16418588Y-11833588D01*
X16668588Y-11833588D02*
X16668588Y-11766412D01*
X16601412Y-11766412D01*
X16601412Y-11833588D01*
X16668588Y-11833588D01*
X16580500Y-10900000D02*
X16630500Y-10850000D01*
X16580500Y-10800000D01*
X16530500Y-10850000D01*
X16580500Y-10900000D01*
X16580500Y-11150000D02*
X16630500Y-11100000D01*
X16580500Y-11050000D01*
X16530500Y-11100000D01*
X16580500Y-11150000D01*
D13*
X12231750Y-10570000D02*
X12341750Y-10680000D01*
X12341750Y-10570000D02*
X12231750Y-10680000D01*
X12341750Y-10625000D02*
G75*
G02*
X12231750Y-10625000I-55000J0D01*
G01*
X12231750Y-10625000D02*
G75*
G02*
X12341750Y-10625000I55000J0D01*
G01*
X12231750Y-10824000D02*
X12341750Y-10934000D01*
X12341750Y-10824000D02*
X12231750Y-10934000D01*
X12341750Y-10879000D02*
G75*
G02*
X12231750Y-10879000I-55000J0D01*
G01*
X12231750Y-10879000D02*
G75*
G02*
X12341750Y-10879000I55000J0D01*
G01*
D11*
X12158277Y-13101484D02*
X12158277Y-12901484D01*
X12158277Y-12901484D02*
X12205896Y-12901484D01*
X12205896Y-12901484D02*
X12234467Y-12911008D01*
X12234467Y-12911008D02*
X12253515Y-12930055D01*
X12253515Y-12930055D02*
X12263039Y-12949103D01*
X12263039Y-12949103D02*
X12272562Y-12987198D01*
X12272562Y-12987198D02*
X12272562Y-13015769D01*
X12272562Y-13015769D02*
X12263039Y-13053865D01*
X12263039Y-13053865D02*
X12253515Y-13072912D01*
X12253515Y-13072912D02*
X12234467Y-13091960D01*
X12234467Y-13091960D02*
X12205896Y-13101484D01*
X12205896Y-13101484D02*
X12158277Y-13101484D01*
X12358277Y-13101484D02*
X12358277Y-12968150D01*
X12358277Y-13006246D02*
X12367801Y-12987198D01*
X12367801Y-12987198D02*
X12377324Y-12977674D01*
X12377324Y-12977674D02*
X12396372Y-12968150D01*
X12396372Y-12968150D02*
X12415420Y-12968150D01*
X12482086Y-13101484D02*
X12482086Y-12968150D01*
X12482086Y-12901484D02*
X12472562Y-12911008D01*
X12472562Y-12911008D02*
X12482086Y-12920531D01*
X12482086Y-12920531D02*
X12491610Y-12911008D01*
X12491610Y-12911008D02*
X12482086Y-12901484D01*
X12482086Y-12901484D02*
X12482086Y-12920531D01*
X12605896Y-13101484D02*
X12586848Y-13091960D01*
X12586848Y-13091960D02*
X12577324Y-13072912D01*
X12577324Y-13072912D02*
X12577324Y-12901484D01*
X12710658Y-13101484D02*
X12691610Y-13091960D01*
X12691610Y-13091960D02*
X12682086Y-13072912D01*
X12682086Y-13072912D02*
X12682086Y-12901484D01*
X12939229Y-13101484D02*
X12939229Y-12901484D01*
X12939229Y-12901484D02*
X13005896Y-13044341D01*
X13005896Y-13044341D02*
X13072562Y-12901484D01*
X13072562Y-12901484D02*
X13072562Y-13101484D01*
X13253515Y-13101484D02*
X13253515Y-12996722D01*
X13253515Y-12996722D02*
X13243991Y-12977674D01*
X13243991Y-12977674D02*
X13224943Y-12968150D01*
X13224943Y-12968150D02*
X13186848Y-12968150D01*
X13186848Y-12968150D02*
X13167801Y-12977674D01*
X13253515Y-13091960D02*
X13234467Y-13101484D01*
X13234467Y-13101484D02*
X13186848Y-13101484D01*
X13186848Y-13101484D02*
X13167801Y-13091960D01*
X13167801Y-13091960D02*
X13158277Y-13072912D01*
X13158277Y-13072912D02*
X13158277Y-13053865D01*
X13158277Y-13053865D02*
X13167801Y-13034817D01*
X13167801Y-13034817D02*
X13186848Y-13025293D01*
X13186848Y-13025293D02*
X13234467Y-13025293D01*
X13234467Y-13025293D02*
X13253515Y-13015769D01*
X13348753Y-12968150D02*
X13348753Y-13168150D01*
X13348753Y-12977674D02*
X13367801Y-12968150D01*
X13367801Y-12968150D02*
X13405896Y-12968150D01*
X13405896Y-12968150D02*
X13424943Y-12977674D01*
X13424943Y-12977674D02*
X13434467Y-12987198D01*
X13434467Y-12987198D02*
X13443991Y-13006246D01*
X13443991Y-13006246D02*
X13443991Y-13063388D01*
X13443991Y-13063388D02*
X13434467Y-13082436D01*
X13434467Y-13082436D02*
X13424943Y-13091960D01*
X13424943Y-13091960D02*
X13405896Y-13101484D01*
X13405896Y-13101484D02*
X13367801Y-13101484D01*
X13367801Y-13101484D02*
X13348753Y-13091960D01*
X13529705Y-13082436D02*
X13539229Y-13091960D01*
X13539229Y-13091960D02*
X13529705Y-13101484D01*
X13529705Y-13101484D02*
X13520182Y-13091960D01*
X13520182Y-13091960D02*
X13529705Y-13082436D01*
X13529705Y-13082436D02*
X13529705Y-13101484D01*
X13529705Y-12977674D02*
X13539229Y-12987198D01*
X13539229Y-12987198D02*
X13529705Y-12996722D01*
X13529705Y-12996722D02*
X13520182Y-12987198D01*
X13520182Y-12987198D02*
X13529705Y-12977674D01*
X13529705Y-12977674D02*
X13529705Y-12996722D01*
D12*
X11867500Y-13415000D02*
X11897500Y-13445000D01*
X11897500Y-13415000D02*
X11867500Y-13445000D01*
D11*
X12196372Y-13321484D02*
X12215420Y-13321484D01*
X12215420Y-13321484D02*
X12234467Y-13331008D01*
X12234467Y-13331008D02*
X12243991Y-13340531D01*
X12243991Y-13340531D02*
X12253515Y-13359579D01*
X12253515Y-13359579D02*
X12263039Y-13397674D01*
X12263039Y-13397674D02*
X12263039Y-13445293D01*
X12263039Y-13445293D02*
X12253515Y-13483388D01*
X12253515Y-13483388D02*
X12243991Y-13502436D01*
X12243991Y-13502436D02*
X12234467Y-13511960D01*
X12234467Y-13511960D02*
X12215420Y-13521484D01*
X12215420Y-13521484D02*
X12196372Y-13521484D01*
X12196372Y-13521484D02*
X12177324Y-13511960D01*
X12177324Y-13511960D02*
X12167801Y-13502436D01*
X12167801Y-13502436D02*
X12158277Y-13483388D01*
X12158277Y-13483388D02*
X12148753Y-13445293D01*
X12148753Y-13445293D02*
X12148753Y-13397674D01*
X12148753Y-13397674D02*
X12158277Y-13359579D01*
X12158277Y-13359579D02*
X12167801Y-13340531D01*
X12167801Y-13340531D02*
X12177324Y-13331008D01*
X12177324Y-13331008D02*
X12196372Y-13321484D01*
X12348753Y-13502436D02*
X12358277Y-13511960D01*
X12358277Y-13511960D02*
X12348753Y-13521484D01*
X12348753Y-13521484D02*
X12339229Y-13511960D01*
X12339229Y-13511960D02*
X12348753Y-13502436D01*
X12348753Y-13502436D02*
X12348753Y-13521484D01*
X12424943Y-13321484D02*
X12548753Y-13321484D01*
X12548753Y-13321484D02*
X12482086Y-13397674D01*
X12482086Y-13397674D02*
X12510658Y-13397674D01*
X12510658Y-13397674D02*
X12529705Y-13407198D01*
X12529705Y-13407198D02*
X12539229Y-13416722D01*
X12539229Y-13416722D02*
X12548753Y-13435769D01*
X12548753Y-13435769D02*
X12548753Y-13483388D01*
X12548753Y-13483388D02*
X12539229Y-13502436D01*
X12539229Y-13502436D02*
X12529705Y-13511960D01*
X12529705Y-13511960D02*
X12510658Y-13521484D01*
X12510658Y-13521484D02*
X12453515Y-13521484D01*
X12453515Y-13521484D02*
X12434467Y-13511960D01*
X12434467Y-13511960D02*
X12424943Y-13502436D01*
X12672562Y-13321484D02*
X12691610Y-13321484D01*
X12691610Y-13321484D02*
X12710658Y-13331008D01*
X12710658Y-13331008D02*
X12720182Y-13340531D01*
X12720182Y-13340531D02*
X12729705Y-13359579D01*
X12729705Y-13359579D02*
X12739229Y-13397674D01*
X12739229Y-13397674D02*
X12739229Y-13445293D01*
X12739229Y-13445293D02*
X12729705Y-13483388D01*
X12729705Y-13483388D02*
X12720182Y-13502436D01*
X12720182Y-13502436D02*
X12710658Y-13511960D01*
X12710658Y-13511960D02*
X12691610Y-13521484D01*
X12691610Y-13521484D02*
X12672562Y-13521484D01*
X12672562Y-13521484D02*
X12653515Y-13511960D01*
X12653515Y-13511960D02*
X12643991Y-13502436D01*
X12643991Y-13502436D02*
X12634467Y-13483388D01*
X12634467Y-13483388D02*
X12624943Y-13445293D01*
X12624943Y-13445293D02*
X12624943Y-13397674D01*
X12624943Y-13397674D02*
X12634467Y-13359579D01*
X12634467Y-13359579D02*
X12643991Y-13340531D01*
X12643991Y-13340531D02*
X12653515Y-13331008D01*
X12653515Y-13331008D02*
X12672562Y-13321484D01*
X12863039Y-13321484D02*
X12882086Y-13321484D01*
X12882086Y-13321484D02*
X12901134Y-13331008D01*
X12901134Y-13331008D02*
X12910658Y-13340531D01*
X12910658Y-13340531D02*
X12920182Y-13359579D01*
X12920182Y-13359579D02*
X12929705Y-13397674D01*
X12929705Y-13397674D02*
X12929705Y-13445293D01*
X12929705Y-13445293D02*
X12920182Y-13483388D01*
X12920182Y-13483388D02*
X12910658Y-13502436D01*
X12910658Y-13502436D02*
X12901134Y-13511960D01*
X12901134Y-13511960D02*
X12882086Y-13521484D01*
X12882086Y-13521484D02*
X12863039Y-13521484D01*
X12863039Y-13521484D02*
X12843991Y-13511960D01*
X12843991Y-13511960D02*
X12834467Y-13502436D01*
X12834467Y-13502436D02*
X12824943Y-13483388D01*
X12824943Y-13483388D02*
X12815420Y-13445293D01*
X12815420Y-13445293D02*
X12815420Y-13397674D01*
X12815420Y-13397674D02*
X12824943Y-13359579D01*
X12824943Y-13359579D02*
X12834467Y-13340531D01*
X12834467Y-13340531D02*
X12843991Y-13331008D01*
X12843991Y-13331008D02*
X12863039Y-13321484D01*
X13015420Y-13521484D02*
X13015420Y-13388150D01*
X13015420Y-13407198D02*
X13024943Y-13397674D01*
X13024943Y-13397674D02*
X13043991Y-13388150D01*
X13043991Y-13388150D02*
X13072563Y-13388150D01*
X13072563Y-13388150D02*
X13091610Y-13397674D01*
X13091610Y-13397674D02*
X13101134Y-13416722D01*
X13101134Y-13416722D02*
X13101134Y-13521484D01*
X13101134Y-13416722D02*
X13110658Y-13397674D01*
X13110658Y-13397674D02*
X13129705Y-13388150D01*
X13129705Y-13388150D02*
X13158277Y-13388150D01*
X13158277Y-13388150D02*
X13177324Y-13397674D01*
X13177324Y-13397674D02*
X13186848Y-13416722D01*
X13186848Y-13416722D02*
X13186848Y-13521484D01*
X13282086Y-13521484D02*
X13282086Y-13388150D01*
X13282086Y-13407198D02*
X13291610Y-13397674D01*
X13291610Y-13397674D02*
X13310658Y-13388150D01*
X13310658Y-13388150D02*
X13339229Y-13388150D01*
X13339229Y-13388150D02*
X13358277Y-13397674D01*
X13358277Y-13397674D02*
X13367801Y-13416722D01*
X13367801Y-13416722D02*
X13367801Y-13521484D01*
X13367801Y-13416722D02*
X13377324Y-13397674D01*
X13377324Y-13397674D02*
X13396372Y-13388150D01*
X13396372Y-13388150D02*
X13424943Y-13388150D01*
X13424943Y-13388150D02*
X13443991Y-13397674D01*
X13443991Y-13397674D02*
X13453515Y-13416722D01*
X13453515Y-13416722D02*
X13453515Y-13521484D01*
X13843991Y-13311960D02*
X13672563Y-13569103D01*
X14101134Y-13321484D02*
X14120182Y-13321484D01*
X14120182Y-13321484D02*
X14139229Y-13331008D01*
X14139229Y-13331008D02*
X14148753Y-13340531D01*
X14148753Y-13340531D02*
X14158277Y-13359579D01*
X14158277Y-13359579D02*
X14167801Y-13397674D01*
X14167801Y-13397674D02*
X14167801Y-13445293D01*
X14167801Y-13445293D02*
X14158277Y-13483388D01*
X14158277Y-13483388D02*
X14148753Y-13502436D01*
X14148753Y-13502436D02*
X14139229Y-13511960D01*
X14139229Y-13511960D02*
X14120182Y-13521484D01*
X14120182Y-13521484D02*
X14101134Y-13521484D01*
X14101134Y-13521484D02*
X14082086Y-13511960D01*
X14082086Y-13511960D02*
X14072563Y-13502436D01*
X14072563Y-13502436D02*
X14063039Y-13483388D01*
X14063039Y-13483388D02*
X14053515Y-13445293D01*
X14053515Y-13445293D02*
X14053515Y-13397674D01*
X14053515Y-13397674D02*
X14063039Y-13359579D01*
X14063039Y-13359579D02*
X14072563Y-13340531D01*
X14072563Y-13340531D02*
X14082086Y-13331008D01*
X14082086Y-13331008D02*
X14101134Y-13321484D01*
X14253515Y-13502436D02*
X14263039Y-13511960D01*
X14263039Y-13511960D02*
X14253515Y-13521484D01*
X14253515Y-13521484D02*
X14243991Y-13511960D01*
X14243991Y-13511960D02*
X14253515Y-13502436D01*
X14253515Y-13502436D02*
X14253515Y-13521484D01*
X14386848Y-13321484D02*
X14405896Y-13321484D01*
X14405896Y-13321484D02*
X14424944Y-13331008D01*
X14424944Y-13331008D02*
X14434467Y-13340531D01*
X14434467Y-13340531D02*
X14443991Y-13359579D01*
X14443991Y-13359579D02*
X14453515Y-13397674D01*
X14453515Y-13397674D02*
X14453515Y-13445293D01*
X14453515Y-13445293D02*
X14443991Y-13483388D01*
X14443991Y-13483388D02*
X14434467Y-13502436D01*
X14434467Y-13502436D02*
X14424944Y-13511960D01*
X14424944Y-13511960D02*
X14405896Y-13521484D01*
X14405896Y-13521484D02*
X14386848Y-13521484D01*
X14386848Y-13521484D02*
X14367801Y-13511960D01*
X14367801Y-13511960D02*
X14358277Y-13502436D01*
X14358277Y-13502436D02*
X14348753Y-13483388D01*
X14348753Y-13483388D02*
X14339229Y-13445293D01*
X14339229Y-13445293D02*
X14339229Y-13397674D01*
X14339229Y-13397674D02*
X14348753Y-13359579D01*
X14348753Y-13359579D02*
X14358277Y-13340531D01*
X14358277Y-13340531D02*
X14367801Y-13331008D01*
X14367801Y-13331008D02*
X14386848Y-13321484D01*
X14643991Y-13521484D02*
X14529706Y-13521484D01*
X14586848Y-13521484D02*
X14586848Y-13321484D01*
X14586848Y-13321484D02*
X14567801Y-13350055D01*
X14567801Y-13350055D02*
X14548753Y-13369103D01*
X14548753Y-13369103D02*
X14529706Y-13378627D01*
X14834467Y-13521484D02*
X14720182Y-13521484D01*
X14777325Y-13521484D02*
X14777325Y-13321484D01*
X14777325Y-13321484D02*
X14758277Y-13350055D01*
X14758277Y-13350055D02*
X14739229Y-13369103D01*
X14739229Y-13369103D02*
X14720182Y-13378627D01*
X14948753Y-13407198D02*
X14929706Y-13397674D01*
X14929706Y-13397674D02*
X14920182Y-13388150D01*
X14920182Y-13388150D02*
X14910658Y-13369103D01*
X14910658Y-13369103D02*
X14910658Y-13359579D01*
X14910658Y-13359579D02*
X14920182Y-13340531D01*
X14920182Y-13340531D02*
X14929706Y-13331008D01*
X14929706Y-13331008D02*
X14948753Y-13321484D01*
X14948753Y-13321484D02*
X14986848Y-13321484D01*
X14986848Y-13321484D02*
X15005896Y-13331008D01*
X15005896Y-13331008D02*
X15015420Y-13340531D01*
X15015420Y-13340531D02*
X15024944Y-13359579D01*
X15024944Y-13359579D02*
X15024944Y-13369103D01*
X15024944Y-13369103D02*
X15015420Y-13388150D01*
X15015420Y-13388150D02*
X15005896Y-13397674D01*
X15005896Y-13397674D02*
X14986848Y-13407198D01*
X14986848Y-13407198D02*
X14948753Y-13407198D01*
X14948753Y-13407198D02*
X14929706Y-13416722D01*
X14929706Y-13416722D02*
X14920182Y-13426246D01*
X14920182Y-13426246D02*
X14910658Y-13445293D01*
X14910658Y-13445293D02*
X14910658Y-13483388D01*
X14910658Y-13483388D02*
X14920182Y-13502436D01*
X14920182Y-13502436D02*
X14929706Y-13511960D01*
X14929706Y-13511960D02*
X14948753Y-13521484D01*
X14948753Y-13521484D02*
X14986848Y-13521484D01*
X14986848Y-13521484D02*
X15005896Y-13511960D01*
X15005896Y-13511960D02*
X15015420Y-13502436D01*
X15015420Y-13502436D02*
X15024944Y-13483388D01*
X15024944Y-13483388D02*
X15024944Y-13445293D01*
X15024944Y-13445293D02*
X15015420Y-13426246D01*
X15015420Y-13426246D02*
X15005896Y-13416722D01*
X15005896Y-13416722D02*
X14986848Y-13407198D01*
X15101134Y-13321484D02*
X15101134Y-13359579D01*
X15177325Y-13321484D02*
X15177325Y-13359579D01*
X15472563Y-13597674D02*
X15463039Y-13588150D01*
X15463039Y-13588150D02*
X15443991Y-13559579D01*
X15443991Y-13559579D02*
X15434468Y-13540531D01*
X15434468Y-13540531D02*
X15424944Y-13511960D01*
X15424944Y-13511960D02*
X15415420Y-13464341D01*
X15415420Y-13464341D02*
X15415420Y-13426246D01*
X15415420Y-13426246D02*
X15424944Y-13378627D01*
X15424944Y-13378627D02*
X15434468Y-13350055D01*
X15434468Y-13350055D02*
X15443991Y-13331008D01*
X15443991Y-13331008D02*
X15463039Y-13302436D01*
X15463039Y-13302436D02*
X15472563Y-13292912D01*
X15634468Y-13388150D02*
X15634468Y-13521484D01*
X15586848Y-13311960D02*
X15539229Y-13454817D01*
X15539229Y-13454817D02*
X15663039Y-13454817D01*
X15834468Y-13321484D02*
X15739229Y-13321484D01*
X15739229Y-13321484D02*
X15729706Y-13416722D01*
X15729706Y-13416722D02*
X15739229Y-13407198D01*
X15739229Y-13407198D02*
X15758277Y-13397674D01*
X15758277Y-13397674D02*
X15805896Y-13397674D01*
X15805896Y-13397674D02*
X15824944Y-13407198D01*
X15824944Y-13407198D02*
X15834468Y-13416722D01*
X15834468Y-13416722D02*
X15843991Y-13435769D01*
X15843991Y-13435769D02*
X15843991Y-13483388D01*
X15843991Y-13483388D02*
X15834468Y-13502436D01*
X15834468Y-13502436D02*
X15824944Y-13511960D01*
X15824944Y-13511960D02*
X15805896Y-13521484D01*
X15805896Y-13521484D02*
X15758277Y-13521484D01*
X15758277Y-13521484D02*
X15739229Y-13511960D01*
X15739229Y-13511960D02*
X15729706Y-13502436D01*
X16082087Y-13521484D02*
X16082087Y-13321484D01*
X16167801Y-13521484D02*
X16167801Y-13416722D01*
X16167801Y-13416722D02*
X16158277Y-13397674D01*
X16158277Y-13397674D02*
X16139230Y-13388150D01*
X16139230Y-13388150D02*
X16110658Y-13388150D01*
X16110658Y-13388150D02*
X16091610Y-13397674D01*
X16091610Y-13397674D02*
X16082087Y-13407198D01*
X16291610Y-13521484D02*
X16272563Y-13511960D01*
X16272563Y-13511960D02*
X16263039Y-13502436D01*
X16263039Y-13502436D02*
X16253515Y-13483388D01*
X16253515Y-13483388D02*
X16253515Y-13426246D01*
X16253515Y-13426246D02*
X16263039Y-13407198D01*
X16263039Y-13407198D02*
X16272563Y-13397674D01*
X16272563Y-13397674D02*
X16291610Y-13388150D01*
X16291610Y-13388150D02*
X16320182Y-13388150D01*
X16320182Y-13388150D02*
X16339230Y-13397674D01*
X16339230Y-13397674D02*
X16348753Y-13407198D01*
X16348753Y-13407198D02*
X16358277Y-13426246D01*
X16358277Y-13426246D02*
X16358277Y-13483388D01*
X16358277Y-13483388D02*
X16348753Y-13502436D01*
X16348753Y-13502436D02*
X16339230Y-13511960D01*
X16339230Y-13511960D02*
X16320182Y-13521484D01*
X16320182Y-13521484D02*
X16291610Y-13521484D01*
X16472563Y-13521484D02*
X16453515Y-13511960D01*
X16453515Y-13511960D02*
X16443991Y-13492912D01*
X16443991Y-13492912D02*
X16443991Y-13321484D01*
X16624944Y-13511960D02*
X16605896Y-13521484D01*
X16605896Y-13521484D02*
X16567801Y-13521484D01*
X16567801Y-13521484D02*
X16548753Y-13511960D01*
X16548753Y-13511960D02*
X16539230Y-13492912D01*
X16539230Y-13492912D02*
X16539230Y-13416722D01*
X16539230Y-13416722D02*
X16548753Y-13397674D01*
X16548753Y-13397674D02*
X16567801Y-13388150D01*
X16567801Y-13388150D02*
X16605896Y-13388150D01*
X16605896Y-13388150D02*
X16624944Y-13397674D01*
X16624944Y-13397674D02*
X16634468Y-13416722D01*
X16634468Y-13416722D02*
X16634468Y-13435769D01*
X16634468Y-13435769D02*
X16539230Y-13454817D01*
X16710658Y-13511960D02*
X16729706Y-13521484D01*
X16729706Y-13521484D02*
X16767801Y-13521484D01*
X16767801Y-13521484D02*
X16786849Y-13511960D01*
X16786849Y-13511960D02*
X16796373Y-13492912D01*
X16796373Y-13492912D02*
X16796373Y-13483388D01*
X16796373Y-13483388D02*
X16786849Y-13464341D01*
X16786849Y-13464341D02*
X16767801Y-13454817D01*
X16767801Y-13454817D02*
X16739230Y-13454817D01*
X16739230Y-13454817D02*
X16720182Y-13445293D01*
X16720182Y-13445293D02*
X16710658Y-13426246D01*
X16710658Y-13426246D02*
X16710658Y-13416722D01*
X16710658Y-13416722D02*
X16720182Y-13397674D01*
X16720182Y-13397674D02*
X16739230Y-13388150D01*
X16739230Y-13388150D02*
X16767801Y-13388150D01*
X16767801Y-13388150D02*
X16786849Y-13397674D01*
X16863039Y-13597674D02*
X16872563Y-13588150D01*
X16872563Y-13588150D02*
X16891611Y-13559579D01*
X16891611Y-13559579D02*
X16901134Y-13540531D01*
X16901134Y-13540531D02*
X16910658Y-13511960D01*
X16910658Y-13511960D02*
X16920182Y-13464341D01*
X16920182Y-13464341D02*
X16920182Y-13426246D01*
X16920182Y-13426246D02*
X16910658Y-13378627D01*
X16910658Y-13378627D02*
X16901134Y-13350055D01*
X16901134Y-13350055D02*
X16891611Y-13331008D01*
X16891611Y-13331008D02*
X16872563Y-13302436D01*
X16872563Y-13302436D02*
X16863039Y-13292912D01*
D12*
X11897500Y-13694000D02*
G75*
G02*
X11867500Y-13694000I-15000J0D01*
G01*
X11867500Y-13694000D02*
G75*
G02*
X11897500Y-13694000I15000J0D01*
G01*
D11*
X12196372Y-13585484D02*
X12215420Y-13585484D01*
X12215420Y-13585484D02*
X12234467Y-13595008D01*
X12234467Y-13595008D02*
X12243991Y-13604531D01*
X12243991Y-13604531D02*
X12253515Y-13623579D01*
X12253515Y-13623579D02*
X12263039Y-13661674D01*
X12263039Y-13661674D02*
X12263039Y-13709293D01*
X12263039Y-13709293D02*
X12253515Y-13747388D01*
X12253515Y-13747388D02*
X12243991Y-13766436D01*
X12243991Y-13766436D02*
X12234467Y-13775960D01*
X12234467Y-13775960D02*
X12215420Y-13785484D01*
X12215420Y-13785484D02*
X12196372Y-13785484D01*
X12196372Y-13785484D02*
X12177324Y-13775960D01*
X12177324Y-13775960D02*
X12167801Y-13766436D01*
X12167801Y-13766436D02*
X12158277Y-13747388D01*
X12158277Y-13747388D02*
X12148753Y-13709293D01*
X12148753Y-13709293D02*
X12148753Y-13661674D01*
X12148753Y-13661674D02*
X12158277Y-13623579D01*
X12158277Y-13623579D02*
X12167801Y-13604531D01*
X12167801Y-13604531D02*
X12177324Y-13595008D01*
X12177324Y-13595008D02*
X12196372Y-13585484D01*
X12348753Y-13766436D02*
X12358277Y-13775960D01*
X12358277Y-13775960D02*
X12348753Y-13785484D01*
X12348753Y-13785484D02*
X12339229Y-13775960D01*
X12339229Y-13775960D02*
X12348753Y-13766436D01*
X12348753Y-13766436D02*
X12348753Y-13785484D01*
X12424943Y-13585484D02*
X12548753Y-13585484D01*
X12548753Y-13585484D02*
X12482086Y-13661674D01*
X12482086Y-13661674D02*
X12510658Y-13661674D01*
X12510658Y-13661674D02*
X12529705Y-13671198D01*
X12529705Y-13671198D02*
X12539229Y-13680722D01*
X12539229Y-13680722D02*
X12548753Y-13699769D01*
X12548753Y-13699769D02*
X12548753Y-13747388D01*
X12548753Y-13747388D02*
X12539229Y-13766436D01*
X12539229Y-13766436D02*
X12529705Y-13775960D01*
X12529705Y-13775960D02*
X12510658Y-13785484D01*
X12510658Y-13785484D02*
X12453515Y-13785484D01*
X12453515Y-13785484D02*
X12434467Y-13775960D01*
X12434467Y-13775960D02*
X12424943Y-13766436D01*
X12672562Y-13585484D02*
X12691610Y-13585484D01*
X12691610Y-13585484D02*
X12710658Y-13595008D01*
X12710658Y-13595008D02*
X12720182Y-13604531D01*
X12720182Y-13604531D02*
X12729705Y-13623579D01*
X12729705Y-13623579D02*
X12739229Y-13661674D01*
X12739229Y-13661674D02*
X12739229Y-13709293D01*
X12739229Y-13709293D02*
X12729705Y-13747388D01*
X12729705Y-13747388D02*
X12720182Y-13766436D01*
X12720182Y-13766436D02*
X12710658Y-13775960D01*
X12710658Y-13775960D02*
X12691610Y-13785484D01*
X12691610Y-13785484D02*
X12672562Y-13785484D01*
X12672562Y-13785484D02*
X12653515Y-13775960D01*
X12653515Y-13775960D02*
X12643991Y-13766436D01*
X12643991Y-13766436D02*
X12634467Y-13747388D01*
X12634467Y-13747388D02*
X12624943Y-13709293D01*
X12624943Y-13709293D02*
X12624943Y-13661674D01*
X12624943Y-13661674D02*
X12634467Y-13623579D01*
X12634467Y-13623579D02*
X12643991Y-13604531D01*
X12643991Y-13604531D02*
X12653515Y-13595008D01*
X12653515Y-13595008D02*
X12672562Y-13585484D01*
X12863039Y-13585484D02*
X12882086Y-13585484D01*
X12882086Y-13585484D02*
X12901134Y-13595008D01*
X12901134Y-13595008D02*
X12910658Y-13604531D01*
X12910658Y-13604531D02*
X12920182Y-13623579D01*
X12920182Y-13623579D02*
X12929705Y-13661674D01*
X12929705Y-13661674D02*
X12929705Y-13709293D01*
X12929705Y-13709293D02*
X12920182Y-13747388D01*
X12920182Y-13747388D02*
X12910658Y-13766436D01*
X12910658Y-13766436D02*
X12901134Y-13775960D01*
X12901134Y-13775960D02*
X12882086Y-13785484D01*
X12882086Y-13785484D02*
X12863039Y-13785484D01*
X12863039Y-13785484D02*
X12843991Y-13775960D01*
X12843991Y-13775960D02*
X12834467Y-13766436D01*
X12834467Y-13766436D02*
X12824943Y-13747388D01*
X12824943Y-13747388D02*
X12815420Y-13709293D01*
X12815420Y-13709293D02*
X12815420Y-13661674D01*
X12815420Y-13661674D02*
X12824943Y-13623579D01*
X12824943Y-13623579D02*
X12834467Y-13604531D01*
X12834467Y-13604531D02*
X12843991Y-13595008D01*
X12843991Y-13595008D02*
X12863039Y-13585484D01*
X13015420Y-13785484D02*
X13015420Y-13652150D01*
X13015420Y-13671198D02*
X13024943Y-13661674D01*
X13024943Y-13661674D02*
X13043991Y-13652150D01*
X13043991Y-13652150D02*
X13072563Y-13652150D01*
X13072563Y-13652150D02*
X13091610Y-13661674D01*
X13091610Y-13661674D02*
X13101134Y-13680722D01*
X13101134Y-13680722D02*
X13101134Y-13785484D01*
X13101134Y-13680722D02*
X13110658Y-13661674D01*
X13110658Y-13661674D02*
X13129705Y-13652150D01*
X13129705Y-13652150D02*
X13158277Y-13652150D01*
X13158277Y-13652150D02*
X13177324Y-13661674D01*
X13177324Y-13661674D02*
X13186848Y-13680722D01*
X13186848Y-13680722D02*
X13186848Y-13785484D01*
X13282086Y-13785484D02*
X13282086Y-13652150D01*
X13282086Y-13671198D02*
X13291610Y-13661674D01*
X13291610Y-13661674D02*
X13310658Y-13652150D01*
X13310658Y-13652150D02*
X13339229Y-13652150D01*
X13339229Y-13652150D02*
X13358277Y-13661674D01*
X13358277Y-13661674D02*
X13367801Y-13680722D01*
X13367801Y-13680722D02*
X13367801Y-13785484D01*
X13367801Y-13680722D02*
X13377324Y-13661674D01*
X13377324Y-13661674D02*
X13396372Y-13652150D01*
X13396372Y-13652150D02*
X13424943Y-13652150D01*
X13424943Y-13652150D02*
X13443991Y-13661674D01*
X13443991Y-13661674D02*
X13453515Y-13680722D01*
X13453515Y-13680722D02*
X13453515Y-13785484D01*
X13843991Y-13575960D02*
X13672563Y-13833103D01*
X14101134Y-13585484D02*
X14120182Y-13585484D01*
X14120182Y-13585484D02*
X14139229Y-13595008D01*
X14139229Y-13595008D02*
X14148753Y-13604531D01*
X14148753Y-13604531D02*
X14158277Y-13623579D01*
X14158277Y-13623579D02*
X14167801Y-13661674D01*
X14167801Y-13661674D02*
X14167801Y-13709293D01*
X14167801Y-13709293D02*
X14158277Y-13747388D01*
X14158277Y-13747388D02*
X14148753Y-13766436D01*
X14148753Y-13766436D02*
X14139229Y-13775960D01*
X14139229Y-13775960D02*
X14120182Y-13785484D01*
X14120182Y-13785484D02*
X14101134Y-13785484D01*
X14101134Y-13785484D02*
X14082086Y-13775960D01*
X14082086Y-13775960D02*
X14072563Y-13766436D01*
X14072563Y-13766436D02*
X14063039Y-13747388D01*
X14063039Y-13747388D02*
X14053515Y-13709293D01*
X14053515Y-13709293D02*
X14053515Y-13661674D01*
X14053515Y-13661674D02*
X14063039Y-13623579D01*
X14063039Y-13623579D02*
X14072563Y-13604531D01*
X14072563Y-13604531D02*
X14082086Y-13595008D01*
X14082086Y-13595008D02*
X14101134Y-13585484D01*
X14253515Y-13766436D02*
X14263039Y-13775960D01*
X14263039Y-13775960D02*
X14253515Y-13785484D01*
X14253515Y-13785484D02*
X14243991Y-13775960D01*
X14243991Y-13775960D02*
X14253515Y-13766436D01*
X14253515Y-13766436D02*
X14253515Y-13785484D01*
X14386848Y-13585484D02*
X14405896Y-13585484D01*
X14405896Y-13585484D02*
X14424944Y-13595008D01*
X14424944Y-13595008D02*
X14434467Y-13604531D01*
X14434467Y-13604531D02*
X14443991Y-13623579D01*
X14443991Y-13623579D02*
X14453515Y-13661674D01*
X14453515Y-13661674D02*
X14453515Y-13709293D01*
X14453515Y-13709293D02*
X14443991Y-13747388D01*
X14443991Y-13747388D02*
X14434467Y-13766436D01*
X14434467Y-13766436D02*
X14424944Y-13775960D01*
X14424944Y-13775960D02*
X14405896Y-13785484D01*
X14405896Y-13785484D02*
X14386848Y-13785484D01*
X14386848Y-13785484D02*
X14367801Y-13775960D01*
X14367801Y-13775960D02*
X14358277Y-13766436D01*
X14358277Y-13766436D02*
X14348753Y-13747388D01*
X14348753Y-13747388D02*
X14339229Y-13709293D01*
X14339229Y-13709293D02*
X14339229Y-13661674D01*
X14339229Y-13661674D02*
X14348753Y-13623579D01*
X14348753Y-13623579D02*
X14358277Y-13604531D01*
X14358277Y-13604531D02*
X14367801Y-13595008D01*
X14367801Y-13595008D02*
X14386848Y-13585484D01*
X14643991Y-13785484D02*
X14529706Y-13785484D01*
X14586848Y-13785484D02*
X14586848Y-13585484D01*
X14586848Y-13585484D02*
X14567801Y-13614055D01*
X14567801Y-13614055D02*
X14548753Y-13633103D01*
X14548753Y-13633103D02*
X14529706Y-13642627D01*
X14834467Y-13785484D02*
X14720182Y-13785484D01*
X14777325Y-13785484D02*
X14777325Y-13585484D01*
X14777325Y-13585484D02*
X14758277Y-13614055D01*
X14758277Y-13614055D02*
X14739229Y-13633103D01*
X14739229Y-13633103D02*
X14720182Y-13642627D01*
X14948753Y-13671198D02*
X14929706Y-13661674D01*
X14929706Y-13661674D02*
X14920182Y-13652150D01*
X14920182Y-13652150D02*
X14910658Y-13633103D01*
X14910658Y-13633103D02*
X14910658Y-13623579D01*
X14910658Y-13623579D02*
X14920182Y-13604531D01*
X14920182Y-13604531D02*
X14929706Y-13595008D01*
X14929706Y-13595008D02*
X14948753Y-13585484D01*
X14948753Y-13585484D02*
X14986848Y-13585484D01*
X14986848Y-13585484D02*
X15005896Y-13595008D01*
X15005896Y-13595008D02*
X15015420Y-13604531D01*
X15015420Y-13604531D02*
X15024944Y-13623579D01*
X15024944Y-13623579D02*
X15024944Y-13633103D01*
X15024944Y-13633103D02*
X15015420Y-13652150D01*
X15015420Y-13652150D02*
X15005896Y-13661674D01*
X15005896Y-13661674D02*
X14986848Y-13671198D01*
X14986848Y-13671198D02*
X14948753Y-13671198D01*
X14948753Y-13671198D02*
X14929706Y-13680722D01*
X14929706Y-13680722D02*
X14920182Y-13690246D01*
X14920182Y-13690246D02*
X14910658Y-13709293D01*
X14910658Y-13709293D02*
X14910658Y-13747388D01*
X14910658Y-13747388D02*
X14920182Y-13766436D01*
X14920182Y-13766436D02*
X14929706Y-13775960D01*
X14929706Y-13775960D02*
X14948753Y-13785484D01*
X14948753Y-13785484D02*
X14986848Y-13785484D01*
X14986848Y-13785484D02*
X15005896Y-13775960D01*
X15005896Y-13775960D02*
X15015420Y-13766436D01*
X15015420Y-13766436D02*
X15024944Y-13747388D01*
X15024944Y-13747388D02*
X15024944Y-13709293D01*
X15024944Y-13709293D02*
X15015420Y-13690246D01*
X15015420Y-13690246D02*
X15005896Y-13680722D01*
X15005896Y-13680722D02*
X14986848Y-13671198D01*
X15101134Y-13585484D02*
X15101134Y-13623579D01*
X15177325Y-13585484D02*
X15177325Y-13623579D01*
X15472563Y-13861674D02*
X15463039Y-13852150D01*
X15463039Y-13852150D02*
X15443991Y-13823579D01*
X15443991Y-13823579D02*
X15434468Y-13804531D01*
X15434468Y-13804531D02*
X15424944Y-13775960D01*
X15424944Y-13775960D02*
X15415420Y-13728341D01*
X15415420Y-13728341D02*
X15415420Y-13690246D01*
X15415420Y-13690246D02*
X15424944Y-13642627D01*
X15424944Y-13642627D02*
X15434468Y-13614055D01*
X15434468Y-13614055D02*
X15443991Y-13595008D01*
X15443991Y-13595008D02*
X15463039Y-13566436D01*
X15463039Y-13566436D02*
X15472563Y-13556912D01*
X15653515Y-13785484D02*
X15539229Y-13785484D01*
X15596372Y-13785484D02*
X15596372Y-13585484D01*
X15596372Y-13585484D02*
X15577325Y-13614055D01*
X15577325Y-13614055D02*
X15558277Y-13633103D01*
X15558277Y-13633103D02*
X15539229Y-13642627D01*
X15729706Y-13604531D02*
X15739229Y-13595008D01*
X15739229Y-13595008D02*
X15758277Y-13585484D01*
X15758277Y-13585484D02*
X15805896Y-13585484D01*
X15805896Y-13585484D02*
X15824944Y-13595008D01*
X15824944Y-13595008D02*
X15834468Y-13604531D01*
X15834468Y-13604531D02*
X15843991Y-13623579D01*
X15843991Y-13623579D02*
X15843991Y-13642627D01*
X15843991Y-13642627D02*
X15834468Y-13671198D01*
X15834468Y-13671198D02*
X15720182Y-13785484D01*
X15720182Y-13785484D02*
X15843991Y-13785484D01*
X16082087Y-13785484D02*
X16082087Y-13585484D01*
X16167801Y-13785484D02*
X16167801Y-13680722D01*
X16167801Y-13680722D02*
X16158277Y-13661674D01*
X16158277Y-13661674D02*
X16139230Y-13652150D01*
X16139230Y-13652150D02*
X16110658Y-13652150D01*
X16110658Y-13652150D02*
X16091610Y-13661674D01*
X16091610Y-13661674D02*
X16082087Y-13671198D01*
X16291610Y-13785484D02*
X16272563Y-13775960D01*
X16272563Y-13775960D02*
X16263039Y-13766436D01*
X16263039Y-13766436D02*
X16253515Y-13747388D01*
X16253515Y-13747388D02*
X16253515Y-13690246D01*
X16253515Y-13690246D02*
X16263039Y-13671198D01*
X16263039Y-13671198D02*
X16272563Y-13661674D01*
X16272563Y-13661674D02*
X16291610Y-13652150D01*
X16291610Y-13652150D02*
X16320182Y-13652150D01*
X16320182Y-13652150D02*
X16339230Y-13661674D01*
X16339230Y-13661674D02*
X16348753Y-13671198D01*
X16348753Y-13671198D02*
X16358277Y-13690246D01*
X16358277Y-13690246D02*
X16358277Y-13747388D01*
X16358277Y-13747388D02*
X16348753Y-13766436D01*
X16348753Y-13766436D02*
X16339230Y-13775960D01*
X16339230Y-13775960D02*
X16320182Y-13785484D01*
X16320182Y-13785484D02*
X16291610Y-13785484D01*
X16472563Y-13785484D02*
X16453515Y-13775960D01*
X16453515Y-13775960D02*
X16443991Y-13756912D01*
X16443991Y-13756912D02*
X16443991Y-13585484D01*
X16624944Y-13775960D02*
X16605896Y-13785484D01*
X16605896Y-13785484D02*
X16567801Y-13785484D01*
X16567801Y-13785484D02*
X16548753Y-13775960D01*
X16548753Y-13775960D02*
X16539230Y-13756912D01*
X16539230Y-13756912D02*
X16539230Y-13680722D01*
X16539230Y-13680722D02*
X16548753Y-13661674D01*
X16548753Y-13661674D02*
X16567801Y-13652150D01*
X16567801Y-13652150D02*
X16605896Y-13652150D01*
X16605896Y-13652150D02*
X16624944Y-13661674D01*
X16624944Y-13661674D02*
X16634468Y-13680722D01*
X16634468Y-13680722D02*
X16634468Y-13699769D01*
X16634468Y-13699769D02*
X16539230Y-13718817D01*
X16710658Y-13775960D02*
X16729706Y-13785484D01*
X16729706Y-13785484D02*
X16767801Y-13785484D01*
X16767801Y-13785484D02*
X16786849Y-13775960D01*
X16786849Y-13775960D02*
X16796373Y-13756912D01*
X16796373Y-13756912D02*
X16796373Y-13747388D01*
X16796373Y-13747388D02*
X16786849Y-13728341D01*
X16786849Y-13728341D02*
X16767801Y-13718817D01*
X16767801Y-13718817D02*
X16739230Y-13718817D01*
X16739230Y-13718817D02*
X16720182Y-13709293D01*
X16720182Y-13709293D02*
X16710658Y-13690246D01*
X16710658Y-13690246D02*
X16710658Y-13680722D01*
X16710658Y-13680722D02*
X16720182Y-13661674D01*
X16720182Y-13661674D02*
X16739230Y-13652150D01*
X16739230Y-13652150D02*
X16767801Y-13652150D01*
X16767801Y-13652150D02*
X16786849Y-13661674D01*
X16863039Y-13861674D02*
X16872563Y-13852150D01*
X16872563Y-13852150D02*
X16891611Y-13823579D01*
X16891611Y-13823579D02*
X16901134Y-13804531D01*
X16901134Y-13804531D02*
X16910658Y-13775960D01*
X16910658Y-13775960D02*
X16920182Y-13728341D01*
X16920182Y-13728341D02*
X16920182Y-13690246D01*
X16920182Y-13690246D02*
X16910658Y-13642627D01*
X16910658Y-13642627D02*
X16901134Y-13614055D01*
X16901134Y-13614055D02*
X16891611Y-13595008D01*
X16891611Y-13595008D02*
X16872563Y-13566436D01*
X16872563Y-13566436D02*
X16863039Y-13556912D01*
D12*
X11867500Y-13928000D02*
X11867500Y-13988000D01*
X11837500Y-13958000D02*
X11897500Y-13958000D01*
D11*
X12196372Y-13849484D02*
X12215420Y-13849484D01*
X12215420Y-13849484D02*
X12234467Y-13859008D01*
X12234467Y-13859008D02*
X12243991Y-13868531D01*
X12243991Y-13868531D02*
X12253515Y-13887579D01*
X12253515Y-13887579D02*
X12263039Y-13925674D01*
X12263039Y-13925674D02*
X12263039Y-13973293D01*
X12263039Y-13973293D02*
X12253515Y-14011388D01*
X12253515Y-14011388D02*
X12243991Y-14030436D01*
X12243991Y-14030436D02*
X12234467Y-14039960D01*
X12234467Y-14039960D02*
X12215420Y-14049484D01*
X12215420Y-14049484D02*
X12196372Y-14049484D01*
X12196372Y-14049484D02*
X12177324Y-14039960D01*
X12177324Y-14039960D02*
X12167801Y-14030436D01*
X12167801Y-14030436D02*
X12158277Y-14011388D01*
X12158277Y-14011388D02*
X12148753Y-13973293D01*
X12148753Y-13973293D02*
X12148753Y-13925674D01*
X12148753Y-13925674D02*
X12158277Y-13887579D01*
X12158277Y-13887579D02*
X12167801Y-13868531D01*
X12167801Y-13868531D02*
X12177324Y-13859008D01*
X12177324Y-13859008D02*
X12196372Y-13849484D01*
X12348753Y-14030436D02*
X12358277Y-14039960D01*
X12358277Y-14039960D02*
X12348753Y-14049484D01*
X12348753Y-14049484D02*
X12339229Y-14039960D01*
X12339229Y-14039960D02*
X12348753Y-14030436D01*
X12348753Y-14030436D02*
X12348753Y-14049484D01*
X12529705Y-13849484D02*
X12491610Y-13849484D01*
X12491610Y-13849484D02*
X12472562Y-13859008D01*
X12472562Y-13859008D02*
X12463039Y-13868531D01*
X12463039Y-13868531D02*
X12443991Y-13897103D01*
X12443991Y-13897103D02*
X12434467Y-13935198D01*
X12434467Y-13935198D02*
X12434467Y-14011388D01*
X12434467Y-14011388D02*
X12443991Y-14030436D01*
X12443991Y-14030436D02*
X12453515Y-14039960D01*
X12453515Y-14039960D02*
X12472562Y-14049484D01*
X12472562Y-14049484D02*
X12510658Y-14049484D01*
X12510658Y-14049484D02*
X12529705Y-14039960D01*
X12529705Y-14039960D02*
X12539229Y-14030436D01*
X12539229Y-14030436D02*
X12548753Y-14011388D01*
X12548753Y-14011388D02*
X12548753Y-13963769D01*
X12548753Y-13963769D02*
X12539229Y-13944722D01*
X12539229Y-13944722D02*
X12529705Y-13935198D01*
X12529705Y-13935198D02*
X12510658Y-13925674D01*
X12510658Y-13925674D02*
X12472562Y-13925674D01*
X12472562Y-13925674D02*
X12453515Y-13935198D01*
X12453515Y-13935198D02*
X12443991Y-13944722D01*
X12443991Y-13944722D02*
X12434467Y-13963769D01*
X12672562Y-13849484D02*
X12691610Y-13849484D01*
X12691610Y-13849484D02*
X12710658Y-13859008D01*
X12710658Y-13859008D02*
X12720182Y-13868531D01*
X12720182Y-13868531D02*
X12729705Y-13887579D01*
X12729705Y-13887579D02*
X12739229Y-13925674D01*
X12739229Y-13925674D02*
X12739229Y-13973293D01*
X12739229Y-13973293D02*
X12729705Y-14011388D01*
X12729705Y-14011388D02*
X12720182Y-14030436D01*
X12720182Y-14030436D02*
X12710658Y-14039960D01*
X12710658Y-14039960D02*
X12691610Y-14049484D01*
X12691610Y-14049484D02*
X12672562Y-14049484D01*
X12672562Y-14049484D02*
X12653515Y-14039960D01*
X12653515Y-14039960D02*
X12643991Y-14030436D01*
X12643991Y-14030436D02*
X12634467Y-14011388D01*
X12634467Y-14011388D02*
X12624943Y-13973293D01*
X12624943Y-13973293D02*
X12624943Y-13925674D01*
X12624943Y-13925674D02*
X12634467Y-13887579D01*
X12634467Y-13887579D02*
X12643991Y-13868531D01*
X12643991Y-13868531D02*
X12653515Y-13859008D01*
X12653515Y-13859008D02*
X12672562Y-13849484D01*
X12863039Y-13849484D02*
X12882086Y-13849484D01*
X12882086Y-13849484D02*
X12901134Y-13859008D01*
X12901134Y-13859008D02*
X12910658Y-13868531D01*
X12910658Y-13868531D02*
X12920182Y-13887579D01*
X12920182Y-13887579D02*
X12929705Y-13925674D01*
X12929705Y-13925674D02*
X12929705Y-13973293D01*
X12929705Y-13973293D02*
X12920182Y-14011388D01*
X12920182Y-14011388D02*
X12910658Y-14030436D01*
X12910658Y-14030436D02*
X12901134Y-14039960D01*
X12901134Y-14039960D02*
X12882086Y-14049484D01*
X12882086Y-14049484D02*
X12863039Y-14049484D01*
X12863039Y-14049484D02*
X12843991Y-14039960D01*
X12843991Y-14039960D02*
X12834467Y-14030436D01*
X12834467Y-14030436D02*
X12824943Y-14011388D01*
X12824943Y-14011388D02*
X12815420Y-13973293D01*
X12815420Y-13973293D02*
X12815420Y-13925674D01*
X12815420Y-13925674D02*
X12824943Y-13887579D01*
X12824943Y-13887579D02*
X12834467Y-13868531D01*
X12834467Y-13868531D02*
X12843991Y-13859008D01*
X12843991Y-13859008D02*
X12863039Y-13849484D01*
X13015420Y-14049484D02*
X13015420Y-13916150D01*
X13015420Y-13935198D02*
X13024943Y-13925674D01*
X13024943Y-13925674D02*
X13043991Y-13916150D01*
X13043991Y-13916150D02*
X13072563Y-13916150D01*
X13072563Y-13916150D02*
X13091610Y-13925674D01*
X13091610Y-13925674D02*
X13101134Y-13944722D01*
X13101134Y-13944722D02*
X13101134Y-14049484D01*
X13101134Y-13944722D02*
X13110658Y-13925674D01*
X13110658Y-13925674D02*
X13129705Y-13916150D01*
X13129705Y-13916150D02*
X13158277Y-13916150D01*
X13158277Y-13916150D02*
X13177324Y-13925674D01*
X13177324Y-13925674D02*
X13186848Y-13944722D01*
X13186848Y-13944722D02*
X13186848Y-14049484D01*
X13282086Y-14049484D02*
X13282086Y-13916150D01*
X13282086Y-13935198D02*
X13291610Y-13925674D01*
X13291610Y-13925674D02*
X13310658Y-13916150D01*
X13310658Y-13916150D02*
X13339229Y-13916150D01*
X13339229Y-13916150D02*
X13358277Y-13925674D01*
X13358277Y-13925674D02*
X13367801Y-13944722D01*
X13367801Y-13944722D02*
X13367801Y-14049484D01*
X13367801Y-13944722D02*
X13377324Y-13925674D01*
X13377324Y-13925674D02*
X13396372Y-13916150D01*
X13396372Y-13916150D02*
X13424943Y-13916150D01*
X13424943Y-13916150D02*
X13443991Y-13925674D01*
X13443991Y-13925674D02*
X13453515Y-13944722D01*
X13453515Y-13944722D02*
X13453515Y-14049484D01*
X13843991Y-13839960D02*
X13672563Y-14097103D01*
X14101134Y-13849484D02*
X14120182Y-13849484D01*
X14120182Y-13849484D02*
X14139229Y-13859008D01*
X14139229Y-13859008D02*
X14148753Y-13868531D01*
X14148753Y-13868531D02*
X14158277Y-13887579D01*
X14158277Y-13887579D02*
X14167801Y-13925674D01*
X14167801Y-13925674D02*
X14167801Y-13973293D01*
X14167801Y-13973293D02*
X14158277Y-14011388D01*
X14158277Y-14011388D02*
X14148753Y-14030436D01*
X14148753Y-14030436D02*
X14139229Y-14039960D01*
X14139229Y-14039960D02*
X14120182Y-14049484D01*
X14120182Y-14049484D02*
X14101134Y-14049484D01*
X14101134Y-14049484D02*
X14082086Y-14039960D01*
X14082086Y-14039960D02*
X14072563Y-14030436D01*
X14072563Y-14030436D02*
X14063039Y-14011388D01*
X14063039Y-14011388D02*
X14053515Y-13973293D01*
X14053515Y-13973293D02*
X14053515Y-13925674D01*
X14053515Y-13925674D02*
X14063039Y-13887579D01*
X14063039Y-13887579D02*
X14072563Y-13868531D01*
X14072563Y-13868531D02*
X14082086Y-13859008D01*
X14082086Y-13859008D02*
X14101134Y-13849484D01*
X14253515Y-14030436D02*
X14263039Y-14039960D01*
X14263039Y-14039960D02*
X14253515Y-14049484D01*
X14253515Y-14049484D02*
X14243991Y-14039960D01*
X14243991Y-14039960D02*
X14253515Y-14030436D01*
X14253515Y-14030436D02*
X14253515Y-14049484D01*
X14386848Y-13849484D02*
X14405896Y-13849484D01*
X14405896Y-13849484D02*
X14424944Y-13859008D01*
X14424944Y-13859008D02*
X14434467Y-13868531D01*
X14434467Y-13868531D02*
X14443991Y-13887579D01*
X14443991Y-13887579D02*
X14453515Y-13925674D01*
X14453515Y-13925674D02*
X14453515Y-13973293D01*
X14453515Y-13973293D02*
X14443991Y-14011388D01*
X14443991Y-14011388D02*
X14434467Y-14030436D01*
X14434467Y-14030436D02*
X14424944Y-14039960D01*
X14424944Y-14039960D02*
X14405896Y-14049484D01*
X14405896Y-14049484D02*
X14386848Y-14049484D01*
X14386848Y-14049484D02*
X14367801Y-14039960D01*
X14367801Y-14039960D02*
X14358277Y-14030436D01*
X14358277Y-14030436D02*
X14348753Y-14011388D01*
X14348753Y-14011388D02*
X14339229Y-13973293D01*
X14339229Y-13973293D02*
X14339229Y-13925674D01*
X14339229Y-13925674D02*
X14348753Y-13887579D01*
X14348753Y-13887579D02*
X14358277Y-13868531D01*
X14358277Y-13868531D02*
X14367801Y-13859008D01*
X14367801Y-13859008D02*
X14386848Y-13849484D01*
X14529706Y-13868531D02*
X14539229Y-13859008D01*
X14539229Y-13859008D02*
X14558277Y-13849484D01*
X14558277Y-13849484D02*
X14605896Y-13849484D01*
X14605896Y-13849484D02*
X14624944Y-13859008D01*
X14624944Y-13859008D02*
X14634467Y-13868531D01*
X14634467Y-13868531D02*
X14643991Y-13887579D01*
X14643991Y-13887579D02*
X14643991Y-13906627D01*
X14643991Y-13906627D02*
X14634467Y-13935198D01*
X14634467Y-13935198D02*
X14520182Y-14049484D01*
X14520182Y-14049484D02*
X14643991Y-14049484D01*
X14710658Y-13849484D02*
X14834467Y-13849484D01*
X14834467Y-13849484D02*
X14767801Y-13925674D01*
X14767801Y-13925674D02*
X14796372Y-13925674D01*
X14796372Y-13925674D02*
X14815420Y-13935198D01*
X14815420Y-13935198D02*
X14824944Y-13944722D01*
X14824944Y-13944722D02*
X14834467Y-13963769D01*
X14834467Y-13963769D02*
X14834467Y-14011388D01*
X14834467Y-14011388D02*
X14824944Y-14030436D01*
X14824944Y-14030436D02*
X14815420Y-14039960D01*
X14815420Y-14039960D02*
X14796372Y-14049484D01*
X14796372Y-14049484D02*
X14739229Y-14049484D01*
X14739229Y-14049484D02*
X14720182Y-14039960D01*
X14720182Y-14039960D02*
X14710658Y-14030436D01*
X15005896Y-13849484D02*
X14967801Y-13849484D01*
X14967801Y-13849484D02*
X14948753Y-13859008D01*
X14948753Y-13859008D02*
X14939229Y-13868531D01*
X14939229Y-13868531D02*
X14920182Y-13897103D01*
X14920182Y-13897103D02*
X14910658Y-13935198D01*
X14910658Y-13935198D02*
X14910658Y-14011388D01*
X14910658Y-14011388D02*
X14920182Y-14030436D01*
X14920182Y-14030436D02*
X14929706Y-14039960D01*
X14929706Y-14039960D02*
X14948753Y-14049484D01*
X14948753Y-14049484D02*
X14986848Y-14049484D01*
X14986848Y-14049484D02*
X15005896Y-14039960D01*
X15005896Y-14039960D02*
X15015420Y-14030436D01*
X15015420Y-14030436D02*
X15024944Y-14011388D01*
X15024944Y-14011388D02*
X15024944Y-13963769D01*
X15024944Y-13963769D02*
X15015420Y-13944722D01*
X15015420Y-13944722D02*
X15005896Y-13935198D01*
X15005896Y-13935198D02*
X14986848Y-13925674D01*
X14986848Y-13925674D02*
X14948753Y-13925674D01*
X14948753Y-13925674D02*
X14929706Y-13935198D01*
X14929706Y-13935198D02*
X14920182Y-13944722D01*
X14920182Y-13944722D02*
X14910658Y-13963769D01*
X15101134Y-13849484D02*
X15101134Y-13887579D01*
X15177325Y-13849484D02*
X15177325Y-13887579D01*
X15472563Y-14125674D02*
X15463039Y-14116150D01*
X15463039Y-14116150D02*
X15443991Y-14087579D01*
X15443991Y-14087579D02*
X15434468Y-14068531D01*
X15434468Y-14068531D02*
X15424944Y-14039960D01*
X15424944Y-14039960D02*
X15415420Y-13992341D01*
X15415420Y-13992341D02*
X15415420Y-13954246D01*
X15415420Y-13954246D02*
X15424944Y-13906627D01*
X15424944Y-13906627D02*
X15434468Y-13878055D01*
X15434468Y-13878055D02*
X15443991Y-13859008D01*
X15443991Y-13859008D02*
X15463039Y-13830436D01*
X15463039Y-13830436D02*
X15472563Y-13820912D01*
X15586848Y-13849484D02*
X15605896Y-13849484D01*
X15605896Y-13849484D02*
X15624944Y-13859008D01*
X15624944Y-13859008D02*
X15634468Y-13868531D01*
X15634468Y-13868531D02*
X15643991Y-13887579D01*
X15643991Y-13887579D02*
X15653515Y-13925674D01*
X15653515Y-13925674D02*
X15653515Y-13973293D01*
X15653515Y-13973293D02*
X15643991Y-14011388D01*
X15643991Y-14011388D02*
X15634468Y-14030436D01*
X15634468Y-14030436D02*
X15624944Y-14039960D01*
X15624944Y-14039960D02*
X15605896Y-14049484D01*
X15605896Y-14049484D02*
X15586848Y-14049484D01*
X15586848Y-14049484D02*
X15567801Y-14039960D01*
X15567801Y-14039960D02*
X15558277Y-14030436D01*
X15558277Y-14030436D02*
X15548753Y-14011388D01*
X15548753Y-14011388D02*
X15539229Y-13973293D01*
X15539229Y-13973293D02*
X15539229Y-13925674D01*
X15539229Y-13925674D02*
X15548753Y-13887579D01*
X15548753Y-13887579D02*
X15558277Y-13868531D01*
X15558277Y-13868531D02*
X15567801Y-13859008D01*
X15567801Y-13859008D02*
X15586848Y-13849484D01*
X15891610Y-14049484D02*
X15891610Y-13849484D01*
X15977325Y-14049484D02*
X15977325Y-13944722D01*
X15977325Y-13944722D02*
X15967801Y-13925674D01*
X15967801Y-13925674D02*
X15948753Y-13916150D01*
X15948753Y-13916150D02*
X15920182Y-13916150D01*
X15920182Y-13916150D02*
X15901134Y-13925674D01*
X15901134Y-13925674D02*
X15891610Y-13935198D01*
X16101134Y-14049484D02*
X16082087Y-14039960D01*
X16082087Y-14039960D02*
X16072563Y-14030436D01*
X16072563Y-14030436D02*
X16063039Y-14011388D01*
X16063039Y-14011388D02*
X16063039Y-13954246D01*
X16063039Y-13954246D02*
X16072563Y-13935198D01*
X16072563Y-13935198D02*
X16082087Y-13925674D01*
X16082087Y-13925674D02*
X16101134Y-13916150D01*
X16101134Y-13916150D02*
X16129706Y-13916150D01*
X16129706Y-13916150D02*
X16148753Y-13925674D01*
X16148753Y-13925674D02*
X16158277Y-13935198D01*
X16158277Y-13935198D02*
X16167801Y-13954246D01*
X16167801Y-13954246D02*
X16167801Y-14011388D01*
X16167801Y-14011388D02*
X16158277Y-14030436D01*
X16158277Y-14030436D02*
X16148753Y-14039960D01*
X16148753Y-14039960D02*
X16129706Y-14049484D01*
X16129706Y-14049484D02*
X16101134Y-14049484D01*
X16282087Y-14049484D02*
X16263039Y-14039960D01*
X16263039Y-14039960D02*
X16253515Y-14020912D01*
X16253515Y-14020912D02*
X16253515Y-13849484D01*
X16434468Y-14039960D02*
X16415420Y-14049484D01*
X16415420Y-14049484D02*
X16377325Y-14049484D01*
X16377325Y-14049484D02*
X16358277Y-14039960D01*
X16358277Y-14039960D02*
X16348753Y-14020912D01*
X16348753Y-14020912D02*
X16348753Y-13944722D01*
X16348753Y-13944722D02*
X16358277Y-13925674D01*
X16358277Y-13925674D02*
X16377325Y-13916150D01*
X16377325Y-13916150D02*
X16415420Y-13916150D01*
X16415420Y-13916150D02*
X16434468Y-13925674D01*
X16434468Y-13925674D02*
X16443991Y-13944722D01*
X16443991Y-13944722D02*
X16443991Y-13963769D01*
X16443991Y-13963769D02*
X16348753Y-13982817D01*
X16520182Y-14039960D02*
X16539230Y-14049484D01*
X16539230Y-14049484D02*
X16577325Y-14049484D01*
X16577325Y-14049484D02*
X16596372Y-14039960D01*
X16596372Y-14039960D02*
X16605896Y-14020912D01*
X16605896Y-14020912D02*
X16605896Y-14011388D01*
X16605896Y-14011388D02*
X16596372Y-13992341D01*
X16596372Y-13992341D02*
X16577325Y-13982817D01*
X16577325Y-13982817D02*
X16548753Y-13982817D01*
X16548753Y-13982817D02*
X16529706Y-13973293D01*
X16529706Y-13973293D02*
X16520182Y-13954246D01*
X16520182Y-13954246D02*
X16520182Y-13944722D01*
X16520182Y-13944722D02*
X16529706Y-13925674D01*
X16529706Y-13925674D02*
X16548753Y-13916150D01*
X16548753Y-13916150D02*
X16577325Y-13916150D01*
X16577325Y-13916150D02*
X16596372Y-13925674D01*
X16843992Y-13973293D02*
X16996373Y-13973293D01*
X16920182Y-14049484D02*
X16920182Y-13897103D01*
X17329706Y-13916150D02*
X17329706Y-14049484D01*
X17282087Y-13839960D02*
X17234468Y-13982817D01*
X17234468Y-13982817D02*
X17358277Y-13982817D01*
X17577325Y-14039960D02*
X17596373Y-14049484D01*
X17596373Y-14049484D02*
X17634468Y-14049484D01*
X17634468Y-14049484D02*
X17653516Y-14039960D01*
X17653516Y-14039960D02*
X17663039Y-14020912D01*
X17663039Y-14020912D02*
X17663039Y-14011388D01*
X17663039Y-14011388D02*
X17653516Y-13992341D01*
X17653516Y-13992341D02*
X17634468Y-13982817D01*
X17634468Y-13982817D02*
X17605896Y-13982817D01*
X17605896Y-13982817D02*
X17586849Y-13973293D01*
X17586849Y-13973293D02*
X17577325Y-13954246D01*
X17577325Y-13954246D02*
X17577325Y-13944722D01*
X17577325Y-13944722D02*
X17586849Y-13925674D01*
X17586849Y-13925674D02*
X17605896Y-13916150D01*
X17605896Y-13916150D02*
X17634468Y-13916150D01*
X17634468Y-13916150D02*
X17653516Y-13925674D01*
X17777325Y-14049484D02*
X17758277Y-14039960D01*
X17758277Y-14039960D02*
X17748754Y-14020912D01*
X17748754Y-14020912D02*
X17748754Y-13849484D01*
X17882087Y-14049484D02*
X17863039Y-14039960D01*
X17863039Y-14039960D02*
X17853516Y-14030436D01*
X17853516Y-14030436D02*
X17843992Y-14011388D01*
X17843992Y-14011388D02*
X17843992Y-13954246D01*
X17843992Y-13954246D02*
X17853516Y-13935198D01*
X17853516Y-13935198D02*
X17863039Y-13925674D01*
X17863039Y-13925674D02*
X17882087Y-13916150D01*
X17882087Y-13916150D02*
X17910658Y-13916150D01*
X17910658Y-13916150D02*
X17929706Y-13925674D01*
X17929706Y-13925674D02*
X17939230Y-13935198D01*
X17939230Y-13935198D02*
X17948754Y-13954246D01*
X17948754Y-13954246D02*
X17948754Y-14011388D01*
X17948754Y-14011388D02*
X17939230Y-14030436D01*
X17939230Y-14030436D02*
X17929706Y-14039960D01*
X17929706Y-14039960D02*
X17910658Y-14049484D01*
X17910658Y-14049484D02*
X17882087Y-14049484D01*
X18005897Y-13916150D02*
X18082087Y-13916150D01*
X18034468Y-13849484D02*
X18034468Y-14020912D01*
X18034468Y-14020912D02*
X18043992Y-14039960D01*
X18043992Y-14039960D02*
X18063039Y-14049484D01*
X18063039Y-14049484D02*
X18082087Y-14049484D01*
X18139230Y-14039960D02*
X18158277Y-14049484D01*
X18158277Y-14049484D02*
X18196373Y-14049484D01*
X18196373Y-14049484D02*
X18215420Y-14039960D01*
X18215420Y-14039960D02*
X18224944Y-14020912D01*
X18224944Y-14020912D02*
X18224944Y-14011388D01*
X18224944Y-14011388D02*
X18215420Y-13992341D01*
X18215420Y-13992341D02*
X18196373Y-13982817D01*
X18196373Y-13982817D02*
X18167801Y-13982817D01*
X18167801Y-13982817D02*
X18148754Y-13973293D01*
X18148754Y-13973293D02*
X18139230Y-13954246D01*
X18139230Y-13954246D02*
X18139230Y-13944722D01*
X18139230Y-13944722D02*
X18148754Y-13925674D01*
X18148754Y-13925674D02*
X18167801Y-13916150D01*
X18167801Y-13916150D02*
X18196373Y-13916150D01*
X18196373Y-13916150D02*
X18215420Y-13925674D01*
X18291611Y-14125674D02*
X18301135Y-14116150D01*
X18301135Y-14116150D02*
X18320182Y-14087579D01*
X18320182Y-14087579D02*
X18329706Y-14068531D01*
X18329706Y-14068531D02*
X18339230Y-14039960D01*
X18339230Y-14039960D02*
X18348754Y-13992341D01*
X18348754Y-13992341D02*
X18348754Y-13954246D01*
X18348754Y-13954246D02*
X18339230Y-13906627D01*
X18339230Y-13906627D02*
X18329706Y-13878055D01*
X18329706Y-13878055D02*
X18320182Y-13859008D01*
X18320182Y-13859008D02*
X18301135Y-13830436D01*
X18301135Y-13830436D02*
X18291611Y-13820912D01*
D12*
X11883588Y-14255588D02*
X11883588Y-14188412D01*
X11816412Y-14188412D01*
X11816412Y-14255588D01*
X11883588Y-14255588D01*
D11*
X12196372Y-14113484D02*
X12215420Y-14113484D01*
X12215420Y-14113484D02*
X12234467Y-14123008D01*
X12234467Y-14123008D02*
X12243991Y-14132531D01*
X12243991Y-14132531D02*
X12253515Y-14151579D01*
X12253515Y-14151579D02*
X12263039Y-14189674D01*
X12263039Y-14189674D02*
X12263039Y-14237293D01*
X12263039Y-14237293D02*
X12253515Y-14275388D01*
X12253515Y-14275388D02*
X12243991Y-14294436D01*
X12243991Y-14294436D02*
X12234467Y-14303960D01*
X12234467Y-14303960D02*
X12215420Y-14313484D01*
X12215420Y-14313484D02*
X12196372Y-14313484D01*
X12196372Y-14313484D02*
X12177324Y-14303960D01*
X12177324Y-14303960D02*
X12167801Y-14294436D01*
X12167801Y-14294436D02*
X12158277Y-14275388D01*
X12158277Y-14275388D02*
X12148753Y-14237293D01*
X12148753Y-14237293D02*
X12148753Y-14189674D01*
X12148753Y-14189674D02*
X12158277Y-14151579D01*
X12158277Y-14151579D02*
X12167801Y-14132531D01*
X12167801Y-14132531D02*
X12177324Y-14123008D01*
X12177324Y-14123008D02*
X12196372Y-14113484D01*
X12348753Y-14294436D02*
X12358277Y-14303960D01*
X12358277Y-14303960D02*
X12348753Y-14313484D01*
X12348753Y-14313484D02*
X12339229Y-14303960D01*
X12339229Y-14303960D02*
X12348753Y-14294436D01*
X12348753Y-14294436D02*
X12348753Y-14313484D01*
X12453515Y-14313484D02*
X12491610Y-14313484D01*
X12491610Y-14313484D02*
X12510658Y-14303960D01*
X12510658Y-14303960D02*
X12520182Y-14294436D01*
X12520182Y-14294436D02*
X12539229Y-14265865D01*
X12539229Y-14265865D02*
X12548753Y-14227769D01*
X12548753Y-14227769D02*
X12548753Y-14151579D01*
X12548753Y-14151579D02*
X12539229Y-14132531D01*
X12539229Y-14132531D02*
X12529705Y-14123008D01*
X12529705Y-14123008D02*
X12510658Y-14113484D01*
X12510658Y-14113484D02*
X12472562Y-14113484D01*
X12472562Y-14113484D02*
X12453515Y-14123008D01*
X12453515Y-14123008D02*
X12443991Y-14132531D01*
X12443991Y-14132531D02*
X12434467Y-14151579D01*
X12434467Y-14151579D02*
X12434467Y-14199198D01*
X12434467Y-14199198D02*
X12443991Y-14218246D01*
X12443991Y-14218246D02*
X12453515Y-14227769D01*
X12453515Y-14227769D02*
X12472562Y-14237293D01*
X12472562Y-14237293D02*
X12510658Y-14237293D01*
X12510658Y-14237293D02*
X12529705Y-14227769D01*
X12529705Y-14227769D02*
X12539229Y-14218246D01*
X12539229Y-14218246D02*
X12548753Y-14199198D01*
X12729705Y-14113484D02*
X12634467Y-14113484D01*
X12634467Y-14113484D02*
X12624943Y-14208722D01*
X12624943Y-14208722D02*
X12634467Y-14199198D01*
X12634467Y-14199198D02*
X12653515Y-14189674D01*
X12653515Y-14189674D02*
X12701134Y-14189674D01*
X12701134Y-14189674D02*
X12720182Y-14199198D01*
X12720182Y-14199198D02*
X12729705Y-14208722D01*
X12729705Y-14208722D02*
X12739229Y-14227769D01*
X12739229Y-14227769D02*
X12739229Y-14275388D01*
X12739229Y-14275388D02*
X12729705Y-14294436D01*
X12729705Y-14294436D02*
X12720182Y-14303960D01*
X12720182Y-14303960D02*
X12701134Y-14313484D01*
X12701134Y-14313484D02*
X12653515Y-14313484D01*
X12653515Y-14313484D02*
X12634467Y-14303960D01*
X12634467Y-14303960D02*
X12624943Y-14294436D01*
X12863039Y-14113484D02*
X12882086Y-14113484D01*
X12882086Y-14113484D02*
X12901134Y-14123008D01*
X12901134Y-14123008D02*
X12910658Y-14132531D01*
X12910658Y-14132531D02*
X12920182Y-14151579D01*
X12920182Y-14151579D02*
X12929705Y-14189674D01*
X12929705Y-14189674D02*
X12929705Y-14237293D01*
X12929705Y-14237293D02*
X12920182Y-14275388D01*
X12920182Y-14275388D02*
X12910658Y-14294436D01*
X12910658Y-14294436D02*
X12901134Y-14303960D01*
X12901134Y-14303960D02*
X12882086Y-14313484D01*
X12882086Y-14313484D02*
X12863039Y-14313484D01*
X12863039Y-14313484D02*
X12843991Y-14303960D01*
X12843991Y-14303960D02*
X12834467Y-14294436D01*
X12834467Y-14294436D02*
X12824943Y-14275388D01*
X12824943Y-14275388D02*
X12815420Y-14237293D01*
X12815420Y-14237293D02*
X12815420Y-14189674D01*
X12815420Y-14189674D02*
X12824943Y-14151579D01*
X12824943Y-14151579D02*
X12834467Y-14132531D01*
X12834467Y-14132531D02*
X12843991Y-14123008D01*
X12843991Y-14123008D02*
X12863039Y-14113484D01*
X13015420Y-14313484D02*
X13015420Y-14180150D01*
X13015420Y-14199198D02*
X13024943Y-14189674D01*
X13024943Y-14189674D02*
X13043991Y-14180150D01*
X13043991Y-14180150D02*
X13072563Y-14180150D01*
X13072563Y-14180150D02*
X13091610Y-14189674D01*
X13091610Y-14189674D02*
X13101134Y-14208722D01*
X13101134Y-14208722D02*
X13101134Y-14313484D01*
X13101134Y-14208722D02*
X13110658Y-14189674D01*
X13110658Y-14189674D02*
X13129705Y-14180150D01*
X13129705Y-14180150D02*
X13158277Y-14180150D01*
X13158277Y-14180150D02*
X13177324Y-14189674D01*
X13177324Y-14189674D02*
X13186848Y-14208722D01*
X13186848Y-14208722D02*
X13186848Y-14313484D01*
X13282086Y-14313484D02*
X13282086Y-14180150D01*
X13282086Y-14199198D02*
X13291610Y-14189674D01*
X13291610Y-14189674D02*
X13310658Y-14180150D01*
X13310658Y-14180150D02*
X13339229Y-14180150D01*
X13339229Y-14180150D02*
X13358277Y-14189674D01*
X13358277Y-14189674D02*
X13367801Y-14208722D01*
X13367801Y-14208722D02*
X13367801Y-14313484D01*
X13367801Y-14208722D02*
X13377324Y-14189674D01*
X13377324Y-14189674D02*
X13396372Y-14180150D01*
X13396372Y-14180150D02*
X13424943Y-14180150D01*
X13424943Y-14180150D02*
X13443991Y-14189674D01*
X13443991Y-14189674D02*
X13453515Y-14208722D01*
X13453515Y-14208722D02*
X13453515Y-14313484D01*
X13843991Y-14103960D02*
X13672563Y-14361103D01*
X14101134Y-14113484D02*
X14120182Y-14113484D01*
X14120182Y-14113484D02*
X14139229Y-14123008D01*
X14139229Y-14123008D02*
X14148753Y-14132531D01*
X14148753Y-14132531D02*
X14158277Y-14151579D01*
X14158277Y-14151579D02*
X14167801Y-14189674D01*
X14167801Y-14189674D02*
X14167801Y-14237293D01*
X14167801Y-14237293D02*
X14158277Y-14275388D01*
X14158277Y-14275388D02*
X14148753Y-14294436D01*
X14148753Y-14294436D02*
X14139229Y-14303960D01*
X14139229Y-14303960D02*
X14120182Y-14313484D01*
X14120182Y-14313484D02*
X14101134Y-14313484D01*
X14101134Y-14313484D02*
X14082086Y-14303960D01*
X14082086Y-14303960D02*
X14072563Y-14294436D01*
X14072563Y-14294436D02*
X14063039Y-14275388D01*
X14063039Y-14275388D02*
X14053515Y-14237293D01*
X14053515Y-14237293D02*
X14053515Y-14189674D01*
X14053515Y-14189674D02*
X14063039Y-14151579D01*
X14063039Y-14151579D02*
X14072563Y-14132531D01*
X14072563Y-14132531D02*
X14082086Y-14123008D01*
X14082086Y-14123008D02*
X14101134Y-14113484D01*
X14253515Y-14294436D02*
X14263039Y-14303960D01*
X14263039Y-14303960D02*
X14253515Y-14313484D01*
X14253515Y-14313484D02*
X14243991Y-14303960D01*
X14243991Y-14303960D02*
X14253515Y-14294436D01*
X14253515Y-14294436D02*
X14253515Y-14313484D01*
X14386848Y-14113484D02*
X14405896Y-14113484D01*
X14405896Y-14113484D02*
X14424944Y-14123008D01*
X14424944Y-14123008D02*
X14434467Y-14132531D01*
X14434467Y-14132531D02*
X14443991Y-14151579D01*
X14443991Y-14151579D02*
X14453515Y-14189674D01*
X14453515Y-14189674D02*
X14453515Y-14237293D01*
X14453515Y-14237293D02*
X14443991Y-14275388D01*
X14443991Y-14275388D02*
X14434467Y-14294436D01*
X14434467Y-14294436D02*
X14424944Y-14303960D01*
X14424944Y-14303960D02*
X14405896Y-14313484D01*
X14405896Y-14313484D02*
X14386848Y-14313484D01*
X14386848Y-14313484D02*
X14367801Y-14303960D01*
X14367801Y-14303960D02*
X14358277Y-14294436D01*
X14358277Y-14294436D02*
X14348753Y-14275388D01*
X14348753Y-14275388D02*
X14339229Y-14237293D01*
X14339229Y-14237293D02*
X14339229Y-14189674D01*
X14339229Y-14189674D02*
X14348753Y-14151579D01*
X14348753Y-14151579D02*
X14358277Y-14132531D01*
X14358277Y-14132531D02*
X14367801Y-14123008D01*
X14367801Y-14123008D02*
X14386848Y-14113484D01*
X14520182Y-14113484D02*
X14643991Y-14113484D01*
X14643991Y-14113484D02*
X14577325Y-14189674D01*
X14577325Y-14189674D02*
X14605896Y-14189674D01*
X14605896Y-14189674D02*
X14624944Y-14199198D01*
X14624944Y-14199198D02*
X14634467Y-14208722D01*
X14634467Y-14208722D02*
X14643991Y-14227769D01*
X14643991Y-14227769D02*
X14643991Y-14275388D01*
X14643991Y-14275388D02*
X14634467Y-14294436D01*
X14634467Y-14294436D02*
X14624944Y-14303960D01*
X14624944Y-14303960D02*
X14605896Y-14313484D01*
X14605896Y-14313484D02*
X14548753Y-14313484D01*
X14548753Y-14313484D02*
X14529706Y-14303960D01*
X14529706Y-14303960D02*
X14520182Y-14294436D01*
X14710658Y-14113484D02*
X14843991Y-14113484D01*
X14843991Y-14113484D02*
X14758277Y-14313484D01*
X15005896Y-14180150D02*
X15005896Y-14313484D01*
X14958277Y-14103960D02*
X14910658Y-14246817D01*
X14910658Y-14246817D02*
X15034467Y-14246817D01*
X15101134Y-14113484D02*
X15101134Y-14151579D01*
X15177325Y-14113484D02*
X15177325Y-14151579D01*
X15472563Y-14389674D02*
X15463039Y-14380150D01*
X15463039Y-14380150D02*
X15443991Y-14351579D01*
X15443991Y-14351579D02*
X15434468Y-14332531D01*
X15434468Y-14332531D02*
X15424944Y-14303960D01*
X15424944Y-14303960D02*
X15415420Y-14256341D01*
X15415420Y-14256341D02*
X15415420Y-14218246D01*
X15415420Y-14218246D02*
X15424944Y-14170627D01*
X15424944Y-14170627D02*
X15434468Y-14142055D01*
X15434468Y-14142055D02*
X15443991Y-14123008D01*
X15443991Y-14123008D02*
X15463039Y-14094436D01*
X15463039Y-14094436D02*
X15472563Y-14084912D01*
X15653515Y-14313484D02*
X15539229Y-14313484D01*
X15596372Y-14313484D02*
X15596372Y-14113484D01*
X15596372Y-14113484D02*
X15577325Y-14142055D01*
X15577325Y-14142055D02*
X15558277Y-14161103D01*
X15558277Y-14161103D02*
X15539229Y-14170627D01*
X15729706Y-14132531D02*
X15739229Y-14123008D01*
X15739229Y-14123008D02*
X15758277Y-14113484D01*
X15758277Y-14113484D02*
X15805896Y-14113484D01*
X15805896Y-14113484D02*
X15824944Y-14123008D01*
X15824944Y-14123008D02*
X15834468Y-14132531D01*
X15834468Y-14132531D02*
X15843991Y-14151579D01*
X15843991Y-14151579D02*
X15843991Y-14170627D01*
X15843991Y-14170627D02*
X15834468Y-14199198D01*
X15834468Y-14199198D02*
X15720182Y-14313484D01*
X15720182Y-14313484D02*
X15843991Y-14313484D01*
X16082087Y-14313484D02*
X16082087Y-14113484D01*
X16167801Y-14313484D02*
X16167801Y-14208722D01*
X16167801Y-14208722D02*
X16158277Y-14189674D01*
X16158277Y-14189674D02*
X16139230Y-14180150D01*
X16139230Y-14180150D02*
X16110658Y-14180150D01*
X16110658Y-14180150D02*
X16091610Y-14189674D01*
X16091610Y-14189674D02*
X16082087Y-14199198D01*
X16291610Y-14313484D02*
X16272563Y-14303960D01*
X16272563Y-14303960D02*
X16263039Y-14294436D01*
X16263039Y-14294436D02*
X16253515Y-14275388D01*
X16253515Y-14275388D02*
X16253515Y-14218246D01*
X16253515Y-14218246D02*
X16263039Y-14199198D01*
X16263039Y-14199198D02*
X16272563Y-14189674D01*
X16272563Y-14189674D02*
X16291610Y-14180150D01*
X16291610Y-14180150D02*
X16320182Y-14180150D01*
X16320182Y-14180150D02*
X16339230Y-14189674D01*
X16339230Y-14189674D02*
X16348753Y-14199198D01*
X16348753Y-14199198D02*
X16358277Y-14218246D01*
X16358277Y-14218246D02*
X16358277Y-14275388D01*
X16358277Y-14275388D02*
X16348753Y-14294436D01*
X16348753Y-14294436D02*
X16339230Y-14303960D01*
X16339230Y-14303960D02*
X16320182Y-14313484D01*
X16320182Y-14313484D02*
X16291610Y-14313484D01*
X16472563Y-14313484D02*
X16453515Y-14303960D01*
X16453515Y-14303960D02*
X16443991Y-14284912D01*
X16443991Y-14284912D02*
X16443991Y-14113484D01*
X16624944Y-14303960D02*
X16605896Y-14313484D01*
X16605896Y-14313484D02*
X16567801Y-14313484D01*
X16567801Y-14313484D02*
X16548753Y-14303960D01*
X16548753Y-14303960D02*
X16539230Y-14284912D01*
X16539230Y-14284912D02*
X16539230Y-14208722D01*
X16539230Y-14208722D02*
X16548753Y-14189674D01*
X16548753Y-14189674D02*
X16567801Y-14180150D01*
X16567801Y-14180150D02*
X16605896Y-14180150D01*
X16605896Y-14180150D02*
X16624944Y-14189674D01*
X16624944Y-14189674D02*
X16634468Y-14208722D01*
X16634468Y-14208722D02*
X16634468Y-14227769D01*
X16634468Y-14227769D02*
X16539230Y-14246817D01*
X16710658Y-14303960D02*
X16729706Y-14313484D01*
X16729706Y-14313484D02*
X16767801Y-14313484D01*
X16767801Y-14313484D02*
X16786849Y-14303960D01*
X16786849Y-14303960D02*
X16796373Y-14284912D01*
X16796373Y-14284912D02*
X16796373Y-14275388D01*
X16796373Y-14275388D02*
X16786849Y-14256341D01*
X16786849Y-14256341D02*
X16767801Y-14246817D01*
X16767801Y-14246817D02*
X16739230Y-14246817D01*
X16739230Y-14246817D02*
X16720182Y-14237293D01*
X16720182Y-14237293D02*
X16710658Y-14218246D01*
X16710658Y-14218246D02*
X16710658Y-14208722D01*
X16710658Y-14208722D02*
X16720182Y-14189674D01*
X16720182Y-14189674D02*
X16739230Y-14180150D01*
X16739230Y-14180150D02*
X16767801Y-14180150D01*
X16767801Y-14180150D02*
X16786849Y-14189674D01*
X16863039Y-14389674D02*
X16872563Y-14380150D01*
X16872563Y-14380150D02*
X16891611Y-14351579D01*
X16891611Y-14351579D02*
X16901134Y-14332531D01*
X16901134Y-14332531D02*
X16910658Y-14303960D01*
X16910658Y-14303960D02*
X16920182Y-14256341D01*
X16920182Y-14256341D02*
X16920182Y-14218246D01*
X16920182Y-14218246D02*
X16910658Y-14170627D01*
X16910658Y-14170627D02*
X16901134Y-14142055D01*
X16901134Y-14142055D02*
X16891611Y-14123008D01*
X16891611Y-14123008D02*
X16872563Y-14094436D01*
X16872563Y-14094436D02*
X16863039Y-14084912D01*
D12*
X11847500Y-14536000D02*
X11897500Y-14486000D01*
X11847500Y-14436000D01*
X11797500Y-14486000D01*
X11847500Y-14536000D01*
D11*
X12263039Y-14577484D02*
X12148753Y-14577484D01*
X12205896Y-14577484D02*
X12205896Y-14377484D01*
X12205896Y-14377484D02*
X12186848Y-14406055D01*
X12186848Y-14406055D02*
X12167801Y-14425103D01*
X12167801Y-14425103D02*
X12148753Y-14434627D01*
X12348753Y-14558436D02*
X12358277Y-14567960D01*
X12358277Y-14567960D02*
X12348753Y-14577484D01*
X12348753Y-14577484D02*
X12339229Y-14567960D01*
X12339229Y-14567960D02*
X12348753Y-14558436D01*
X12348753Y-14558436D02*
X12348753Y-14577484D01*
X12482086Y-14377484D02*
X12501134Y-14377484D01*
X12501134Y-14377484D02*
X12520182Y-14387008D01*
X12520182Y-14387008D02*
X12529705Y-14396531D01*
X12529705Y-14396531D02*
X12539229Y-14415579D01*
X12539229Y-14415579D02*
X12548753Y-14453674D01*
X12548753Y-14453674D02*
X12548753Y-14501293D01*
X12548753Y-14501293D02*
X12539229Y-14539388D01*
X12539229Y-14539388D02*
X12529705Y-14558436D01*
X12529705Y-14558436D02*
X12520182Y-14567960D01*
X12520182Y-14567960D02*
X12501134Y-14577484D01*
X12501134Y-14577484D02*
X12482086Y-14577484D01*
X12482086Y-14577484D02*
X12463039Y-14567960D01*
X12463039Y-14567960D02*
X12453515Y-14558436D01*
X12453515Y-14558436D02*
X12443991Y-14539388D01*
X12443991Y-14539388D02*
X12434467Y-14501293D01*
X12434467Y-14501293D02*
X12434467Y-14453674D01*
X12434467Y-14453674D02*
X12443991Y-14415579D01*
X12443991Y-14415579D02*
X12453515Y-14396531D01*
X12453515Y-14396531D02*
X12463039Y-14387008D01*
X12463039Y-14387008D02*
X12482086Y-14377484D01*
X12672562Y-14377484D02*
X12691610Y-14377484D01*
X12691610Y-14377484D02*
X12710658Y-14387008D01*
X12710658Y-14387008D02*
X12720182Y-14396531D01*
X12720182Y-14396531D02*
X12729705Y-14415579D01*
X12729705Y-14415579D02*
X12739229Y-14453674D01*
X12739229Y-14453674D02*
X12739229Y-14501293D01*
X12739229Y-14501293D02*
X12729705Y-14539388D01*
X12729705Y-14539388D02*
X12720182Y-14558436D01*
X12720182Y-14558436D02*
X12710658Y-14567960D01*
X12710658Y-14567960D02*
X12691610Y-14577484D01*
X12691610Y-14577484D02*
X12672562Y-14577484D01*
X12672562Y-14577484D02*
X12653515Y-14567960D01*
X12653515Y-14567960D02*
X12643991Y-14558436D01*
X12643991Y-14558436D02*
X12634467Y-14539388D01*
X12634467Y-14539388D02*
X12624943Y-14501293D01*
X12624943Y-14501293D02*
X12624943Y-14453674D01*
X12624943Y-14453674D02*
X12634467Y-14415579D01*
X12634467Y-14415579D02*
X12643991Y-14396531D01*
X12643991Y-14396531D02*
X12653515Y-14387008D01*
X12653515Y-14387008D02*
X12672562Y-14377484D01*
X12863039Y-14377484D02*
X12882086Y-14377484D01*
X12882086Y-14377484D02*
X12901134Y-14387008D01*
X12901134Y-14387008D02*
X12910658Y-14396531D01*
X12910658Y-14396531D02*
X12920182Y-14415579D01*
X12920182Y-14415579D02*
X12929705Y-14453674D01*
X12929705Y-14453674D02*
X12929705Y-14501293D01*
X12929705Y-14501293D02*
X12920182Y-14539388D01*
X12920182Y-14539388D02*
X12910658Y-14558436D01*
X12910658Y-14558436D02*
X12901134Y-14567960D01*
X12901134Y-14567960D02*
X12882086Y-14577484D01*
X12882086Y-14577484D02*
X12863039Y-14577484D01*
X12863039Y-14577484D02*
X12843991Y-14567960D01*
X12843991Y-14567960D02*
X12834467Y-14558436D01*
X12834467Y-14558436D02*
X12824943Y-14539388D01*
X12824943Y-14539388D02*
X12815420Y-14501293D01*
X12815420Y-14501293D02*
X12815420Y-14453674D01*
X12815420Y-14453674D02*
X12824943Y-14415579D01*
X12824943Y-14415579D02*
X12834467Y-14396531D01*
X12834467Y-14396531D02*
X12843991Y-14387008D01*
X12843991Y-14387008D02*
X12863039Y-14377484D01*
X13015420Y-14577484D02*
X13015420Y-14444150D01*
X13015420Y-14463198D02*
X13024943Y-14453674D01*
X13024943Y-14453674D02*
X13043991Y-14444150D01*
X13043991Y-14444150D02*
X13072563Y-14444150D01*
X13072563Y-14444150D02*
X13091610Y-14453674D01*
X13091610Y-14453674D02*
X13101134Y-14472722D01*
X13101134Y-14472722D02*
X13101134Y-14577484D01*
X13101134Y-14472722D02*
X13110658Y-14453674D01*
X13110658Y-14453674D02*
X13129705Y-14444150D01*
X13129705Y-14444150D02*
X13158277Y-14444150D01*
X13158277Y-14444150D02*
X13177324Y-14453674D01*
X13177324Y-14453674D02*
X13186848Y-14472722D01*
X13186848Y-14472722D02*
X13186848Y-14577484D01*
X13282086Y-14577484D02*
X13282086Y-14444150D01*
X13282086Y-14463198D02*
X13291610Y-14453674D01*
X13291610Y-14453674D02*
X13310658Y-14444150D01*
X13310658Y-14444150D02*
X13339229Y-14444150D01*
X13339229Y-14444150D02*
X13358277Y-14453674D01*
X13358277Y-14453674D02*
X13367801Y-14472722D01*
X13367801Y-14472722D02*
X13367801Y-14577484D01*
X13367801Y-14472722D02*
X13377324Y-14453674D01*
X13377324Y-14453674D02*
X13396372Y-14444150D01*
X13396372Y-14444150D02*
X13424943Y-14444150D01*
X13424943Y-14444150D02*
X13443991Y-14453674D01*
X13443991Y-14453674D02*
X13453515Y-14472722D01*
X13453515Y-14472722D02*
X13453515Y-14577484D01*
X13843991Y-14367960D02*
X13672563Y-14625103D01*
X14101134Y-14377484D02*
X14120182Y-14377484D01*
X14120182Y-14377484D02*
X14139229Y-14387008D01*
X14139229Y-14387008D02*
X14148753Y-14396531D01*
X14148753Y-14396531D02*
X14158277Y-14415579D01*
X14158277Y-14415579D02*
X14167801Y-14453674D01*
X14167801Y-14453674D02*
X14167801Y-14501293D01*
X14167801Y-14501293D02*
X14158277Y-14539388D01*
X14158277Y-14539388D02*
X14148753Y-14558436D01*
X14148753Y-14558436D02*
X14139229Y-14567960D01*
X14139229Y-14567960D02*
X14120182Y-14577484D01*
X14120182Y-14577484D02*
X14101134Y-14577484D01*
X14101134Y-14577484D02*
X14082086Y-14567960D01*
X14082086Y-14567960D02*
X14072563Y-14558436D01*
X14072563Y-14558436D02*
X14063039Y-14539388D01*
X14063039Y-14539388D02*
X14053515Y-14501293D01*
X14053515Y-14501293D02*
X14053515Y-14453674D01*
X14053515Y-14453674D02*
X14063039Y-14415579D01*
X14063039Y-14415579D02*
X14072563Y-14396531D01*
X14072563Y-14396531D02*
X14082086Y-14387008D01*
X14082086Y-14387008D02*
X14101134Y-14377484D01*
X14253515Y-14558436D02*
X14263039Y-14567960D01*
X14263039Y-14567960D02*
X14253515Y-14577484D01*
X14253515Y-14577484D02*
X14243991Y-14567960D01*
X14243991Y-14567960D02*
X14253515Y-14558436D01*
X14253515Y-14558436D02*
X14253515Y-14577484D01*
X14386848Y-14377484D02*
X14405896Y-14377484D01*
X14405896Y-14377484D02*
X14424944Y-14387008D01*
X14424944Y-14387008D02*
X14434467Y-14396531D01*
X14434467Y-14396531D02*
X14443991Y-14415579D01*
X14443991Y-14415579D02*
X14453515Y-14453674D01*
X14453515Y-14453674D02*
X14453515Y-14501293D01*
X14453515Y-14501293D02*
X14443991Y-14539388D01*
X14443991Y-14539388D02*
X14434467Y-14558436D01*
X14434467Y-14558436D02*
X14424944Y-14567960D01*
X14424944Y-14567960D02*
X14405896Y-14577484D01*
X14405896Y-14577484D02*
X14386848Y-14577484D01*
X14386848Y-14577484D02*
X14367801Y-14567960D01*
X14367801Y-14567960D02*
X14358277Y-14558436D01*
X14358277Y-14558436D02*
X14348753Y-14539388D01*
X14348753Y-14539388D02*
X14339229Y-14501293D01*
X14339229Y-14501293D02*
X14339229Y-14453674D01*
X14339229Y-14453674D02*
X14348753Y-14415579D01*
X14348753Y-14415579D02*
X14358277Y-14396531D01*
X14358277Y-14396531D02*
X14367801Y-14387008D01*
X14367801Y-14387008D02*
X14386848Y-14377484D01*
X14520182Y-14377484D02*
X14643991Y-14377484D01*
X14643991Y-14377484D02*
X14577325Y-14453674D01*
X14577325Y-14453674D02*
X14605896Y-14453674D01*
X14605896Y-14453674D02*
X14624944Y-14463198D01*
X14624944Y-14463198D02*
X14634467Y-14472722D01*
X14634467Y-14472722D02*
X14643991Y-14491769D01*
X14643991Y-14491769D02*
X14643991Y-14539388D01*
X14643991Y-14539388D02*
X14634467Y-14558436D01*
X14634467Y-14558436D02*
X14624944Y-14567960D01*
X14624944Y-14567960D02*
X14605896Y-14577484D01*
X14605896Y-14577484D02*
X14548753Y-14577484D01*
X14548753Y-14577484D02*
X14529706Y-14567960D01*
X14529706Y-14567960D02*
X14520182Y-14558436D01*
X14739229Y-14577484D02*
X14777325Y-14577484D01*
X14777325Y-14577484D02*
X14796372Y-14567960D01*
X14796372Y-14567960D02*
X14805896Y-14558436D01*
X14805896Y-14558436D02*
X14824944Y-14529865D01*
X14824944Y-14529865D02*
X14834467Y-14491769D01*
X14834467Y-14491769D02*
X14834467Y-14415579D01*
X14834467Y-14415579D02*
X14824944Y-14396531D01*
X14824944Y-14396531D02*
X14815420Y-14387008D01*
X14815420Y-14387008D02*
X14796372Y-14377484D01*
X14796372Y-14377484D02*
X14758277Y-14377484D01*
X14758277Y-14377484D02*
X14739229Y-14387008D01*
X14739229Y-14387008D02*
X14729706Y-14396531D01*
X14729706Y-14396531D02*
X14720182Y-14415579D01*
X14720182Y-14415579D02*
X14720182Y-14463198D01*
X14720182Y-14463198D02*
X14729706Y-14482246D01*
X14729706Y-14482246D02*
X14739229Y-14491769D01*
X14739229Y-14491769D02*
X14758277Y-14501293D01*
X14758277Y-14501293D02*
X14796372Y-14501293D01*
X14796372Y-14501293D02*
X14815420Y-14491769D01*
X14815420Y-14491769D02*
X14824944Y-14482246D01*
X14824944Y-14482246D02*
X14834467Y-14463198D01*
X15005896Y-14444150D02*
X15005896Y-14577484D01*
X14958277Y-14367960D02*
X14910658Y-14510817D01*
X14910658Y-14510817D02*
X15034467Y-14510817D01*
X15101134Y-14377484D02*
X15101134Y-14415579D01*
X15177325Y-14377484D02*
X15177325Y-14415579D01*
X15472563Y-14653674D02*
X15463039Y-14644150D01*
X15463039Y-14644150D02*
X15443991Y-14615579D01*
X15443991Y-14615579D02*
X15434468Y-14596531D01*
X15434468Y-14596531D02*
X15424944Y-14567960D01*
X15424944Y-14567960D02*
X15415420Y-14520341D01*
X15415420Y-14520341D02*
X15415420Y-14482246D01*
X15415420Y-14482246D02*
X15424944Y-14434627D01*
X15424944Y-14434627D02*
X15434468Y-14406055D01*
X15434468Y-14406055D02*
X15443991Y-14387008D01*
X15443991Y-14387008D02*
X15463039Y-14358436D01*
X15463039Y-14358436D02*
X15472563Y-14348912D01*
X15539229Y-14396531D02*
X15548753Y-14387008D01*
X15548753Y-14387008D02*
X15567801Y-14377484D01*
X15567801Y-14377484D02*
X15615420Y-14377484D01*
X15615420Y-14377484D02*
X15634468Y-14387008D01*
X15634468Y-14387008D02*
X15643991Y-14396531D01*
X15643991Y-14396531D02*
X15653515Y-14415579D01*
X15653515Y-14415579D02*
X15653515Y-14434627D01*
X15653515Y-14434627D02*
X15643991Y-14463198D01*
X15643991Y-14463198D02*
X15529706Y-14577484D01*
X15529706Y-14577484D02*
X15653515Y-14577484D01*
X15891610Y-14577484D02*
X15891610Y-14377484D01*
X15977325Y-14577484D02*
X15977325Y-14472722D01*
X15977325Y-14472722D02*
X15967801Y-14453674D01*
X15967801Y-14453674D02*
X15948753Y-14444150D01*
X15948753Y-14444150D02*
X15920182Y-14444150D01*
X15920182Y-14444150D02*
X15901134Y-14453674D01*
X15901134Y-14453674D02*
X15891610Y-14463198D01*
X16101134Y-14577484D02*
X16082087Y-14567960D01*
X16082087Y-14567960D02*
X16072563Y-14558436D01*
X16072563Y-14558436D02*
X16063039Y-14539388D01*
X16063039Y-14539388D02*
X16063039Y-14482246D01*
X16063039Y-14482246D02*
X16072563Y-14463198D01*
X16072563Y-14463198D02*
X16082087Y-14453674D01*
X16082087Y-14453674D02*
X16101134Y-14444150D01*
X16101134Y-14444150D02*
X16129706Y-14444150D01*
X16129706Y-14444150D02*
X16148753Y-14453674D01*
X16148753Y-14453674D02*
X16158277Y-14463198D01*
X16158277Y-14463198D02*
X16167801Y-14482246D01*
X16167801Y-14482246D02*
X16167801Y-14539388D01*
X16167801Y-14539388D02*
X16158277Y-14558436D01*
X16158277Y-14558436D02*
X16148753Y-14567960D01*
X16148753Y-14567960D02*
X16129706Y-14577484D01*
X16129706Y-14577484D02*
X16101134Y-14577484D01*
X16282087Y-14577484D02*
X16263039Y-14567960D01*
X16263039Y-14567960D02*
X16253515Y-14548912D01*
X16253515Y-14548912D02*
X16253515Y-14377484D01*
X16434468Y-14567960D02*
X16415420Y-14577484D01*
X16415420Y-14577484D02*
X16377325Y-14577484D01*
X16377325Y-14577484D02*
X16358277Y-14567960D01*
X16358277Y-14567960D02*
X16348753Y-14548912D01*
X16348753Y-14548912D02*
X16348753Y-14472722D01*
X16348753Y-14472722D02*
X16358277Y-14453674D01*
X16358277Y-14453674D02*
X16377325Y-14444150D01*
X16377325Y-14444150D02*
X16415420Y-14444150D01*
X16415420Y-14444150D02*
X16434468Y-14453674D01*
X16434468Y-14453674D02*
X16443991Y-14472722D01*
X16443991Y-14472722D02*
X16443991Y-14491769D01*
X16443991Y-14491769D02*
X16348753Y-14510817D01*
X16520182Y-14567960D02*
X16539230Y-14577484D01*
X16539230Y-14577484D02*
X16577325Y-14577484D01*
X16577325Y-14577484D02*
X16596372Y-14567960D01*
X16596372Y-14567960D02*
X16605896Y-14548912D01*
X16605896Y-14548912D02*
X16605896Y-14539388D01*
X16605896Y-14539388D02*
X16596372Y-14520341D01*
X16596372Y-14520341D02*
X16577325Y-14510817D01*
X16577325Y-14510817D02*
X16548753Y-14510817D01*
X16548753Y-14510817D02*
X16529706Y-14501293D01*
X16529706Y-14501293D02*
X16520182Y-14482246D01*
X16520182Y-14482246D02*
X16520182Y-14472722D01*
X16520182Y-14472722D02*
X16529706Y-14453674D01*
X16529706Y-14453674D02*
X16548753Y-14444150D01*
X16548753Y-14444150D02*
X16577325Y-14444150D01*
X16577325Y-14444150D02*
X16596372Y-14453674D01*
X16672563Y-14653674D02*
X16682087Y-14644150D01*
X16682087Y-14644150D02*
X16701134Y-14615579D01*
X16701134Y-14615579D02*
X16710658Y-14596531D01*
X16710658Y-14596531D02*
X16720182Y-14567960D01*
X16720182Y-14567960D02*
X16729706Y-14520341D01*
X16729706Y-14520341D02*
X16729706Y-14482246D01*
X16729706Y-14482246D02*
X16720182Y-14434627D01*
X16720182Y-14434627D02*
X16710658Y-14406055D01*
X16710658Y-14406055D02*
X16701134Y-14387008D01*
X16701134Y-14387008D02*
X16682087Y-14358436D01*
X16682087Y-14358436D02*
X16672563Y-14348912D01*
D13*
X11787500Y-14695000D02*
X11897500Y-14805000D01*
X11897500Y-14695000D02*
X11787500Y-14805000D01*
X11897500Y-14750000D02*
G75*
G02*
X11787500Y-14750000I-55000J0D01*
G01*
X11787500Y-14750000D02*
G75*
G02*
X11897500Y-14750000I55000J0D01*
G01*
D11*
X12263039Y-14841484D02*
X12148753Y-14841484D01*
X12205896Y-14841484D02*
X12205896Y-14641484D01*
X12205896Y-14641484D02*
X12186848Y-14670055D01*
X12186848Y-14670055D02*
X12167801Y-14689103D01*
X12167801Y-14689103D02*
X12148753Y-14698627D01*
X12348753Y-14822436D02*
X12358277Y-14831960D01*
X12358277Y-14831960D02*
X12348753Y-14841484D01*
X12348753Y-14841484D02*
X12339229Y-14831960D01*
X12339229Y-14831960D02*
X12348753Y-14822436D01*
X12348753Y-14822436D02*
X12348753Y-14841484D01*
X12548753Y-14841484D02*
X12434467Y-14841484D01*
X12491610Y-14841484D02*
X12491610Y-14641484D01*
X12491610Y-14641484D02*
X12472562Y-14670055D01*
X12472562Y-14670055D02*
X12453515Y-14689103D01*
X12453515Y-14689103D02*
X12434467Y-14698627D01*
X12672562Y-14641484D02*
X12691610Y-14641484D01*
X12691610Y-14641484D02*
X12710658Y-14651008D01*
X12710658Y-14651008D02*
X12720182Y-14660531D01*
X12720182Y-14660531D02*
X12729705Y-14679579D01*
X12729705Y-14679579D02*
X12739229Y-14717674D01*
X12739229Y-14717674D02*
X12739229Y-14765293D01*
X12739229Y-14765293D02*
X12729705Y-14803388D01*
X12729705Y-14803388D02*
X12720182Y-14822436D01*
X12720182Y-14822436D02*
X12710658Y-14831960D01*
X12710658Y-14831960D02*
X12691610Y-14841484D01*
X12691610Y-14841484D02*
X12672562Y-14841484D01*
X12672562Y-14841484D02*
X12653515Y-14831960D01*
X12653515Y-14831960D02*
X12643991Y-14822436D01*
X12643991Y-14822436D02*
X12634467Y-14803388D01*
X12634467Y-14803388D02*
X12624943Y-14765293D01*
X12624943Y-14765293D02*
X12624943Y-14717674D01*
X12624943Y-14717674D02*
X12634467Y-14679579D01*
X12634467Y-14679579D02*
X12643991Y-14660531D01*
X12643991Y-14660531D02*
X12653515Y-14651008D01*
X12653515Y-14651008D02*
X12672562Y-14641484D01*
X12863039Y-14641484D02*
X12882086Y-14641484D01*
X12882086Y-14641484D02*
X12901134Y-14651008D01*
X12901134Y-14651008D02*
X12910658Y-14660531D01*
X12910658Y-14660531D02*
X12920182Y-14679579D01*
X12920182Y-14679579D02*
X12929705Y-14717674D01*
X12929705Y-14717674D02*
X12929705Y-14765293D01*
X12929705Y-14765293D02*
X12920182Y-14803388D01*
X12920182Y-14803388D02*
X12910658Y-14822436D01*
X12910658Y-14822436D02*
X12901134Y-14831960D01*
X12901134Y-14831960D02*
X12882086Y-14841484D01*
X12882086Y-14841484D02*
X12863039Y-14841484D01*
X12863039Y-14841484D02*
X12843991Y-14831960D01*
X12843991Y-14831960D02*
X12834467Y-14822436D01*
X12834467Y-14822436D02*
X12824943Y-14803388D01*
X12824943Y-14803388D02*
X12815420Y-14765293D01*
X12815420Y-14765293D02*
X12815420Y-14717674D01*
X12815420Y-14717674D02*
X12824943Y-14679579D01*
X12824943Y-14679579D02*
X12834467Y-14660531D01*
X12834467Y-14660531D02*
X12843991Y-14651008D01*
X12843991Y-14651008D02*
X12863039Y-14641484D01*
X13015420Y-14841484D02*
X13015420Y-14708150D01*
X13015420Y-14727198D02*
X13024943Y-14717674D01*
X13024943Y-14717674D02*
X13043991Y-14708150D01*
X13043991Y-14708150D02*
X13072563Y-14708150D01*
X13072563Y-14708150D02*
X13091610Y-14717674D01*
X13091610Y-14717674D02*
X13101134Y-14736722D01*
X13101134Y-14736722D02*
X13101134Y-14841484D01*
X13101134Y-14736722D02*
X13110658Y-14717674D01*
X13110658Y-14717674D02*
X13129705Y-14708150D01*
X13129705Y-14708150D02*
X13158277Y-14708150D01*
X13158277Y-14708150D02*
X13177324Y-14717674D01*
X13177324Y-14717674D02*
X13186848Y-14736722D01*
X13186848Y-14736722D02*
X13186848Y-14841484D01*
X13282086Y-14841484D02*
X13282086Y-14708150D01*
X13282086Y-14727198D02*
X13291610Y-14717674D01*
X13291610Y-14717674D02*
X13310658Y-14708150D01*
X13310658Y-14708150D02*
X13339229Y-14708150D01*
X13339229Y-14708150D02*
X13358277Y-14717674D01*
X13358277Y-14717674D02*
X13367801Y-14736722D01*
X13367801Y-14736722D02*
X13367801Y-14841484D01*
X13367801Y-14736722D02*
X13377324Y-14717674D01*
X13377324Y-14717674D02*
X13396372Y-14708150D01*
X13396372Y-14708150D02*
X13424943Y-14708150D01*
X13424943Y-14708150D02*
X13443991Y-14717674D01*
X13443991Y-14717674D02*
X13453515Y-14736722D01*
X13453515Y-14736722D02*
X13453515Y-14841484D01*
X13843991Y-14631960D02*
X13672563Y-14889103D01*
X14101134Y-14641484D02*
X14120182Y-14641484D01*
X14120182Y-14641484D02*
X14139229Y-14651008D01*
X14139229Y-14651008D02*
X14148753Y-14660531D01*
X14148753Y-14660531D02*
X14158277Y-14679579D01*
X14158277Y-14679579D02*
X14167801Y-14717674D01*
X14167801Y-14717674D02*
X14167801Y-14765293D01*
X14167801Y-14765293D02*
X14158277Y-14803388D01*
X14158277Y-14803388D02*
X14148753Y-14822436D01*
X14148753Y-14822436D02*
X14139229Y-14831960D01*
X14139229Y-14831960D02*
X14120182Y-14841484D01*
X14120182Y-14841484D02*
X14101134Y-14841484D01*
X14101134Y-14841484D02*
X14082086Y-14831960D01*
X14082086Y-14831960D02*
X14072563Y-14822436D01*
X14072563Y-14822436D02*
X14063039Y-14803388D01*
X14063039Y-14803388D02*
X14053515Y-14765293D01*
X14053515Y-14765293D02*
X14053515Y-14717674D01*
X14053515Y-14717674D02*
X14063039Y-14679579D01*
X14063039Y-14679579D02*
X14072563Y-14660531D01*
X14072563Y-14660531D02*
X14082086Y-14651008D01*
X14082086Y-14651008D02*
X14101134Y-14641484D01*
X14253515Y-14822436D02*
X14263039Y-14831960D01*
X14263039Y-14831960D02*
X14253515Y-14841484D01*
X14253515Y-14841484D02*
X14243991Y-14831960D01*
X14243991Y-14831960D02*
X14253515Y-14822436D01*
X14253515Y-14822436D02*
X14253515Y-14841484D01*
X14386848Y-14641484D02*
X14405896Y-14641484D01*
X14405896Y-14641484D02*
X14424944Y-14651008D01*
X14424944Y-14651008D02*
X14434467Y-14660531D01*
X14434467Y-14660531D02*
X14443991Y-14679579D01*
X14443991Y-14679579D02*
X14453515Y-14717674D01*
X14453515Y-14717674D02*
X14453515Y-14765293D01*
X14453515Y-14765293D02*
X14443991Y-14803388D01*
X14443991Y-14803388D02*
X14434467Y-14822436D01*
X14434467Y-14822436D02*
X14424944Y-14831960D01*
X14424944Y-14831960D02*
X14405896Y-14841484D01*
X14405896Y-14841484D02*
X14386848Y-14841484D01*
X14386848Y-14841484D02*
X14367801Y-14831960D01*
X14367801Y-14831960D02*
X14358277Y-14822436D01*
X14358277Y-14822436D02*
X14348753Y-14803388D01*
X14348753Y-14803388D02*
X14339229Y-14765293D01*
X14339229Y-14765293D02*
X14339229Y-14717674D01*
X14339229Y-14717674D02*
X14348753Y-14679579D01*
X14348753Y-14679579D02*
X14358277Y-14660531D01*
X14358277Y-14660531D02*
X14367801Y-14651008D01*
X14367801Y-14651008D02*
X14386848Y-14641484D01*
X14624944Y-14708150D02*
X14624944Y-14841484D01*
X14577325Y-14631960D02*
X14529706Y-14774817D01*
X14529706Y-14774817D02*
X14653515Y-14774817D01*
X14710658Y-14641484D02*
X14834467Y-14641484D01*
X14834467Y-14641484D02*
X14767801Y-14717674D01*
X14767801Y-14717674D02*
X14796372Y-14717674D01*
X14796372Y-14717674D02*
X14815420Y-14727198D01*
X14815420Y-14727198D02*
X14824944Y-14736722D01*
X14824944Y-14736722D02*
X14834467Y-14755769D01*
X14834467Y-14755769D02*
X14834467Y-14803388D01*
X14834467Y-14803388D02*
X14824944Y-14822436D01*
X14824944Y-14822436D02*
X14815420Y-14831960D01*
X14815420Y-14831960D02*
X14796372Y-14841484D01*
X14796372Y-14841484D02*
X14739229Y-14841484D01*
X14739229Y-14841484D02*
X14720182Y-14831960D01*
X14720182Y-14831960D02*
X14710658Y-14822436D01*
X14901134Y-14641484D02*
X15024944Y-14641484D01*
X15024944Y-14641484D02*
X14958277Y-14717674D01*
X14958277Y-14717674D02*
X14986848Y-14717674D01*
X14986848Y-14717674D02*
X15005896Y-14727198D01*
X15005896Y-14727198D02*
X15015420Y-14736722D01*
X15015420Y-14736722D02*
X15024944Y-14755769D01*
X15024944Y-14755769D02*
X15024944Y-14803388D01*
X15024944Y-14803388D02*
X15015420Y-14822436D01*
X15015420Y-14822436D02*
X15005896Y-14831960D01*
X15005896Y-14831960D02*
X14986848Y-14841484D01*
X14986848Y-14841484D02*
X14929706Y-14841484D01*
X14929706Y-14841484D02*
X14910658Y-14831960D01*
X14910658Y-14831960D02*
X14901134Y-14822436D01*
X15101134Y-14641484D02*
X15101134Y-14679579D01*
X15177325Y-14641484D02*
X15177325Y-14679579D01*
X15472563Y-14917674D02*
X15463039Y-14908150D01*
X15463039Y-14908150D02*
X15443991Y-14879579D01*
X15443991Y-14879579D02*
X15434468Y-14860531D01*
X15434468Y-14860531D02*
X15424944Y-14831960D01*
X15424944Y-14831960D02*
X15415420Y-14784341D01*
X15415420Y-14784341D02*
X15415420Y-14746246D01*
X15415420Y-14746246D02*
X15424944Y-14698627D01*
X15424944Y-14698627D02*
X15434468Y-14670055D01*
X15434468Y-14670055D02*
X15443991Y-14651008D01*
X15443991Y-14651008D02*
X15463039Y-14622436D01*
X15463039Y-14622436D02*
X15472563Y-14612912D01*
X15539229Y-14660531D02*
X15548753Y-14651008D01*
X15548753Y-14651008D02*
X15567801Y-14641484D01*
X15567801Y-14641484D02*
X15615420Y-14641484D01*
X15615420Y-14641484D02*
X15634468Y-14651008D01*
X15634468Y-14651008D02*
X15643991Y-14660531D01*
X15643991Y-14660531D02*
X15653515Y-14679579D01*
X15653515Y-14679579D02*
X15653515Y-14698627D01*
X15653515Y-14698627D02*
X15643991Y-14727198D01*
X15643991Y-14727198D02*
X15529706Y-14841484D01*
X15529706Y-14841484D02*
X15653515Y-14841484D01*
X15891610Y-14841484D02*
X15891610Y-14641484D01*
X15977325Y-14841484D02*
X15977325Y-14736722D01*
X15977325Y-14736722D02*
X15967801Y-14717674D01*
X15967801Y-14717674D02*
X15948753Y-14708150D01*
X15948753Y-14708150D02*
X15920182Y-14708150D01*
X15920182Y-14708150D02*
X15901134Y-14717674D01*
X15901134Y-14717674D02*
X15891610Y-14727198D01*
X16101134Y-14841484D02*
X16082087Y-14831960D01*
X16082087Y-14831960D02*
X16072563Y-14822436D01*
X16072563Y-14822436D02*
X16063039Y-14803388D01*
X16063039Y-14803388D02*
X16063039Y-14746246D01*
X16063039Y-14746246D02*
X16072563Y-14727198D01*
X16072563Y-14727198D02*
X16082087Y-14717674D01*
X16082087Y-14717674D02*
X16101134Y-14708150D01*
X16101134Y-14708150D02*
X16129706Y-14708150D01*
X16129706Y-14708150D02*
X16148753Y-14717674D01*
X16148753Y-14717674D02*
X16158277Y-14727198D01*
X16158277Y-14727198D02*
X16167801Y-14746246D01*
X16167801Y-14746246D02*
X16167801Y-14803388D01*
X16167801Y-14803388D02*
X16158277Y-14822436D01*
X16158277Y-14822436D02*
X16148753Y-14831960D01*
X16148753Y-14831960D02*
X16129706Y-14841484D01*
X16129706Y-14841484D02*
X16101134Y-14841484D01*
X16282087Y-14841484D02*
X16263039Y-14831960D01*
X16263039Y-14831960D02*
X16253515Y-14812912D01*
X16253515Y-14812912D02*
X16253515Y-14641484D01*
X16434468Y-14831960D02*
X16415420Y-14841484D01*
X16415420Y-14841484D02*
X16377325Y-14841484D01*
X16377325Y-14841484D02*
X16358277Y-14831960D01*
X16358277Y-14831960D02*
X16348753Y-14812912D01*
X16348753Y-14812912D02*
X16348753Y-14736722D01*
X16348753Y-14736722D02*
X16358277Y-14717674D01*
X16358277Y-14717674D02*
X16377325Y-14708150D01*
X16377325Y-14708150D02*
X16415420Y-14708150D01*
X16415420Y-14708150D02*
X16434468Y-14717674D01*
X16434468Y-14717674D02*
X16443991Y-14736722D01*
X16443991Y-14736722D02*
X16443991Y-14755769D01*
X16443991Y-14755769D02*
X16348753Y-14774817D01*
X16520182Y-14831960D02*
X16539230Y-14841484D01*
X16539230Y-14841484D02*
X16577325Y-14841484D01*
X16577325Y-14841484D02*
X16596372Y-14831960D01*
X16596372Y-14831960D02*
X16605896Y-14812912D01*
X16605896Y-14812912D02*
X16605896Y-14803388D01*
X16605896Y-14803388D02*
X16596372Y-14784341D01*
X16596372Y-14784341D02*
X16577325Y-14774817D01*
X16577325Y-14774817D02*
X16548753Y-14774817D01*
X16548753Y-14774817D02*
X16529706Y-14765293D01*
X16529706Y-14765293D02*
X16520182Y-14746246D01*
X16520182Y-14746246D02*
X16520182Y-14736722D01*
X16520182Y-14736722D02*
X16529706Y-14717674D01*
X16529706Y-14717674D02*
X16548753Y-14708150D01*
X16548753Y-14708150D02*
X16577325Y-14708150D01*
X16577325Y-14708150D02*
X16596372Y-14717674D01*
X16672563Y-14917674D02*
X16682087Y-14908150D01*
X16682087Y-14908150D02*
X16701134Y-14879579D01*
X16701134Y-14879579D02*
X16710658Y-14860531D01*
X16710658Y-14860531D02*
X16720182Y-14831960D01*
X16720182Y-14831960D02*
X16729706Y-14784341D01*
X16729706Y-14784341D02*
X16729706Y-14746246D01*
X16729706Y-14746246D02*
X16720182Y-14698627D01*
X16720182Y-14698627D02*
X16710658Y-14670055D01*
X16710658Y-14670055D02*
X16701134Y-14651008D01*
X16701134Y-14651008D02*
X16682087Y-14622436D01*
X16682087Y-14622436D02*
X16672563Y-14612912D01*
M02*
