%TF.GenerationSoftware,KiCad,Pcbnew,9.0.2*%
%TF.CreationDate,2025-06-22T20:13:16-07:00*%
%TF.ProjectId,Tesla Ambient Lighting,5465736c-6120-4416-9d62-69656e74204c,rev?*%
%TF.SameCoordinates,Original*%
%TF.FileFunction,Copper,L2,Bot*%
%TF.FilePolarity,Positive*%
%FSLAX46Y46*%
G04 Gerber Fmt 4.6, Leading zero omitted, Abs format (unit mm)*
G04 Created by KiCad (PCBNEW 9.0.2) date 2025-06-22 20:13:16*
%MOMM*%
%LPD*%
G01*
G04 APERTURE LIST*
G04 Aperture macros list*
%AMRoundRect*
0 Rectangle with rounded corners*
0 $1 Rounding radius*
0 $2 $3 $4 $5 $6 $7 $8 $9 X,Y pos of 4 corners*
0 Add a 4 corners polygon primitive as box body*
4,1,4,$2,$3,$4,$5,$6,$7,$8,$9,$2,$3,0*
0 Add four circle primitives for the rounded corners*
1,1,$1+$1,$2,$3*
1,1,$1+$1,$4,$5*
1,1,$1+$1,$6,$7*
1,1,$1+$1,$8,$9*
0 Add four rect primitives between the rounded corners*
20,1,$1+$1,$2,$3,$4,$5,0*
20,1,$1+$1,$4,$5,$6,$7,0*
20,1,$1+$1,$6,$7,$8,$9,0*
20,1,$1+$1,$8,$9,$2,$3,0*%
G04 Aperture macros list end*
%TA.AperFunction,ComponentPad*%
%ADD10RoundRect,0.250000X0.750000X-0.600000X0.750000X0.600000X-0.750000X0.600000X-0.750000X-0.600000X0*%
%TD*%
%TA.AperFunction,ComponentPad*%
%ADD11O,2.000000X1.700000*%
%TD*%
%TA.AperFunction,ComponentPad*%
%ADD12O,2.100000X1.000000*%
%TD*%
%TA.AperFunction,ComponentPad*%
%ADD13O,1.800000X1.000000*%
%TD*%
%TA.AperFunction,ComponentPad*%
%ADD14RoundRect,0.250000X-0.600000X-0.725000X0.600000X-0.725000X0.600000X0.725000X-0.600000X0.725000X0*%
%TD*%
%TA.AperFunction,ComponentPad*%
%ADD15O,1.700000X1.950000*%
%TD*%
%TA.AperFunction,ComponentPad*%
%ADD16RoundRect,0.250001X0.799999X-0.799999X0.799999X0.799999X-0.799999X0.799999X-0.799999X-0.799999X0*%
%TD*%
%TA.AperFunction,ComponentPad*%
%ADD17C,2.100000*%
%TD*%
%TA.AperFunction,HeatsinkPad*%
%ADD18C,0.600000*%
%TD*%
%TA.AperFunction,ViaPad*%
%ADD19C,0.600000*%
%TD*%
%TA.AperFunction,Conductor*%
%ADD20C,0.200000*%
%TD*%
G04 APERTURE END LIST*
D10*
%TO.P,J5,1,Pin_1*%
%TO.N,Net-(J5-Pin_1)*%
X165805000Y-111000000D03*
D11*
%TO.P,J5,2,Pin_2*%
%TO.N,Net-(J5-Pin_2)*%
X165805000Y-108500000D03*
%TD*%
D12*
%TO.P,J6,SH1,SHELL_GND*%
%TO.N,GNDREF*%
X168320000Y-95320000D03*
%TO.P,J6,SH2,SHELL_GND__1*%
X168320000Y-86680000D03*
D13*
%TO.P,J6,SH3,SHELL_GND__2*%
X172500000Y-95320000D03*
%TO.P,J6,SH4,SHELL_GND__3*%
X172500000Y-86680000D03*
%TD*%
D14*
%TO.P,J3,1,Pin_1*%
%TO.N,/V5*%
X149400000Y-118000000D03*
D15*
%TO.P,J3,2,Pin_2*%
%TO.N,GNDREF*%
X151900000Y-118000000D03*
%TO.P,J3,3,Pin_3*%
%TO.N,Net-(J3-Pin_3)*%
X154400000Y-118000000D03*
%TD*%
D14*
%TO.P,J2,1,Pin_1*%
%TO.N,/V5*%
X137450000Y-118000000D03*
D15*
%TO.P,J2,2,Pin_2*%
%TO.N,GNDREF*%
X139950000Y-118000000D03*
%TO.P,J2,3,Pin_3*%
%TO.N,Net-(J2-Pin_3)*%
X142450000Y-118000000D03*
%TD*%
D16*
%TO.P,J7,1,Pin_1*%
%TO.N,GNDREF*%
X122867500Y-108790000D03*
D17*
%TO.P,J7,2,Pin_2*%
%TO.N,/V5*%
X122867500Y-106250000D03*
%TD*%
D14*
%TO.P,J4,1,Pin_1*%
%TO.N,/V5*%
X161350000Y-118000000D03*
D15*
%TO.P,J4,2,Pin_2*%
%TO.N,GNDREF*%
X163850000Y-118000000D03*
%TO.P,J4,3,Pin_3*%
%TO.N,Net-(J4-Pin_3)*%
X166350000Y-118000000D03*
%TD*%
D14*
%TO.P,J1,1,Pin_1*%
%TO.N,/V5*%
X125500000Y-118000000D03*
D15*
%TO.P,J1,2,Pin_2*%
%TO.N,GNDREF*%
X128000000Y-118000000D03*
%TO.P,J1,3,Pin_3*%
%TO.N,Net-(J1-Pin_3)*%
X130500000Y-118000000D03*
%TD*%
D18*
%TO.P,U1,39,GND*%
%TO.N,GNDREF*%
X142050000Y-92310000D03*
X141350000Y-93010000D03*
X141350000Y-94410000D03*
X142050000Y-93710000D03*
X142050000Y-95110000D03*
X142750000Y-93010000D03*
X142750000Y-94410000D03*
X143450000Y-92310000D03*
X143450000Y-93710000D03*
X143450000Y-95110000D03*
X144150000Y-93010000D03*
X144150000Y-94410000D03*
%TD*%
D19*
%TO.N,*%
X166250000Y-91250000D03*
X146000000Y-118500000D03*
X166250000Y-90250000D03*
%TO.N,GNDREF*%
X168200000Y-104800000D03*
X165755000Y-94200000D03*
X172550000Y-104050000D03*
X159977500Y-90700000D03*
X165750000Y-87750000D03*
X130700000Y-94550000D03*
X126950000Y-102800000D03*
X155000000Y-99000000D03*
X138200000Y-105800000D03*
X126700000Y-94550000D03*
X140000000Y-105750000D03*
X138250000Y-107750000D03*
X159977500Y-87700000D03*
X150200000Y-109200000D03*
X163750000Y-98125000D03*
X154772500Y-86050000D03*
X160050000Y-107800000D03*
X126200000Y-88200000D03*
X133500000Y-86000000D03*
%TO.N,/DP*%
X163750000Y-101500000D03*
X171500000Y-90250000D03*
%TO.N,/DN*%
X169250000Y-91000000D03*
X163250000Y-100795000D03*
%TO.N,/CAN_TXD*%
X150750000Y-107750000D03*
X150000000Y-92250000D03*
%TO.N,/CAN_RXD*%
X150000000Y-88500000D03*
X147750000Y-109250000D03*
%TO.N,/V33*%
X150750000Y-110500000D03*
X130000000Y-102750000D03*
%TO.N,Net-(U1-IO0)*%
X152750000Y-106250000D03*
X152750000Y-103500000D03*
%TO.N,/V5*%
X161250000Y-106000000D03*
%TD*%
D20*
%TO.N,/DP*%
X166965882Y-94534118D02*
X166965882Y-100250000D01*
X171500000Y-90250000D02*
X171250000Y-90250000D01*
X171250000Y-90250000D02*
X170250000Y-91250000D01*
X165715882Y-101500000D02*
X166965882Y-100250000D01*
X163750000Y-101500000D02*
X165715882Y-101500000D01*
X170250000Y-91250000D02*
X166965882Y-94534118D01*
%TO.N,/DN*%
X166556000Y-93694000D02*
X169250000Y-91000000D01*
X166556000Y-97489000D02*
X166556000Y-93694000D01*
X163250000Y-100795000D02*
X166556000Y-97489000D01*
%TO.N,/CAN_TXD*%
X150000000Y-107000000D02*
X150750000Y-107750000D01*
X150000000Y-92250000D02*
X150000000Y-107000000D01*
%TO.N,/CAN_RXD*%
X147750000Y-90750000D02*
X150000000Y-88500000D01*
X147750000Y-109250000D02*
X147750000Y-90750000D01*
%TO.N,/V33*%
X137750000Y-110500000D02*
X150750000Y-110500000D01*
X130000000Y-102750000D02*
X137750000Y-110500000D01*
%TO.N,Net-(U1-IO0)*%
X152750000Y-106250000D02*
X152750000Y-103500000D01*
%TO.N,/V5*%
X161350000Y-106100000D02*
X161350000Y-118000000D01*
X161250000Y-106000000D02*
X161350000Y-106100000D01*
%TD*%
%TA.AperFunction,Conductor*%
%TO.N,GNDREF*%
G36*
X168393208Y-94058538D02*
G01*
X168449142Y-94100409D01*
X168457262Y-94112720D01*
X168479515Y-94151263D01*
X168479516Y-94151264D01*
X168479517Y-94151265D01*
X168533681Y-94205429D01*
X168567166Y-94266752D01*
X168570000Y-94293110D01*
X168570000Y-95020000D01*
X168070000Y-95020000D01*
X168070000Y-94330596D01*
X168078644Y-94301155D01*
X168085168Y-94271169D01*
X168088922Y-94266153D01*
X168089685Y-94263557D01*
X168106312Y-94242921D01*
X168262197Y-94087036D01*
X168323517Y-94053554D01*
X168393208Y-94058538D01*
G37*
%TD.AperFunction*%
%TA.AperFunction,Conductor*%
G36*
X120193039Y-78145185D02*
G01*
X120238794Y-78197989D01*
X120250000Y-78249500D01*
X120250000Y-84690000D01*
X168250000Y-84690000D01*
X168250000Y-81155513D01*
X170799500Y-81155513D01*
X170799500Y-81344486D01*
X170829059Y-81531118D01*
X170887454Y-81710836D01*
X170973240Y-81879199D01*
X171084310Y-82032073D01*
X171217927Y-82165690D01*
X171370801Y-82276760D01*
X171450347Y-82317290D01*
X171539163Y-82362545D01*
X171539165Y-82362545D01*
X171539168Y-82362547D01*
X171635497Y-82393846D01*
X171718881Y-82420940D01*
X171905514Y-82450500D01*
X171905519Y-82450500D01*
X172094486Y-82450500D01*
X172281118Y-82420940D01*
X172460832Y-82362547D01*
X172629199Y-82276760D01*
X172782073Y-82165690D01*
X172915690Y-82032073D01*
X173026760Y-81879199D01*
X173112547Y-81710832D01*
X173170940Y-81531118D01*
X173200500Y-81344486D01*
X173200500Y-81155513D01*
X173170940Y-80968881D01*
X173112545Y-80789163D01*
X173026759Y-80620800D01*
X172915690Y-80467927D01*
X172782073Y-80334310D01*
X172629199Y-80223240D01*
X172460836Y-80137454D01*
X172281118Y-80079059D01*
X172094486Y-80049500D01*
X172094481Y-80049500D01*
X171905519Y-80049500D01*
X171905514Y-80049500D01*
X171718881Y-80079059D01*
X171539163Y-80137454D01*
X171370800Y-80223240D01*
X171283579Y-80286610D01*
X171217927Y-80334310D01*
X171217925Y-80334312D01*
X171217924Y-80334312D01*
X171084312Y-80467924D01*
X171084312Y-80467925D01*
X171084310Y-80467927D01*
X171036610Y-80533579D01*
X170973240Y-80620800D01*
X170887454Y-80789163D01*
X170829059Y-80968881D01*
X170799500Y-81155513D01*
X168250000Y-81155513D01*
X168250000Y-78249500D01*
X168269685Y-78182461D01*
X168322489Y-78136706D01*
X168374000Y-78125500D01*
X174875500Y-78125500D01*
X174942539Y-78145185D01*
X174988294Y-78197989D01*
X174999500Y-78249500D01*
X174999500Y-127250500D01*
X174979815Y-127317539D01*
X174927011Y-127363294D01*
X174875500Y-127374500D01*
X119624500Y-127374500D01*
X119557461Y-127354815D01*
X119511706Y-127302011D01*
X119500500Y-127250500D01*
X119500500Y-124655513D01*
X171049500Y-124655513D01*
X171049500Y-124844486D01*
X171079059Y-125031118D01*
X171137454Y-125210836D01*
X171223240Y-125379199D01*
X171334310Y-125532073D01*
X171467927Y-125665690D01*
X171620801Y-125776760D01*
X171700347Y-125817290D01*
X171789163Y-125862545D01*
X171789165Y-125862545D01*
X171789168Y-125862547D01*
X171885497Y-125893846D01*
X171968881Y-125920940D01*
X172155514Y-125950500D01*
X172155519Y-125950500D01*
X172344486Y-125950500D01*
X172531118Y-125920940D01*
X172710832Y-125862547D01*
X172879199Y-125776760D01*
X173032073Y-125665690D01*
X173165690Y-125532073D01*
X173276760Y-125379199D01*
X173362547Y-125210832D01*
X173420940Y-125031118D01*
X173450500Y-124844486D01*
X173450500Y-124655513D01*
X173420940Y-124468881D01*
X173362545Y-124289163D01*
X173276759Y-124120800D01*
X173165690Y-123967927D01*
X173032073Y-123834310D01*
X172879199Y-123723240D01*
X172710836Y-123637454D01*
X172531118Y-123579059D01*
X172344486Y-123549500D01*
X172344481Y-123549500D01*
X172155519Y-123549500D01*
X172155514Y-123549500D01*
X171968881Y-123579059D01*
X171789163Y-123637454D01*
X171620800Y-123723240D01*
X171533579Y-123786610D01*
X171467927Y-123834310D01*
X171467925Y-123834312D01*
X171467924Y-123834312D01*
X171334312Y-123967924D01*
X171334312Y-123967925D01*
X171334310Y-123967927D01*
X171286610Y-124033579D01*
X171223240Y-124120800D01*
X171137454Y-124289163D01*
X171079059Y-124468881D01*
X171049500Y-124655513D01*
X119500500Y-124655513D01*
X119500500Y-117224983D01*
X124149500Y-117224983D01*
X124149500Y-118775001D01*
X124149501Y-118775018D01*
X124160000Y-118877796D01*
X124160001Y-118877799D01*
X124205749Y-119015856D01*
X124215186Y-119044334D01*
X124307288Y-119193656D01*
X124431344Y-119317712D01*
X124580666Y-119409814D01*
X124747203Y-119464999D01*
X124849991Y-119475500D01*
X126150008Y-119475499D01*
X126252797Y-119464999D01*
X126419334Y-119409814D01*
X126568656Y-119317712D01*
X126692712Y-119193656D01*
X126784814Y-119044334D01*
X126784814Y-119044331D01*
X126788448Y-119038441D01*
X126840395Y-118991716D01*
X126909358Y-118980493D01*
X126973440Y-119008336D01*
X126981668Y-119015856D01*
X127120535Y-119154723D01*
X127120540Y-119154727D01*
X127292442Y-119279620D01*
X127481782Y-119376095D01*
X127683871Y-119441757D01*
X127750000Y-119452231D01*
X127750000Y-118404145D01*
X127816657Y-118442630D01*
X127937465Y-118475000D01*
X128062535Y-118475000D01*
X128183343Y-118442630D01*
X128250000Y-118404145D01*
X128250000Y-119452230D01*
X128316126Y-119441757D01*
X128316129Y-119441757D01*
X128518217Y-119376095D01*
X128707557Y-119279620D01*
X128879459Y-119154727D01*
X128879464Y-119154723D01*
X129029721Y-119004466D01*
X129149371Y-118839781D01*
X129204701Y-118797115D01*
X129274314Y-118791136D01*
X129336110Y-118823741D01*
X129350008Y-118839781D01*
X129469890Y-119004785D01*
X129469894Y-119004790D01*
X129620213Y-119155109D01*
X129792179Y-119280048D01*
X129792181Y-119280049D01*
X129792184Y-119280051D01*
X129981588Y-119376557D01*
X130183757Y-119442246D01*
X130393713Y-119475500D01*
X130393714Y-119475500D01*
X130606286Y-119475500D01*
X130606287Y-119475500D01*
X130816243Y-119442246D01*
X131018412Y-119376557D01*
X131207816Y-119280051D01*
X131305068Y-119209394D01*
X131379786Y-119155109D01*
X131379788Y-119155106D01*
X131379792Y-119155104D01*
X131530104Y-119004792D01*
X131530106Y-119004788D01*
X131530109Y-119004786D01*
X131655048Y-118832820D01*
X131655047Y-118832820D01*
X131655051Y-118832816D01*
X131751557Y-118643412D01*
X131817246Y-118441243D01*
X131850500Y-118231287D01*
X131850500Y-117768713D01*
X131817246Y-117558757D01*
X131751557Y-117356588D01*
X131684501Y-117224983D01*
X136099500Y-117224983D01*
X136099500Y-118775001D01*
X136099501Y-118775018D01*
X136110000Y-118877796D01*
X136110001Y-118877799D01*
X136155749Y-119015856D01*
X136165186Y-119044334D01*
X136257288Y-119193656D01*
X136381344Y-119317712D01*
X136530666Y-119409814D01*
X136697203Y-119464999D01*
X136799991Y-119475500D01*
X138100008Y-119475499D01*
X138202797Y-119464999D01*
X138369334Y-119409814D01*
X138518656Y-119317712D01*
X138642712Y-119193656D01*
X138734814Y-119044334D01*
X138734814Y-119044331D01*
X138738448Y-119038441D01*
X138790395Y-118991716D01*
X138859358Y-118980493D01*
X138923440Y-119008336D01*
X138931668Y-119015856D01*
X139070535Y-119154723D01*
X139070540Y-119154727D01*
X139242442Y-119279620D01*
X139431782Y-119376095D01*
X139633871Y-119441757D01*
X139700000Y-119452231D01*
X139700000Y-118404145D01*
X139766657Y-118442630D01*
X139887465Y-118475000D01*
X140012535Y-118475000D01*
X140133343Y-118442630D01*
X140200000Y-118404145D01*
X140200000Y-119452230D01*
X140266126Y-119441757D01*
X140266129Y-119441757D01*
X140468217Y-119376095D01*
X140657557Y-119279620D01*
X140829459Y-119154727D01*
X140829464Y-119154723D01*
X140979721Y-119004466D01*
X141099371Y-118839781D01*
X141154701Y-118797115D01*
X141224314Y-118791136D01*
X141286110Y-118823741D01*
X141300008Y-118839781D01*
X141419890Y-119004785D01*
X141419894Y-119004790D01*
X141570213Y-119155109D01*
X141742179Y-119280048D01*
X141742181Y-119280049D01*
X141742184Y-119280051D01*
X141931588Y-119376557D01*
X142133757Y-119442246D01*
X142343713Y-119475500D01*
X142343714Y-119475500D01*
X142556286Y-119475500D01*
X142556287Y-119475500D01*
X142766243Y-119442246D01*
X142968412Y-119376557D01*
X143157816Y-119280051D01*
X143255068Y-119209394D01*
X143329786Y-119155109D01*
X143329788Y-119155106D01*
X143329792Y-119155104D01*
X143480104Y-119004792D01*
X143480106Y-119004788D01*
X143480109Y-119004786D01*
X143605048Y-118832820D01*
X143605047Y-118832820D01*
X143605051Y-118832816D01*
X143701557Y-118643412D01*
X143767246Y-118441243D01*
X143770428Y-118421153D01*
X145199500Y-118421153D01*
X145199500Y-118578846D01*
X145230261Y-118733489D01*
X145230264Y-118733501D01*
X145290602Y-118879172D01*
X145290609Y-118879185D01*
X145378210Y-119010288D01*
X145378213Y-119010292D01*
X145489707Y-119121786D01*
X145489711Y-119121789D01*
X145620814Y-119209390D01*
X145620827Y-119209397D01*
X145766498Y-119269735D01*
X145766503Y-119269737D01*
X145921153Y-119300499D01*
X145921156Y-119300500D01*
X145921158Y-119300500D01*
X146078844Y-119300500D01*
X146078845Y-119300499D01*
X146233497Y-119269737D01*
X146379179Y-119209394D01*
X146510289Y-119121789D01*
X146621789Y-119010289D01*
X146709394Y-118879179D01*
X146709967Y-118877797D01*
X146745862Y-118791136D01*
X146769737Y-118733497D01*
X146800500Y-118578842D01*
X146800500Y-118421158D01*
X146800500Y-118421155D01*
X146800499Y-118421153D01*
X146769738Y-118266510D01*
X146769737Y-118266503D01*
X146755150Y-118231286D01*
X146709397Y-118120827D01*
X146709390Y-118120814D01*
X146621789Y-117989711D01*
X146621786Y-117989707D01*
X146510292Y-117878213D01*
X146510288Y-117878210D01*
X146379185Y-117790609D01*
X146379172Y-117790602D01*
X146233501Y-117730264D01*
X146233489Y-117730261D01*
X146078845Y-117699500D01*
X146078842Y-117699500D01*
X145921158Y-117699500D01*
X145921155Y-117699500D01*
X145766510Y-117730261D01*
X145766498Y-117730264D01*
X145620827Y-117790602D01*
X145620814Y-117790609D01*
X145489711Y-117878210D01*
X145489707Y-117878213D01*
X145378213Y-117989707D01*
X145378210Y-117989711D01*
X145290609Y-118120814D01*
X145290602Y-118120827D01*
X145230264Y-118266498D01*
X145230261Y-118266510D01*
X145199500Y-118421153D01*
X143770428Y-118421153D01*
X143800500Y-118231287D01*
X143800500Y-117768713D01*
X143767246Y-117558757D01*
X143701557Y-117356588D01*
X143634501Y-117224983D01*
X148049500Y-117224983D01*
X148049500Y-118775001D01*
X148049501Y-118775018D01*
X148060000Y-118877796D01*
X148060001Y-118877799D01*
X148105749Y-119015856D01*
X148115186Y-119044334D01*
X148207288Y-119193656D01*
X148331344Y-119317712D01*
X148480666Y-119409814D01*
X148647203Y-119464999D01*
X148749991Y-119475500D01*
X150050008Y-119475499D01*
X150152797Y-119464999D01*
X150319334Y-119409814D01*
X150468656Y-119317712D01*
X150592712Y-119193656D01*
X150684814Y-119044334D01*
X150684814Y-119044331D01*
X150688448Y-119038441D01*
X150740395Y-118991716D01*
X150809358Y-118980493D01*
X150873440Y-119008336D01*
X150881668Y-119015856D01*
X151020535Y-119154723D01*
X151020540Y-119154727D01*
X151192442Y-119279620D01*
X151381782Y-119376095D01*
X151583871Y-119441757D01*
X151650000Y-119452231D01*
X151650000Y-118404145D01*
X151716657Y-118442630D01*
X151837465Y-118475000D01*
X151962535Y-118475000D01*
X152083343Y-118442630D01*
X152150000Y-118404145D01*
X152150000Y-119452230D01*
X152216126Y-119441757D01*
X152216129Y-119441757D01*
X152418217Y-119376095D01*
X152607557Y-119279620D01*
X152779459Y-119154727D01*
X152779464Y-119154723D01*
X152929721Y-119004466D01*
X153049371Y-118839781D01*
X153104701Y-118797115D01*
X153174314Y-118791136D01*
X153236110Y-118823741D01*
X153250008Y-118839781D01*
X153369890Y-119004785D01*
X153369894Y-119004790D01*
X153520213Y-119155109D01*
X153692179Y-119280048D01*
X153692181Y-119280049D01*
X153692184Y-119280051D01*
X153881588Y-119376557D01*
X154083757Y-119442246D01*
X154293713Y-119475500D01*
X154293714Y-119475500D01*
X154506286Y-119475500D01*
X154506287Y-119475500D01*
X154716243Y-119442246D01*
X154918412Y-119376557D01*
X155107816Y-119280051D01*
X155205068Y-119209394D01*
X155279786Y-119155109D01*
X155279788Y-119155106D01*
X155279792Y-119155104D01*
X155430104Y-119004792D01*
X155430106Y-119004788D01*
X155430109Y-119004786D01*
X155555048Y-118832820D01*
X155555047Y-118832820D01*
X155555051Y-118832816D01*
X155651557Y-118643412D01*
X155717246Y-118441243D01*
X155750500Y-118231287D01*
X155750500Y-117768713D01*
X155717246Y-117558757D01*
X155651557Y-117356588D01*
X155584501Y-117224983D01*
X159999500Y-117224983D01*
X159999500Y-118775001D01*
X159999501Y-118775018D01*
X160010000Y-118877796D01*
X160010001Y-118877799D01*
X160055749Y-119015856D01*
X160065186Y-119044334D01*
X160157288Y-119193656D01*
X160281344Y-119317712D01*
X160430666Y-119409814D01*
X160597203Y-119464999D01*
X160699991Y-119475500D01*
X162000008Y-119475499D01*
X162102797Y-119464999D01*
X162269334Y-119409814D01*
X162418656Y-119317712D01*
X162542712Y-119193656D01*
X162634814Y-119044334D01*
X162634814Y-119044331D01*
X162638448Y-119038441D01*
X162690395Y-118991716D01*
X162759358Y-118980493D01*
X162823440Y-119008336D01*
X162831668Y-119015856D01*
X162970535Y-119154723D01*
X162970540Y-119154727D01*
X163142442Y-119279620D01*
X163331782Y-119376095D01*
X163533871Y-119441757D01*
X163600000Y-119452231D01*
X163600000Y-118404145D01*
X163666657Y-118442630D01*
X163787465Y-118475000D01*
X163912535Y-118475000D01*
X164033343Y-118442630D01*
X164100000Y-118404145D01*
X164100000Y-119452230D01*
X164166126Y-119441757D01*
X164166129Y-119441757D01*
X164368217Y-119376095D01*
X164557557Y-119279620D01*
X164729459Y-119154727D01*
X164729464Y-119154723D01*
X164879721Y-119004466D01*
X164999371Y-118839781D01*
X165054701Y-118797115D01*
X165124314Y-118791136D01*
X165186110Y-118823741D01*
X165200008Y-118839781D01*
X165319890Y-119004785D01*
X165319894Y-119004790D01*
X165470213Y-119155109D01*
X165642179Y-119280048D01*
X165642181Y-119280049D01*
X165642184Y-119280051D01*
X165831588Y-119376557D01*
X166033757Y-119442246D01*
X166243713Y-119475500D01*
X166243714Y-119475500D01*
X166456286Y-119475500D01*
X166456287Y-119475500D01*
X166666243Y-119442246D01*
X166868412Y-119376557D01*
X167057816Y-119280051D01*
X167155068Y-119209394D01*
X167229786Y-119155109D01*
X167229788Y-119155106D01*
X167229792Y-119155104D01*
X167380104Y-119004792D01*
X167380106Y-119004788D01*
X167380109Y-119004786D01*
X167505048Y-118832820D01*
X167505047Y-118832820D01*
X167505051Y-118832816D01*
X167601557Y-118643412D01*
X167667246Y-118441243D01*
X167700500Y-118231287D01*
X167700500Y-117768713D01*
X167667246Y-117558757D01*
X167601557Y-117356588D01*
X167505051Y-117167184D01*
X167505049Y-117167181D01*
X167505048Y-117167179D01*
X167380109Y-116995213D01*
X167229786Y-116844890D01*
X167057820Y-116719951D01*
X166868414Y-116623444D01*
X166868413Y-116623443D01*
X166868412Y-116623443D01*
X166666243Y-116557754D01*
X166666241Y-116557753D01*
X166666240Y-116557753D01*
X166504957Y-116532208D01*
X166456287Y-116524500D01*
X166243713Y-116524500D01*
X166195042Y-116532208D01*
X166033760Y-116557753D01*
X165831585Y-116623444D01*
X165642179Y-116719951D01*
X165470213Y-116844890D01*
X165319894Y-116995209D01*
X165319890Y-116995214D01*
X165200008Y-117160218D01*
X165144678Y-117202884D01*
X165075065Y-117208863D01*
X165013270Y-117176257D01*
X164999372Y-117160218D01*
X164879727Y-116995540D01*
X164879723Y-116995535D01*
X164729464Y-116845276D01*
X164729459Y-116845272D01*
X164557557Y-116720379D01*
X164368215Y-116623903D01*
X164166124Y-116558241D01*
X164100000Y-116547768D01*
X164100000Y-117595854D01*
X164033343Y-117557370D01*
X163912535Y-117525000D01*
X163787465Y-117525000D01*
X163666657Y-117557370D01*
X163600000Y-117595854D01*
X163600000Y-116547768D01*
X163599999Y-116547768D01*
X163533875Y-116558241D01*
X163331784Y-116623903D01*
X163142442Y-116720379D01*
X162970541Y-116845271D01*
X162831668Y-116984144D01*
X162770345Y-117017628D01*
X162700653Y-117012644D01*
X162644720Y-116970772D01*
X162638448Y-116961558D01*
X162542712Y-116806344D01*
X162418657Y-116682289D01*
X162418656Y-116682288D01*
X162269334Y-116590186D01*
X162102797Y-116535001D01*
X162102795Y-116535000D01*
X162061896Y-116530822D01*
X161997205Y-116504425D01*
X161957054Y-116447244D01*
X161950500Y-116407464D01*
X161950500Y-108393713D01*
X164304500Y-108393713D01*
X164304500Y-108606286D01*
X164325539Y-108739125D01*
X164337754Y-108816243D01*
X164398205Y-109002292D01*
X164403444Y-109018414D01*
X164499951Y-109207820D01*
X164624890Y-109379786D01*
X164763705Y-109518601D01*
X164797190Y-109579924D01*
X164792206Y-109649616D01*
X164750334Y-109705549D01*
X164741121Y-109711821D01*
X164586342Y-109807289D01*
X164462289Y-109931342D01*
X164370187Y-110080663D01*
X164370186Y-110080666D01*
X164315001Y-110247203D01*
X164315001Y-110247204D01*
X164315000Y-110247204D01*
X164304500Y-110349983D01*
X164304500Y-111650001D01*
X164304501Y-111650018D01*
X164315000Y-111752796D01*
X164315001Y-111752799D01*
X164370185Y-111919331D01*
X164370186Y-111919334D01*
X164462288Y-112068656D01*
X164586344Y-112192712D01*
X164735666Y-112284814D01*
X164902203Y-112339999D01*
X165004991Y-112350500D01*
X166605008Y-112350499D01*
X166707797Y-112339999D01*
X166874334Y-112284814D01*
X167023656Y-112192712D01*
X167147712Y-112068656D01*
X167239814Y-111919334D01*
X167294999Y-111752797D01*
X167305500Y-111650009D01*
X167305499Y-110349992D01*
X167294999Y-110247203D01*
X167239814Y-110080666D01*
X167147712Y-109931344D01*
X167023656Y-109807288D01*
X166874334Y-109715186D01*
X166874333Y-109715185D01*
X166868878Y-109711821D01*
X166822154Y-109659873D01*
X166810931Y-109590910D01*
X166838775Y-109526828D01*
X166846272Y-109518623D01*
X166985104Y-109379792D01*
X167041247Y-109302518D01*
X167110048Y-109207820D01*
X167110047Y-109207820D01*
X167110051Y-109207816D01*
X167206557Y-109018412D01*
X167272246Y-108816243D01*
X167305500Y-108606287D01*
X167305500Y-108393713D01*
X167272246Y-108183757D01*
X167206557Y-107981588D01*
X167110051Y-107792184D01*
X167110049Y-107792181D01*
X167110048Y-107792179D01*
X166985109Y-107620213D01*
X166834786Y-107469890D01*
X166662820Y-107344951D01*
X166473414Y-107248444D01*
X166473413Y-107248443D01*
X166473412Y-107248443D01*
X166271243Y-107182754D01*
X166271241Y-107182753D01*
X166271240Y-107182753D01*
X166109957Y-107157208D01*
X166061287Y-107149500D01*
X165548713Y-107149500D01*
X165500042Y-107157208D01*
X165338760Y-107182753D01*
X165136585Y-107248444D01*
X164947179Y-107344951D01*
X164775213Y-107469890D01*
X164624890Y-107620213D01*
X164499951Y-107792179D01*
X164403444Y-107981585D01*
X164337753Y-108183760D01*
X164304500Y-108393713D01*
X161950500Y-108393713D01*
X161950500Y-106425316D01*
X161959939Y-106377864D01*
X162019735Y-106233501D01*
X162019737Y-106233497D01*
X162050500Y-106078842D01*
X162050500Y-105921158D01*
X162050500Y-105921155D01*
X162050499Y-105921153D01*
X162019738Y-105766510D01*
X162019737Y-105766503D01*
X162019735Y-105766498D01*
X161959397Y-105620827D01*
X161959390Y-105620814D01*
X161871789Y-105489711D01*
X161871786Y-105489707D01*
X161760292Y-105378213D01*
X161760288Y-105378210D01*
X161629185Y-105290609D01*
X161629172Y-105290602D01*
X161483501Y-105230264D01*
X161483489Y-105230261D01*
X161328845Y-105199500D01*
X161328842Y-105199500D01*
X161171158Y-105199500D01*
X161171155Y-105199500D01*
X161016510Y-105230261D01*
X161016498Y-105230264D01*
X160870827Y-105290602D01*
X160870814Y-105290609D01*
X160739711Y-105378210D01*
X160739707Y-105378213D01*
X160628213Y-105489707D01*
X160628210Y-105489711D01*
X160540609Y-105620814D01*
X160540602Y-105620827D01*
X160480264Y-105766498D01*
X160480261Y-105766510D01*
X160449500Y-105921153D01*
X160449500Y-106078846D01*
X160480261Y-106233489D01*
X160480264Y-106233501D01*
X160540602Y-106379172D01*
X160540609Y-106379185D01*
X160628209Y-106510287D01*
X160628210Y-106510288D01*
X160628211Y-106510289D01*
X160713182Y-106595260D01*
X160746666Y-106656581D01*
X160749500Y-106682940D01*
X160749500Y-116407465D01*
X160729815Y-116474504D01*
X160677011Y-116520259D01*
X160638102Y-116530823D01*
X160597202Y-116535001D01*
X160597200Y-116535001D01*
X160430668Y-116590185D01*
X160430663Y-116590187D01*
X160281342Y-116682289D01*
X160157289Y-116806342D01*
X160065187Y-116955663D01*
X160065185Y-116955668D01*
X160060180Y-116970772D01*
X160010001Y-117122203D01*
X160010001Y-117122204D01*
X160010000Y-117122204D01*
X159999500Y-117224983D01*
X155584501Y-117224983D01*
X155555051Y-117167184D01*
X155555049Y-117167181D01*
X155555048Y-117167179D01*
X155430109Y-116995213D01*
X155279786Y-116844890D01*
X155107820Y-116719951D01*
X154918414Y-116623444D01*
X154918413Y-116623443D01*
X154918412Y-116623443D01*
X154716243Y-116557754D01*
X154716241Y-116557753D01*
X154716240Y-116557753D01*
X154554957Y-116532208D01*
X154506287Y-116524500D01*
X154293713Y-116524500D01*
X154245042Y-116532208D01*
X154083760Y-116557753D01*
X153881585Y-116623444D01*
X153692179Y-116719951D01*
X153520213Y-116844890D01*
X153369894Y-116995209D01*
X153369890Y-116995214D01*
X153250008Y-117160218D01*
X153194678Y-117202884D01*
X153125065Y-117208863D01*
X153063270Y-117176257D01*
X153049372Y-117160218D01*
X152929727Y-116995540D01*
X152929723Y-116995535D01*
X152779464Y-116845276D01*
X152779459Y-116845272D01*
X152607557Y-116720379D01*
X152418215Y-116623903D01*
X152216124Y-116558241D01*
X152150000Y-116547768D01*
X152150000Y-117595854D01*
X152083343Y-117557370D01*
X151962535Y-117525000D01*
X151837465Y-117525000D01*
X151716657Y-117557370D01*
X151650000Y-117595854D01*
X151650000Y-116547768D01*
X151649999Y-116547768D01*
X151583875Y-116558241D01*
X151381784Y-116623903D01*
X151192442Y-116720379D01*
X151020541Y-116845271D01*
X150881668Y-116984144D01*
X150820345Y-117017628D01*
X150750653Y-117012644D01*
X150694720Y-116970772D01*
X150688448Y-116961558D01*
X150592712Y-116806344D01*
X150468657Y-116682289D01*
X150468656Y-116682288D01*
X150319334Y-116590186D01*
X150152797Y-116535001D01*
X150152795Y-116535000D01*
X150050010Y-116524500D01*
X148749998Y-116524500D01*
X148749981Y-116524501D01*
X148647203Y-116535000D01*
X148647200Y-116535001D01*
X148480668Y-116590185D01*
X148480663Y-116590187D01*
X148331342Y-116682289D01*
X148207289Y-116806342D01*
X148115187Y-116955663D01*
X148115185Y-116955668D01*
X148110180Y-116970772D01*
X148060001Y-117122203D01*
X148060001Y-117122204D01*
X148060000Y-117122204D01*
X148049500Y-117224983D01*
X143634501Y-117224983D01*
X143605051Y-117167184D01*
X143605049Y-117167181D01*
X143605048Y-117167179D01*
X143480109Y-116995213D01*
X143329786Y-116844890D01*
X143157820Y-116719951D01*
X142968414Y-116623444D01*
X142968413Y-116623443D01*
X142968412Y-116623443D01*
X142766243Y-116557754D01*
X142766241Y-116557753D01*
X142766240Y-116557753D01*
X142604957Y-116532208D01*
X142556287Y-116524500D01*
X142343713Y-116524500D01*
X142295042Y-116532208D01*
X142133760Y-116557753D01*
X141931585Y-116623444D01*
X141742179Y-116719951D01*
X141570213Y-116844890D01*
X141419894Y-116995209D01*
X141419890Y-116995214D01*
X141300008Y-117160218D01*
X141244678Y-117202884D01*
X141175065Y-117208863D01*
X141113270Y-117176257D01*
X141099372Y-117160218D01*
X140979727Y-116995540D01*
X140979723Y-116995535D01*
X140829464Y-116845276D01*
X140829459Y-116845272D01*
X140657557Y-116720379D01*
X140468215Y-116623903D01*
X140266124Y-116558241D01*
X140200000Y-116547768D01*
X140200000Y-117595854D01*
X140133343Y-117557370D01*
X140012535Y-117525000D01*
X139887465Y-117525000D01*
X139766657Y-117557370D01*
X139700000Y-117595854D01*
X139700000Y-116547768D01*
X139699999Y-116547768D01*
X139633875Y-116558241D01*
X139431784Y-116623903D01*
X139242442Y-116720379D01*
X139070541Y-116845271D01*
X138931668Y-116984144D01*
X138870345Y-117017628D01*
X138800653Y-117012644D01*
X138744720Y-116970772D01*
X138738448Y-116961558D01*
X138642712Y-116806344D01*
X138518657Y-116682289D01*
X138518656Y-116682288D01*
X138369334Y-116590186D01*
X138202797Y-116535001D01*
X138202795Y-116535000D01*
X138100010Y-116524500D01*
X136799998Y-116524500D01*
X136799981Y-116524501D01*
X136697203Y-116535000D01*
X136697200Y-116535001D01*
X136530668Y-116590185D01*
X136530663Y-116590187D01*
X136381342Y-116682289D01*
X136257289Y-116806342D01*
X136165187Y-116955663D01*
X136165185Y-116955668D01*
X136160180Y-116970772D01*
X136110001Y-117122203D01*
X136110001Y-117122204D01*
X136110000Y-117122204D01*
X136099500Y-117224983D01*
X131684501Y-117224983D01*
X131655051Y-117167184D01*
X131655049Y-117167181D01*
X131655048Y-117167179D01*
X131530109Y-116995213D01*
X131379786Y-116844890D01*
X131207820Y-116719951D01*
X131018414Y-116623444D01*
X131018413Y-116623443D01*
X131018412Y-116623443D01*
X130816243Y-116557754D01*
X130816241Y-116557753D01*
X130816240Y-116557753D01*
X130654957Y-116532208D01*
X130606287Y-116524500D01*
X130393713Y-116524500D01*
X130345042Y-116532208D01*
X130183760Y-116557753D01*
X129981585Y-116623444D01*
X129792179Y-116719951D01*
X129620213Y-116844890D01*
X129469894Y-116995209D01*
X129469890Y-116995214D01*
X129350008Y-117160218D01*
X129294678Y-117202884D01*
X129225065Y-117208863D01*
X129163270Y-117176257D01*
X129149372Y-117160218D01*
X129029727Y-116995540D01*
X129029723Y-116995535D01*
X128879464Y-116845276D01*
X128879459Y-116845272D01*
X128707557Y-116720379D01*
X128518215Y-116623903D01*
X128316124Y-116558241D01*
X128250000Y-116547768D01*
X128250000Y-117595854D01*
X128183343Y-117557370D01*
X128062535Y-117525000D01*
X127937465Y-117525000D01*
X127816657Y-117557370D01*
X127750000Y-117595854D01*
X127750000Y-116547768D01*
X127749999Y-116547768D01*
X127683875Y-116558241D01*
X127481784Y-116623903D01*
X127292442Y-116720379D01*
X127120541Y-116845271D01*
X126981668Y-116984144D01*
X126920345Y-117017628D01*
X126850653Y-117012644D01*
X126794720Y-116970772D01*
X126788448Y-116961558D01*
X126692712Y-116806344D01*
X126568657Y-116682289D01*
X126568656Y-116682288D01*
X126419334Y-116590186D01*
X126252797Y-116535001D01*
X126252795Y-116535000D01*
X126150010Y-116524500D01*
X124849998Y-116524500D01*
X124849981Y-116524501D01*
X124747203Y-116535000D01*
X124747200Y-116535001D01*
X124580668Y-116590185D01*
X124580663Y-116590187D01*
X124431342Y-116682289D01*
X124307289Y-116806342D01*
X124215187Y-116955663D01*
X124215185Y-116955668D01*
X124210180Y-116970772D01*
X124160001Y-117122203D01*
X124160001Y-117122204D01*
X124160000Y-117122204D01*
X124149500Y-117224983D01*
X119500500Y-117224983D01*
X119500500Y-106127973D01*
X121317000Y-106127973D01*
X121317000Y-106372026D01*
X121338898Y-106510287D01*
X121355179Y-106613076D01*
X121430596Y-106845185D01*
X121535208Y-107050499D01*
X121541396Y-107062642D01*
X121648745Y-107210397D01*
X121672225Y-107276203D01*
X121656399Y-107344257D01*
X121613527Y-107388819D01*
X121599156Y-107397683D01*
X121475184Y-107521655D01*
X121383143Y-107670876D01*
X121383141Y-107670881D01*
X121327994Y-107837303D01*
X121327993Y-107837310D01*
X121317500Y-107940014D01*
X121317500Y-108540000D01*
X122376752Y-108540000D01*
X122354982Y-108577708D01*
X122317500Y-108717591D01*
X122317500Y-108862409D01*
X122354982Y-109002292D01*
X122376752Y-109040000D01*
X121317500Y-109040000D01*
X121317500Y-109639985D01*
X121327993Y-109742689D01*
X121327994Y-109742696D01*
X121383141Y-109909118D01*
X121383143Y-109909123D01*
X121475184Y-110058344D01*
X121599155Y-110182315D01*
X121748376Y-110274356D01*
X121748381Y-110274358D01*
X121914803Y-110329505D01*
X121914810Y-110329506D01*
X122017514Y-110339999D01*
X122017527Y-110340000D01*
X122617500Y-110340000D01*
X122617500Y-109280747D01*
X122655208Y-109302518D01*
X122795091Y-109340000D01*
X122939909Y-109340000D01*
X123079792Y-109302518D01*
X123117500Y-109280747D01*
X123117500Y-110340000D01*
X123717473Y-110340000D01*
X123717485Y-110339999D01*
X123820189Y-110329506D01*
X123820196Y-110329505D01*
X123986618Y-110274358D01*
X123986623Y-110274356D01*
X124135844Y-110182315D01*
X124259815Y-110058344D01*
X124351856Y-109909123D01*
X124351858Y-109909118D01*
X124407005Y-109742696D01*
X124407006Y-109742689D01*
X124417499Y-109639985D01*
X124417500Y-109639972D01*
X124417500Y-109040000D01*
X123358248Y-109040000D01*
X123380018Y-109002292D01*
X123417500Y-108862409D01*
X123417500Y-108717591D01*
X123380018Y-108577708D01*
X123358248Y-108540000D01*
X124417500Y-108540000D01*
X124417500Y-107940027D01*
X124417499Y-107940014D01*
X124407006Y-107837310D01*
X124407005Y-107837303D01*
X124351858Y-107670881D01*
X124351856Y-107670876D01*
X124259815Y-107521655D01*
X124135843Y-107397683D01*
X124121476Y-107388822D01*
X124074750Y-107336874D01*
X124063527Y-107267912D01*
X124086251Y-107210400D01*
X124193606Y-107062639D01*
X124304404Y-106845185D01*
X124379821Y-106613076D01*
X124418000Y-106372027D01*
X124418000Y-106127973D01*
X124379821Y-105886924D01*
X124304404Y-105654815D01*
X124193606Y-105437361D01*
X124150631Y-105378211D01*
X124050160Y-105239923D01*
X124050156Y-105239918D01*
X123877581Y-105067343D01*
X123877576Y-105067339D01*
X123680142Y-104923896D01*
X123680141Y-104923895D01*
X123680139Y-104923894D01*
X123462685Y-104813096D01*
X123230576Y-104737679D01*
X123230574Y-104737678D01*
X123230572Y-104737678D01*
X123062269Y-104711021D01*
X122989527Y-104699500D01*
X122745473Y-104699500D01*
X122689593Y-104708350D01*
X122504427Y-104737678D01*
X122272312Y-104813097D01*
X122054857Y-104923896D01*
X121857423Y-105067339D01*
X121857418Y-105067343D01*
X121684843Y-105239918D01*
X121684839Y-105239923D01*
X121541396Y-105437357D01*
X121430597Y-105654812D01*
X121355178Y-105886927D01*
X121317000Y-106127973D01*
X119500500Y-106127973D01*
X119500500Y-102671153D01*
X129199500Y-102671153D01*
X129199500Y-102828846D01*
X129230261Y-102983489D01*
X129230264Y-102983501D01*
X129290602Y-103129172D01*
X129290609Y-103129185D01*
X129378210Y-103260288D01*
X129378213Y-103260292D01*
X129489707Y-103371786D01*
X129489711Y-103371789D01*
X129620814Y-103459390D01*
X129620827Y-103459397D01*
X129766498Y-103519735D01*
X129766503Y-103519737D01*
X129831147Y-103532595D01*
X129921849Y-103550638D01*
X129983760Y-103583023D01*
X129985339Y-103584574D01*
X137265139Y-110864374D01*
X137265149Y-110864385D01*
X137269479Y-110868715D01*
X137269480Y-110868716D01*
X137381284Y-110980520D01*
X137432845Y-111010288D01*
X137468095Y-111030639D01*
X137468097Y-111030641D01*
X137506151Y-111052611D01*
X137518215Y-111059577D01*
X137670943Y-111100500D01*
X137829057Y-111100500D01*
X150170234Y-111100500D01*
X150237273Y-111120185D01*
X150239125Y-111121398D01*
X150370814Y-111209390D01*
X150370827Y-111209397D01*
X150516498Y-111269735D01*
X150516503Y-111269737D01*
X150671153Y-111300499D01*
X150671156Y-111300500D01*
X150671158Y-111300500D01*
X150828844Y-111300500D01*
X150828845Y-111300499D01*
X150983497Y-111269737D01*
X151129179Y-111209394D01*
X151260289Y-111121789D01*
X151371789Y-111010289D01*
X151459394Y-110879179D01*
X151519737Y-110733497D01*
X151550500Y-110578842D01*
X151550500Y-110421158D01*
X151550500Y-110421155D01*
X151550499Y-110421153D01*
X151536342Y-110349981D01*
X151519737Y-110266503D01*
X151511743Y-110247203D01*
X151459397Y-110120827D01*
X151459390Y-110120814D01*
X151371789Y-109989711D01*
X151371786Y-109989707D01*
X151260292Y-109878213D01*
X151260288Y-109878210D01*
X151129185Y-109790609D01*
X151129172Y-109790602D01*
X150983501Y-109730264D01*
X150983489Y-109730261D01*
X150828845Y-109699500D01*
X150828842Y-109699500D01*
X150671158Y-109699500D01*
X150671155Y-109699500D01*
X150516510Y-109730261D01*
X150516498Y-109730264D01*
X150370827Y-109790602D01*
X150370814Y-109790609D01*
X150239125Y-109878602D01*
X150172447Y-109899480D01*
X150170234Y-109899500D01*
X148510759Y-109899500D01*
X148443720Y-109879815D01*
X148397965Y-109827011D01*
X148388021Y-109757853D01*
X148407657Y-109706609D01*
X148438885Y-109659873D01*
X148459394Y-109629179D01*
X148519737Y-109483497D01*
X148550500Y-109328842D01*
X148550500Y-109171158D01*
X148550500Y-109171155D01*
X148550499Y-109171153D01*
X148520117Y-109018414D01*
X148519737Y-109016503D01*
X148513851Y-109002292D01*
X148459397Y-108870827D01*
X148459390Y-108870814D01*
X148371398Y-108739125D01*
X148350520Y-108672447D01*
X148350500Y-108670234D01*
X148350500Y-92171153D01*
X149199500Y-92171153D01*
X149199500Y-92328846D01*
X149230261Y-92483489D01*
X149230264Y-92483501D01*
X149290602Y-92629172D01*
X149290609Y-92629185D01*
X149378602Y-92760874D01*
X149399480Y-92827551D01*
X149399500Y-92829765D01*
X149399500Y-106913330D01*
X149399499Y-106913348D01*
X149399499Y-107079054D01*
X149399498Y-107079054D01*
X149440423Y-107231785D01*
X149450041Y-107248443D01*
X149450042Y-107248446D01*
X149519475Y-107368709D01*
X149519481Y-107368717D01*
X149638349Y-107487585D01*
X149638355Y-107487590D01*
X149915425Y-107764660D01*
X149948910Y-107825983D01*
X149949361Y-107828149D01*
X149980261Y-107983491D01*
X149980264Y-107983501D01*
X150040602Y-108129172D01*
X150040609Y-108129185D01*
X150128210Y-108260288D01*
X150128213Y-108260292D01*
X150239707Y-108371786D01*
X150239711Y-108371789D01*
X150370814Y-108459390D01*
X150370827Y-108459397D01*
X150516498Y-108519735D01*
X150516503Y-108519737D01*
X150671153Y-108550499D01*
X150671156Y-108550500D01*
X150671158Y-108550500D01*
X150828844Y-108550500D01*
X150828845Y-108550499D01*
X150983497Y-108519737D01*
X151129179Y-108459394D01*
X151260289Y-108371789D01*
X151371789Y-108260289D01*
X151459394Y-108129179D01*
X151519737Y-107983497D01*
X151550500Y-107828842D01*
X151550500Y-107671158D01*
X151550500Y-107671155D01*
X151550499Y-107671153D01*
X151531593Y-107576106D01*
X151519737Y-107516503D01*
X151504833Y-107480521D01*
X151459397Y-107370827D01*
X151459390Y-107370814D01*
X151371789Y-107239711D01*
X151371786Y-107239707D01*
X151260292Y-107128213D01*
X151260288Y-107128210D01*
X151129185Y-107040609D01*
X151129172Y-107040602D01*
X150983501Y-106980264D01*
X150983491Y-106980261D01*
X150828149Y-106949361D01*
X150811392Y-106940595D01*
X150792914Y-106936576D01*
X150767877Y-106917833D01*
X150766238Y-106916976D01*
X150764660Y-106915425D01*
X150636819Y-106787584D01*
X150603334Y-106726261D01*
X150600500Y-106699903D01*
X150600500Y-103421153D01*
X151949500Y-103421153D01*
X151949500Y-103578846D01*
X151980261Y-103733489D01*
X151980264Y-103733501D01*
X152040602Y-103879172D01*
X152040609Y-103879185D01*
X152128602Y-104010874D01*
X152149480Y-104077551D01*
X152149500Y-104079765D01*
X152149500Y-105670234D01*
X152129815Y-105737273D01*
X152128602Y-105739125D01*
X152040609Y-105870814D01*
X152040602Y-105870827D01*
X151980264Y-106016498D01*
X151980261Y-106016510D01*
X151949500Y-106171153D01*
X151949500Y-106328846D01*
X151980261Y-106483489D01*
X151980264Y-106483501D01*
X152040602Y-106629172D01*
X152040609Y-106629185D01*
X152128210Y-106760288D01*
X152128213Y-106760292D01*
X152239707Y-106871786D01*
X152239711Y-106871789D01*
X152370814Y-106959390D01*
X152370827Y-106959397D01*
X152516498Y-107019735D01*
X152516503Y-107019737D01*
X152671153Y-107050499D01*
X152671156Y-107050500D01*
X152671158Y-107050500D01*
X152828844Y-107050500D01*
X152828845Y-107050499D01*
X152983497Y-107019737D01*
X153129179Y-106959394D01*
X153260289Y-106871789D01*
X153371789Y-106760289D01*
X153459394Y-106629179D01*
X153519737Y-106483497D01*
X153550500Y-106328842D01*
X153550500Y-106171158D01*
X153550500Y-106171155D01*
X153550499Y-106171153D01*
X153519738Y-106016510D01*
X153519737Y-106016503D01*
X153480242Y-105921153D01*
X153459397Y-105870827D01*
X153459390Y-105870814D01*
X153371398Y-105739125D01*
X153350520Y-105672447D01*
X153350500Y-105670234D01*
X153350500Y-104079765D01*
X153370185Y-104012726D01*
X153371398Y-104010874D01*
X153459390Y-103879185D01*
X153459390Y-103879184D01*
X153459394Y-103879179D01*
X153519737Y-103733497D01*
X153550500Y-103578842D01*
X153550500Y-103421158D01*
X153550500Y-103421155D01*
X153550499Y-103421153D01*
X153519738Y-103266510D01*
X153519737Y-103266503D01*
X153517163Y-103260288D01*
X153459397Y-103120827D01*
X153459390Y-103120814D01*
X153371789Y-102989711D01*
X153371786Y-102989707D01*
X153260292Y-102878213D01*
X153260288Y-102878210D01*
X153129185Y-102790609D01*
X153129172Y-102790602D01*
X152983501Y-102730264D01*
X152983489Y-102730261D01*
X152828845Y-102699500D01*
X152828842Y-102699500D01*
X152671158Y-102699500D01*
X152671155Y-102699500D01*
X152516510Y-102730261D01*
X152516498Y-102730264D01*
X152370827Y-102790602D01*
X152370814Y-102790609D01*
X152239711Y-102878210D01*
X152239707Y-102878213D01*
X152128213Y-102989707D01*
X152128210Y-102989711D01*
X152040609Y-103120814D01*
X152040602Y-103120827D01*
X151980264Y-103266498D01*
X151980261Y-103266510D01*
X151949500Y-103421153D01*
X150600500Y-103421153D01*
X150600500Y-100716153D01*
X162449500Y-100716153D01*
X162449500Y-100873846D01*
X162480261Y-101028489D01*
X162480264Y-101028501D01*
X162540602Y-101174172D01*
X162540609Y-101174185D01*
X162628210Y-101305288D01*
X162628213Y-101305292D01*
X162739710Y-101416789D01*
X162870815Y-101504390D01*
X162870821Y-101504394D01*
X162879193Y-101507861D01*
X162933594Y-101551701D01*
X162953356Y-101598230D01*
X162980261Y-101733491D01*
X162980264Y-101733501D01*
X163040602Y-101879172D01*
X163040609Y-101879185D01*
X163128210Y-102010288D01*
X163128213Y-102010292D01*
X163239707Y-102121786D01*
X163239711Y-102121789D01*
X163370814Y-102209390D01*
X163370827Y-102209397D01*
X163444013Y-102239711D01*
X163516503Y-102269737D01*
X163671153Y-102300499D01*
X163671156Y-102300500D01*
X163671158Y-102300500D01*
X163828844Y-102300500D01*
X163828845Y-102300499D01*
X163983497Y-102269737D01*
X164129179Y-102209394D01*
X164129185Y-102209390D01*
X164260875Y-102121398D01*
X164327553Y-102100520D01*
X164329766Y-102100500D01*
X165629213Y-102100500D01*
X165629229Y-102100501D01*
X165636825Y-102100501D01*
X165794936Y-102100501D01*
X165794939Y-102100501D01*
X165947667Y-102059577D01*
X165997786Y-102030639D01*
X166084598Y-101980520D01*
X166196402Y-101868716D01*
X166196402Y-101868714D01*
X166206610Y-101858507D01*
X166206612Y-101858504D01*
X167324388Y-100740728D01*
X167324393Y-100740724D01*
X167334596Y-100730520D01*
X167334598Y-100730520D01*
X167446402Y-100618716D01*
X167479437Y-100561498D01*
X167522517Y-100486881D01*
X167522520Y-100486874D01*
X167522521Y-100486873D01*
X167525459Y-100481785D01*
X167566383Y-100329057D01*
X167566383Y-100170943D01*
X167566383Y-100163348D01*
X167566382Y-100163330D01*
X167566382Y-96444000D01*
X167586067Y-96376961D01*
X167638871Y-96331206D01*
X167690382Y-96320000D01*
X168070000Y-96320000D01*
X168070000Y-95620000D01*
X168570000Y-95620000D01*
X168570000Y-96320000D01*
X168968492Y-96320000D01*
X168968495Y-96319999D01*
X169161681Y-96281572D01*
X169161693Y-96281569D01*
X169343671Y-96206192D01*
X169343684Y-96206185D01*
X169507462Y-96096751D01*
X169507466Y-96096748D01*
X169646748Y-95957466D01*
X169646751Y-95957462D01*
X169756185Y-95793684D01*
X169756192Y-95793671D01*
X169831569Y-95611692D01*
X169831569Y-95611690D01*
X169839862Y-95570000D01*
X169036988Y-95570000D01*
X169054205Y-95560060D01*
X169110060Y-95504205D01*
X169149556Y-95435796D01*
X169170000Y-95359496D01*
X169170000Y-95280504D01*
X169149556Y-95204204D01*
X169110060Y-95135795D01*
X169054205Y-95079940D01*
X169036988Y-95070000D01*
X169839862Y-95070000D01*
X171130138Y-95070000D01*
X171933012Y-95070000D01*
X171915795Y-95079940D01*
X171859940Y-95135795D01*
X171820444Y-95204204D01*
X171800000Y-95280504D01*
X171800000Y-95359496D01*
X171820444Y-95435796D01*
X171859940Y-95504205D01*
X171915795Y-95560060D01*
X171933012Y-95570000D01*
X171130138Y-95570000D01*
X171138430Y-95611690D01*
X171138430Y-95611692D01*
X171213807Y-95793671D01*
X171213814Y-95793684D01*
X171323248Y-95957462D01*
X171323251Y-95957466D01*
X171462533Y-96096748D01*
X171462537Y-96096751D01*
X171626315Y-96206185D01*
X171626328Y-96206192D01*
X171808306Y-96281569D01*
X171808318Y-96281572D01*
X172001504Y-96319999D01*
X172001508Y-96320000D01*
X172250000Y-96320000D01*
X172250000Y-95620000D01*
X172750000Y-95620000D01*
X172750000Y-96320000D01*
X172998492Y-96320000D01*
X172998495Y-96319999D01*
X173191681Y-96281572D01*
X173191693Y-96281569D01*
X173373671Y-96206192D01*
X173373684Y-96206185D01*
X173537462Y-96096751D01*
X173537466Y-96096748D01*
X173676748Y-95957466D01*
X173676751Y-95957462D01*
X173786185Y-95793684D01*
X173786192Y-95793671D01*
X173861569Y-95611692D01*
X173861569Y-95611690D01*
X173869862Y-95570000D01*
X173066988Y-95570000D01*
X173084205Y-95560060D01*
X173140060Y-95504205D01*
X173179556Y-95435796D01*
X173200000Y-95359496D01*
X173200000Y-95280504D01*
X173179556Y-95204204D01*
X173140060Y-95135795D01*
X173084205Y-95079940D01*
X173066988Y-95070000D01*
X173869862Y-95070000D01*
X173861569Y-95028309D01*
X173861569Y-95028307D01*
X173786192Y-94846328D01*
X173786185Y-94846315D01*
X173676751Y-94682537D01*
X173676748Y-94682533D01*
X173537466Y-94543251D01*
X173537462Y-94543248D01*
X173373684Y-94433814D01*
X173373671Y-94433807D01*
X173191693Y-94358430D01*
X173191681Y-94358427D01*
X172998495Y-94320000D01*
X172750000Y-94320000D01*
X172750000Y-95020000D01*
X172250000Y-95020000D01*
X172250000Y-94320000D01*
X172001504Y-94320000D01*
X171808318Y-94358427D01*
X171808306Y-94358430D01*
X171626328Y-94433807D01*
X171626315Y-94433814D01*
X171462537Y-94543248D01*
X171462533Y-94543251D01*
X171323251Y-94682533D01*
X171323248Y-94682537D01*
X171213814Y-94846315D01*
X171213807Y-94846328D01*
X171138430Y-95028307D01*
X171138430Y-95028309D01*
X171130138Y-95070000D01*
X169839862Y-95070000D01*
X169831569Y-95028309D01*
X169831569Y-95028307D01*
X169756192Y-94846328D01*
X169756185Y-94846315D01*
X169646751Y-94682537D01*
X169646748Y-94682533D01*
X169507466Y-94543251D01*
X169507462Y-94543248D01*
X169343684Y-94433814D01*
X169343675Y-94433809D01*
X169185801Y-94368416D01*
X169131398Y-94324575D01*
X169109333Y-94258281D01*
X169126612Y-94190582D01*
X169145571Y-94166176D01*
X169160485Y-94151263D01*
X169216503Y-94054237D01*
X169245500Y-93946018D01*
X169245500Y-93833982D01*
X169216503Y-93725763D01*
X169160485Y-93628737D01*
X169081263Y-93549515D01*
X169042720Y-93527262D01*
X168994504Y-93476695D01*
X168981282Y-93408088D01*
X169007250Y-93343223D01*
X169017030Y-93332203D01*
X170730519Y-91618716D01*
X170789078Y-91560157D01*
X170789091Y-91560142D01*
X171272180Y-91077053D01*
X171333501Y-91043570D01*
X171384051Y-91043119D01*
X171421156Y-91050500D01*
X171421158Y-91050500D01*
X171578844Y-91050500D01*
X171578845Y-91050499D01*
X171733497Y-91019737D01*
X171879179Y-90959394D01*
X172010289Y-90871789D01*
X172121789Y-90760289D01*
X172209394Y-90629179D01*
X172212854Y-90620827D01*
X172267164Y-90489708D01*
X172269737Y-90483497D01*
X172300500Y-90328842D01*
X172300500Y-90171158D01*
X172300500Y-90171155D01*
X172300499Y-90171153D01*
X172269738Y-90016510D01*
X172269737Y-90016503D01*
X172269735Y-90016498D01*
X172209397Y-89870827D01*
X172209390Y-89870814D01*
X172121789Y-89739711D01*
X172121786Y-89739707D01*
X172010292Y-89628213D01*
X172010288Y-89628210D01*
X171879185Y-89540609D01*
X171879172Y-89540602D01*
X171733501Y-89480264D01*
X171733489Y-89480261D01*
X171578845Y-89449500D01*
X171578842Y-89449500D01*
X171421158Y-89449500D01*
X171421155Y-89449500D01*
X171266510Y-89480261D01*
X171266498Y-89480264D01*
X171120827Y-89540602D01*
X171120814Y-89540609D01*
X170989711Y-89628210D01*
X170989707Y-89628213D01*
X170878217Y-89739704D01*
X170878214Y-89739706D01*
X170818860Y-89828534D01*
X170803440Y-89847322D01*
X170094491Y-90556272D01*
X170033168Y-90589757D01*
X169963477Y-90584773D01*
X169907543Y-90542902D01*
X169903723Y-90537504D01*
X169871789Y-90489711D01*
X169871787Y-90489708D01*
X169760292Y-90378213D01*
X169760288Y-90378210D01*
X169629185Y-90290609D01*
X169629172Y-90290602D01*
X169483501Y-90230264D01*
X169483489Y-90230261D01*
X169328845Y-90199500D01*
X169328842Y-90199500D01*
X169171158Y-90199500D01*
X169171155Y-90199500D01*
X169016510Y-90230261D01*
X169016498Y-90230264D01*
X168870827Y-90290602D01*
X168870814Y-90290609D01*
X168739711Y-90378210D01*
X168739707Y-90378213D01*
X168628213Y-90489707D01*
X168628210Y-90489711D01*
X168540609Y-90620814D01*
X168540602Y-90620827D01*
X168480264Y-90766498D01*
X168480261Y-90766508D01*
X168449361Y-90921850D01*
X168416976Y-90983761D01*
X168415425Y-90985339D01*
X166075481Y-93325282D01*
X166075479Y-93325285D01*
X166065123Y-93343223D01*
X166027674Y-93408088D01*
X166025361Y-93412094D01*
X166025359Y-93412096D01*
X165996425Y-93462209D01*
X165996424Y-93462210D01*
X165996423Y-93462215D01*
X165955499Y-93614943D01*
X165955499Y-93614945D01*
X165955499Y-93783046D01*
X165955500Y-93783059D01*
X165955500Y-97188903D01*
X165935815Y-97255942D01*
X165919181Y-97276584D01*
X163235339Y-99960425D01*
X163174016Y-99993910D01*
X163171850Y-99994361D01*
X163016508Y-100025261D01*
X163016498Y-100025264D01*
X162870827Y-100085602D01*
X162870814Y-100085609D01*
X162739711Y-100173210D01*
X162739707Y-100173213D01*
X162628213Y-100284707D01*
X162628210Y-100284711D01*
X162540609Y-100415814D01*
X162540602Y-100415827D01*
X162480264Y-100561498D01*
X162480261Y-100561510D01*
X162449500Y-100716153D01*
X150600500Y-100716153D01*
X150600500Y-92829765D01*
X150620185Y-92762726D01*
X150621398Y-92760874D01*
X150709390Y-92629185D01*
X150709390Y-92629184D01*
X150709394Y-92629179D01*
X150769737Y-92483497D01*
X150800500Y-92328842D01*
X150800500Y-92171158D01*
X150800500Y-92171155D01*
X150800499Y-92171153D01*
X150769738Y-92016510D01*
X150769737Y-92016503D01*
X150709794Y-91871786D01*
X150709397Y-91870827D01*
X150709390Y-91870814D01*
X150621789Y-91739711D01*
X150621786Y-91739707D01*
X150510292Y-91628213D01*
X150510288Y-91628210D01*
X150379185Y-91540609D01*
X150379172Y-91540602D01*
X150233501Y-91480264D01*
X150233489Y-91480261D01*
X150078845Y-91449500D01*
X150078842Y-91449500D01*
X149921158Y-91449500D01*
X149921155Y-91449500D01*
X149766510Y-91480261D01*
X149766498Y-91480264D01*
X149620827Y-91540602D01*
X149620814Y-91540609D01*
X149489711Y-91628210D01*
X149489707Y-91628213D01*
X149378213Y-91739707D01*
X149378210Y-91739711D01*
X149290609Y-91870814D01*
X149290602Y-91870827D01*
X149230264Y-92016498D01*
X149230261Y-92016510D01*
X149199500Y-92171153D01*
X148350500Y-92171153D01*
X148350500Y-91050097D01*
X148370185Y-90983058D01*
X148386819Y-90962416D01*
X149178082Y-90171153D01*
X165449500Y-90171153D01*
X165449500Y-90328846D01*
X165480261Y-90483489D01*
X165480264Y-90483501D01*
X165540602Y-90629172D01*
X165540609Y-90629185D01*
X165575304Y-90681109D01*
X165596182Y-90747786D01*
X165577698Y-90815167D01*
X165575304Y-90818891D01*
X165540609Y-90870814D01*
X165540602Y-90870827D01*
X165480264Y-91016498D01*
X165480261Y-91016510D01*
X165449500Y-91171153D01*
X165449500Y-91328846D01*
X165480261Y-91483489D01*
X165480264Y-91483501D01*
X165540602Y-91629172D01*
X165540609Y-91629185D01*
X165628210Y-91760288D01*
X165628213Y-91760292D01*
X165739707Y-91871786D01*
X165739711Y-91871789D01*
X165870814Y-91959390D01*
X165870827Y-91959397D01*
X166008683Y-92016498D01*
X166016503Y-92019737D01*
X166171153Y-92050499D01*
X166171156Y-92050500D01*
X166171158Y-92050500D01*
X166328844Y-92050500D01*
X166328845Y-92050499D01*
X166483497Y-92019737D01*
X166629179Y-91959394D01*
X166760289Y-91871789D01*
X166871789Y-91760289D01*
X166959394Y-91629179D01*
X167019737Y-91483497D01*
X167050500Y-91328842D01*
X167050500Y-91171158D01*
X167050500Y-91171155D01*
X167050499Y-91171153D01*
X167019737Y-91016503D01*
X166959794Y-90871786D01*
X166959396Y-90870825D01*
X166959394Y-90870822D01*
X166959394Y-90870821D01*
X166924694Y-90818889D01*
X166903816Y-90752215D01*
X166922300Y-90684835D01*
X166924676Y-90681136D01*
X166959394Y-90629179D01*
X167019737Y-90483497D01*
X167050500Y-90328842D01*
X167050500Y-90171158D01*
X167050500Y-90171155D01*
X167050499Y-90171153D01*
X167019738Y-90016510D01*
X167019737Y-90016503D01*
X167019735Y-90016498D01*
X166959397Y-89870827D01*
X166959390Y-89870814D01*
X166871789Y-89739711D01*
X166871786Y-89739707D01*
X166760292Y-89628213D01*
X166760288Y-89628210D01*
X166629185Y-89540609D01*
X166629172Y-89540602D01*
X166483501Y-89480264D01*
X166483489Y-89480261D01*
X166328845Y-89449500D01*
X166328842Y-89449500D01*
X166171158Y-89449500D01*
X166171155Y-89449500D01*
X166016510Y-89480261D01*
X166016498Y-89480264D01*
X165870827Y-89540602D01*
X165870814Y-89540609D01*
X165739711Y-89628210D01*
X165739707Y-89628213D01*
X165628213Y-89739707D01*
X165628210Y-89739711D01*
X165540609Y-89870814D01*
X165540602Y-89870827D01*
X165480264Y-90016498D01*
X165480261Y-90016510D01*
X165449500Y-90171153D01*
X149178082Y-90171153D01*
X150014664Y-89334571D01*
X150075985Y-89301088D01*
X150078152Y-89300637D01*
X150078841Y-89300500D01*
X150078842Y-89300500D01*
X150233497Y-89269737D01*
X150379179Y-89209394D01*
X150510289Y-89121789D01*
X150621789Y-89010289D01*
X150709394Y-88879179D01*
X150769737Y-88733497D01*
X150800500Y-88578842D01*
X150800500Y-88421158D01*
X150800500Y-88421155D01*
X150800499Y-88421153D01*
X150769737Y-88266503D01*
X150728115Y-88166017D01*
X150709397Y-88120827D01*
X150709391Y-88120816D01*
X150705337Y-88114749D01*
X150705336Y-88114747D01*
X150705335Y-88114746D01*
X150621789Y-87989711D01*
X150621786Y-87989707D01*
X150510292Y-87878213D01*
X150510288Y-87878210D01*
X150379185Y-87790609D01*
X150379172Y-87790602D01*
X150233501Y-87730264D01*
X150233489Y-87730261D01*
X150078845Y-87699500D01*
X150078842Y-87699500D01*
X149921158Y-87699500D01*
X149921155Y-87699500D01*
X149766510Y-87730261D01*
X149766498Y-87730264D01*
X149620827Y-87790602D01*
X149620814Y-87790609D01*
X149489711Y-87878210D01*
X149489707Y-87878213D01*
X149378213Y-87989707D01*
X149378210Y-87989711D01*
X149290609Y-88120814D01*
X149290602Y-88120827D01*
X149230264Y-88266498D01*
X149230261Y-88266508D01*
X149199362Y-88421848D01*
X149166977Y-88483759D01*
X149165426Y-88485337D01*
X147381286Y-90269478D01*
X147269481Y-90381282D01*
X147269479Y-90381284D01*
X147245480Y-90422853D01*
X147235336Y-90440424D01*
X147190423Y-90518215D01*
X147149499Y-90670943D01*
X147149499Y-90670945D01*
X147149499Y-90839046D01*
X147149500Y-90839059D01*
X147149500Y-108670234D01*
X147129815Y-108737273D01*
X147128602Y-108739125D01*
X147040609Y-108870814D01*
X147040602Y-108870827D01*
X146980264Y-109016498D01*
X146980261Y-109016510D01*
X146949500Y-109171153D01*
X146949500Y-109328846D01*
X146980261Y-109483489D01*
X146980264Y-109483501D01*
X147040602Y-109629172D01*
X147040609Y-109629184D01*
X147092343Y-109706609D01*
X147113221Y-109773286D01*
X147094737Y-109840666D01*
X147042758Y-109887357D01*
X146989241Y-109899500D01*
X138050097Y-109899500D01*
X137983058Y-109879815D01*
X137962416Y-109863181D01*
X130834574Y-102735339D01*
X130801089Y-102674016D01*
X130800638Y-102671849D01*
X130769738Y-102516510D01*
X130769737Y-102516503D01*
X130769735Y-102516498D01*
X130709397Y-102370827D01*
X130709390Y-102370814D01*
X130621789Y-102239711D01*
X130621786Y-102239707D01*
X130510292Y-102128213D01*
X130510288Y-102128210D01*
X130379185Y-102040609D01*
X130379172Y-102040602D01*
X130233501Y-101980264D01*
X130233489Y-101980261D01*
X130078845Y-101949500D01*
X130078842Y-101949500D01*
X129921158Y-101949500D01*
X129921155Y-101949500D01*
X129766510Y-101980261D01*
X129766498Y-101980264D01*
X129620827Y-102040602D01*
X129620814Y-102040609D01*
X129489711Y-102128210D01*
X129489707Y-102128213D01*
X129378213Y-102239707D01*
X129378210Y-102239711D01*
X129290609Y-102370814D01*
X129290602Y-102370827D01*
X129230264Y-102516498D01*
X129230261Y-102516510D01*
X129199500Y-102671153D01*
X119500500Y-102671153D01*
X119500500Y-96155513D01*
X121549500Y-96155513D01*
X121549500Y-96344486D01*
X121579059Y-96531118D01*
X121637454Y-96710836D01*
X121723240Y-96879199D01*
X121834310Y-97032073D01*
X121967927Y-97165690D01*
X122120801Y-97276760D01*
X122200347Y-97317290D01*
X122289163Y-97362545D01*
X122289165Y-97362545D01*
X122289168Y-97362547D01*
X122385497Y-97393846D01*
X122468881Y-97420940D01*
X122655514Y-97450500D01*
X122655519Y-97450500D01*
X122844486Y-97450500D01*
X123031118Y-97420940D01*
X123210832Y-97362547D01*
X123379199Y-97276760D01*
X123532073Y-97165690D01*
X123665690Y-97032073D01*
X123776760Y-96879199D01*
X123862547Y-96710832D01*
X123920940Y-96531118D01*
X123945356Y-96376961D01*
X123950500Y-96344486D01*
X123950500Y-96155513D01*
X123920940Y-95968881D01*
X123862545Y-95789163D01*
X123776759Y-95620800D01*
X123770140Y-95611690D01*
X123665690Y-95467927D01*
X123532073Y-95334310D01*
X123379199Y-95223240D01*
X123341839Y-95204204D01*
X123210836Y-95137454D01*
X123031118Y-95079059D01*
X122844486Y-95049500D01*
X122844481Y-95049500D01*
X122655519Y-95049500D01*
X122655514Y-95049500D01*
X122468881Y-95079059D01*
X122289163Y-95137454D01*
X122120800Y-95223240D01*
X122041984Y-95280504D01*
X121967927Y-95334310D01*
X121967925Y-95334312D01*
X121967924Y-95334312D01*
X121834312Y-95467924D01*
X121834312Y-95467925D01*
X121834310Y-95467927D01*
X121786610Y-95533579D01*
X121723240Y-95620800D01*
X121637454Y-95789163D01*
X121579059Y-95968881D01*
X121549500Y-96155513D01*
X119500500Y-96155513D01*
X119500500Y-86430000D01*
X166800138Y-86430000D01*
X167603012Y-86430000D01*
X167585795Y-86439940D01*
X167529940Y-86495795D01*
X167490444Y-86564204D01*
X167470000Y-86640504D01*
X167470000Y-86719496D01*
X167490444Y-86795796D01*
X167529940Y-86864205D01*
X167585795Y-86920060D01*
X167603012Y-86930000D01*
X166800138Y-86930000D01*
X166808430Y-86971690D01*
X166808430Y-86971692D01*
X166883807Y-87153671D01*
X166883814Y-87153684D01*
X166993248Y-87317462D01*
X166993251Y-87317466D01*
X167132533Y-87456748D01*
X167132537Y-87456751D01*
X167296315Y-87566185D01*
X167296328Y-87566192D01*
X167478306Y-87641569D01*
X167478318Y-87641572D01*
X167671504Y-87679999D01*
X167671508Y-87680000D01*
X168070000Y-87680000D01*
X168070000Y-86980000D01*
X168570000Y-86980000D01*
X168570000Y-87706890D01*
X168550315Y-87773929D01*
X168533681Y-87794571D01*
X168479517Y-87848734D01*
X168479513Y-87848740D01*
X168423498Y-87945760D01*
X168423497Y-87945763D01*
X168394500Y-88053982D01*
X168394500Y-88166018D01*
X168423497Y-88274237D01*
X168479515Y-88371263D01*
X168558737Y-88450485D01*
X168655763Y-88506503D01*
X168763982Y-88535500D01*
X168763984Y-88535500D01*
X168876016Y-88535500D01*
X168876018Y-88535500D01*
X168984237Y-88506503D01*
X169081263Y-88450485D01*
X169160485Y-88371263D01*
X169216503Y-88274237D01*
X169245500Y-88166018D01*
X169245500Y-88053982D01*
X169216503Y-87945763D01*
X169160485Y-87848737D01*
X169145573Y-87833825D01*
X169112088Y-87772502D01*
X169117072Y-87702810D01*
X169158944Y-87646877D01*
X169185802Y-87631583D01*
X169343671Y-87566192D01*
X169343684Y-87566185D01*
X169507462Y-87456751D01*
X169507466Y-87456748D01*
X169646748Y-87317466D01*
X169646751Y-87317462D01*
X169756185Y-87153684D01*
X169756192Y-87153671D01*
X169831569Y-86971692D01*
X169831569Y-86971690D01*
X169839862Y-86930000D01*
X169036988Y-86930000D01*
X169054205Y-86920060D01*
X169110060Y-86864205D01*
X169149556Y-86795796D01*
X169170000Y-86719496D01*
X169170000Y-86640504D01*
X169149556Y-86564204D01*
X169110060Y-86495795D01*
X169054205Y-86439940D01*
X169036988Y-86430000D01*
X169839862Y-86430000D01*
X171130138Y-86430000D01*
X171933012Y-86430000D01*
X171915795Y-86439940D01*
X171859940Y-86495795D01*
X171820444Y-86564204D01*
X171800000Y-86640504D01*
X171800000Y-86719496D01*
X171820444Y-86795796D01*
X171859940Y-86864205D01*
X171915795Y-86920060D01*
X171933012Y-86930000D01*
X171130138Y-86930000D01*
X171138430Y-86971690D01*
X171138430Y-86971692D01*
X171213807Y-87153671D01*
X171213814Y-87153684D01*
X171323248Y-87317462D01*
X171323251Y-87317466D01*
X171462533Y-87456748D01*
X171462537Y-87456751D01*
X171626315Y-87566185D01*
X171626328Y-87566192D01*
X171808306Y-87641569D01*
X171808318Y-87641572D01*
X172001504Y-87679999D01*
X172001508Y-87680000D01*
X172250000Y-87680000D01*
X172250000Y-86980000D01*
X172750000Y-86980000D01*
X172750000Y-87680000D01*
X172998492Y-87680000D01*
X172998495Y-87679999D01*
X173191681Y-87641572D01*
X173191693Y-87641569D01*
X173373671Y-87566192D01*
X173373684Y-87566185D01*
X173537462Y-87456751D01*
X173537466Y-87456748D01*
X173676748Y-87317466D01*
X173676751Y-87317462D01*
X173786185Y-87153684D01*
X173786192Y-87153671D01*
X173861569Y-86971692D01*
X173861569Y-86971690D01*
X173869862Y-86930000D01*
X173066988Y-86930000D01*
X173084205Y-86920060D01*
X173140060Y-86864205D01*
X173179556Y-86795796D01*
X173200000Y-86719496D01*
X173200000Y-86640504D01*
X173179556Y-86564204D01*
X173140060Y-86495795D01*
X173084205Y-86439940D01*
X173066988Y-86430000D01*
X173869862Y-86430000D01*
X173861569Y-86388309D01*
X173861569Y-86388307D01*
X173786192Y-86206328D01*
X173786185Y-86206315D01*
X173676751Y-86042537D01*
X173676748Y-86042533D01*
X173537466Y-85903251D01*
X173537462Y-85903248D01*
X173373684Y-85793814D01*
X173373671Y-85793807D01*
X173191693Y-85718430D01*
X173191681Y-85718427D01*
X172998495Y-85680000D01*
X172750000Y-85680000D01*
X172750000Y-86380000D01*
X172250000Y-86380000D01*
X172250000Y-85680000D01*
X172001504Y-85680000D01*
X171808318Y-85718427D01*
X171808306Y-85718430D01*
X171626328Y-85793807D01*
X171626315Y-85793814D01*
X171462537Y-85903248D01*
X171462533Y-85903251D01*
X171323251Y-86042533D01*
X171323248Y-86042537D01*
X171213814Y-86206315D01*
X171213807Y-86206328D01*
X171138430Y-86388307D01*
X171138430Y-86388309D01*
X171130138Y-86430000D01*
X169839862Y-86430000D01*
X169831569Y-86388309D01*
X169831569Y-86388307D01*
X169756192Y-86206328D01*
X169756185Y-86206315D01*
X169646751Y-86042537D01*
X169646748Y-86042533D01*
X169507466Y-85903251D01*
X169507462Y-85903248D01*
X169343684Y-85793814D01*
X169343671Y-85793807D01*
X169161693Y-85718430D01*
X169161681Y-85718427D01*
X168968495Y-85680000D01*
X168570000Y-85680000D01*
X168570000Y-86380000D01*
X168070000Y-86380000D01*
X168070000Y-85680000D01*
X167671504Y-85680000D01*
X167478318Y-85718427D01*
X167478306Y-85718430D01*
X167296328Y-85793807D01*
X167296315Y-85793814D01*
X167132537Y-85903248D01*
X167132533Y-85903251D01*
X166993251Y-86042533D01*
X166993248Y-86042537D01*
X166883814Y-86206315D01*
X166883807Y-86206328D01*
X166808430Y-86388307D01*
X166808430Y-86388309D01*
X166800138Y-86430000D01*
X119500500Y-86430000D01*
X119500500Y-78249500D01*
X119520185Y-78182461D01*
X119572989Y-78136706D01*
X119624500Y-78125500D01*
X120126000Y-78125500D01*
X120193039Y-78145185D01*
G37*
%TD.AperFunction*%
%TD*%
M02*
