%TF.GenerationSoftware,KiCad,Pcbnew,9.0.2*%
%TF.CreationDate,2025-06-22T20:13:16-07:00*%
%TF.ProjectId,Tesla Ambient Lighting,5465736c-6120-4416-9d62-69656e74204c,rev?*%
%TF.SameCoordinates,Original*%
%TF.FileFunction,Soldermask,Top*%
%TF.FilePolarity,Negative*%
%FSLAX46Y46*%
G04 Gerber Fmt 4.6, Leading zero omitted, Abs format (unit mm)*
G04 Created by KiCad (PCBNEW 9.0.2) date 2025-06-22 20:13:16*
%MOMM*%
%LPD*%
G01*
G04 APERTURE LIST*
G04 Aperture macros list*
%AMRoundRect*
0 Rectangle with rounded corners*
0 $1 Rounding radius*
0 $2 $3 $4 $5 $6 $7 $8 $9 X,Y pos of 4 corners*
0 Add a 4 corners polygon primitive as box body*
4,1,4,$2,$3,$4,$5,$6,$7,$8,$9,$2,$3,0*
0 Add four circle primitives for the rounded corners*
1,1,$1+$1,$2,$3*
1,1,$1+$1,$4,$5*
1,1,$1+$1,$6,$7*
1,1,$1+$1,$8,$9*
0 Add four rect primitives between the rounded corners*
20,1,$1+$1,$2,$3,$4,$5,0*
20,1,$1+$1,$4,$5,$6,$7,0*
20,1,$1+$1,$6,$7,$8,$9,0*
20,1,$1+$1,$8,$9,$2,$3,0*%
%AMFreePoly0*
4,1,9,3.862500,-0.866500,0.737500,-0.866500,0.737500,-0.450000,-0.737500,-0.450000,-0.737500,0.450000,0.737500,0.450000,0.737500,0.866500,3.862500,0.866500,3.862500,-0.866500,3.862500,-0.866500,$1*%
G04 Aperture macros list end*
%ADD10C,0.010000*%
%ADD11C,2.200000*%
%ADD12RoundRect,0.250000X0.750000X-0.600000X0.750000X0.600000X-0.750000X0.600000X-0.750000X-0.600000X0*%
%ADD13O,2.000000X1.700000*%
%ADD14RoundRect,0.225000X0.225000X-0.425000X0.225000X0.425000X-0.225000X0.425000X-0.225000X-0.425000X0*%
%ADD15FreePoly0,90.000000*%
%ADD16C,0.650000*%
%ADD17O,2.304000X1.204000*%
%ADD18O,2.004000X1.204000*%
%ADD19R,1.200000X0.400000*%
%ADD20RoundRect,0.250000X-0.250000X-0.475000X0.250000X-0.475000X0.250000X0.475000X-0.250000X0.475000X0*%
%ADD21RoundRect,0.250000X0.262500X0.450000X-0.262500X0.450000X-0.262500X-0.450000X0.262500X-0.450000X0*%
%ADD22R,0.900000X1.700000*%
%ADD23R,0.800000X1.100000*%
%ADD24RoundRect,0.250000X-0.600000X-0.725000X0.600000X-0.725000X0.600000X0.725000X-0.600000X0.725000X0*%
%ADD25O,1.700000X1.950000*%
%ADD26RoundRect,0.250000X-0.262500X-0.450000X0.262500X-0.450000X0.262500X0.450000X-0.262500X0.450000X0*%
%ADD27RoundRect,0.250000X-0.475000X0.250000X-0.475000X-0.250000X0.475000X-0.250000X0.475000X0.250000X0*%
%ADD28RoundRect,0.250001X0.799999X-0.799999X0.799999X0.799999X-0.799999X0.799999X-0.799999X-0.799999X0*%
%ADD29C,2.100000*%
%ADD30RoundRect,0.250000X0.450000X-0.262500X0.450000X0.262500X-0.450000X0.262500X-0.450000X-0.262500X0*%
%ADD31RoundRect,0.150000X-0.825000X-0.150000X0.825000X-0.150000X0.825000X0.150000X-0.825000X0.150000X0*%
%ADD32C,0.600000*%
%ADD33R,1.500000X0.900000*%
%ADD34R,0.900000X1.500000*%
%ADD35R,0.900000X0.900000*%
G04 APERTURE END LIST*
D10*
%TO.C,J6*%
X168370000Y-88150000D02*
X167120000Y-88150000D01*
X167120000Y-87450000D01*
X168370000Y-87450000D01*
X168370000Y-88150000D01*
G36*
X168370000Y-88150000D02*
G01*
X167120000Y-88150000D01*
X167120000Y-87450000D01*
X168370000Y-87450000D01*
X168370000Y-88150000D01*
G37*
X168370000Y-88950000D02*
X167120000Y-88950000D01*
X167120000Y-88250000D01*
X168370000Y-88250000D01*
X168370000Y-88950000D01*
G36*
X168370000Y-88950000D02*
G01*
X167120000Y-88950000D01*
X167120000Y-88250000D01*
X168370000Y-88250000D01*
X168370000Y-88950000D01*
G37*
X168370000Y-89450000D02*
X167120000Y-89450000D01*
X167120000Y-89050000D01*
X168370000Y-89050000D01*
X168370000Y-89450000D01*
G36*
X168370000Y-89450000D02*
G01*
X167120000Y-89450000D01*
X167120000Y-89050000D01*
X168370000Y-89050000D01*
X168370000Y-89450000D01*
G37*
X168370000Y-89950000D02*
X167120000Y-89950000D01*
X167120000Y-89550000D01*
X168370000Y-89550000D01*
X168370000Y-89950000D01*
G36*
X168370000Y-89950000D02*
G01*
X167120000Y-89950000D01*
X167120000Y-89550000D01*
X168370000Y-89550000D01*
X168370000Y-89950000D01*
G37*
X168370000Y-90450000D02*
X167120000Y-90450000D01*
X167120000Y-90050000D01*
X168370000Y-90050000D01*
X168370000Y-90450000D01*
G36*
X168370000Y-90450000D02*
G01*
X167120000Y-90450000D01*
X167120000Y-90050000D01*
X168370000Y-90050000D01*
X168370000Y-90450000D01*
G37*
X168370000Y-90950000D02*
X167120000Y-90950000D01*
X167120000Y-90550000D01*
X168370000Y-90550000D01*
X168370000Y-90950000D01*
G36*
X168370000Y-90950000D02*
G01*
X167120000Y-90950000D01*
X167120000Y-90550000D01*
X168370000Y-90550000D01*
X168370000Y-90950000D01*
G37*
X168370000Y-91450000D02*
X167120000Y-91450000D01*
X167120000Y-91050000D01*
X168370000Y-91050000D01*
X168370000Y-91450000D01*
G36*
X168370000Y-91450000D02*
G01*
X167120000Y-91450000D01*
X167120000Y-91050000D01*
X168370000Y-91050000D01*
X168370000Y-91450000D01*
G37*
X168370000Y-91950000D02*
X167120000Y-91950000D01*
X167120000Y-91550000D01*
X168370000Y-91550000D01*
X168370000Y-91950000D01*
G36*
X168370000Y-91950000D02*
G01*
X167120000Y-91950000D01*
X167120000Y-91550000D01*
X168370000Y-91550000D01*
X168370000Y-91950000D01*
G37*
X168370000Y-92450000D02*
X167120000Y-92450000D01*
X167120000Y-92050000D01*
X168370000Y-92050000D01*
X168370000Y-92450000D01*
G36*
X168370000Y-92450000D02*
G01*
X167120000Y-92450000D01*
X167120000Y-92050000D01*
X168370000Y-92050000D01*
X168370000Y-92450000D01*
G37*
X168370000Y-92950000D02*
X167120000Y-92950000D01*
X167120000Y-92550000D01*
X168370000Y-92550000D01*
X168370000Y-92950000D01*
G36*
X168370000Y-92950000D02*
G01*
X167120000Y-92950000D01*
X167120000Y-92550000D01*
X168370000Y-92550000D01*
X168370000Y-92950000D01*
G37*
X168370000Y-93750000D02*
X167120000Y-93750000D01*
X167120000Y-93050000D01*
X168370000Y-93050000D01*
X168370000Y-93750000D01*
G36*
X168370000Y-93750000D02*
G01*
X167120000Y-93750000D01*
X167120000Y-93050000D01*
X168370000Y-93050000D01*
X168370000Y-93750000D01*
G37*
X168370000Y-94550000D02*
X167120000Y-94550000D01*
X167120000Y-93850000D01*
X168370000Y-93850000D01*
X168370000Y-94550000D01*
G36*
X168370000Y-94550000D02*
G01*
X167120000Y-94550000D01*
X167120000Y-93850000D01*
X168370000Y-93850000D01*
X168370000Y-94550000D01*
G37*
%TD*%
D11*
%TO.C,REF\u002A\u002A*%
X172000000Y-81250000D03*
%TD*%
D12*
%TO.C,J5*%
X165805000Y-111000000D03*
D13*
X165805000Y-108500000D03*
%TD*%
D14*
%TO.C,U4*%
X127000000Y-100700000D03*
D15*
X128500000Y-100612500D03*
D14*
X130000000Y-100700000D03*
%TD*%
D16*
%TO.C,J6*%
X168820000Y-93890000D03*
X168820000Y-88110000D03*
D17*
X168320000Y-95320000D03*
X168320000Y-86680000D03*
D18*
X172500000Y-95320000D03*
X172500000Y-86680000D03*
%TD*%
D19*
%TO.C,U5*%
X156800000Y-95750000D03*
X156800000Y-96385000D03*
X156800000Y-97020000D03*
X156800000Y-97655000D03*
X156800000Y-98290000D03*
X156800000Y-98925000D03*
X156800000Y-99560000D03*
X156800000Y-100195000D03*
X156800000Y-100830000D03*
X156800000Y-101465000D03*
X162000000Y-101465000D03*
X162000000Y-100830000D03*
X162000000Y-100195000D03*
X162000000Y-99560000D03*
X162000000Y-98925000D03*
X162000000Y-98290000D03*
X162000000Y-97655000D03*
X162000000Y-97020000D03*
X162000000Y-96385000D03*
X162000000Y-95750000D03*
%TD*%
D20*
%TO.C,C4*%
X166300000Y-102750000D03*
X168200000Y-102750000D03*
%TD*%
D21*
%TO.C,R5*%
X163662500Y-87750000D03*
X161837500Y-87750000D03*
%TD*%
D22*
%TO.C,SW1*%
X143450000Y-107640000D03*
X140050000Y-107640000D03*
D23*
X141750000Y-106000000D03*
%TD*%
D24*
%TO.C,J3*%
X149400000Y-118000000D03*
D25*
X151900000Y-118000000D03*
X154400000Y-118000000D03*
%TD*%
D26*
%TO.C,R1*%
X128337500Y-86250000D03*
X130162500Y-86250000D03*
%TD*%
%TO.C,R4*%
X161837500Y-90700000D03*
X163662500Y-90700000D03*
%TD*%
D27*
%TO.C,C1*%
X130720000Y-90625000D03*
X130720000Y-92525000D03*
%TD*%
D24*
%TO.C,J2*%
X137450000Y-118000000D03*
D25*
X139950000Y-118000000D03*
X142450000Y-118000000D03*
%TD*%
D28*
%TO.C,J7*%
X122867500Y-108790000D03*
D29*
X122867500Y-106250000D03*
%TD*%
D30*
%TO.C,R2*%
X170500000Y-103950000D03*
X170500000Y-102125000D03*
%TD*%
D20*
%TO.C,C3*%
X128300000Y-88250000D03*
X130200000Y-88250000D03*
%TD*%
D24*
%TO.C,J4*%
X161350000Y-118000000D03*
D25*
X163850000Y-118000000D03*
X166350000Y-118000000D03*
%TD*%
D30*
%TO.C,R3*%
X170500000Y-100250000D03*
X170500000Y-98425000D03*
%TD*%
D27*
%TO.C,C2*%
X126750000Y-90625000D03*
X126750000Y-92525000D03*
%TD*%
D31*
%TO.C,U2*%
X152775000Y-107845000D03*
X152775000Y-109115000D03*
X152775000Y-110385000D03*
X152775000Y-111655000D03*
X157725000Y-111655000D03*
X157725000Y-110385000D03*
X157725000Y-109115000D03*
X157725000Y-107845000D03*
%TD*%
D24*
%TO.C,J1*%
X125500000Y-118000000D03*
D25*
X128000000Y-118000000D03*
X130500000Y-118000000D03*
%TD*%
D11*
%TO.C,REF\u002A\u002A*%
X172250000Y-124750000D03*
%TD*%
%TO.C,REF\u002A\u002A*%
X122750000Y-96250000D03*
%TD*%
D32*
%TO.C,U1*%
X142050000Y-92310000D03*
X141350000Y-93010000D03*
D33*
X135500000Y-85990000D03*
X135500000Y-87260000D03*
X135500000Y-88530000D03*
X135500000Y-89800000D03*
X135500000Y-91070000D03*
X135500000Y-92340000D03*
X135500000Y-93610000D03*
X135500000Y-94880000D03*
X135500000Y-96150000D03*
X135500000Y-97420000D03*
X135500000Y-98690000D03*
X135500000Y-99960000D03*
X135500000Y-101230000D03*
X135500000Y-102500000D03*
D34*
X138535000Y-103750000D03*
X139805000Y-103750000D03*
X141075000Y-103750000D03*
X142345000Y-103750000D03*
X143615000Y-103750000D03*
X144885000Y-103750000D03*
X146155000Y-103750000D03*
X147425000Y-103750000D03*
X148695000Y-103750000D03*
X149965000Y-103750000D03*
D33*
X153000000Y-102500000D03*
X153000000Y-101230000D03*
X153000000Y-99960000D03*
X153000000Y-98690000D03*
X153000000Y-97420000D03*
X153000000Y-96150000D03*
X153000000Y-94880000D03*
X153000000Y-93610000D03*
X153000000Y-92340000D03*
X153000000Y-91070000D03*
X153000000Y-89800000D03*
X153000000Y-88530000D03*
X153000000Y-87260000D03*
X153000000Y-85990000D03*
D35*
X141350000Y-92310000D03*
X141350000Y-93710000D03*
D32*
X141350000Y-94410000D03*
D35*
X141350000Y-95110000D03*
D32*
X142050000Y-93710000D03*
X142050000Y-95110000D03*
D35*
X142750000Y-92310000D03*
D32*
X142750000Y-93010000D03*
D35*
X142750000Y-93710000D03*
D32*
X142750000Y-94410000D03*
D35*
X142750000Y-95110000D03*
D32*
X143450000Y-92310000D03*
X143450000Y-93710000D03*
X143450000Y-95110000D03*
D35*
X144150000Y-92310000D03*
D32*
X144150000Y-93010000D03*
D35*
X144150000Y-93710000D03*
D32*
X144150000Y-94410000D03*
D35*
X144150000Y-95110000D03*
%TD*%
M02*
