%TF.GenerationSoftware,KiCad,Pcbnew,9.0.7*%
%TF.CreationDate,2026-01-19T09:28:31-08:00*%
%TF.ProjectId,Tesla Ambient Lighting,5465736c-6120-4416-9d62-69656e74204c,rev?*%
%TF.SameCoordinates,Original*%
%TF.FileFunction,Legend,Top*%
%TF.FilePolarity,Positive*%
%FSLAX46Y46*%
G04 Gerber Fmt 4.6, Leading zero omitted, Abs format (unit mm)*
G04 Created by KiCad (PCBNEW 9.0.7) date 2026-01-19 09:28:31*
%MOMM*%
%LPD*%
G01*
G04 APERTURE LIST*
G04 Aperture macros list*
%AMRoundRect*
0 Rectangle with rounded corners*
0 $1 Rounding radius*
0 $2 $3 $4 $5 $6 $7 $8 $9 X,Y pos of 4 corners*
0 Add a 4 corners polygon primitive as box body*
4,1,4,$2,$3,$4,$5,$6,$7,$8,$9,$2,$3,0*
0 Add four circle primitives for the rounded corners*
1,1,$1+$1,$2,$3*
1,1,$1+$1,$4,$5*
1,1,$1+$1,$6,$7*
1,1,$1+$1,$8,$9*
0 Add four rect primitives between the rounded corners*
20,1,$1+$1,$2,$3,$4,$5,0*
20,1,$1+$1,$4,$5,$6,$7,0*
20,1,$1+$1,$6,$7,$8,$9,0*
20,1,$1+$1,$8,$9,$2,$3,0*%
%AMFreePoly0*
4,1,9,3.862500,-0.866500,0.737500,-0.866500,0.737500,-0.450000,-0.737500,-0.450000,-0.737500,0.450000,0.737500,0.450000,0.737500,0.866500,3.862500,0.866500,3.862500,-0.866500,3.862500,-0.866500,$1*%
G04 Aperture macros list end*
%ADD10C,0.150000*%
%ADD11C,0.200000*%
%ADD12C,0.120000*%
%ADD13C,0.010000*%
%ADD14C,0.650000*%
%ADD15O,2.304000X1.204000*%
%ADD16O,2.004000X1.204000*%
%ADD17RoundRect,0.150000X-0.825000X-0.150000X0.825000X-0.150000X0.825000X0.150000X-0.825000X0.150000X0*%
%ADD18RoundRect,0.243750X0.456250X-0.243750X0.456250X0.243750X-0.456250X0.243750X-0.456250X-0.243750X0*%
%ADD19R,1.200000X0.400000*%
%ADD20RoundRect,0.250000X0.750000X-0.600000X0.750000X0.600000X-0.750000X0.600000X-0.750000X-0.600000X0*%
%ADD21O,2.000000X1.700000*%
%ADD22RoundRect,0.225000X0.225000X-0.425000X0.225000X0.425000X-0.225000X0.425000X-0.225000X-0.425000X0*%
%ADD23FreePoly0,90.000000*%
%ADD24C,2.200000*%
%ADD25RoundRect,0.250000X-0.250000X-0.475000X0.250000X-0.475000X0.250000X0.475000X-0.250000X0.475000X0*%
%ADD26RoundRect,0.250000X0.450000X-0.262500X0.450000X0.262500X-0.450000X0.262500X-0.450000X-0.262500X0*%
%ADD27RoundRect,0.250000X0.262500X0.450000X-0.262500X0.450000X-0.262500X-0.450000X0.262500X-0.450000X0*%
%ADD28R,0.900000X1.700000*%
%ADD29R,0.800000X1.100000*%
%ADD30RoundRect,0.250000X-0.600000X-0.725000X0.600000X-0.725000X0.600000X0.725000X-0.600000X0.725000X0*%
%ADD31O,1.700000X1.950000*%
%ADD32RoundRect,0.250000X-0.262500X-0.450000X0.262500X-0.450000X0.262500X0.450000X-0.262500X0.450000X0*%
%ADD33RoundRect,0.250000X-0.475000X0.250000X-0.475000X-0.250000X0.475000X-0.250000X0.475000X0.250000X0*%
%ADD34RoundRect,0.250001X0.799999X-0.799999X0.799999X0.799999X-0.799999X0.799999X-0.799999X-0.799999X0*%
%ADD35C,2.100000*%
%ADD36R,1.500000X0.900000*%
%ADD37R,0.900000X1.500000*%
%ADD38R,0.900000X0.900000*%
%ADD39C,0.600000*%
G04 APERTURE END LIST*
D10*
X124954819Y-114440476D02*
X124954819Y-114916666D01*
X124954819Y-114916666D02*
X125431009Y-114964285D01*
X125431009Y-114964285D02*
X125383390Y-114916666D01*
X125383390Y-114916666D02*
X125335771Y-114821428D01*
X125335771Y-114821428D02*
X125335771Y-114583333D01*
X125335771Y-114583333D02*
X125383390Y-114488095D01*
X125383390Y-114488095D02*
X125431009Y-114440476D01*
X125431009Y-114440476D02*
X125526247Y-114392857D01*
X125526247Y-114392857D02*
X125764342Y-114392857D01*
X125764342Y-114392857D02*
X125859580Y-114440476D01*
X125859580Y-114440476D02*
X125907200Y-114488095D01*
X125907200Y-114488095D02*
X125954819Y-114583333D01*
X125954819Y-114583333D02*
X125954819Y-114821428D01*
X125954819Y-114821428D02*
X125907200Y-114916666D01*
X125907200Y-114916666D02*
X125859580Y-114964285D01*
X124954819Y-114107142D02*
X125954819Y-113773809D01*
X125954819Y-113773809D02*
X124954819Y-113440476D01*
X136954819Y-114440476D02*
X136954819Y-114916666D01*
X136954819Y-114916666D02*
X137431009Y-114964285D01*
X137431009Y-114964285D02*
X137383390Y-114916666D01*
X137383390Y-114916666D02*
X137335771Y-114821428D01*
X137335771Y-114821428D02*
X137335771Y-114583333D01*
X137335771Y-114583333D02*
X137383390Y-114488095D01*
X137383390Y-114488095D02*
X137431009Y-114440476D01*
X137431009Y-114440476D02*
X137526247Y-114392857D01*
X137526247Y-114392857D02*
X137764342Y-114392857D01*
X137764342Y-114392857D02*
X137859580Y-114440476D01*
X137859580Y-114440476D02*
X137907200Y-114488095D01*
X137907200Y-114488095D02*
X137954819Y-114583333D01*
X137954819Y-114583333D02*
X137954819Y-114821428D01*
X137954819Y-114821428D02*
X137907200Y-114916666D01*
X137907200Y-114916666D02*
X137859580Y-114964285D01*
X136954819Y-114107142D02*
X137954819Y-113773809D01*
X137954819Y-113773809D02*
X136954819Y-113440476D01*
X122204819Y-103210476D02*
X122204819Y-103686666D01*
X122204819Y-103686666D02*
X122681009Y-103734285D01*
X122681009Y-103734285D02*
X122633390Y-103686666D01*
X122633390Y-103686666D02*
X122585771Y-103591428D01*
X122585771Y-103591428D02*
X122585771Y-103353333D01*
X122585771Y-103353333D02*
X122633390Y-103258095D01*
X122633390Y-103258095D02*
X122681009Y-103210476D01*
X122681009Y-103210476D02*
X122776247Y-103162857D01*
X122776247Y-103162857D02*
X123014342Y-103162857D01*
X123014342Y-103162857D02*
X123109580Y-103210476D01*
X123109580Y-103210476D02*
X123157200Y-103258095D01*
X123157200Y-103258095D02*
X123204819Y-103353333D01*
X123204819Y-103353333D02*
X123204819Y-103591428D01*
X123204819Y-103591428D02*
X123157200Y-103686666D01*
X123157200Y-103686666D02*
X123109580Y-103734285D01*
X122204819Y-102877142D02*
X123204819Y-102543809D01*
X123204819Y-102543809D02*
X122204819Y-102210476D01*
X148954819Y-114440476D02*
X148954819Y-114916666D01*
X148954819Y-114916666D02*
X149431009Y-114964285D01*
X149431009Y-114964285D02*
X149383390Y-114916666D01*
X149383390Y-114916666D02*
X149335771Y-114821428D01*
X149335771Y-114821428D02*
X149335771Y-114583333D01*
X149335771Y-114583333D02*
X149383390Y-114488095D01*
X149383390Y-114488095D02*
X149431009Y-114440476D01*
X149431009Y-114440476D02*
X149526247Y-114392857D01*
X149526247Y-114392857D02*
X149764342Y-114392857D01*
X149764342Y-114392857D02*
X149859580Y-114440476D01*
X149859580Y-114440476D02*
X149907200Y-114488095D01*
X149907200Y-114488095D02*
X149954819Y-114583333D01*
X149954819Y-114583333D02*
X149954819Y-114821428D01*
X149954819Y-114821428D02*
X149907200Y-114916666D01*
X149907200Y-114916666D02*
X149859580Y-114964285D01*
X148954819Y-114107142D02*
X149954819Y-113773809D01*
X149954819Y-113773809D02*
X148954819Y-113440476D01*
X162559523Y-111954819D02*
X162083333Y-111954819D01*
X162083333Y-111954819D02*
X162083333Y-110954819D01*
X146670112Y-111346009D02*
X146812969Y-111393628D01*
X146812969Y-111393628D02*
X146860588Y-111441247D01*
X146860588Y-111441247D02*
X146908207Y-111536485D01*
X146908207Y-111536485D02*
X146908207Y-111679342D01*
X146908207Y-111679342D02*
X146860588Y-111774580D01*
X146860588Y-111774580D02*
X146812969Y-111822200D01*
X146812969Y-111822200D02*
X146717731Y-111869819D01*
X146717731Y-111869819D02*
X146336779Y-111869819D01*
X146336779Y-111869819D02*
X146336779Y-110869819D01*
X146336779Y-110869819D02*
X146670112Y-110869819D01*
X146670112Y-110869819D02*
X146765350Y-110917438D01*
X146765350Y-110917438D02*
X146812969Y-110965057D01*
X146812969Y-110965057D02*
X146860588Y-111060295D01*
X146860588Y-111060295D02*
X146860588Y-111155533D01*
X146860588Y-111155533D02*
X146812969Y-111250771D01*
X146812969Y-111250771D02*
X146765350Y-111298390D01*
X146765350Y-111298390D02*
X146670112Y-111346009D01*
X146670112Y-111346009D02*
X146336779Y-111346009D01*
X147527255Y-110869819D02*
X147717731Y-110869819D01*
X147717731Y-110869819D02*
X147812969Y-110917438D01*
X147812969Y-110917438D02*
X147908207Y-111012676D01*
X147908207Y-111012676D02*
X147955826Y-111203152D01*
X147955826Y-111203152D02*
X147955826Y-111536485D01*
X147955826Y-111536485D02*
X147908207Y-111726961D01*
X147908207Y-111726961D02*
X147812969Y-111822200D01*
X147812969Y-111822200D02*
X147717731Y-111869819D01*
X147717731Y-111869819D02*
X147527255Y-111869819D01*
X147527255Y-111869819D02*
X147432017Y-111822200D01*
X147432017Y-111822200D02*
X147336779Y-111726961D01*
X147336779Y-111726961D02*
X147289160Y-111536485D01*
X147289160Y-111536485D02*
X147289160Y-111203152D01*
X147289160Y-111203152D02*
X147336779Y-111012676D01*
X147336779Y-111012676D02*
X147432017Y-110917438D01*
X147432017Y-110917438D02*
X147527255Y-110869819D01*
X148574874Y-110869819D02*
X148765350Y-110869819D01*
X148765350Y-110869819D02*
X148860588Y-110917438D01*
X148860588Y-110917438D02*
X148955826Y-111012676D01*
X148955826Y-111012676D02*
X149003445Y-111203152D01*
X149003445Y-111203152D02*
X149003445Y-111536485D01*
X149003445Y-111536485D02*
X148955826Y-111726961D01*
X148955826Y-111726961D02*
X148860588Y-111822200D01*
X148860588Y-111822200D02*
X148765350Y-111869819D01*
X148765350Y-111869819D02*
X148574874Y-111869819D01*
X148574874Y-111869819D02*
X148479636Y-111822200D01*
X148479636Y-111822200D02*
X148384398Y-111726961D01*
X148384398Y-111726961D02*
X148336779Y-111536485D01*
X148336779Y-111536485D02*
X148336779Y-111203152D01*
X148336779Y-111203152D02*
X148384398Y-111012676D01*
X148384398Y-111012676D02*
X148479636Y-110917438D01*
X148479636Y-110917438D02*
X148574874Y-110869819D01*
X149289160Y-110869819D02*
X149860588Y-110869819D01*
X149574874Y-111869819D02*
X149574874Y-110869819D01*
X122252438Y-113281904D02*
X122204819Y-113377142D01*
X122204819Y-113377142D02*
X122204819Y-113519999D01*
X122204819Y-113519999D02*
X122252438Y-113662856D01*
X122252438Y-113662856D02*
X122347676Y-113758094D01*
X122347676Y-113758094D02*
X122442914Y-113805713D01*
X122442914Y-113805713D02*
X122633390Y-113853332D01*
X122633390Y-113853332D02*
X122776247Y-113853332D01*
X122776247Y-113853332D02*
X122966723Y-113805713D01*
X122966723Y-113805713D02*
X123061961Y-113758094D01*
X123061961Y-113758094D02*
X123157200Y-113662856D01*
X123157200Y-113662856D02*
X123204819Y-113519999D01*
X123204819Y-113519999D02*
X123204819Y-113424761D01*
X123204819Y-113424761D02*
X123157200Y-113281904D01*
X123157200Y-113281904D02*
X123109580Y-113234285D01*
X123109580Y-113234285D02*
X122776247Y-113234285D01*
X122776247Y-113234285D02*
X122776247Y-113424761D01*
X123204819Y-112805713D02*
X122204819Y-112805713D01*
X122204819Y-112805713D02*
X123204819Y-112234285D01*
X123204819Y-112234285D02*
X122204819Y-112234285D01*
X123204819Y-111758094D02*
X122204819Y-111758094D01*
X122204819Y-111758094D02*
X122204819Y-111519999D01*
X122204819Y-111519999D02*
X122252438Y-111377142D01*
X122252438Y-111377142D02*
X122347676Y-111281904D01*
X122347676Y-111281904D02*
X122442914Y-111234285D01*
X122442914Y-111234285D02*
X122633390Y-111186666D01*
X122633390Y-111186666D02*
X122776247Y-111186666D01*
X122776247Y-111186666D02*
X122966723Y-111234285D01*
X122966723Y-111234285D02*
X123061961Y-111281904D01*
X123061961Y-111281904D02*
X123157200Y-111377142D01*
X123157200Y-111377142D02*
X123204819Y-111519999D01*
X123204819Y-111519999D02*
X123204819Y-111758094D01*
X161964286Y-108704819D02*
X161964286Y-107704819D01*
X161964286Y-108181009D02*
X162535714Y-108181009D01*
X162535714Y-108704819D02*
X162535714Y-107704819D01*
X160954819Y-114690476D02*
X160954819Y-115166666D01*
X160954819Y-115166666D02*
X161431009Y-115214285D01*
X161431009Y-115214285D02*
X161383390Y-115166666D01*
X161383390Y-115166666D02*
X161335771Y-115071428D01*
X161335771Y-115071428D02*
X161335771Y-114833333D01*
X161335771Y-114833333D02*
X161383390Y-114738095D01*
X161383390Y-114738095D02*
X161431009Y-114690476D01*
X161431009Y-114690476D02*
X161526247Y-114642857D01*
X161526247Y-114642857D02*
X161764342Y-114642857D01*
X161764342Y-114642857D02*
X161859580Y-114690476D01*
X161859580Y-114690476D02*
X161907200Y-114738095D01*
X161907200Y-114738095D02*
X161954819Y-114833333D01*
X161954819Y-114833333D02*
X161954819Y-115071428D01*
X161954819Y-115071428D02*
X161907200Y-115166666D01*
X161907200Y-115166666D02*
X161859580Y-115214285D01*
X160954819Y-114357142D02*
X161954819Y-114023809D01*
X161954819Y-114023809D02*
X160954819Y-113690476D01*
X130954819Y-112333332D02*
X129954819Y-112333332D01*
X129954819Y-112333332D02*
X129954819Y-111952380D01*
X129954819Y-111952380D02*
X130002438Y-111857142D01*
X130002438Y-111857142D02*
X130050057Y-111809523D01*
X130050057Y-111809523D02*
X130145295Y-111761904D01*
X130145295Y-111761904D02*
X130288152Y-111761904D01*
X130288152Y-111761904D02*
X130383390Y-111809523D01*
X130383390Y-111809523D02*
X130431009Y-111857142D01*
X130431009Y-111857142D02*
X130478628Y-111952380D01*
X130478628Y-111952380D02*
X130478628Y-112333332D01*
X129954819Y-111428570D02*
X130954819Y-111190475D01*
X130954819Y-111190475D02*
X130240533Y-110999999D01*
X130240533Y-110999999D02*
X130954819Y-110809523D01*
X130954819Y-110809523D02*
X129954819Y-110571428D01*
X130954819Y-109619047D02*
X130478628Y-109952380D01*
X130954819Y-110190475D02*
X129954819Y-110190475D01*
X129954819Y-110190475D02*
X129954819Y-109809523D01*
X129954819Y-109809523D02*
X130002438Y-109714285D01*
X130002438Y-109714285D02*
X130050057Y-109666666D01*
X130050057Y-109666666D02*
X130145295Y-109619047D01*
X130145295Y-109619047D02*
X130288152Y-109619047D01*
X130288152Y-109619047D02*
X130383390Y-109666666D01*
X130383390Y-109666666D02*
X130431009Y-109714285D01*
X130431009Y-109714285D02*
X130478628Y-109809523D01*
X130478628Y-109809523D02*
X130478628Y-110190475D01*
X171916666Y-114204819D02*
X171916666Y-114919104D01*
X171916666Y-114919104D02*
X171869047Y-115061961D01*
X171869047Y-115061961D02*
X171773809Y-115157200D01*
X171773809Y-115157200D02*
X171630952Y-115204819D01*
X171630952Y-115204819D02*
X171535714Y-115204819D01*
X172869047Y-114204819D02*
X172392857Y-114204819D01*
X172392857Y-114204819D02*
X172345238Y-114681009D01*
X172345238Y-114681009D02*
X172392857Y-114633390D01*
X172392857Y-114633390D02*
X172488095Y-114585771D01*
X172488095Y-114585771D02*
X172726190Y-114585771D01*
X172726190Y-114585771D02*
X172821428Y-114633390D01*
X172821428Y-114633390D02*
X172869047Y-114681009D01*
X172869047Y-114681009D02*
X172916666Y-114776247D01*
X172916666Y-114776247D02*
X172916666Y-115014342D01*
X172916666Y-115014342D02*
X172869047Y-115109580D01*
X172869047Y-115109580D02*
X172821428Y-115157200D01*
X172821428Y-115157200D02*
X172726190Y-115204819D01*
X172726190Y-115204819D02*
X172488095Y-115204819D01*
X172488095Y-115204819D02*
X172392857Y-115157200D01*
X172392857Y-115157200D02*
X172345238Y-115109580D01*
X167083333Y-105109580D02*
X167035714Y-105157200D01*
X167035714Y-105157200D02*
X166892857Y-105204819D01*
X166892857Y-105204819D02*
X166797619Y-105204819D01*
X166797619Y-105204819D02*
X166654762Y-105157200D01*
X166654762Y-105157200D02*
X166559524Y-105061961D01*
X166559524Y-105061961D02*
X166511905Y-104966723D01*
X166511905Y-104966723D02*
X166464286Y-104776247D01*
X166464286Y-104776247D02*
X166464286Y-104633390D01*
X166464286Y-104633390D02*
X166511905Y-104442914D01*
X166511905Y-104442914D02*
X166559524Y-104347676D01*
X166559524Y-104347676D02*
X166654762Y-104252438D01*
X166654762Y-104252438D02*
X166797619Y-104204819D01*
X166797619Y-104204819D02*
X166892857Y-104204819D01*
X166892857Y-104204819D02*
X167035714Y-104252438D01*
X167035714Y-104252438D02*
X167083333Y-104300057D01*
X167940476Y-104538152D02*
X167940476Y-105204819D01*
X167702381Y-104157200D02*
X167464286Y-104871485D01*
X167464286Y-104871485D02*
X168083333Y-104871485D01*
X134804819Y-111166666D02*
X134328628Y-111499999D01*
X134804819Y-111738094D02*
X133804819Y-111738094D01*
X133804819Y-111738094D02*
X133804819Y-111357142D01*
X133804819Y-111357142D02*
X133852438Y-111261904D01*
X133852438Y-111261904D02*
X133900057Y-111214285D01*
X133900057Y-111214285D02*
X133995295Y-111166666D01*
X133995295Y-111166666D02*
X134138152Y-111166666D01*
X134138152Y-111166666D02*
X134233390Y-111214285D01*
X134233390Y-111214285D02*
X134281009Y-111261904D01*
X134281009Y-111261904D02*
X134328628Y-111357142D01*
X134328628Y-111357142D02*
X134328628Y-111738094D01*
X133804819Y-110309523D02*
X133804819Y-110499999D01*
X133804819Y-110499999D02*
X133852438Y-110595237D01*
X133852438Y-110595237D02*
X133900057Y-110642856D01*
X133900057Y-110642856D02*
X134042914Y-110738094D01*
X134042914Y-110738094D02*
X134233390Y-110785713D01*
X134233390Y-110785713D02*
X134614342Y-110785713D01*
X134614342Y-110785713D02*
X134709580Y-110738094D01*
X134709580Y-110738094D02*
X134757200Y-110690475D01*
X134757200Y-110690475D02*
X134804819Y-110595237D01*
X134804819Y-110595237D02*
X134804819Y-110404761D01*
X134804819Y-110404761D02*
X134757200Y-110309523D01*
X134757200Y-110309523D02*
X134709580Y-110261904D01*
X134709580Y-110261904D02*
X134614342Y-110214285D01*
X134614342Y-110214285D02*
X134376247Y-110214285D01*
X134376247Y-110214285D02*
X134281009Y-110261904D01*
X134281009Y-110261904D02*
X134233390Y-110309523D01*
X134233390Y-110309523D02*
X134185771Y-110404761D01*
X134185771Y-110404761D02*
X134185771Y-110595237D01*
X134185771Y-110595237D02*
X134233390Y-110690475D01*
X134233390Y-110690475D02*
X134281009Y-110738094D01*
X134281009Y-110738094D02*
X134376247Y-110785713D01*
X162583333Y-92954819D02*
X162250000Y-92478628D01*
X162011905Y-92954819D02*
X162011905Y-91954819D01*
X162011905Y-91954819D02*
X162392857Y-91954819D01*
X162392857Y-91954819D02*
X162488095Y-92002438D01*
X162488095Y-92002438D02*
X162535714Y-92050057D01*
X162535714Y-92050057D02*
X162583333Y-92145295D01*
X162583333Y-92145295D02*
X162583333Y-92288152D01*
X162583333Y-92288152D02*
X162535714Y-92383390D01*
X162535714Y-92383390D02*
X162488095Y-92431009D01*
X162488095Y-92431009D02*
X162392857Y-92478628D01*
X162392857Y-92478628D02*
X162011905Y-92478628D01*
X163488095Y-91954819D02*
X163011905Y-91954819D01*
X163011905Y-91954819D02*
X162964286Y-92431009D01*
X162964286Y-92431009D02*
X163011905Y-92383390D01*
X163011905Y-92383390D02*
X163107143Y-92335771D01*
X163107143Y-92335771D02*
X163345238Y-92335771D01*
X163345238Y-92335771D02*
X163440476Y-92383390D01*
X163440476Y-92383390D02*
X163488095Y-92431009D01*
X163488095Y-92431009D02*
X163535714Y-92526247D01*
X163535714Y-92526247D02*
X163535714Y-92764342D01*
X163535714Y-92764342D02*
X163488095Y-92859580D01*
X163488095Y-92859580D02*
X163440476Y-92907200D01*
X163440476Y-92907200D02*
X163345238Y-92954819D01*
X163345238Y-92954819D02*
X163107143Y-92954819D01*
X163107143Y-92954819D02*
X163011905Y-92907200D01*
X163011905Y-92907200D02*
X162964286Y-92859580D01*
X141047618Y-111754819D02*
X140714285Y-111278628D01*
X140476190Y-111754819D02*
X140476190Y-110754819D01*
X140476190Y-110754819D02*
X140857142Y-110754819D01*
X140857142Y-110754819D02*
X140952380Y-110802438D01*
X140952380Y-110802438D02*
X140999999Y-110850057D01*
X140999999Y-110850057D02*
X141047618Y-110945295D01*
X141047618Y-110945295D02*
X141047618Y-111088152D01*
X141047618Y-111088152D02*
X140999999Y-111183390D01*
X140999999Y-111183390D02*
X140952380Y-111231009D01*
X140952380Y-111231009D02*
X140857142Y-111278628D01*
X140857142Y-111278628D02*
X140476190Y-111278628D01*
X141476190Y-111231009D02*
X141809523Y-111231009D01*
X141952380Y-111754819D02*
X141476190Y-111754819D01*
X141476190Y-111754819D02*
X141476190Y-110754819D01*
X141476190Y-110754819D02*
X141952380Y-110754819D01*
X142333333Y-111707200D02*
X142476190Y-111754819D01*
X142476190Y-111754819D02*
X142714285Y-111754819D01*
X142714285Y-111754819D02*
X142809523Y-111707200D01*
X142809523Y-111707200D02*
X142857142Y-111659580D01*
X142857142Y-111659580D02*
X142904761Y-111564342D01*
X142904761Y-111564342D02*
X142904761Y-111469104D01*
X142904761Y-111469104D02*
X142857142Y-111373866D01*
X142857142Y-111373866D02*
X142809523Y-111326247D01*
X142809523Y-111326247D02*
X142714285Y-111278628D01*
X142714285Y-111278628D02*
X142523809Y-111231009D01*
X142523809Y-111231009D02*
X142428571Y-111183390D01*
X142428571Y-111183390D02*
X142380952Y-111135771D01*
X142380952Y-111135771D02*
X142333333Y-111040533D01*
X142333333Y-111040533D02*
X142333333Y-110945295D01*
X142333333Y-110945295D02*
X142380952Y-110850057D01*
X142380952Y-110850057D02*
X142428571Y-110802438D01*
X142428571Y-110802438D02*
X142523809Y-110754819D01*
X142523809Y-110754819D02*
X142761904Y-110754819D01*
X142761904Y-110754819D02*
X142904761Y-110802438D01*
X143333333Y-111231009D02*
X143666666Y-111231009D01*
X143809523Y-111754819D02*
X143333333Y-111754819D01*
X143333333Y-111754819D02*
X143333333Y-110754819D01*
X143333333Y-110754819D02*
X143809523Y-110754819D01*
X144095238Y-110754819D02*
X144666666Y-110754819D01*
X144380952Y-111754819D02*
X144380952Y-110754819D01*
X126333333Y-86704819D02*
X126000000Y-86228628D01*
X125761905Y-86704819D02*
X125761905Y-85704819D01*
X125761905Y-85704819D02*
X126142857Y-85704819D01*
X126142857Y-85704819D02*
X126238095Y-85752438D01*
X126238095Y-85752438D02*
X126285714Y-85800057D01*
X126285714Y-85800057D02*
X126333333Y-85895295D01*
X126333333Y-85895295D02*
X126333333Y-86038152D01*
X126333333Y-86038152D02*
X126285714Y-86133390D01*
X126285714Y-86133390D02*
X126238095Y-86181009D01*
X126238095Y-86181009D02*
X126142857Y-86228628D01*
X126142857Y-86228628D02*
X125761905Y-86228628D01*
X127285714Y-86704819D02*
X126714286Y-86704819D01*
X127000000Y-86704819D02*
X127000000Y-85704819D01*
X127000000Y-85704819D02*
X126904762Y-85847676D01*
X126904762Y-85847676D02*
X126809524Y-85942914D01*
X126809524Y-85942914D02*
X126714286Y-85990533D01*
X162583333Y-86454819D02*
X162250000Y-85978628D01*
X162011905Y-86454819D02*
X162011905Y-85454819D01*
X162011905Y-85454819D02*
X162392857Y-85454819D01*
X162392857Y-85454819D02*
X162488095Y-85502438D01*
X162488095Y-85502438D02*
X162535714Y-85550057D01*
X162535714Y-85550057D02*
X162583333Y-85645295D01*
X162583333Y-85645295D02*
X162583333Y-85788152D01*
X162583333Y-85788152D02*
X162535714Y-85883390D01*
X162535714Y-85883390D02*
X162488095Y-85931009D01*
X162488095Y-85931009D02*
X162392857Y-85978628D01*
X162392857Y-85978628D02*
X162011905Y-85978628D01*
X163440476Y-85788152D02*
X163440476Y-86454819D01*
X163202381Y-85407200D02*
X162964286Y-86121485D01*
X162964286Y-86121485D02*
X163583333Y-86121485D01*
X132859580Y-91666666D02*
X132907200Y-91714285D01*
X132907200Y-91714285D02*
X132954819Y-91857142D01*
X132954819Y-91857142D02*
X132954819Y-91952380D01*
X132954819Y-91952380D02*
X132907200Y-92095237D01*
X132907200Y-92095237D02*
X132811961Y-92190475D01*
X132811961Y-92190475D02*
X132716723Y-92238094D01*
X132716723Y-92238094D02*
X132526247Y-92285713D01*
X132526247Y-92285713D02*
X132383390Y-92285713D01*
X132383390Y-92285713D02*
X132192914Y-92238094D01*
X132192914Y-92238094D02*
X132097676Y-92190475D01*
X132097676Y-92190475D02*
X132002438Y-92095237D01*
X132002438Y-92095237D02*
X131954819Y-91952380D01*
X131954819Y-91952380D02*
X131954819Y-91857142D01*
X131954819Y-91857142D02*
X132002438Y-91714285D01*
X132002438Y-91714285D02*
X132050057Y-91666666D01*
X132954819Y-90714285D02*
X132954819Y-91285713D01*
X132954819Y-90999999D02*
X131954819Y-90999999D01*
X131954819Y-90999999D02*
X132097676Y-91095237D01*
X132097676Y-91095237D02*
X132192914Y-91190475D01*
X132192914Y-91190475D02*
X132240533Y-91285713D01*
X172704819Y-102916666D02*
X172228628Y-103249999D01*
X172704819Y-103488094D02*
X171704819Y-103488094D01*
X171704819Y-103488094D02*
X171704819Y-103107142D01*
X171704819Y-103107142D02*
X171752438Y-103011904D01*
X171752438Y-103011904D02*
X171800057Y-102964285D01*
X171800057Y-102964285D02*
X171895295Y-102916666D01*
X171895295Y-102916666D02*
X172038152Y-102916666D01*
X172038152Y-102916666D02*
X172133390Y-102964285D01*
X172133390Y-102964285D02*
X172181009Y-103011904D01*
X172181009Y-103011904D02*
X172228628Y-103107142D01*
X172228628Y-103107142D02*
X172228628Y-103488094D01*
X171800057Y-102535713D02*
X171752438Y-102488094D01*
X171752438Y-102488094D02*
X171704819Y-102392856D01*
X171704819Y-102392856D02*
X171704819Y-102154761D01*
X171704819Y-102154761D02*
X171752438Y-102059523D01*
X171752438Y-102059523D02*
X171800057Y-102011904D01*
X171800057Y-102011904D02*
X171895295Y-101964285D01*
X171895295Y-101964285D02*
X171990533Y-101964285D01*
X171990533Y-101964285D02*
X172133390Y-102011904D01*
X172133390Y-102011904D02*
X172704819Y-102583332D01*
X172704819Y-102583332D02*
X172704819Y-101964285D01*
X131833333Y-88609580D02*
X131785714Y-88657200D01*
X131785714Y-88657200D02*
X131642857Y-88704819D01*
X131642857Y-88704819D02*
X131547619Y-88704819D01*
X131547619Y-88704819D02*
X131404762Y-88657200D01*
X131404762Y-88657200D02*
X131309524Y-88561961D01*
X131309524Y-88561961D02*
X131261905Y-88466723D01*
X131261905Y-88466723D02*
X131214286Y-88276247D01*
X131214286Y-88276247D02*
X131214286Y-88133390D01*
X131214286Y-88133390D02*
X131261905Y-87942914D01*
X131261905Y-87942914D02*
X131309524Y-87847676D01*
X131309524Y-87847676D02*
X131404762Y-87752438D01*
X131404762Y-87752438D02*
X131547619Y-87704819D01*
X131547619Y-87704819D02*
X131642857Y-87704819D01*
X131642857Y-87704819D02*
X131785714Y-87752438D01*
X131785714Y-87752438D02*
X131833333Y-87800057D01*
X132166667Y-87704819D02*
X132785714Y-87704819D01*
X132785714Y-87704819D02*
X132452381Y-88085771D01*
X132452381Y-88085771D02*
X132595238Y-88085771D01*
X132595238Y-88085771D02*
X132690476Y-88133390D01*
X132690476Y-88133390D02*
X132738095Y-88181009D01*
X132738095Y-88181009D02*
X132785714Y-88276247D01*
X132785714Y-88276247D02*
X132785714Y-88514342D01*
X132785714Y-88514342D02*
X132738095Y-88609580D01*
X132738095Y-88609580D02*
X132690476Y-88657200D01*
X132690476Y-88657200D02*
X132595238Y-88704819D01*
X132595238Y-88704819D02*
X132309524Y-88704819D01*
X132309524Y-88704819D02*
X132214286Y-88657200D01*
X132214286Y-88657200D02*
X132166667Y-88609580D01*
X172704819Y-99504166D02*
X172228628Y-99837499D01*
X172704819Y-100075594D02*
X171704819Y-100075594D01*
X171704819Y-100075594D02*
X171704819Y-99694642D01*
X171704819Y-99694642D02*
X171752438Y-99599404D01*
X171752438Y-99599404D02*
X171800057Y-99551785D01*
X171800057Y-99551785D02*
X171895295Y-99504166D01*
X171895295Y-99504166D02*
X172038152Y-99504166D01*
X172038152Y-99504166D02*
X172133390Y-99551785D01*
X172133390Y-99551785D02*
X172181009Y-99599404D01*
X172181009Y-99599404D02*
X172228628Y-99694642D01*
X172228628Y-99694642D02*
X172228628Y-100075594D01*
X171704819Y-99170832D02*
X171704819Y-98551785D01*
X171704819Y-98551785D02*
X172085771Y-98885118D01*
X172085771Y-98885118D02*
X172085771Y-98742261D01*
X172085771Y-98742261D02*
X172133390Y-98647023D01*
X172133390Y-98647023D02*
X172181009Y-98599404D01*
X172181009Y-98599404D02*
X172276247Y-98551785D01*
X172276247Y-98551785D02*
X172514342Y-98551785D01*
X172514342Y-98551785D02*
X172609580Y-98599404D01*
X172609580Y-98599404D02*
X172657200Y-98647023D01*
X172657200Y-98647023D02*
X172704819Y-98742261D01*
X172704819Y-98742261D02*
X172704819Y-99027975D01*
X172704819Y-99027975D02*
X172657200Y-99123213D01*
X172657200Y-99123213D02*
X172609580Y-99170832D01*
X126359580Y-91666666D02*
X126407200Y-91714285D01*
X126407200Y-91714285D02*
X126454819Y-91857142D01*
X126454819Y-91857142D02*
X126454819Y-91952380D01*
X126454819Y-91952380D02*
X126407200Y-92095237D01*
X126407200Y-92095237D02*
X126311961Y-92190475D01*
X126311961Y-92190475D02*
X126216723Y-92238094D01*
X126216723Y-92238094D02*
X126026247Y-92285713D01*
X126026247Y-92285713D02*
X125883390Y-92285713D01*
X125883390Y-92285713D02*
X125692914Y-92238094D01*
X125692914Y-92238094D02*
X125597676Y-92190475D01*
X125597676Y-92190475D02*
X125502438Y-92095237D01*
X125502438Y-92095237D02*
X125454819Y-91952380D01*
X125454819Y-91952380D02*
X125454819Y-91857142D01*
X125454819Y-91857142D02*
X125502438Y-91714285D01*
X125502438Y-91714285D02*
X125550057Y-91666666D01*
X125550057Y-91285713D02*
X125502438Y-91238094D01*
X125502438Y-91238094D02*
X125454819Y-91142856D01*
X125454819Y-91142856D02*
X125454819Y-90904761D01*
X125454819Y-90904761D02*
X125502438Y-90809523D01*
X125502438Y-90809523D02*
X125550057Y-90761904D01*
X125550057Y-90761904D02*
X125645295Y-90714285D01*
X125645295Y-90714285D02*
X125740533Y-90714285D01*
X125740533Y-90714285D02*
X125883390Y-90761904D01*
X125883390Y-90761904D02*
X126454819Y-91333332D01*
X126454819Y-91333332D02*
X126454819Y-90714285D01*
X143833333Y-114454819D02*
X143500000Y-113978628D01*
X143261905Y-114454819D02*
X143261905Y-113454819D01*
X143261905Y-113454819D02*
X143642857Y-113454819D01*
X143642857Y-113454819D02*
X143738095Y-113502438D01*
X143738095Y-113502438D02*
X143785714Y-113550057D01*
X143785714Y-113550057D02*
X143833333Y-113645295D01*
X143833333Y-113645295D02*
X143833333Y-113788152D01*
X143833333Y-113788152D02*
X143785714Y-113883390D01*
X143785714Y-113883390D02*
X143738095Y-113931009D01*
X143738095Y-113931009D02*
X143642857Y-113978628D01*
X143642857Y-113978628D02*
X143261905Y-113978628D01*
X144166667Y-113454819D02*
X144833333Y-113454819D01*
X144833333Y-113454819D02*
X144404762Y-114454819D01*
D11*
%TO.C,J6*%
X169850000Y-86530000D02*
X171100000Y-86530000D01*
X169850000Y-95470000D02*
X171100000Y-95470000D01*
X173820000Y-95470000D02*
X175100000Y-95470000D01*
X175100000Y-86530000D02*
X173820000Y-86530000D01*
X166600000Y-94250000D02*
G75*
G02*
X166400000Y-94250000I-100000J0D01*
G01*
X166400000Y-94250000D02*
G75*
G02*
X166600000Y-94250000I100000J0D01*
G01*
D12*
%TO.C,U2*%
X154500000Y-108440000D02*
X152550000Y-108440000D01*
X154500000Y-108440000D02*
X156450000Y-108440000D01*
X154500000Y-113560000D02*
X152550000Y-113560000D01*
X154500000Y-113560000D02*
X156450000Y-113560000D01*
X151800000Y-108535000D02*
X151560000Y-108205000D01*
X152040000Y-108205000D01*
X151800000Y-108535000D01*
G36*
X151800000Y-108535000D02*
G01*
X151560000Y-108205000D01*
X152040000Y-108205000D01*
X151800000Y-108535000D01*
G37*
%TO.C,PWR*%
X131540000Y-110000000D02*
X131540000Y-112685000D01*
X133460000Y-112685000D02*
X133460000Y-110000000D01*
X131540000Y-112685000D02*
X133460000Y-112685000D01*
D10*
%TO.C,U5*%
X157325000Y-94132500D02*
X161475000Y-94132500D01*
X157325000Y-95242500D02*
X157325000Y-94132500D01*
X157325000Y-103082500D02*
X157325000Y-101972500D01*
X157325000Y-103082500D02*
X161475000Y-103082500D01*
X161475000Y-94132500D02*
X161475000Y-95242500D01*
X161475000Y-103082500D02*
X161475000Y-101972500D01*
D12*
X156762500Y-95242500D02*
X156522500Y-94912500D01*
X157002500Y-94912500D01*
X156762500Y-95242500D01*
G36*
X156762500Y-95242500D02*
G01*
X156522500Y-94912500D01*
X157002500Y-94912500D01*
X156762500Y-95242500D01*
G37*
%TO.C,J5*%
X163395000Y-105940000D02*
X163395000Y-107360000D01*
X163395000Y-107360000D02*
X167895000Y-107360000D01*
X163395000Y-112140000D02*
X167895000Y-112140000D01*
X163395000Y-113560000D02*
X163395000Y-112140000D01*
X163705000Y-110700000D02*
X164305000Y-111000000D01*
X163705000Y-111300000D02*
X163705000Y-110700000D01*
X164305000Y-111000000D02*
X163705000Y-111300000D01*
X167895000Y-107360000D02*
X167895000Y-109750000D01*
X167895000Y-112140000D02*
X167895000Y-109750000D01*
X169005000Y-108250000D02*
X169005000Y-108750000D01*
X169005000Y-108750000D02*
X174505000Y-108750000D01*
X169005000Y-110750000D02*
X169005000Y-111250000D01*
X169005000Y-111250000D02*
X174505000Y-111250000D01*
X174505000Y-108250000D02*
X169005000Y-108250000D01*
X174505000Y-108750000D02*
X174505000Y-108250000D01*
X174505000Y-110750000D02*
X169005000Y-110750000D01*
X174505000Y-111250000D02*
X174505000Y-110750000D01*
X175115000Y-105940000D02*
X163395000Y-105940000D01*
X175115000Y-109750000D02*
X175115000Y-105940000D01*
X175115000Y-109750000D02*
X175115000Y-113560000D01*
X175115000Y-113560000D02*
X163395000Y-113560000D01*
%TO.C,U4*%
X126140000Y-99970000D02*
X126140000Y-97390000D01*
X127120000Y-97390000D02*
X126140000Y-97390000D01*
X129880000Y-97390000D02*
X130860000Y-97390000D01*
X130860000Y-97390000D02*
X130860000Y-100110000D01*
X126290000Y-100520000D02*
X125960000Y-100760000D01*
X125960000Y-100280000D01*
X126290000Y-100520000D01*
G36*
X126290000Y-100520000D02*
G01*
X125960000Y-100760000D01*
X125960000Y-100280000D01*
X126290000Y-100520000D01*
G37*
%TO.C,C4*%
X166988748Y-102015000D02*
X167511252Y-102015000D01*
X166988748Y-103485000D02*
X167511252Y-103485000D01*
%TO.C,R6*%
X135265000Y-111227064D02*
X135265000Y-110772936D01*
X136735000Y-111227064D02*
X136735000Y-110772936D01*
%TO.C,R5*%
X162977064Y-87015000D02*
X162522936Y-87015000D01*
X162977064Y-88485000D02*
X162522936Y-88485000D01*
%TO.C,RESET*%
X144150000Y-110220000D02*
X140850000Y-110220000D01*
X144150000Y-109930000D02*
X144150000Y-110220000D01*
X144150000Y-107720000D02*
X144150000Y-107430000D01*
X144150000Y-107430000D02*
X143150000Y-107430000D01*
X140850000Y-110220000D02*
X140850000Y-109930000D01*
X140850000Y-107430000D02*
X141850000Y-107430000D01*
X140850000Y-107430000D02*
X140850000Y-107720000D01*
%TO.C,SW1*%
X146350000Y-107430000D02*
X146350000Y-107720000D01*
X146350000Y-107430000D02*
X147350000Y-107430000D01*
X146350000Y-110220000D02*
X146350000Y-109930000D01*
X149650000Y-107430000D02*
X148650000Y-107430000D01*
X149650000Y-107720000D02*
X149650000Y-107430000D01*
X149650000Y-109930000D02*
X149650000Y-110220000D01*
X149650000Y-110220000D02*
X146350000Y-110220000D01*
%TO.C,J3*%
X146840000Y-115590000D02*
X148260000Y-115590000D01*
X146840000Y-127310000D02*
X146840000Y-115590000D01*
X148260000Y-115590000D02*
X148260000Y-120090000D01*
X148260000Y-120090000D02*
X151900000Y-120090000D01*
X149100000Y-115900000D02*
X149700000Y-115900000D01*
X149150000Y-121200000D02*
X149150000Y-126700000D01*
X149150000Y-126700000D02*
X149650000Y-126700000D01*
X149400000Y-116500000D02*
X149100000Y-115900000D01*
X149650000Y-121200000D02*
X149150000Y-121200000D01*
X149650000Y-126700000D02*
X149650000Y-121200000D01*
X149700000Y-115900000D02*
X149400000Y-116500000D01*
X151650000Y-121200000D02*
X151650000Y-126700000D01*
X151650000Y-126700000D02*
X152150000Y-126700000D01*
X151900000Y-127310000D02*
X146840000Y-127310000D01*
X151900000Y-127310000D02*
X156960000Y-127310000D01*
X152150000Y-121200000D02*
X151650000Y-121200000D01*
X152150000Y-126700000D02*
X152150000Y-121200000D01*
X154150000Y-121200000D02*
X154150000Y-126700000D01*
X154150000Y-126700000D02*
X154650000Y-126700000D01*
X154650000Y-121200000D02*
X154150000Y-121200000D01*
X154650000Y-126700000D02*
X154650000Y-121200000D01*
X155540000Y-115590000D02*
X155540000Y-120090000D01*
X155540000Y-120090000D02*
X151900000Y-120090000D01*
X156960000Y-115590000D02*
X155540000Y-115590000D01*
X156960000Y-127310000D02*
X156960000Y-115590000D01*
%TO.C,R1*%
X129022936Y-85515000D02*
X129477064Y-85515000D01*
X129022936Y-86985000D02*
X129477064Y-86985000D01*
%TO.C,R4*%
X162522936Y-89965000D02*
X162977064Y-89965000D01*
X162522936Y-91435000D02*
X162977064Y-91435000D01*
%TO.C,C1*%
X129985000Y-91313748D02*
X129985000Y-91836252D01*
X131455000Y-91313748D02*
X131455000Y-91836252D01*
%TO.C,J2*%
X134890000Y-115590000D02*
X136310000Y-115590000D01*
X134890000Y-127310000D02*
X134890000Y-115590000D01*
X136310000Y-115590000D02*
X136310000Y-120090000D01*
X136310000Y-120090000D02*
X139950000Y-120090000D01*
X137150000Y-115900000D02*
X137750000Y-115900000D01*
X137200000Y-121200000D02*
X137200000Y-126700000D01*
X137200000Y-126700000D02*
X137700000Y-126700000D01*
X137450000Y-116500000D02*
X137150000Y-115900000D01*
X137700000Y-121200000D02*
X137200000Y-121200000D01*
X137700000Y-126700000D02*
X137700000Y-121200000D01*
X137750000Y-115900000D02*
X137450000Y-116500000D01*
X139700000Y-121200000D02*
X139700000Y-126700000D01*
X139700000Y-126700000D02*
X140200000Y-126700000D01*
X139950000Y-127310000D02*
X134890000Y-127310000D01*
X139950000Y-127310000D02*
X145010000Y-127310000D01*
X140200000Y-121200000D02*
X139700000Y-121200000D01*
X140200000Y-126700000D02*
X140200000Y-121200000D01*
X142200000Y-121200000D02*
X142200000Y-126700000D01*
X142200000Y-126700000D02*
X142700000Y-126700000D01*
X142700000Y-121200000D02*
X142200000Y-121200000D01*
X142700000Y-126700000D02*
X142700000Y-121200000D01*
X143590000Y-115590000D02*
X143590000Y-120090000D01*
X143590000Y-120090000D02*
X139950000Y-120090000D01*
X145010000Y-115590000D02*
X143590000Y-115590000D01*
X145010000Y-127310000D02*
X145010000Y-115590000D01*
%TO.C,J7*%
X119497500Y-104630000D02*
X126237500Y-104630000D01*
X119497500Y-110410000D02*
X119497500Y-104630000D01*
X119497500Y-110410000D02*
X126237500Y-110410000D01*
X120617500Y-110410000D02*
X120617500Y-104630000D01*
X125717500Y-110410000D02*
X125717500Y-104630000D01*
X126237500Y-108490000D02*
X126237500Y-104630000D01*
X126237500Y-110410000D02*
X126237500Y-109090000D01*
X126847500Y-109230000D02*
X126237500Y-108790000D01*
X126847500Y-108350000D01*
X126847500Y-109230000D01*
G36*
X126847500Y-109230000D02*
G01*
X126237500Y-108790000D01*
X126847500Y-108350000D01*
X126847500Y-109230000D01*
G37*
%TO.C,R2*%
X169765000Y-103264564D02*
X169765000Y-102810436D01*
X171235000Y-103264564D02*
X171235000Y-102810436D01*
%TO.C,C3*%
X128988748Y-87515000D02*
X129511252Y-87515000D01*
X128988748Y-88985000D02*
X129511252Y-88985000D01*
%TO.C,U1*%
X135050000Y-104200000D02*
X135050000Y-103250000D01*
X136450000Y-104200000D02*
X135050000Y-104200000D01*
X152050000Y-104200000D02*
X153450000Y-104200000D01*
X153450000Y-104200000D02*
X153450000Y-103250000D01*
X135050000Y-85250000D02*
X134550000Y-85250000D01*
X135050000Y-84750000D01*
X135050000Y-85250000D01*
G36*
X135050000Y-85250000D02*
G01*
X134550000Y-85250000D01*
X135050000Y-84750000D01*
X135050000Y-85250000D01*
G37*
%TO.C,J4*%
X158790000Y-115590000D02*
X160210000Y-115590000D01*
X158790000Y-127310000D02*
X158790000Y-115590000D01*
X160210000Y-115590000D02*
X160210000Y-120090000D01*
X160210000Y-120090000D02*
X163850000Y-120090000D01*
X161050000Y-115900000D02*
X161650000Y-115900000D01*
X161100000Y-121200000D02*
X161100000Y-126700000D01*
X161100000Y-126700000D02*
X161600000Y-126700000D01*
X161350000Y-116500000D02*
X161050000Y-115900000D01*
X161600000Y-121200000D02*
X161100000Y-121200000D01*
X161600000Y-126700000D02*
X161600000Y-121200000D01*
X161650000Y-115900000D02*
X161350000Y-116500000D01*
X163600000Y-121200000D02*
X163600000Y-126700000D01*
X163600000Y-126700000D02*
X164100000Y-126700000D01*
X163850000Y-127310000D02*
X158790000Y-127310000D01*
X163850000Y-127310000D02*
X168910000Y-127310000D01*
X164100000Y-121200000D02*
X163600000Y-121200000D01*
X164100000Y-126700000D02*
X164100000Y-121200000D01*
X166100000Y-121200000D02*
X166100000Y-126700000D01*
X166100000Y-126700000D02*
X166600000Y-126700000D01*
X166600000Y-121200000D02*
X166100000Y-121200000D01*
X166600000Y-126700000D02*
X166600000Y-121200000D01*
X167490000Y-115590000D02*
X167490000Y-120090000D01*
X167490000Y-120090000D02*
X163850000Y-120090000D01*
X168910000Y-115590000D02*
X167490000Y-115590000D01*
X168910000Y-127310000D02*
X168910000Y-115590000D01*
%TO.C,R3*%
X169765000Y-99564564D02*
X169765000Y-99110436D01*
X171235000Y-99564564D02*
X171235000Y-99110436D01*
%TO.C,C2*%
X128735000Y-91313748D02*
X128735000Y-91836252D01*
X127265000Y-91313748D02*
X127265000Y-91836252D01*
%TO.C,J1*%
X122940000Y-115590000D02*
X124360000Y-115590000D01*
X122940000Y-127310000D02*
X122940000Y-115590000D01*
X124360000Y-115590000D02*
X124360000Y-120090000D01*
X124360000Y-120090000D02*
X128000000Y-120090000D01*
X125200000Y-115900000D02*
X125800000Y-115900000D01*
X125250000Y-121200000D02*
X125250000Y-126700000D01*
X125250000Y-126700000D02*
X125750000Y-126700000D01*
X125500000Y-116500000D02*
X125200000Y-115900000D01*
X125750000Y-121200000D02*
X125250000Y-121200000D01*
X125750000Y-126700000D02*
X125750000Y-121200000D01*
X125800000Y-115900000D02*
X125500000Y-116500000D01*
X127750000Y-121200000D02*
X127750000Y-126700000D01*
X127750000Y-126700000D02*
X128250000Y-126700000D01*
X128000000Y-127310000D02*
X122940000Y-127310000D01*
X128000000Y-127310000D02*
X133060000Y-127310000D01*
X128250000Y-121200000D02*
X127750000Y-121200000D01*
X128250000Y-126700000D02*
X128250000Y-121200000D01*
X130250000Y-121200000D02*
X130250000Y-126700000D01*
X130250000Y-126700000D02*
X130750000Y-126700000D01*
X130750000Y-121200000D02*
X130250000Y-121200000D01*
X130750000Y-126700000D02*
X130750000Y-121200000D01*
X131640000Y-115590000D02*
X131640000Y-120090000D01*
X131640000Y-120090000D02*
X128000000Y-120090000D01*
X133060000Y-115590000D02*
X131640000Y-115590000D01*
X133060000Y-127310000D02*
X133060000Y-115590000D01*
%TO.C,R7*%
X147227064Y-114735000D02*
X146772936Y-114735000D01*
X147227064Y-113265000D02*
X146772936Y-113265000D01*
%TD*%
%LPC*%
D13*
%TO.C,J6*%
X168370000Y-88150000D02*
X167120000Y-88150000D01*
X167120000Y-87450000D01*
X168370000Y-87450000D01*
X168370000Y-88150000D01*
G36*
X168370000Y-88150000D02*
G01*
X167120000Y-88150000D01*
X167120000Y-87450000D01*
X168370000Y-87450000D01*
X168370000Y-88150000D01*
G37*
X168370000Y-88950000D02*
X167120000Y-88950000D01*
X167120000Y-88250000D01*
X168370000Y-88250000D01*
X168370000Y-88950000D01*
G36*
X168370000Y-88950000D02*
G01*
X167120000Y-88950000D01*
X167120000Y-88250000D01*
X168370000Y-88250000D01*
X168370000Y-88950000D01*
G37*
X168370000Y-89450000D02*
X167120000Y-89450000D01*
X167120000Y-89050000D01*
X168370000Y-89050000D01*
X168370000Y-89450000D01*
G36*
X168370000Y-89450000D02*
G01*
X167120000Y-89450000D01*
X167120000Y-89050000D01*
X168370000Y-89050000D01*
X168370000Y-89450000D01*
G37*
X168370000Y-89950000D02*
X167120000Y-89950000D01*
X167120000Y-89550000D01*
X168370000Y-89550000D01*
X168370000Y-89950000D01*
G36*
X168370000Y-89950000D02*
G01*
X167120000Y-89950000D01*
X167120000Y-89550000D01*
X168370000Y-89550000D01*
X168370000Y-89950000D01*
G37*
X168370000Y-90450000D02*
X167120000Y-90450000D01*
X167120000Y-90050000D01*
X168370000Y-90050000D01*
X168370000Y-90450000D01*
G36*
X168370000Y-90450000D02*
G01*
X167120000Y-90450000D01*
X167120000Y-90050000D01*
X168370000Y-90050000D01*
X168370000Y-90450000D01*
G37*
X168370000Y-90950000D02*
X167120000Y-90950000D01*
X167120000Y-90550000D01*
X168370000Y-90550000D01*
X168370000Y-90950000D01*
G36*
X168370000Y-90950000D02*
G01*
X167120000Y-90950000D01*
X167120000Y-90550000D01*
X168370000Y-90550000D01*
X168370000Y-90950000D01*
G37*
X168370000Y-91450000D02*
X167120000Y-91450000D01*
X167120000Y-91050000D01*
X168370000Y-91050000D01*
X168370000Y-91450000D01*
G36*
X168370000Y-91450000D02*
G01*
X167120000Y-91450000D01*
X167120000Y-91050000D01*
X168370000Y-91050000D01*
X168370000Y-91450000D01*
G37*
X168370000Y-91950000D02*
X167120000Y-91950000D01*
X167120000Y-91550000D01*
X168370000Y-91550000D01*
X168370000Y-91950000D01*
G36*
X168370000Y-91950000D02*
G01*
X167120000Y-91950000D01*
X167120000Y-91550000D01*
X168370000Y-91550000D01*
X168370000Y-91950000D01*
G37*
X168370000Y-92450000D02*
X167120000Y-92450000D01*
X167120000Y-92050000D01*
X168370000Y-92050000D01*
X168370000Y-92450000D01*
G36*
X168370000Y-92450000D02*
G01*
X167120000Y-92450000D01*
X167120000Y-92050000D01*
X168370000Y-92050000D01*
X168370000Y-92450000D01*
G37*
X168370000Y-92950000D02*
X167120000Y-92950000D01*
X167120000Y-92550000D01*
X168370000Y-92550000D01*
X168370000Y-92950000D01*
G36*
X168370000Y-92950000D02*
G01*
X167120000Y-92950000D01*
X167120000Y-92550000D01*
X168370000Y-92550000D01*
X168370000Y-92950000D01*
G37*
X168370000Y-93750000D02*
X167120000Y-93750000D01*
X167120000Y-93050000D01*
X168370000Y-93050000D01*
X168370000Y-93750000D01*
G36*
X168370000Y-93750000D02*
G01*
X167120000Y-93750000D01*
X167120000Y-93050000D01*
X168370000Y-93050000D01*
X168370000Y-93750000D01*
G37*
X168370000Y-94550000D02*
X167120000Y-94550000D01*
X167120000Y-93850000D01*
X168370000Y-93850000D01*
X168370000Y-94550000D01*
G36*
X168370000Y-94550000D02*
G01*
X167120000Y-94550000D01*
X167120000Y-93850000D01*
X168370000Y-93850000D01*
X168370000Y-94550000D01*
G37*
%TD*%
D14*
%TO.C,J6*%
X168820000Y-93890000D03*
X168820000Y-88110000D03*
D15*
X168320000Y-95320000D03*
X168320000Y-86680000D03*
D16*
X172500000Y-95320000D03*
X172500000Y-86680000D03*
%TD*%
D17*
%TO.C,U2*%
X152025000Y-109095000D03*
X152025000Y-110365000D03*
X152025000Y-111635000D03*
X152025000Y-112905000D03*
X156975000Y-112905000D03*
X156975000Y-111635000D03*
X156975000Y-110365000D03*
X156975000Y-109095000D03*
%TD*%
D18*
%TO.C,PWR*%
X132500000Y-110062500D03*
X132500000Y-111937500D03*
%TD*%
D19*
%TO.C,U5*%
X156800000Y-95750000D03*
X156800000Y-96385000D03*
X156800000Y-97020000D03*
X156800000Y-97655000D03*
X156800000Y-98290000D03*
X156800000Y-98925000D03*
X156800000Y-99560000D03*
X156800000Y-100195000D03*
X156800000Y-100830000D03*
X156800000Y-101465000D03*
X162000000Y-101465000D03*
X162000000Y-100830000D03*
X162000000Y-100195000D03*
X162000000Y-99560000D03*
X162000000Y-98925000D03*
X162000000Y-98290000D03*
X162000000Y-97655000D03*
X162000000Y-97020000D03*
X162000000Y-96385000D03*
X162000000Y-95750000D03*
%TD*%
D20*
%TO.C,J5*%
X165805000Y-111000000D03*
D21*
X165805000Y-108500000D03*
%TD*%
D22*
%TO.C,U4*%
X127000000Y-100700000D03*
D23*
X128500000Y-100612500D03*
D22*
X130000000Y-100700000D03*
%TD*%
D24*
%TO.C,REF\u002A\u002A*%
X122750000Y-96250000D03*
%TD*%
%TO.C,REF\u002A\u002A*%
X172250000Y-124750000D03*
%TD*%
D25*
%TO.C,C4*%
X166300000Y-102750000D03*
X168200000Y-102750000D03*
%TD*%
D26*
%TO.C,R6*%
X136000000Y-111912500D03*
X136000000Y-110087500D03*
%TD*%
D27*
%TO.C,R5*%
X163662500Y-87750000D03*
X161837500Y-87750000D03*
%TD*%
D28*
%TO.C,RESET*%
X144200000Y-108820000D03*
X140800000Y-108820000D03*
D29*
X142500000Y-107180000D03*
%TD*%
D28*
%TO.C,SW1*%
X149700000Y-108820000D03*
X146300000Y-108820000D03*
D29*
X148000000Y-107180000D03*
%TD*%
D30*
%TO.C,J3*%
X149400000Y-118000000D03*
D31*
X151900000Y-118000000D03*
X154400000Y-118000000D03*
%TD*%
D32*
%TO.C,R1*%
X128337500Y-86250000D03*
X130162500Y-86250000D03*
%TD*%
%TO.C,R4*%
X161837500Y-90700000D03*
X163662500Y-90700000D03*
%TD*%
D33*
%TO.C,C1*%
X130720000Y-90625000D03*
X130720000Y-92525000D03*
%TD*%
D30*
%TO.C,J2*%
X137450000Y-118000000D03*
D31*
X139950000Y-118000000D03*
X142450000Y-118000000D03*
%TD*%
D34*
%TO.C,J7*%
X122867500Y-108790000D03*
D35*
X122867500Y-106250000D03*
%TD*%
D24*
%TO.C,REF\u002A\u002A*%
X172000000Y-81250000D03*
%TD*%
D26*
%TO.C,R2*%
X170500000Y-103950000D03*
X170500000Y-102125000D03*
%TD*%
D25*
%TO.C,C3*%
X128300000Y-88250000D03*
X130200000Y-88250000D03*
%TD*%
D36*
%TO.C,U1*%
X135500000Y-85990000D03*
X135500000Y-87260000D03*
X135500000Y-88530000D03*
X135500000Y-89800000D03*
X135500000Y-91070000D03*
X135500000Y-92340000D03*
X135500000Y-93610000D03*
X135500000Y-94880000D03*
X135500000Y-96150000D03*
X135500000Y-97420000D03*
X135500000Y-98690000D03*
X135500000Y-99960000D03*
X135500000Y-101230000D03*
X135500000Y-102500000D03*
D37*
X138535000Y-103750000D03*
X139805000Y-103750000D03*
X141075000Y-103750000D03*
X142345000Y-103750000D03*
X143615000Y-103750000D03*
X144885000Y-103750000D03*
X146155000Y-103750000D03*
X147425000Y-103750000D03*
X148695000Y-103750000D03*
X149965000Y-103750000D03*
D36*
X153000000Y-102500000D03*
X153000000Y-101230000D03*
X153000000Y-99960000D03*
X153000000Y-98690000D03*
X153000000Y-97420000D03*
X153000000Y-96150000D03*
X153000000Y-94880000D03*
X153000000Y-93610000D03*
X153000000Y-92340000D03*
X153000000Y-91070000D03*
X153000000Y-89800000D03*
X153000000Y-88530000D03*
X153000000Y-87260000D03*
X153000000Y-85990000D03*
D38*
X141350000Y-92310000D03*
D39*
X141350000Y-93010000D03*
D38*
X141350000Y-93710000D03*
D39*
X141350000Y-94410000D03*
D38*
X141350000Y-95110000D03*
D39*
X142050000Y-92310000D03*
X142050000Y-93710000D03*
X142050000Y-95110000D03*
D38*
X142750000Y-92310000D03*
D39*
X142750000Y-93010000D03*
D38*
X142750000Y-93710000D03*
D39*
X142750000Y-94410000D03*
D38*
X142750000Y-95110000D03*
D39*
X143450000Y-92310000D03*
X143450000Y-93710000D03*
X143450000Y-95110000D03*
D38*
X144150000Y-92310000D03*
D39*
X144150000Y-93010000D03*
D38*
X144150000Y-93710000D03*
D39*
X144150000Y-94410000D03*
D38*
X144150000Y-95110000D03*
%TD*%
D30*
%TO.C,J4*%
X161350000Y-118000000D03*
D31*
X163850000Y-118000000D03*
X166350000Y-118000000D03*
%TD*%
D26*
%TO.C,R3*%
X170500000Y-100250000D03*
X170500000Y-98425000D03*
%TD*%
D33*
%TO.C,C2*%
X128000000Y-92525000D03*
X128000000Y-90625000D03*
%TD*%
D30*
%TO.C,J1*%
X125500000Y-118000000D03*
D31*
X128000000Y-118000000D03*
X130500000Y-118000000D03*
%TD*%
D27*
%TO.C,R7*%
X147912500Y-114000000D03*
X146087500Y-114000000D03*
%TD*%
%LPD*%
M02*
