M48
; DRILL file {KiCad 9.0.2} date 2025-06-22T20:13:19-0700
; FORMAT={-:-/ absolute / metric / decimal}
; #@! TF.CreationDate,2025-06-22T20:13:19-07:00
; #@! TF.GenerationSoftware,Kicad,Pcbnew,9.0.2
; #@! TF.FileFunction,Plated,1,2,PTH
FMAT,2
METRIC
; #@! TA.AperFunction,Plated,PTH,ViaDrill
T1C0.300
; #@! TA.AperFunction,Plated,PTH,ComponentDrill
T2C0.300
; #@! TA.AperFunction,Plated,PTH,ComponentDrill
T3C0.600
; #@! TA.AperFunction,Plated,PTH,ComponentDrill
T4C0.950
; #@! TA.AperFunction,Plated,PTH,ComponentDrill
T5C1.000
; #@! TA.AperFunction,Plated,PTH,ComponentDrill
T6C1.100
%
G90
G05
T1
X126.2Y-88.2
X126.7Y-94.55
X126.95Y-102.8
X130.0Y-102.75
X130.7Y-94.55
X133.5Y-86.0
X138.2Y-105.8
X138.25Y-107.75
X140.0Y-105.75
X146.0Y-118.5
X147.75Y-109.25
X150.0Y-88.5
X150.0Y-92.25
X150.2Y-109.2
X150.75Y-107.75
X150.75Y-110.5
X152.75Y-103.5
X152.75Y-106.25
X154.772Y-86.05
X155.0Y-99.0
X159.977Y-87.7
X159.977Y-90.7
X160.05Y-107.8
X161.25Y-106.0
X163.25Y-100.795
X163.75Y-98.125
X163.75Y-101.5
X165.75Y-87.75
X165.755Y-94.2
X166.25Y-90.25
X166.25Y-91.25
X168.2Y-104.8
X169.25Y-91.0
X171.5Y-90.25
X172.55Y-104.05
T2
X141.35Y-93.01
X141.35Y-94.41
X142.05Y-92.31
X142.05Y-93.71
X142.05Y-95.11
X142.75Y-93.01
X142.75Y-94.41
X143.45Y-92.31
X143.45Y-93.71
X143.45Y-95.11
X144.15Y-93.01
X144.15Y-94.41
T4
X125.5Y-118.0
X128.0Y-118.0
X130.5Y-118.0
X137.45Y-118.0
X139.95Y-118.0
X142.45Y-118.0
X149.4Y-118.0
X151.9Y-118.0
X154.4Y-118.0
X161.35Y-118.0
X163.85Y-118.0
X166.35Y-118.0
T5
X165.805Y-108.5
X165.805Y-111.0
T6
X122.867Y-106.25
X122.867Y-108.79
T3
X167.77Y-86.68G85X168.87Y-86.68
G05
X167.77Y-95.32G85X168.87Y-95.32
G05
X172.1Y-86.68G85X172.9Y-86.68
G05
X172.1Y-95.32G85X172.9Y-95.32
G05
M30
