%TF.GenerationSoftware,KiCad,Pcbnew,9.0.7*%
%TF.CreationDate,2026-01-19T09:28:31-08:00*%
%TF.ProjectId,Tesla Ambient Lighting,5465736c-6120-4416-9d62-69656e74204c,rev?*%
%TF.SameCoordinates,Original*%
%TF.FileFunction,Copper,L2,Bot*%
%TF.FilePolarity,Positive*%
%FSLAX46Y46*%
G04 Gerber Fmt 4.6, Leading zero omitted, Abs format (unit mm)*
G04 Created by KiCad (PCBNEW 9.0.7) date 2026-01-19 09:28:31*
%MOMM*%
%LPD*%
G01*
G04 APERTURE LIST*
G04 Aperture macros list*
%AMRoundRect*
0 Rectangle with rounded corners*
0 $1 Rounding radius*
0 $2 $3 $4 $5 $6 $7 $8 $9 X,Y pos of 4 corners*
0 Add a 4 corners polygon primitive as box body*
4,1,4,$2,$3,$4,$5,$6,$7,$8,$9,$2,$3,0*
0 Add four circle primitives for the rounded corners*
1,1,$1+$1,$2,$3*
1,1,$1+$1,$4,$5*
1,1,$1+$1,$6,$7*
1,1,$1+$1,$8,$9*
0 Add four rect primitives between the rounded corners*
20,1,$1+$1,$2,$3,$4,$5,0*
20,1,$1+$1,$4,$5,$6,$7,0*
20,1,$1+$1,$6,$7,$8,$9,0*
20,1,$1+$1,$8,$9,$2,$3,0*%
G04 Aperture macros list end*
%TA.AperFunction,ComponentPad*%
%ADD10O,2.100000X1.000000*%
%TD*%
%TA.AperFunction,ComponentPad*%
%ADD11O,1.800000X1.000000*%
%TD*%
%TA.AperFunction,SMDPad,CuDef*%
%ADD12RoundRect,0.150000X0.587500X0.150000X-0.587500X0.150000X-0.587500X-0.150000X0.587500X-0.150000X0*%
%TD*%
%TA.AperFunction,SMDPad,CuDef*%
%ADD13RoundRect,0.250000X0.262500X0.450000X-0.262500X0.450000X-0.262500X-0.450000X0.262500X-0.450000X0*%
%TD*%
%TA.AperFunction,SMDPad,CuDef*%
%ADD14RoundRect,0.250000X-0.450000X0.262500X-0.450000X-0.262500X0.450000X-0.262500X0.450000X0.262500X0*%
%TD*%
%TA.AperFunction,ComponentPad*%
%ADD15RoundRect,0.250000X0.750000X-0.600000X0.750000X0.600000X-0.750000X0.600000X-0.750000X-0.600000X0*%
%TD*%
%TA.AperFunction,ComponentPad*%
%ADD16O,2.000000X1.700000*%
%TD*%
%TA.AperFunction,ComponentPad*%
%ADD17RoundRect,0.250000X-0.600000X-0.725000X0.600000X-0.725000X0.600000X0.725000X-0.600000X0.725000X0*%
%TD*%
%TA.AperFunction,ComponentPad*%
%ADD18O,1.700000X1.950000*%
%TD*%
%TA.AperFunction,ComponentPad*%
%ADD19RoundRect,0.250001X0.799999X-0.799999X0.799999X0.799999X-0.799999X0.799999X-0.799999X-0.799999X0*%
%TD*%
%TA.AperFunction,ComponentPad*%
%ADD20C,2.100000*%
%TD*%
%TA.AperFunction,HeatsinkPad*%
%ADD21C,0.600000*%
%TD*%
%TA.AperFunction,ViaPad*%
%ADD22C,0.600000*%
%TD*%
%TA.AperFunction,Conductor*%
%ADD23C,0.150000*%
%TD*%
%TA.AperFunction,Conductor*%
%ADD24C,0.200000*%
%TD*%
G04 APERTURE END LIST*
D10*
%TO.P,J6,SH1,SHELL_GND*%
%TO.N,GNDREF*%
X168320000Y-95320000D03*
%TO.P,J6,SH2,SHELL_GND__1*%
X168320000Y-86680000D03*
D11*
%TO.P,J6,SH3,SHELL_GND__2*%
X172500000Y-95320000D03*
%TO.P,J6,SH4,SHELL_GND__3*%
X172500000Y-86680000D03*
%TD*%
D12*
%TO.P,Q2,1,B*%
%TO.N,Net-(Q2-B)*%
X146875000Y-101462500D03*
%TO.P,Q2,2,E*%
%TO.N,GNDREF*%
X146875000Y-103362500D03*
%TO.P,Q2,3,C*%
%TO.N,/GPIO0*%
X145000000Y-102412500D03*
%TD*%
D13*
%TO.P,R8,1*%
%TO.N,GNDREF*%
X150912500Y-96412500D03*
%TO.P,R8,2*%
%TO.N,Net-(Q1-B)*%
X149087500Y-96412500D03*
%TD*%
D12*
%TO.P,Q1,1,B*%
%TO.N,Net-(Q1-B)*%
X146875000Y-96512500D03*
%TO.P,Q1,2,E*%
%TO.N,/RTS*%
X146875000Y-98412500D03*
%TO.P,Q1,3,C*%
%TO.N,/EN*%
X145000000Y-97462500D03*
%TD*%
D14*
%TO.P,R9,1*%
%TO.N,/RTS*%
X150000000Y-99000000D03*
%TO.P,R9,2*%
%TO.N,Net-(Q2-B)*%
X150000000Y-100825000D03*
%TD*%
D15*
%TO.P,J5,1,Pin_1*%
%TO.N,Net-(J5-Pin_1)*%
X165805000Y-111000000D03*
D16*
%TO.P,J5,2,Pin_2*%
%TO.N,Net-(J5-Pin_2)*%
X165805000Y-108500000D03*
%TD*%
D17*
%TO.P,J3,1,Pin_1*%
%TO.N,/V5*%
X149400000Y-118000000D03*
D18*
%TO.P,J3,2,Pin_2*%
%TO.N,GNDREF*%
X151900000Y-118000000D03*
%TO.P,J3,3,Pin_3*%
%TO.N,Net-(J3-Pin_3)*%
X154400000Y-118000000D03*
%TD*%
D17*
%TO.P,J2,1,Pin_1*%
%TO.N,/V5*%
X137450000Y-118000000D03*
D18*
%TO.P,J2,2,Pin_2*%
%TO.N,GNDREF*%
X139950000Y-118000000D03*
%TO.P,J2,3,Pin_3*%
%TO.N,Net-(J2-Pin_3)*%
X142450000Y-118000000D03*
%TD*%
D19*
%TO.P,J7,1,Pin_1*%
%TO.N,GNDREF*%
X122867500Y-108790000D03*
D20*
%TO.P,J7,2,Pin_2*%
%TO.N,/V5*%
X122867500Y-106250000D03*
%TD*%
D21*
%TO.P,U1,39,GND*%
%TO.N,GNDREF*%
X141350000Y-93010000D03*
X141350000Y-94410000D03*
X142050000Y-92310000D03*
X142050000Y-93710000D03*
X142050000Y-95110000D03*
X142750000Y-93010000D03*
X142750000Y-94410000D03*
X143450000Y-92310000D03*
X143450000Y-93710000D03*
X143450000Y-95110000D03*
X144150000Y-93010000D03*
X144150000Y-94410000D03*
%TD*%
D17*
%TO.P,J4,1,Pin_1*%
%TO.N,/V5*%
X161350000Y-118000000D03*
D18*
%TO.P,J4,2,Pin_2*%
%TO.N,GNDREF*%
X163850000Y-118000000D03*
%TO.P,J4,3,Pin_3*%
%TO.N,Net-(J4-Pin_3)*%
X166350000Y-118000000D03*
%TD*%
D17*
%TO.P,J1,1,Pin_1*%
%TO.N,/V5*%
X125500000Y-118000000D03*
D18*
%TO.P,J1,2,Pin_2*%
%TO.N,GNDREF*%
X128000000Y-118000000D03*
%TO.P,J1,3,Pin_3*%
%TO.N,Net-(J1-Pin_3)*%
X130500000Y-118000000D03*
%TD*%
D22*
%TO.N,GNDREF*%
X138535000Y-103750000D03*
X132500000Y-111937500D03*
X128000000Y-92525000D03*
X130720000Y-92525000D03*
%TO.N,/CAN_RXD*%
X153000000Y-112900000D03*
%TO.N,GNDREF*%
X157975000Y-109025000D03*
X152025000Y-110365000D03*
%TO.N,/GPIO0*%
X146500000Y-110500000D03*
X146087500Y-114000000D03*
%TO.N,GNDREF*%
X148000000Y-107180000D03*
%TO.N,/CAN_RXD*%
X155000000Y-111000000D03*
%TO.N,/CAN_TXD*%
X154026000Y-105350472D03*
%TO.N,GNDREF*%
X156699000Y-95000000D03*
X158000000Y-99000000D03*
%TO.N,/CAN_RXD*%
X153000000Y-88530000D03*
X155000000Y-92000000D03*
%TO.N,/RTS*%
X157867592Y-96127086D03*
%TO.N,/GPIO0*%
X151500000Y-102500000D03*
%TO.N,/V33*%
X136000000Y-112000000D03*
X130000000Y-100700000D03*
X138000000Y-107000000D03*
%TO.N,/CAN_TXD*%
X153500000Y-107000000D03*
%TO.N,GNDREF*%
X153000000Y-85990000D03*
%TO.N,/EN*%
X135500000Y-88500000D03*
X140800000Y-108820000D03*
%TO.N,Net-(J4-Pin_3)*%
X143500000Y-98635000D03*
X160000000Y-113500000D03*
%TO.N,GNDREF*%
X163750000Y-98125000D03*
%TO.N,*%
X166250000Y-91250000D03*
X166250000Y-90250000D03*
%TO.N,GNDREF*%
X165755000Y-94200000D03*
X172550000Y-104050000D03*
X159977500Y-90700000D03*
X165750000Y-87750000D03*
X126950000Y-102800000D03*
X159977500Y-87700000D03*
X126200000Y-88200000D03*
X133500000Y-86000000D03*
%TO.N,/DP*%
X163750000Y-101500000D03*
X171500000Y-90250000D03*
%TO.N,/DN*%
X169250000Y-91000000D03*
X163250000Y-100795000D03*
%TO.N,/V5*%
X161250000Y-106000000D03*
%TO.N,/GPIO0*%
X152750000Y-106250000D03*
X152750000Y-103500000D03*
%TD*%
D23*
%TO.N,/CAN_RXD*%
X154900000Y-111000000D02*
X153000000Y-112900000D01*
X155000000Y-111000000D02*
X154900000Y-111000000D01*
%TO.N,/GPIO0*%
X146500000Y-113587500D02*
X146500000Y-110500000D01*
X146087500Y-114000000D02*
X146500000Y-113587500D01*
%TO.N,/CAN_TXD*%
X153500000Y-105876472D02*
X153500000Y-107000000D01*
X154026000Y-105350472D02*
X153500000Y-105876472D01*
%TO.N,/CAN_RXD*%
X155000000Y-90530000D02*
X153000000Y-88530000D01*
X155000000Y-92000000D02*
X155000000Y-90530000D01*
%TO.N,/RTS*%
X157867592Y-96852408D02*
X155720000Y-99000000D01*
X157867592Y-96127086D02*
X157867592Y-96852408D01*
X155720000Y-99000000D02*
X150000000Y-99000000D01*
%TO.N,/GPIO0*%
X151412500Y-102412500D02*
X151500000Y-102500000D01*
X145018750Y-102412500D02*
X151412500Y-102412500D01*
%TO.N,/EN*%
X141557500Y-97462500D02*
X135500000Y-103520000D01*
X145018750Y-97462500D02*
X141557500Y-97462500D01*
%TO.N,Net-(Q1-B)*%
X147087500Y-96412500D02*
X149106250Y-96412500D01*
X146987500Y-96512500D02*
X147087500Y-96412500D01*
X146893750Y-96512500D02*
X146987500Y-96512500D01*
%TO.N,/RTS*%
X147481250Y-99000000D02*
X146893750Y-98412500D01*
%TO.N,Net-(Q2-B)*%
X149518750Y-100825000D02*
X147531250Y-100825000D01*
X147531250Y-100825000D02*
X146893750Y-101462500D01*
%TO.N,Net-(Q1-B)*%
X149006250Y-96512500D02*
X149106250Y-96412500D01*
%TO.N,/RTS*%
X149518750Y-99000000D02*
X147481250Y-99000000D01*
%TO.N,/V33*%
X138000000Y-110000000D02*
X138000000Y-107000000D01*
X136000000Y-112000000D02*
X138000000Y-110000000D01*
X130000000Y-101000000D02*
X130000000Y-100700000D01*
X132000000Y-101000000D02*
X130000000Y-101000000D01*
X138000000Y-107000000D02*
X132000000Y-101000000D01*
%TO.N,/EN*%
X135500000Y-103520000D02*
X135500000Y-88500000D01*
X140800000Y-108820000D02*
X135500000Y-103520000D01*
D24*
%TO.N,Net-(J4-Pin_3)*%
X151000000Y-113500000D02*
X160000000Y-113500000D01*
X143500000Y-106000000D02*
X151000000Y-113500000D01*
X143500000Y-98635000D02*
X143365000Y-98500000D01*
X143500000Y-98635000D02*
X143500000Y-106000000D01*
%TO.N,/DP*%
X166965882Y-94534118D02*
X166965882Y-100250000D01*
X171500000Y-90250000D02*
X171250000Y-90250000D01*
X171250000Y-90250000D02*
X170250000Y-91250000D01*
X165715882Y-101500000D02*
X166965882Y-100250000D01*
X163750000Y-101500000D02*
X165715882Y-101500000D01*
X170250000Y-91250000D02*
X166965882Y-94534118D01*
%TO.N,/DN*%
X166556000Y-93694000D02*
X169250000Y-91000000D01*
X166556000Y-97489000D02*
X166556000Y-93694000D01*
X163250000Y-100795000D02*
X166556000Y-97489000D01*
%TO.N,/V5*%
X161350000Y-106100000D02*
X161350000Y-118000000D01*
X161250000Y-106000000D02*
X161350000Y-106100000D01*
%TO.N,/GPIO0*%
X152750000Y-106250000D02*
X152750000Y-103500000D01*
%TD*%
%TA.AperFunction,Conductor*%
%TO.N,GNDREF*%
G36*
X168393208Y-94058538D02*
G01*
X168449142Y-94100409D01*
X168457262Y-94112720D01*
X168479515Y-94151263D01*
X168479516Y-94151264D01*
X168479517Y-94151265D01*
X168533681Y-94205429D01*
X168567166Y-94266752D01*
X168570000Y-94293110D01*
X168570000Y-95020000D01*
X168070000Y-95020000D01*
X168070000Y-94330596D01*
X168078644Y-94301155D01*
X168085168Y-94271169D01*
X168088922Y-94266153D01*
X168089685Y-94263557D01*
X168106312Y-94242921D01*
X168262197Y-94087036D01*
X168323517Y-94053554D01*
X168393208Y-94058538D01*
G37*
%TD.AperFunction*%
%TA.AperFunction,Conductor*%
G36*
X120193039Y-78145185D02*
G01*
X120238794Y-78197989D01*
X120250000Y-78249500D01*
X120250000Y-84690000D01*
X168250000Y-84690000D01*
X168250000Y-81155513D01*
X170799500Y-81155513D01*
X170799500Y-81344486D01*
X170829059Y-81531118D01*
X170887454Y-81710836D01*
X170973240Y-81879199D01*
X171084310Y-82032073D01*
X171217927Y-82165690D01*
X171370801Y-82276760D01*
X171450347Y-82317290D01*
X171539163Y-82362545D01*
X171539165Y-82362545D01*
X171539168Y-82362547D01*
X171635497Y-82393846D01*
X171718881Y-82420940D01*
X171905514Y-82450500D01*
X171905519Y-82450500D01*
X172094486Y-82450500D01*
X172281118Y-82420940D01*
X172460832Y-82362547D01*
X172629199Y-82276760D01*
X172782073Y-82165690D01*
X172915690Y-82032073D01*
X173026760Y-81879199D01*
X173112547Y-81710832D01*
X173170940Y-81531118D01*
X173200500Y-81344486D01*
X173200500Y-81155513D01*
X173170940Y-80968881D01*
X173112545Y-80789163D01*
X173026759Y-80620800D01*
X172915690Y-80467927D01*
X172782073Y-80334310D01*
X172629199Y-80223240D01*
X172460836Y-80137454D01*
X172281118Y-80079059D01*
X172094486Y-80049500D01*
X172094481Y-80049500D01*
X171905519Y-80049500D01*
X171905514Y-80049500D01*
X171718881Y-80079059D01*
X171539163Y-80137454D01*
X171370800Y-80223240D01*
X171283579Y-80286610D01*
X171217927Y-80334310D01*
X171217925Y-80334312D01*
X171217924Y-80334312D01*
X171084312Y-80467924D01*
X171084312Y-80467925D01*
X171084310Y-80467927D01*
X171036610Y-80533579D01*
X170973240Y-80620800D01*
X170887454Y-80789163D01*
X170829059Y-80968881D01*
X170799500Y-81155513D01*
X168250000Y-81155513D01*
X168250000Y-78249500D01*
X168269685Y-78182461D01*
X168322489Y-78136706D01*
X168374000Y-78125500D01*
X174875500Y-78125500D01*
X174942539Y-78145185D01*
X174988294Y-78197989D01*
X174999500Y-78249500D01*
X174999500Y-127250500D01*
X174979815Y-127317539D01*
X174927011Y-127363294D01*
X174875500Y-127374500D01*
X119624500Y-127374500D01*
X119557461Y-127354815D01*
X119511706Y-127302011D01*
X119500500Y-127250500D01*
X119500500Y-124655513D01*
X171049500Y-124655513D01*
X171049500Y-124844486D01*
X171079059Y-125031118D01*
X171137454Y-125210836D01*
X171223240Y-125379199D01*
X171334310Y-125532073D01*
X171467927Y-125665690D01*
X171620801Y-125776760D01*
X171700347Y-125817290D01*
X171789163Y-125862545D01*
X171789165Y-125862545D01*
X171789168Y-125862547D01*
X171885497Y-125893846D01*
X171968881Y-125920940D01*
X172155514Y-125950500D01*
X172155519Y-125950500D01*
X172344486Y-125950500D01*
X172531118Y-125920940D01*
X172710832Y-125862547D01*
X172879199Y-125776760D01*
X173032073Y-125665690D01*
X173165690Y-125532073D01*
X173276760Y-125379199D01*
X173362547Y-125210832D01*
X173420940Y-125031118D01*
X173450500Y-124844486D01*
X173450500Y-124655513D01*
X173420940Y-124468881D01*
X173362545Y-124289163D01*
X173276759Y-124120800D01*
X173165690Y-123967927D01*
X173032073Y-123834310D01*
X172879199Y-123723240D01*
X172710836Y-123637454D01*
X172531118Y-123579059D01*
X172344486Y-123549500D01*
X172344481Y-123549500D01*
X172155519Y-123549500D01*
X172155514Y-123549500D01*
X171968881Y-123579059D01*
X171789163Y-123637454D01*
X171620800Y-123723240D01*
X171533579Y-123786610D01*
X171467927Y-123834310D01*
X171467925Y-123834312D01*
X171467924Y-123834312D01*
X171334312Y-123967924D01*
X171334312Y-123967925D01*
X171334310Y-123967927D01*
X171286610Y-124033579D01*
X171223240Y-124120800D01*
X171137454Y-124289163D01*
X171079059Y-124468881D01*
X171049500Y-124655513D01*
X119500500Y-124655513D01*
X119500500Y-117224983D01*
X124149500Y-117224983D01*
X124149500Y-118775001D01*
X124149501Y-118775018D01*
X124160000Y-118877796D01*
X124160001Y-118877799D01*
X124194031Y-118980493D01*
X124215186Y-119044334D01*
X124307288Y-119193656D01*
X124431344Y-119317712D01*
X124580666Y-119409814D01*
X124747203Y-119464999D01*
X124849991Y-119475500D01*
X126150008Y-119475499D01*
X126252797Y-119464999D01*
X126419334Y-119409814D01*
X126568656Y-119317712D01*
X126692712Y-119193656D01*
X126784814Y-119044334D01*
X126784814Y-119044331D01*
X126788448Y-119038441D01*
X126840395Y-118991716D01*
X126909358Y-118980493D01*
X126973440Y-119008336D01*
X126981668Y-119015856D01*
X127120535Y-119154723D01*
X127120540Y-119154727D01*
X127292442Y-119279620D01*
X127481782Y-119376095D01*
X127683871Y-119441757D01*
X127750000Y-119452231D01*
X127750000Y-118404145D01*
X127816657Y-118442630D01*
X127937465Y-118475000D01*
X128062535Y-118475000D01*
X128183343Y-118442630D01*
X128250000Y-118404145D01*
X128250000Y-119452230D01*
X128316126Y-119441757D01*
X128316129Y-119441757D01*
X128518217Y-119376095D01*
X128707557Y-119279620D01*
X128879459Y-119154727D01*
X128879464Y-119154723D01*
X129029721Y-119004466D01*
X129149371Y-118839781D01*
X129204701Y-118797115D01*
X129274314Y-118791136D01*
X129336110Y-118823741D01*
X129350008Y-118839781D01*
X129469890Y-119004785D01*
X129469894Y-119004790D01*
X129620213Y-119155109D01*
X129792179Y-119280048D01*
X129792181Y-119280049D01*
X129792184Y-119280051D01*
X129981588Y-119376557D01*
X130183757Y-119442246D01*
X130393713Y-119475500D01*
X130393714Y-119475500D01*
X130606286Y-119475500D01*
X130606287Y-119475500D01*
X130816243Y-119442246D01*
X131018412Y-119376557D01*
X131207816Y-119280051D01*
X131229789Y-119264086D01*
X131379786Y-119155109D01*
X131379788Y-119155106D01*
X131379792Y-119155104D01*
X131530104Y-119004792D01*
X131530106Y-119004788D01*
X131530109Y-119004786D01*
X131655048Y-118832820D01*
X131655047Y-118832820D01*
X131655051Y-118832816D01*
X131751557Y-118643412D01*
X131817246Y-118441243D01*
X131850500Y-118231287D01*
X131850500Y-117768713D01*
X131817246Y-117558757D01*
X131751557Y-117356588D01*
X131684501Y-117224983D01*
X136099500Y-117224983D01*
X136099500Y-118775001D01*
X136099501Y-118775018D01*
X136110000Y-118877796D01*
X136110001Y-118877799D01*
X136144031Y-118980493D01*
X136165186Y-119044334D01*
X136257288Y-119193656D01*
X136381344Y-119317712D01*
X136530666Y-119409814D01*
X136697203Y-119464999D01*
X136799991Y-119475500D01*
X138100008Y-119475499D01*
X138202797Y-119464999D01*
X138369334Y-119409814D01*
X138518656Y-119317712D01*
X138642712Y-119193656D01*
X138734814Y-119044334D01*
X138734814Y-119044331D01*
X138738448Y-119038441D01*
X138790395Y-118991716D01*
X138859358Y-118980493D01*
X138923440Y-119008336D01*
X138931668Y-119015856D01*
X139070535Y-119154723D01*
X139070540Y-119154727D01*
X139242442Y-119279620D01*
X139431782Y-119376095D01*
X139633871Y-119441757D01*
X139700000Y-119452231D01*
X139700000Y-118404145D01*
X139766657Y-118442630D01*
X139887465Y-118475000D01*
X140012535Y-118475000D01*
X140133343Y-118442630D01*
X140200000Y-118404145D01*
X140200000Y-119452230D01*
X140266126Y-119441757D01*
X140266129Y-119441757D01*
X140468217Y-119376095D01*
X140657557Y-119279620D01*
X140829459Y-119154727D01*
X140829464Y-119154723D01*
X140979721Y-119004466D01*
X141099371Y-118839781D01*
X141154701Y-118797115D01*
X141224314Y-118791136D01*
X141286110Y-118823741D01*
X141300008Y-118839781D01*
X141419890Y-119004785D01*
X141419894Y-119004790D01*
X141570213Y-119155109D01*
X141742179Y-119280048D01*
X141742181Y-119280049D01*
X141742184Y-119280051D01*
X141931588Y-119376557D01*
X142133757Y-119442246D01*
X142343713Y-119475500D01*
X142343714Y-119475500D01*
X142556286Y-119475500D01*
X142556287Y-119475500D01*
X142766243Y-119442246D01*
X142968412Y-119376557D01*
X143157816Y-119280051D01*
X143179789Y-119264086D01*
X143329786Y-119155109D01*
X143329788Y-119155106D01*
X143329792Y-119155104D01*
X143480104Y-119004792D01*
X143480106Y-119004788D01*
X143480109Y-119004786D01*
X143605048Y-118832820D01*
X143605047Y-118832820D01*
X143605051Y-118832816D01*
X143701557Y-118643412D01*
X143767246Y-118441243D01*
X143800500Y-118231287D01*
X143800500Y-117768713D01*
X143767246Y-117558757D01*
X143701557Y-117356588D01*
X143634501Y-117224983D01*
X148049500Y-117224983D01*
X148049500Y-118775001D01*
X148049501Y-118775018D01*
X148060000Y-118877796D01*
X148060001Y-118877799D01*
X148094031Y-118980493D01*
X148115186Y-119044334D01*
X148207288Y-119193656D01*
X148331344Y-119317712D01*
X148480666Y-119409814D01*
X148647203Y-119464999D01*
X148749991Y-119475500D01*
X150050008Y-119475499D01*
X150152797Y-119464999D01*
X150319334Y-119409814D01*
X150468656Y-119317712D01*
X150592712Y-119193656D01*
X150684814Y-119044334D01*
X150684814Y-119044331D01*
X150688448Y-119038441D01*
X150740395Y-118991716D01*
X150809358Y-118980493D01*
X150873440Y-119008336D01*
X150881668Y-119015856D01*
X151020535Y-119154723D01*
X151020540Y-119154727D01*
X151192442Y-119279620D01*
X151381782Y-119376095D01*
X151583871Y-119441757D01*
X151650000Y-119452231D01*
X151650000Y-118404145D01*
X151716657Y-118442630D01*
X151837465Y-118475000D01*
X151962535Y-118475000D01*
X152083343Y-118442630D01*
X152150000Y-118404145D01*
X152150000Y-119452230D01*
X152216126Y-119441757D01*
X152216129Y-119441757D01*
X152418217Y-119376095D01*
X152607557Y-119279620D01*
X152779459Y-119154727D01*
X152779464Y-119154723D01*
X152929721Y-119004466D01*
X153049371Y-118839781D01*
X153104701Y-118797115D01*
X153174314Y-118791136D01*
X153236110Y-118823741D01*
X153250008Y-118839781D01*
X153369890Y-119004785D01*
X153369894Y-119004790D01*
X153520213Y-119155109D01*
X153692179Y-119280048D01*
X153692181Y-119280049D01*
X153692184Y-119280051D01*
X153881588Y-119376557D01*
X154083757Y-119442246D01*
X154293713Y-119475500D01*
X154293714Y-119475500D01*
X154506286Y-119475500D01*
X154506287Y-119475500D01*
X154716243Y-119442246D01*
X154918412Y-119376557D01*
X155107816Y-119280051D01*
X155129789Y-119264086D01*
X155279786Y-119155109D01*
X155279788Y-119155106D01*
X155279792Y-119155104D01*
X155430104Y-119004792D01*
X155430106Y-119004788D01*
X155430109Y-119004786D01*
X155555048Y-118832820D01*
X155555047Y-118832820D01*
X155555051Y-118832816D01*
X155651557Y-118643412D01*
X155717246Y-118441243D01*
X155750500Y-118231287D01*
X155750500Y-117768713D01*
X155717246Y-117558757D01*
X155651557Y-117356588D01*
X155555051Y-117167184D01*
X155555049Y-117167181D01*
X155555048Y-117167179D01*
X155430109Y-116995213D01*
X155279786Y-116844890D01*
X155107820Y-116719951D01*
X154918414Y-116623444D01*
X154918413Y-116623443D01*
X154918412Y-116623443D01*
X154716243Y-116557754D01*
X154716241Y-116557753D01*
X154716240Y-116557753D01*
X154554957Y-116532208D01*
X154506287Y-116524500D01*
X154293713Y-116524500D01*
X154245042Y-116532208D01*
X154083760Y-116557753D01*
X153881585Y-116623444D01*
X153692179Y-116719951D01*
X153520213Y-116844890D01*
X153369894Y-116995209D01*
X153369890Y-116995214D01*
X153250008Y-117160218D01*
X153194678Y-117202884D01*
X153125065Y-117208863D01*
X153063270Y-117176257D01*
X153049372Y-117160218D01*
X152929727Y-116995540D01*
X152929723Y-116995535D01*
X152779464Y-116845276D01*
X152779459Y-116845272D01*
X152607557Y-116720379D01*
X152418215Y-116623903D01*
X152216124Y-116558241D01*
X152150000Y-116547768D01*
X152150000Y-117595854D01*
X152083343Y-117557370D01*
X151962535Y-117525000D01*
X151837465Y-117525000D01*
X151716657Y-117557370D01*
X151650000Y-117595854D01*
X151650000Y-116547768D01*
X151649999Y-116547768D01*
X151583875Y-116558241D01*
X151381784Y-116623903D01*
X151192442Y-116720379D01*
X151020541Y-116845271D01*
X150881668Y-116984144D01*
X150820345Y-117017628D01*
X150750653Y-117012644D01*
X150694720Y-116970772D01*
X150688448Y-116961558D01*
X150592712Y-116806344D01*
X150468657Y-116682289D01*
X150468656Y-116682288D01*
X150319334Y-116590186D01*
X150152797Y-116535001D01*
X150152795Y-116535000D01*
X150050010Y-116524500D01*
X148749998Y-116524500D01*
X148749981Y-116524501D01*
X148647203Y-116535000D01*
X148647200Y-116535001D01*
X148480668Y-116590185D01*
X148480663Y-116590187D01*
X148331342Y-116682289D01*
X148207289Y-116806342D01*
X148115187Y-116955663D01*
X148115185Y-116955668D01*
X148110180Y-116970772D01*
X148060001Y-117122203D01*
X148060001Y-117122204D01*
X148060000Y-117122204D01*
X148049500Y-117224983D01*
X143634501Y-117224983D01*
X143605051Y-117167184D01*
X143605049Y-117167181D01*
X143605048Y-117167179D01*
X143480109Y-116995213D01*
X143329786Y-116844890D01*
X143157820Y-116719951D01*
X142968414Y-116623444D01*
X142968413Y-116623443D01*
X142968412Y-116623443D01*
X142766243Y-116557754D01*
X142766241Y-116557753D01*
X142766240Y-116557753D01*
X142604957Y-116532208D01*
X142556287Y-116524500D01*
X142343713Y-116524500D01*
X142295042Y-116532208D01*
X142133760Y-116557753D01*
X141931585Y-116623444D01*
X141742179Y-116719951D01*
X141570213Y-116844890D01*
X141419894Y-116995209D01*
X141419890Y-116995214D01*
X141300008Y-117160218D01*
X141244678Y-117202884D01*
X141175065Y-117208863D01*
X141113270Y-117176257D01*
X141099372Y-117160218D01*
X140979727Y-116995540D01*
X140979723Y-116995535D01*
X140829464Y-116845276D01*
X140829459Y-116845272D01*
X140657557Y-116720379D01*
X140468215Y-116623903D01*
X140266124Y-116558241D01*
X140200000Y-116547768D01*
X140200000Y-117595854D01*
X140133343Y-117557370D01*
X140012535Y-117525000D01*
X139887465Y-117525000D01*
X139766657Y-117557370D01*
X139700000Y-117595854D01*
X139700000Y-116547768D01*
X139699999Y-116547768D01*
X139633875Y-116558241D01*
X139431784Y-116623903D01*
X139242442Y-116720379D01*
X139070541Y-116845271D01*
X138931668Y-116984144D01*
X138870345Y-117017628D01*
X138800653Y-117012644D01*
X138744720Y-116970772D01*
X138738448Y-116961558D01*
X138642712Y-116806344D01*
X138518657Y-116682289D01*
X138518656Y-116682288D01*
X138369334Y-116590186D01*
X138202797Y-116535001D01*
X138202795Y-116535000D01*
X138100010Y-116524500D01*
X136799998Y-116524500D01*
X136799981Y-116524501D01*
X136697203Y-116535000D01*
X136697200Y-116535001D01*
X136530668Y-116590185D01*
X136530663Y-116590187D01*
X136381342Y-116682289D01*
X136257289Y-116806342D01*
X136165187Y-116955663D01*
X136165185Y-116955668D01*
X136160180Y-116970772D01*
X136110001Y-117122203D01*
X136110001Y-117122204D01*
X136110000Y-117122204D01*
X136099500Y-117224983D01*
X131684501Y-117224983D01*
X131655051Y-117167184D01*
X131655049Y-117167181D01*
X131655048Y-117167179D01*
X131530109Y-116995213D01*
X131379786Y-116844890D01*
X131207820Y-116719951D01*
X131018414Y-116623444D01*
X131018413Y-116623443D01*
X131018412Y-116623443D01*
X130816243Y-116557754D01*
X130816241Y-116557753D01*
X130816240Y-116557753D01*
X130654957Y-116532208D01*
X130606287Y-116524500D01*
X130393713Y-116524500D01*
X130345042Y-116532208D01*
X130183760Y-116557753D01*
X129981585Y-116623444D01*
X129792179Y-116719951D01*
X129620213Y-116844890D01*
X129469894Y-116995209D01*
X129469890Y-116995214D01*
X129350008Y-117160218D01*
X129294678Y-117202884D01*
X129225065Y-117208863D01*
X129163270Y-117176257D01*
X129149372Y-117160218D01*
X129029727Y-116995540D01*
X129029723Y-116995535D01*
X128879464Y-116845276D01*
X128879459Y-116845272D01*
X128707557Y-116720379D01*
X128518215Y-116623903D01*
X128316124Y-116558241D01*
X128250000Y-116547768D01*
X128250000Y-117595854D01*
X128183343Y-117557370D01*
X128062535Y-117525000D01*
X127937465Y-117525000D01*
X127816657Y-117557370D01*
X127750000Y-117595854D01*
X127750000Y-116547768D01*
X127749999Y-116547768D01*
X127683875Y-116558241D01*
X127481784Y-116623903D01*
X127292442Y-116720379D01*
X127120541Y-116845271D01*
X126981668Y-116984144D01*
X126920345Y-117017628D01*
X126850653Y-117012644D01*
X126794720Y-116970772D01*
X126788448Y-116961558D01*
X126692712Y-116806344D01*
X126568657Y-116682289D01*
X126568656Y-116682288D01*
X126419334Y-116590186D01*
X126252797Y-116535001D01*
X126252795Y-116535000D01*
X126150010Y-116524500D01*
X124849998Y-116524500D01*
X124849981Y-116524501D01*
X124747203Y-116535000D01*
X124747200Y-116535001D01*
X124580668Y-116590185D01*
X124580663Y-116590187D01*
X124431342Y-116682289D01*
X124307289Y-116806342D01*
X124215187Y-116955663D01*
X124215185Y-116955668D01*
X124210180Y-116970772D01*
X124160001Y-117122203D01*
X124160001Y-117122204D01*
X124160000Y-117122204D01*
X124149500Y-117224983D01*
X119500500Y-117224983D01*
X119500500Y-106127973D01*
X121317000Y-106127973D01*
X121317000Y-106372026D01*
X121338898Y-106510287D01*
X121355179Y-106613076D01*
X121430596Y-106845185D01*
X121529035Y-107038384D01*
X121541396Y-107062642D01*
X121648745Y-107210397D01*
X121672225Y-107276203D01*
X121656399Y-107344257D01*
X121613527Y-107388819D01*
X121599156Y-107397683D01*
X121475184Y-107521655D01*
X121383143Y-107670876D01*
X121383141Y-107670881D01*
X121327994Y-107837303D01*
X121327993Y-107837310D01*
X121317500Y-107940014D01*
X121317500Y-108540000D01*
X122376752Y-108540000D01*
X122354982Y-108577708D01*
X122317500Y-108717591D01*
X122317500Y-108862409D01*
X122354982Y-109002292D01*
X122376752Y-109040000D01*
X121317500Y-109040000D01*
X121317500Y-109639985D01*
X121327993Y-109742689D01*
X121327994Y-109742696D01*
X121383141Y-109909118D01*
X121383143Y-109909123D01*
X121475184Y-110058344D01*
X121599155Y-110182315D01*
X121748376Y-110274356D01*
X121748381Y-110274358D01*
X121914803Y-110329505D01*
X121914810Y-110329506D01*
X122017514Y-110339999D01*
X122017527Y-110340000D01*
X122617500Y-110340000D01*
X122617500Y-109280747D01*
X122655208Y-109302518D01*
X122795091Y-109340000D01*
X122939909Y-109340000D01*
X123079792Y-109302518D01*
X123117500Y-109280747D01*
X123117500Y-110340000D01*
X123717473Y-110340000D01*
X123717485Y-110339999D01*
X123820189Y-110329506D01*
X123820196Y-110329505D01*
X123986618Y-110274358D01*
X123986623Y-110274356D01*
X124135844Y-110182315D01*
X124259815Y-110058344D01*
X124351856Y-109909123D01*
X124351858Y-109909118D01*
X124407005Y-109742696D01*
X124407006Y-109742689D01*
X124417499Y-109639985D01*
X124417500Y-109639972D01*
X124417500Y-109040000D01*
X123358248Y-109040000D01*
X123380018Y-109002292D01*
X123417500Y-108862409D01*
X123417500Y-108717591D01*
X123380018Y-108577708D01*
X123358248Y-108540000D01*
X124417500Y-108540000D01*
X124417500Y-107940027D01*
X124417499Y-107940014D01*
X124407006Y-107837310D01*
X124407005Y-107837303D01*
X124351858Y-107670881D01*
X124351856Y-107670876D01*
X124259815Y-107521655D01*
X124135843Y-107397683D01*
X124121476Y-107388822D01*
X124074750Y-107336874D01*
X124063527Y-107267912D01*
X124086251Y-107210400D01*
X124193606Y-107062639D01*
X124304404Y-106845185D01*
X124379821Y-106613076D01*
X124418000Y-106372027D01*
X124418000Y-106127973D01*
X124379821Y-105886924D01*
X124304404Y-105654815D01*
X124193606Y-105437361D01*
X124150631Y-105378211D01*
X124050160Y-105239923D01*
X124050156Y-105239918D01*
X123877581Y-105067343D01*
X123877576Y-105067339D01*
X123680142Y-104923896D01*
X123680141Y-104923895D01*
X123680139Y-104923894D01*
X123462685Y-104813096D01*
X123230576Y-104737679D01*
X123230574Y-104737678D01*
X123230572Y-104737678D01*
X123057001Y-104710187D01*
X122989527Y-104699500D01*
X122745473Y-104699500D01*
X122689593Y-104708350D01*
X122504427Y-104737678D01*
X122272312Y-104813097D01*
X122054857Y-104923896D01*
X121857423Y-105067339D01*
X121857418Y-105067343D01*
X121684843Y-105239918D01*
X121684839Y-105239923D01*
X121541396Y-105437357D01*
X121430597Y-105654812D01*
X121355178Y-105886927D01*
X121317000Y-106127973D01*
X119500500Y-106127973D01*
X119500500Y-100621153D01*
X129199500Y-100621153D01*
X129199500Y-100778846D01*
X129230261Y-100933489D01*
X129230264Y-100933501D01*
X129290602Y-101079172D01*
X129290609Y-101079185D01*
X129378210Y-101210288D01*
X129378213Y-101210292D01*
X129489707Y-101321786D01*
X129489711Y-101321789D01*
X129534398Y-101351647D01*
X129553188Y-101367068D01*
X129646635Y-101460515D01*
X129777865Y-101536281D01*
X129924234Y-101575500D01*
X131710258Y-101575500D01*
X131777297Y-101595185D01*
X131797939Y-101611819D01*
X137163181Y-106977061D01*
X137196666Y-107038384D01*
X137199500Y-107064742D01*
X137199500Y-107078846D01*
X137230261Y-107233489D01*
X137230264Y-107233501D01*
X137290602Y-107379172D01*
X137290609Y-107379185D01*
X137378210Y-107510288D01*
X137378212Y-107510291D01*
X137388178Y-107520256D01*
X137421665Y-107581578D01*
X137424500Y-107607940D01*
X137424500Y-109710258D01*
X137404815Y-109777297D01*
X137388181Y-109797939D01*
X136022939Y-111163181D01*
X135961616Y-111196666D01*
X135935258Y-111199500D01*
X135921155Y-111199500D01*
X135766510Y-111230261D01*
X135766498Y-111230264D01*
X135620827Y-111290602D01*
X135620814Y-111290609D01*
X135489711Y-111378210D01*
X135489707Y-111378213D01*
X135378213Y-111489707D01*
X135378210Y-111489711D01*
X135290609Y-111620814D01*
X135290602Y-111620827D01*
X135230264Y-111766498D01*
X135230261Y-111766510D01*
X135199500Y-111921153D01*
X135199500Y-112078846D01*
X135230261Y-112233489D01*
X135230264Y-112233501D01*
X135290602Y-112379172D01*
X135290609Y-112379185D01*
X135378210Y-112510288D01*
X135378213Y-112510292D01*
X135489707Y-112621786D01*
X135489711Y-112621789D01*
X135620814Y-112709390D01*
X135620827Y-112709397D01*
X135737812Y-112757853D01*
X135766503Y-112769737D01*
X135917096Y-112799692D01*
X135921153Y-112800499D01*
X135921156Y-112800500D01*
X135921158Y-112800500D01*
X136078844Y-112800500D01*
X136078845Y-112800499D01*
X136233497Y-112769737D01*
X136379179Y-112709394D01*
X136510289Y-112621789D01*
X136621789Y-112510289D01*
X136709394Y-112379179D01*
X136769737Y-112233497D01*
X136800500Y-112078842D01*
X136800500Y-112064742D01*
X136820185Y-111997703D01*
X136836819Y-111977061D01*
X137617214Y-111196666D01*
X138460515Y-110353365D01*
X138536281Y-110222135D01*
X138575500Y-110075767D01*
X138575500Y-109924234D01*
X138575500Y-107708742D01*
X138595185Y-107641703D01*
X138647989Y-107595948D01*
X138717147Y-107586004D01*
X138780703Y-107615029D01*
X138787181Y-107621061D01*
X139963181Y-108797061D01*
X139996666Y-108858384D01*
X139999500Y-108884742D01*
X139999500Y-108898846D01*
X140030261Y-109053489D01*
X140030264Y-109053501D01*
X140090602Y-109199172D01*
X140090609Y-109199185D01*
X140178210Y-109330288D01*
X140178213Y-109330292D01*
X140289707Y-109441786D01*
X140289711Y-109441789D01*
X140420814Y-109529390D01*
X140420827Y-109529397D01*
X140507977Y-109565495D01*
X140566503Y-109589737D01*
X140721153Y-109620499D01*
X140721156Y-109620500D01*
X140721158Y-109620500D01*
X140878844Y-109620500D01*
X140878845Y-109620499D01*
X141033497Y-109589737D01*
X141179179Y-109529394D01*
X141310289Y-109441789D01*
X141421789Y-109330289D01*
X141509394Y-109199179D01*
X141569737Y-109053497D01*
X141600500Y-108898842D01*
X141600500Y-108741158D01*
X141600500Y-108741155D01*
X141600499Y-108741153D01*
X141569738Y-108586510D01*
X141569737Y-108586503D01*
X141550475Y-108540000D01*
X141509397Y-108440827D01*
X141509390Y-108440814D01*
X141421789Y-108309711D01*
X141421786Y-108309707D01*
X141310292Y-108198213D01*
X141310288Y-108198210D01*
X141179185Y-108110609D01*
X141179172Y-108110602D01*
X141033501Y-108050264D01*
X141033489Y-108050261D01*
X140878845Y-108019500D01*
X140878842Y-108019500D01*
X140864742Y-108019500D01*
X140797703Y-107999815D01*
X140777061Y-107983181D01*
X136401561Y-103607681D01*
X136368076Y-103546358D01*
X136373060Y-103476666D01*
X136401561Y-103432319D01*
X141759561Y-98074319D01*
X141820884Y-98040834D01*
X141847242Y-98038000D01*
X142704161Y-98038000D01*
X142771200Y-98057685D01*
X142816955Y-98110489D01*
X142826899Y-98179647D01*
X142807263Y-98230891D01*
X142790609Y-98255814D01*
X142790602Y-98255827D01*
X142730264Y-98401498D01*
X142730261Y-98401510D01*
X142699500Y-98556153D01*
X142699500Y-98713846D01*
X142730261Y-98868489D01*
X142730264Y-98868501D01*
X142790602Y-99014172D01*
X142790609Y-99014185D01*
X142878602Y-99145874D01*
X142899480Y-99212551D01*
X142899500Y-99214765D01*
X142899500Y-105913330D01*
X142899499Y-105913348D01*
X142899499Y-106079054D01*
X142899498Y-106079054D01*
X142940423Y-106231785D01*
X142969358Y-106281900D01*
X142969359Y-106281904D01*
X142969360Y-106281904D01*
X142996461Y-106328846D01*
X143019479Y-106368714D01*
X143019481Y-106368717D01*
X143138349Y-106487585D01*
X143138355Y-106487590D01*
X146216259Y-109565495D01*
X146249744Y-109626818D01*
X146244760Y-109696510D01*
X146202888Y-109752443D01*
X146176031Y-109767737D01*
X146120824Y-109790604D01*
X146120814Y-109790609D01*
X145989711Y-109878210D01*
X145989707Y-109878213D01*
X145878213Y-109989707D01*
X145878210Y-109989711D01*
X145790609Y-110120814D01*
X145790602Y-110120827D01*
X145730264Y-110266498D01*
X145730261Y-110266510D01*
X145699500Y-110421153D01*
X145699500Y-110578846D01*
X145730261Y-110733489D01*
X145730264Y-110733501D01*
X145790602Y-110879172D01*
X145790609Y-110879185D01*
X145878210Y-111010288D01*
X145878212Y-111010291D01*
X145888178Y-111020256D01*
X145921665Y-111081578D01*
X145924500Y-111107940D01*
X145924500Y-113118208D01*
X145904815Y-113185247D01*
X145852011Y-113231002D01*
X145847952Y-113232769D01*
X145708327Y-113290602D01*
X145708314Y-113290609D01*
X145577211Y-113378210D01*
X145577207Y-113378213D01*
X145465713Y-113489707D01*
X145465710Y-113489711D01*
X145378109Y-113620814D01*
X145378102Y-113620827D01*
X145317764Y-113766498D01*
X145317761Y-113766510D01*
X145287000Y-113921153D01*
X145287000Y-114078846D01*
X145317761Y-114233489D01*
X145317764Y-114233501D01*
X145378102Y-114379172D01*
X145378109Y-114379185D01*
X145465710Y-114510288D01*
X145465713Y-114510292D01*
X145577207Y-114621786D01*
X145577211Y-114621789D01*
X145708314Y-114709390D01*
X145708327Y-114709397D01*
X145853998Y-114769735D01*
X145854003Y-114769737D01*
X146008653Y-114800499D01*
X146008656Y-114800500D01*
X146008658Y-114800500D01*
X146166344Y-114800500D01*
X146166345Y-114800499D01*
X146320997Y-114769737D01*
X146466679Y-114709394D01*
X146597789Y-114621789D01*
X146709289Y-114510289D01*
X146796894Y-114379179D01*
X146857237Y-114233497D01*
X146888000Y-114078842D01*
X146888000Y-114064742D01*
X146907685Y-113997703D01*
X146924319Y-113977061D01*
X146960515Y-113940865D01*
X147036281Y-113809635D01*
X147075500Y-113663267D01*
X147075500Y-113511734D01*
X147075500Y-111107940D01*
X147095185Y-111040901D01*
X147111822Y-111020256D01*
X147121787Y-111010291D01*
X147121789Y-111010289D01*
X147209394Y-110879179D01*
X147232263Y-110823967D01*
X147276101Y-110769566D01*
X147342395Y-110747500D01*
X147410094Y-110764778D01*
X147434504Y-110783740D01*
X150631284Y-113980520D01*
X150631286Y-113980521D01*
X150631290Y-113980524D01*
X150768209Y-114059573D01*
X150768216Y-114059577D01*
X150920943Y-114100501D01*
X150920945Y-114100501D01*
X151086654Y-114100501D01*
X151086670Y-114100500D01*
X159420234Y-114100500D01*
X159487273Y-114120185D01*
X159489125Y-114121398D01*
X159620814Y-114209390D01*
X159620827Y-114209397D01*
X159766498Y-114269735D01*
X159766503Y-114269737D01*
X159921153Y-114300499D01*
X159921156Y-114300500D01*
X159921158Y-114300500D01*
X160078844Y-114300500D01*
X160078845Y-114300499D01*
X160233497Y-114269737D01*
X160379179Y-114209394D01*
X160510289Y-114121789D01*
X160511893Y-114120185D01*
X160537819Y-114094260D01*
X160599142Y-114060775D01*
X160668834Y-114065759D01*
X160724767Y-114107631D01*
X160749184Y-114173095D01*
X160749500Y-114181941D01*
X160749500Y-116407465D01*
X160729815Y-116474504D01*
X160677011Y-116520259D01*
X160638102Y-116530823D01*
X160597202Y-116535001D01*
X160597200Y-116535001D01*
X160430668Y-116590185D01*
X160430663Y-116590187D01*
X160281342Y-116682289D01*
X160157289Y-116806342D01*
X160065187Y-116955663D01*
X160065185Y-116955668D01*
X160060180Y-116970772D01*
X160010001Y-117122203D01*
X160010001Y-117122204D01*
X160010000Y-117122204D01*
X159999500Y-117224983D01*
X159999500Y-118775001D01*
X159999501Y-118775018D01*
X160010000Y-118877796D01*
X160010001Y-118877799D01*
X160044031Y-118980493D01*
X160065186Y-119044334D01*
X160157288Y-119193656D01*
X160281344Y-119317712D01*
X160430666Y-119409814D01*
X160597203Y-119464999D01*
X160699991Y-119475500D01*
X162000008Y-119475499D01*
X162102797Y-119464999D01*
X162269334Y-119409814D01*
X162418656Y-119317712D01*
X162542712Y-119193656D01*
X162634814Y-119044334D01*
X162634814Y-119044331D01*
X162638448Y-119038441D01*
X162690395Y-118991716D01*
X162759358Y-118980493D01*
X162823440Y-119008336D01*
X162831668Y-119015856D01*
X162970535Y-119154723D01*
X162970540Y-119154727D01*
X163142442Y-119279620D01*
X163331782Y-119376095D01*
X163533871Y-119441757D01*
X163600000Y-119452231D01*
X163600000Y-118404145D01*
X163666657Y-118442630D01*
X163787465Y-118475000D01*
X163912535Y-118475000D01*
X164033343Y-118442630D01*
X164100000Y-118404145D01*
X164100000Y-119452230D01*
X164166126Y-119441757D01*
X164166129Y-119441757D01*
X164368217Y-119376095D01*
X164557557Y-119279620D01*
X164729459Y-119154727D01*
X164729464Y-119154723D01*
X164879721Y-119004466D01*
X164999371Y-118839781D01*
X165054701Y-118797115D01*
X165124314Y-118791136D01*
X165186110Y-118823741D01*
X165200008Y-118839781D01*
X165319890Y-119004785D01*
X165319894Y-119004790D01*
X165470213Y-119155109D01*
X165642179Y-119280048D01*
X165642181Y-119280049D01*
X165642184Y-119280051D01*
X165831588Y-119376557D01*
X166033757Y-119442246D01*
X166243713Y-119475500D01*
X166243714Y-119475500D01*
X166456286Y-119475500D01*
X166456287Y-119475500D01*
X166666243Y-119442246D01*
X166868412Y-119376557D01*
X167057816Y-119280051D01*
X167079789Y-119264086D01*
X167229786Y-119155109D01*
X167229788Y-119155106D01*
X167229792Y-119155104D01*
X167380104Y-119004792D01*
X167380106Y-119004788D01*
X167380109Y-119004786D01*
X167505048Y-118832820D01*
X167505047Y-118832820D01*
X167505051Y-118832816D01*
X167601557Y-118643412D01*
X167667246Y-118441243D01*
X167700500Y-118231287D01*
X167700500Y-117768713D01*
X167667246Y-117558757D01*
X167601557Y-117356588D01*
X167505051Y-117167184D01*
X167505049Y-117167181D01*
X167505048Y-117167179D01*
X167380109Y-116995213D01*
X167229786Y-116844890D01*
X167057820Y-116719951D01*
X166868414Y-116623444D01*
X166868413Y-116623443D01*
X166868412Y-116623443D01*
X166666243Y-116557754D01*
X166666241Y-116557753D01*
X166666240Y-116557753D01*
X166504957Y-116532208D01*
X166456287Y-116524500D01*
X166243713Y-116524500D01*
X166195042Y-116532208D01*
X166033760Y-116557753D01*
X165831585Y-116623444D01*
X165642179Y-116719951D01*
X165470213Y-116844890D01*
X165319894Y-116995209D01*
X165319890Y-116995214D01*
X165200008Y-117160218D01*
X165144678Y-117202884D01*
X165075065Y-117208863D01*
X165013270Y-117176257D01*
X164999372Y-117160218D01*
X164879727Y-116995540D01*
X164879723Y-116995535D01*
X164729464Y-116845276D01*
X164729459Y-116845272D01*
X164557557Y-116720379D01*
X164368215Y-116623903D01*
X164166124Y-116558241D01*
X164100000Y-116547768D01*
X164100000Y-117595854D01*
X164033343Y-117557370D01*
X163912535Y-117525000D01*
X163787465Y-117525000D01*
X163666657Y-117557370D01*
X163600000Y-117595854D01*
X163600000Y-116547768D01*
X163599999Y-116547768D01*
X163533875Y-116558241D01*
X163331784Y-116623903D01*
X163142442Y-116720379D01*
X162970541Y-116845271D01*
X162831668Y-116984144D01*
X162770345Y-117017628D01*
X162700653Y-117012644D01*
X162644720Y-116970772D01*
X162638448Y-116961558D01*
X162542712Y-116806344D01*
X162418657Y-116682289D01*
X162418656Y-116682288D01*
X162269334Y-116590186D01*
X162102797Y-116535001D01*
X162102795Y-116535000D01*
X162061896Y-116530822D01*
X161997205Y-116504425D01*
X161957054Y-116447244D01*
X161950500Y-116407464D01*
X161950500Y-108393713D01*
X164304500Y-108393713D01*
X164304500Y-108606286D01*
X164325861Y-108741158D01*
X164337754Y-108816243D01*
X164398205Y-109002292D01*
X164403444Y-109018414D01*
X164499951Y-109207820D01*
X164624890Y-109379786D01*
X164763705Y-109518601D01*
X164797190Y-109579924D01*
X164792206Y-109649616D01*
X164750334Y-109705549D01*
X164741121Y-109711821D01*
X164586342Y-109807289D01*
X164462289Y-109931342D01*
X164370187Y-110080663D01*
X164370186Y-110080666D01*
X164315001Y-110247203D01*
X164315001Y-110247204D01*
X164315000Y-110247204D01*
X164304500Y-110349983D01*
X164304500Y-111650001D01*
X164304501Y-111650018D01*
X164315000Y-111752796D01*
X164315001Y-111752799D01*
X164330808Y-111800500D01*
X164370186Y-111919334D01*
X164462288Y-112068656D01*
X164586344Y-112192712D01*
X164735666Y-112284814D01*
X164902203Y-112339999D01*
X165004991Y-112350500D01*
X166605008Y-112350499D01*
X166707797Y-112339999D01*
X166874334Y-112284814D01*
X167023656Y-112192712D01*
X167147712Y-112068656D01*
X167239814Y-111919334D01*
X167294999Y-111752797D01*
X167305500Y-111650009D01*
X167305499Y-110349992D01*
X167294999Y-110247203D01*
X167239814Y-110080666D01*
X167147712Y-109931344D01*
X167023656Y-109807288D01*
X166874334Y-109715186D01*
X166874333Y-109715185D01*
X166868878Y-109711821D01*
X166822154Y-109659873D01*
X166810931Y-109590910D01*
X166838775Y-109526828D01*
X166846272Y-109518623D01*
X166985104Y-109379792D01*
X167041247Y-109302518D01*
X167110048Y-109207820D01*
X167110047Y-109207820D01*
X167110051Y-109207816D01*
X167206557Y-109018412D01*
X167272246Y-108816243D01*
X167305500Y-108606287D01*
X167305500Y-108393713D01*
X167272246Y-108183757D01*
X167206557Y-107981588D01*
X167110051Y-107792184D01*
X167110049Y-107792181D01*
X167110048Y-107792179D01*
X166985109Y-107620213D01*
X166834786Y-107469890D01*
X166662820Y-107344951D01*
X166473414Y-107248444D01*
X166473413Y-107248443D01*
X166473412Y-107248443D01*
X166271243Y-107182754D01*
X166271241Y-107182753D01*
X166271240Y-107182753D01*
X166109957Y-107157208D01*
X166061287Y-107149500D01*
X165548713Y-107149500D01*
X165500042Y-107157208D01*
X165338760Y-107182753D01*
X165338757Y-107182754D01*
X165182612Y-107233489D01*
X165136585Y-107248444D01*
X164947179Y-107344951D01*
X164775213Y-107469890D01*
X164624890Y-107620213D01*
X164499951Y-107792179D01*
X164403444Y-107981585D01*
X164337753Y-108183760D01*
X164304500Y-108393713D01*
X161950500Y-108393713D01*
X161950500Y-106425316D01*
X161959939Y-106377864D01*
X161999688Y-106281900D01*
X162019737Y-106233497D01*
X162050500Y-106078842D01*
X162050500Y-105921158D01*
X162050500Y-105921155D01*
X162050499Y-105921153D01*
X162019738Y-105766510D01*
X162019737Y-105766503D01*
X162013425Y-105751264D01*
X161959397Y-105620827D01*
X161959390Y-105620814D01*
X161871789Y-105489711D01*
X161871786Y-105489707D01*
X161760292Y-105378213D01*
X161760288Y-105378210D01*
X161629185Y-105290609D01*
X161629172Y-105290602D01*
X161483501Y-105230264D01*
X161483489Y-105230261D01*
X161328845Y-105199500D01*
X161328842Y-105199500D01*
X161171158Y-105199500D01*
X161171155Y-105199500D01*
X161016510Y-105230261D01*
X161016498Y-105230264D01*
X160870827Y-105290602D01*
X160870814Y-105290609D01*
X160739711Y-105378210D01*
X160739707Y-105378213D01*
X160628213Y-105489707D01*
X160628210Y-105489711D01*
X160540609Y-105620814D01*
X160540602Y-105620827D01*
X160480264Y-105766498D01*
X160480261Y-105766510D01*
X160449500Y-105921153D01*
X160449500Y-106078846D01*
X160480261Y-106233489D01*
X160480264Y-106233501D01*
X160540602Y-106379172D01*
X160540609Y-106379185D01*
X160628209Y-106510287D01*
X160628210Y-106510288D01*
X160628211Y-106510289D01*
X160713182Y-106595260D01*
X160746666Y-106656581D01*
X160749500Y-106682940D01*
X160749500Y-112818059D01*
X160729815Y-112885098D01*
X160677011Y-112930853D01*
X160607853Y-112940797D01*
X160544297Y-112911772D01*
X160537819Y-112905740D01*
X160510292Y-112878213D01*
X160510288Y-112878210D01*
X160379185Y-112790609D01*
X160379172Y-112790602D01*
X160233501Y-112730264D01*
X160233489Y-112730261D01*
X160078845Y-112699500D01*
X160078842Y-112699500D01*
X159921158Y-112699500D01*
X159921155Y-112699500D01*
X159766510Y-112730261D01*
X159766498Y-112730264D01*
X159620827Y-112790602D01*
X159620814Y-112790609D01*
X159489125Y-112878602D01*
X159422447Y-112899480D01*
X159420234Y-112899500D01*
X154113742Y-112899500D01*
X154046703Y-112879815D01*
X154000948Y-112827011D01*
X153991004Y-112757853D01*
X154020029Y-112694297D01*
X154026061Y-112687819D01*
X154877060Y-111836819D01*
X154938383Y-111803334D01*
X154964741Y-111800500D01*
X155078844Y-111800500D01*
X155078845Y-111800499D01*
X155233497Y-111769737D01*
X155379179Y-111709394D01*
X155510289Y-111621789D01*
X155621789Y-111510289D01*
X155709394Y-111379179D01*
X155769737Y-111233497D01*
X155800500Y-111078842D01*
X155800500Y-110921158D01*
X155800500Y-110921155D01*
X155800499Y-110921153D01*
X155769737Y-110766503D01*
X155769735Y-110766498D01*
X155709397Y-110620827D01*
X155709390Y-110620814D01*
X155621789Y-110489711D01*
X155621786Y-110489707D01*
X155510292Y-110378213D01*
X155510288Y-110378210D01*
X155379185Y-110290609D01*
X155379172Y-110290602D01*
X155233501Y-110230264D01*
X155233489Y-110230261D01*
X155078845Y-110199500D01*
X155078842Y-110199500D01*
X154921158Y-110199500D01*
X154921155Y-110199500D01*
X154766510Y-110230261D01*
X154766498Y-110230264D01*
X154620827Y-110290602D01*
X154620814Y-110290609D01*
X154489711Y-110378210D01*
X154489707Y-110378213D01*
X154378213Y-110489707D01*
X154378210Y-110489711D01*
X154290609Y-110620814D01*
X154290602Y-110620827D01*
X154230263Y-110766500D01*
X154230261Y-110766508D01*
X154215413Y-110841152D01*
X154183027Y-110903063D01*
X154181477Y-110904641D01*
X153022939Y-112063181D01*
X152961616Y-112096666D01*
X152935258Y-112099500D01*
X152921155Y-112099500D01*
X152766510Y-112130261D01*
X152766498Y-112130264D01*
X152620827Y-112190602D01*
X152620814Y-112190609D01*
X152489711Y-112278210D01*
X152489707Y-112278213D01*
X152378213Y-112389707D01*
X152378210Y-112389711D01*
X152290609Y-112520814D01*
X152290602Y-112520827D01*
X152230264Y-112666498D01*
X152230261Y-112666508D01*
X152203769Y-112799692D01*
X152171384Y-112861603D01*
X152110668Y-112896177D01*
X152082152Y-112899500D01*
X151300098Y-112899500D01*
X151233059Y-112879815D01*
X151212417Y-112863181D01*
X144136819Y-105787583D01*
X144103334Y-105726260D01*
X144100500Y-105699902D01*
X144100500Y-103612501D01*
X145640204Y-103612501D01*
X145640399Y-103614986D01*
X145686218Y-103772698D01*
X145769814Y-103914052D01*
X145769821Y-103914061D01*
X145885938Y-104030178D01*
X145885947Y-104030185D01*
X146027303Y-104113782D01*
X146027306Y-104113783D01*
X146185004Y-104159599D01*
X146185010Y-104159600D01*
X146221850Y-104162499D01*
X146221866Y-104162500D01*
X146625000Y-104162500D01*
X147125000Y-104162500D01*
X147528134Y-104162500D01*
X147528149Y-104162499D01*
X147564989Y-104159600D01*
X147564995Y-104159599D01*
X147722693Y-104113783D01*
X147722696Y-104113782D01*
X147864052Y-104030185D01*
X147864061Y-104030178D01*
X147980178Y-103914061D01*
X147980185Y-103914052D01*
X148063781Y-103772698D01*
X148109600Y-103614986D01*
X148109795Y-103612501D01*
X148109795Y-103612500D01*
X147125000Y-103612500D01*
X147125000Y-104162500D01*
X146625000Y-104162500D01*
X146625000Y-103612500D01*
X145640205Y-103612500D01*
X145640204Y-103612501D01*
X144100500Y-103612501D01*
X144100500Y-103314405D01*
X144120185Y-103247366D01*
X144172989Y-103201611D01*
X144242147Y-103191667D01*
X144259095Y-103195329D01*
X144309926Y-103210097D01*
X144309929Y-103210097D01*
X144309931Y-103210098D01*
X144346806Y-103213000D01*
X144346814Y-103213000D01*
X145653186Y-103213000D01*
X145653194Y-103213000D01*
X145690069Y-103210098D01*
X145690071Y-103210097D01*
X145690073Y-103210097D01*
X145753508Y-103191667D01*
X145847898Y-103164244D01*
X145906194Y-103129768D01*
X145969315Y-103112500D01*
X148109795Y-103112500D01*
X148113244Y-103108768D01*
X148124888Y-103053349D01*
X148173941Y-103003593D01*
X148234140Y-102988000D01*
X150804559Y-102988000D01*
X150871598Y-103007685D01*
X150892240Y-103024319D01*
X150989707Y-103121786D01*
X150989711Y-103121789D01*
X151120814Y-103209390D01*
X151120827Y-103209397D01*
X151194578Y-103239945D01*
X151266503Y-103269737D01*
X151421153Y-103300499D01*
X151421156Y-103300500D01*
X151421158Y-103300500D01*
X151578844Y-103300500D01*
X151578845Y-103300499D01*
X151733497Y-103269737D01*
X151787390Y-103247413D01*
X151856859Y-103239945D01*
X151919338Y-103271220D01*
X151954990Y-103331309D01*
X151956460Y-103386164D01*
X151949500Y-103421157D01*
X151949500Y-103578846D01*
X151980261Y-103733489D01*
X151980264Y-103733501D01*
X152040602Y-103879172D01*
X152040609Y-103879185D01*
X152128602Y-104010874D01*
X152149480Y-104077551D01*
X152149500Y-104079765D01*
X152149500Y-105670234D01*
X152129815Y-105737273D01*
X152128602Y-105739125D01*
X152040609Y-105870814D01*
X152040602Y-105870827D01*
X151980264Y-106016498D01*
X151980261Y-106016510D01*
X151949500Y-106171153D01*
X151949500Y-106328846D01*
X151980261Y-106483489D01*
X151980264Y-106483501D01*
X152040602Y-106629172D01*
X152040609Y-106629185D01*
X152128210Y-106760288D01*
X152128213Y-106760292D01*
X152239707Y-106871786D01*
X152239711Y-106871789D01*
X152370814Y-106959390D01*
X152370827Y-106959397D01*
X152516498Y-107019735D01*
X152516503Y-107019737D01*
X152610247Y-107038384D01*
X152613535Y-107039038D01*
X152675446Y-107071422D01*
X152710020Y-107132138D01*
X152710961Y-107136463D01*
X152730261Y-107233491D01*
X152730264Y-107233501D01*
X152790602Y-107379172D01*
X152790609Y-107379185D01*
X152878210Y-107510288D01*
X152878213Y-107510292D01*
X152989707Y-107621786D01*
X152989711Y-107621789D01*
X153120814Y-107709390D01*
X153120827Y-107709397D01*
X153248599Y-107762321D01*
X153266503Y-107769737D01*
X153379326Y-107792179D01*
X153421153Y-107800499D01*
X153421156Y-107800500D01*
X153421158Y-107800500D01*
X153578844Y-107800500D01*
X153578845Y-107800499D01*
X153733497Y-107769737D01*
X153879179Y-107709394D01*
X154010289Y-107621789D01*
X154121789Y-107510289D01*
X154209394Y-107379179D01*
X154269737Y-107233497D01*
X154300500Y-107078842D01*
X154300500Y-106921158D01*
X154300500Y-106921155D01*
X154300499Y-106921153D01*
X154269738Y-106766510D01*
X154269737Y-106766503D01*
X154267163Y-106760288D01*
X154209397Y-106620827D01*
X154209390Y-106620814D01*
X154121789Y-106489711D01*
X154121786Y-106489707D01*
X154111819Y-106479740D01*
X154097115Y-106452812D01*
X154080523Y-106426994D01*
X154079631Y-106420793D01*
X154078334Y-106418417D01*
X154075500Y-106392059D01*
X154075500Y-106258572D01*
X154095185Y-106191533D01*
X154147989Y-106145778D01*
X154175299Y-106136956D01*
X154259497Y-106120209D01*
X154405179Y-106059866D01*
X154536289Y-105972261D01*
X154647789Y-105860761D01*
X154735394Y-105729651D01*
X154795737Y-105583969D01*
X154826500Y-105429314D01*
X154826500Y-105271630D01*
X154826500Y-105271627D01*
X154826499Y-105271625D01*
X154818272Y-105230264D01*
X154795737Y-105116975D01*
X154775177Y-105067339D01*
X154735397Y-104971299D01*
X154735390Y-104971286D01*
X154647789Y-104840183D01*
X154647786Y-104840179D01*
X154536292Y-104728685D01*
X154536288Y-104728682D01*
X154405185Y-104641081D01*
X154405172Y-104641074D01*
X154259501Y-104580736D01*
X154259489Y-104580733D01*
X154104845Y-104549972D01*
X154104842Y-104549972D01*
X153947158Y-104549972D01*
X153947155Y-104549972D01*
X153792510Y-104580733D01*
X153792498Y-104580736D01*
X153646827Y-104641074D01*
X153646814Y-104641081D01*
X153543391Y-104710187D01*
X153476713Y-104731065D01*
X153409333Y-104712580D01*
X153362643Y-104660601D01*
X153350500Y-104607085D01*
X153350500Y-104079765D01*
X153370185Y-104012726D01*
X153371398Y-104010874D01*
X153459390Y-103879185D01*
X153459390Y-103879184D01*
X153459394Y-103879179D01*
X153519737Y-103733497D01*
X153550500Y-103578842D01*
X153550500Y-103421158D01*
X153550500Y-103421157D01*
X153550500Y-103421155D01*
X153550499Y-103421153D01*
X153519738Y-103266510D01*
X153519737Y-103266503D01*
X153511810Y-103247366D01*
X153459397Y-103120827D01*
X153459390Y-103120814D01*
X153371789Y-102989711D01*
X153371786Y-102989707D01*
X153260292Y-102878213D01*
X153260288Y-102878210D01*
X153129185Y-102790609D01*
X153129172Y-102790602D01*
X152983501Y-102730264D01*
X152983489Y-102730261D01*
X152828845Y-102699500D01*
X152828842Y-102699500D01*
X152671158Y-102699500D01*
X152671155Y-102699500D01*
X152516510Y-102730261D01*
X152516499Y-102730264D01*
X152462607Y-102752586D01*
X152393138Y-102760053D01*
X152330659Y-102728777D01*
X152295008Y-102668688D01*
X152293540Y-102613831D01*
X152300500Y-102578843D01*
X152300500Y-102421155D01*
X152300499Y-102421153D01*
X152269738Y-102266510D01*
X152269737Y-102266503D01*
X152209794Y-102121786D01*
X152209397Y-102120827D01*
X152209390Y-102120814D01*
X152121789Y-101989711D01*
X152121786Y-101989707D01*
X152010292Y-101878213D01*
X152010288Y-101878210D01*
X151879185Y-101790609D01*
X151879172Y-101790602D01*
X151733501Y-101730264D01*
X151733489Y-101730261D01*
X151578845Y-101699500D01*
X151578842Y-101699500D01*
X151421158Y-101699500D01*
X151421155Y-101699500D01*
X151266510Y-101730261D01*
X151266503Y-101730263D01*
X151163184Y-101773058D01*
X151093715Y-101780526D01*
X151031236Y-101749250D01*
X150995584Y-101689161D01*
X150998079Y-101619335D01*
X151028052Y-101570815D01*
X151042712Y-101556156D01*
X151134814Y-101406834D01*
X151189999Y-101240297D01*
X151200500Y-101137509D01*
X151200499Y-100716153D01*
X162449500Y-100716153D01*
X162449500Y-100873846D01*
X162480261Y-101028489D01*
X162480264Y-101028501D01*
X162540602Y-101174172D01*
X162540609Y-101174185D01*
X162628210Y-101305288D01*
X162628213Y-101305292D01*
X162739710Y-101416789D01*
X162870815Y-101504390D01*
X162870821Y-101504394D01*
X162879193Y-101507861D01*
X162933594Y-101551701D01*
X162953356Y-101598230D01*
X162980261Y-101733491D01*
X162980264Y-101733501D01*
X163040602Y-101879172D01*
X163040609Y-101879185D01*
X163128210Y-102010288D01*
X163128213Y-102010292D01*
X163239707Y-102121786D01*
X163239711Y-102121789D01*
X163370814Y-102209390D01*
X163370827Y-102209397D01*
X163508683Y-102266498D01*
X163516503Y-102269737D01*
X163671153Y-102300499D01*
X163671156Y-102300500D01*
X163671158Y-102300500D01*
X163828844Y-102300500D01*
X163828845Y-102300499D01*
X163983497Y-102269737D01*
X164129179Y-102209394D01*
X164129185Y-102209390D01*
X164260875Y-102121398D01*
X164327553Y-102100520D01*
X164329766Y-102100500D01*
X165629213Y-102100500D01*
X165629229Y-102100501D01*
X165636825Y-102100501D01*
X165794936Y-102100501D01*
X165794939Y-102100501D01*
X165947667Y-102059577D01*
X166025976Y-102014365D01*
X166084598Y-101980520D01*
X166196402Y-101868716D01*
X166196402Y-101868714D01*
X166206606Y-101858511D01*
X166206610Y-101858506D01*
X167324388Y-100740728D01*
X167324393Y-100740724D01*
X167334596Y-100730520D01*
X167334598Y-100730520D01*
X167446402Y-100618716D01*
X167507730Y-100512492D01*
X167525459Y-100481785D01*
X167566383Y-100329057D01*
X167566383Y-100170943D01*
X167566383Y-100163348D01*
X167566382Y-100163330D01*
X167566382Y-96444000D01*
X167586067Y-96376961D01*
X167638871Y-96331206D01*
X167690382Y-96320000D01*
X168070000Y-96320000D01*
X168070000Y-95620000D01*
X168570000Y-95620000D01*
X168570000Y-96320000D01*
X168968492Y-96320000D01*
X168968495Y-96319999D01*
X169161681Y-96281572D01*
X169161693Y-96281569D01*
X169343671Y-96206192D01*
X169343684Y-96206185D01*
X169507462Y-96096751D01*
X169507466Y-96096748D01*
X169646748Y-95957466D01*
X169646751Y-95957462D01*
X169756185Y-95793684D01*
X169756192Y-95793671D01*
X169831569Y-95611692D01*
X169831569Y-95611690D01*
X169839862Y-95570000D01*
X169036988Y-95570000D01*
X169054205Y-95560060D01*
X169110060Y-95504205D01*
X169149556Y-95435796D01*
X169170000Y-95359496D01*
X169170000Y-95280504D01*
X169149556Y-95204204D01*
X169110060Y-95135795D01*
X169054205Y-95079940D01*
X169036988Y-95070000D01*
X169839862Y-95070000D01*
X171130138Y-95070000D01*
X171933012Y-95070000D01*
X171915795Y-95079940D01*
X171859940Y-95135795D01*
X171820444Y-95204204D01*
X171800000Y-95280504D01*
X171800000Y-95359496D01*
X171820444Y-95435796D01*
X171859940Y-95504205D01*
X171915795Y-95560060D01*
X171933012Y-95570000D01*
X171130138Y-95570000D01*
X171138430Y-95611690D01*
X171138430Y-95611692D01*
X171213807Y-95793671D01*
X171213814Y-95793684D01*
X171323248Y-95957462D01*
X171323251Y-95957466D01*
X171462533Y-96096748D01*
X171462537Y-96096751D01*
X171626315Y-96206185D01*
X171626328Y-96206192D01*
X171808306Y-96281569D01*
X171808318Y-96281572D01*
X172001504Y-96319999D01*
X172001508Y-96320000D01*
X172250000Y-96320000D01*
X172250000Y-95620000D01*
X172750000Y-95620000D01*
X172750000Y-96320000D01*
X172998492Y-96320000D01*
X172998495Y-96319999D01*
X173191681Y-96281572D01*
X173191693Y-96281569D01*
X173373671Y-96206192D01*
X173373684Y-96206185D01*
X173537462Y-96096751D01*
X173537466Y-96096748D01*
X173676748Y-95957466D01*
X173676751Y-95957462D01*
X173786185Y-95793684D01*
X173786192Y-95793671D01*
X173861569Y-95611692D01*
X173861569Y-95611690D01*
X173869862Y-95570000D01*
X173066988Y-95570000D01*
X173084205Y-95560060D01*
X173140060Y-95504205D01*
X173179556Y-95435796D01*
X173200000Y-95359496D01*
X173200000Y-95280504D01*
X173179556Y-95204204D01*
X173140060Y-95135795D01*
X173084205Y-95079940D01*
X173066988Y-95070000D01*
X173869862Y-95070000D01*
X173861569Y-95028309D01*
X173861569Y-95028307D01*
X173786192Y-94846328D01*
X173786185Y-94846315D01*
X173676751Y-94682537D01*
X173676748Y-94682533D01*
X173537466Y-94543251D01*
X173537462Y-94543248D01*
X173373684Y-94433814D01*
X173373671Y-94433807D01*
X173191693Y-94358430D01*
X173191681Y-94358427D01*
X172998495Y-94320000D01*
X172750000Y-94320000D01*
X172750000Y-95020000D01*
X172250000Y-95020000D01*
X172250000Y-94320000D01*
X172001504Y-94320000D01*
X171808318Y-94358427D01*
X171808306Y-94358430D01*
X171626328Y-94433807D01*
X171626315Y-94433814D01*
X171462537Y-94543248D01*
X171462533Y-94543251D01*
X171323251Y-94682533D01*
X171323248Y-94682537D01*
X171213814Y-94846315D01*
X171213807Y-94846328D01*
X171138430Y-95028307D01*
X171138430Y-95028309D01*
X171130138Y-95070000D01*
X169839862Y-95070000D01*
X169831569Y-95028309D01*
X169831569Y-95028307D01*
X169756192Y-94846328D01*
X169756185Y-94846315D01*
X169646751Y-94682537D01*
X169646748Y-94682533D01*
X169507466Y-94543251D01*
X169507462Y-94543248D01*
X169343684Y-94433814D01*
X169343675Y-94433809D01*
X169185801Y-94368416D01*
X169131398Y-94324575D01*
X169109333Y-94258281D01*
X169126612Y-94190582D01*
X169145571Y-94166176D01*
X169160485Y-94151263D01*
X169216503Y-94054237D01*
X169245500Y-93946018D01*
X169245500Y-93833982D01*
X169216503Y-93725763D01*
X169160485Y-93628737D01*
X169081263Y-93549515D01*
X169042720Y-93527262D01*
X168994504Y-93476695D01*
X168981282Y-93408088D01*
X169007250Y-93343223D01*
X169017030Y-93332203D01*
X170730519Y-91618716D01*
X170789078Y-91560157D01*
X170789091Y-91560142D01*
X171272180Y-91077053D01*
X171333501Y-91043570D01*
X171384051Y-91043119D01*
X171421156Y-91050500D01*
X171421158Y-91050500D01*
X171578844Y-91050500D01*
X171578845Y-91050499D01*
X171733497Y-91019737D01*
X171879179Y-90959394D01*
X172010289Y-90871789D01*
X172121789Y-90760289D01*
X172209394Y-90629179D01*
X172212854Y-90620827D01*
X172267164Y-90489708D01*
X172269737Y-90483497D01*
X172300500Y-90328842D01*
X172300500Y-90171158D01*
X172300500Y-90171155D01*
X172300499Y-90171153D01*
X172269738Y-90016510D01*
X172269737Y-90016503D01*
X172269735Y-90016498D01*
X172209397Y-89870827D01*
X172209390Y-89870814D01*
X172121789Y-89739711D01*
X172121786Y-89739707D01*
X172010292Y-89628213D01*
X172010288Y-89628210D01*
X171879185Y-89540609D01*
X171879172Y-89540602D01*
X171733501Y-89480264D01*
X171733489Y-89480261D01*
X171578845Y-89449500D01*
X171578842Y-89449500D01*
X171421158Y-89449500D01*
X171421155Y-89449500D01*
X171266510Y-89480261D01*
X171266498Y-89480264D01*
X171120827Y-89540602D01*
X171120814Y-89540609D01*
X170989711Y-89628210D01*
X170989707Y-89628213D01*
X170878217Y-89739704D01*
X170878214Y-89739706D01*
X170818860Y-89828534D01*
X170803440Y-89847322D01*
X170094491Y-90556272D01*
X170033168Y-90589757D01*
X169963477Y-90584773D01*
X169907543Y-90542902D01*
X169903723Y-90537504D01*
X169871789Y-90489711D01*
X169871787Y-90489708D01*
X169760292Y-90378213D01*
X169760288Y-90378210D01*
X169629185Y-90290609D01*
X169629172Y-90290602D01*
X169483501Y-90230264D01*
X169483489Y-90230261D01*
X169328845Y-90199500D01*
X169328842Y-90199500D01*
X169171158Y-90199500D01*
X169171155Y-90199500D01*
X169016510Y-90230261D01*
X169016498Y-90230264D01*
X168870827Y-90290602D01*
X168870814Y-90290609D01*
X168739711Y-90378210D01*
X168739707Y-90378213D01*
X168628213Y-90489707D01*
X168628210Y-90489711D01*
X168540609Y-90620814D01*
X168540602Y-90620827D01*
X168480264Y-90766498D01*
X168480261Y-90766508D01*
X168449361Y-90921850D01*
X168416976Y-90983761D01*
X168415425Y-90985339D01*
X166075481Y-93325282D01*
X166075479Y-93325285D01*
X166065123Y-93343223D01*
X166027674Y-93408088D01*
X166025361Y-93412094D01*
X166025359Y-93412096D01*
X165996425Y-93462209D01*
X165996424Y-93462210D01*
X165996423Y-93462215D01*
X165955499Y-93614943D01*
X165955499Y-93614945D01*
X165955499Y-93783046D01*
X165955500Y-93783059D01*
X165955500Y-97188903D01*
X165935815Y-97255942D01*
X165919181Y-97276584D01*
X163235339Y-99960425D01*
X163174016Y-99993910D01*
X163171850Y-99994361D01*
X163016508Y-100025261D01*
X163016498Y-100025264D01*
X162870827Y-100085602D01*
X162870814Y-100085609D01*
X162739711Y-100173210D01*
X162739707Y-100173213D01*
X162628213Y-100284707D01*
X162628210Y-100284711D01*
X162540609Y-100415814D01*
X162540602Y-100415827D01*
X162480264Y-100561498D01*
X162480261Y-100561510D01*
X162449500Y-100716153D01*
X151200499Y-100716153D01*
X151200499Y-100512492D01*
X151189999Y-100409703D01*
X151134814Y-100243166D01*
X151042712Y-100093844D01*
X150949049Y-100000181D01*
X150915564Y-99938858D01*
X150920548Y-99869166D01*
X150949049Y-99824819D01*
X151042712Y-99731156D01*
X151102389Y-99634402D01*
X151154337Y-99587679D01*
X151207928Y-99575500D01*
X155795764Y-99575500D01*
X155795766Y-99575500D01*
X155942135Y-99536281D01*
X156073365Y-99460515D01*
X158328107Y-97205773D01*
X158403873Y-97074543D01*
X158443092Y-96928174D01*
X158443092Y-96776641D01*
X158443092Y-96735026D01*
X158462777Y-96667987D01*
X158479414Y-96647342D01*
X158489379Y-96637377D01*
X158489381Y-96637375D01*
X158576986Y-96506265D01*
X158637329Y-96360583D01*
X158668092Y-96205928D01*
X158668092Y-96048244D01*
X158668092Y-96048241D01*
X158668091Y-96048239D01*
X158652306Y-95968882D01*
X158637329Y-95893589D01*
X158616962Y-95844419D01*
X158576989Y-95747913D01*
X158576982Y-95747900D01*
X158489381Y-95616797D01*
X158489378Y-95616793D01*
X158377884Y-95505299D01*
X158377880Y-95505296D01*
X158246777Y-95417695D01*
X158246764Y-95417688D01*
X158101093Y-95357350D01*
X158101081Y-95357347D01*
X157946437Y-95326586D01*
X157946434Y-95326586D01*
X157788750Y-95326586D01*
X157788747Y-95326586D01*
X157634102Y-95357347D01*
X157634090Y-95357350D01*
X157488419Y-95417688D01*
X157488406Y-95417695D01*
X157357303Y-95505296D01*
X157357299Y-95505299D01*
X157245805Y-95616793D01*
X157245802Y-95616797D01*
X157158201Y-95747900D01*
X157158194Y-95747913D01*
X157097856Y-95893584D01*
X157097853Y-95893596D01*
X157067092Y-96048239D01*
X157067092Y-96205932D01*
X157097853Y-96360575D01*
X157097856Y-96360587D01*
X157158194Y-96506258D01*
X157158200Y-96506269D01*
X157198455Y-96566515D01*
X157219332Y-96633192D01*
X157200847Y-96700572D01*
X157183033Y-96723086D01*
X155517939Y-98388181D01*
X155456616Y-98421666D01*
X155430258Y-98424500D01*
X151207928Y-98424500D01*
X151140889Y-98404815D01*
X151102389Y-98365597D01*
X151042712Y-98268844D01*
X150918656Y-98144788D01*
X150769334Y-98052686D01*
X150602797Y-97997501D01*
X150602795Y-97997500D01*
X150500010Y-97987000D01*
X149499998Y-97987000D01*
X149499980Y-97987001D01*
X149397203Y-97997500D01*
X149397200Y-97997501D01*
X149230668Y-98052685D01*
X149230663Y-98052687D01*
X149081342Y-98144789D01*
X148957289Y-98268842D01*
X148957288Y-98268844D01*
X148905991Y-98352011D01*
X148897611Y-98365597D01*
X148845663Y-98412321D01*
X148792072Y-98424500D01*
X148237000Y-98424500D01*
X148169961Y-98404815D01*
X148124206Y-98352011D01*
X148113000Y-98300500D01*
X148113000Y-98196813D01*
X148112999Y-98196798D01*
X148111649Y-98179647D01*
X148110098Y-98159931D01*
X148064244Y-98002102D01*
X147980581Y-97860635D01*
X147980579Y-97860633D01*
X147980576Y-97860629D01*
X147864370Y-97744423D01*
X147864362Y-97744417D01*
X147722896Y-97660755D01*
X147722893Y-97660754D01*
X147565073Y-97614902D01*
X147565067Y-97614901D01*
X147528201Y-97612000D01*
X147528194Y-97612000D01*
X146362000Y-97612000D01*
X146353314Y-97609449D01*
X146344353Y-97610738D01*
X146320312Y-97599759D01*
X146294961Y-97592315D01*
X146289033Y-97585474D01*
X146280797Y-97581713D01*
X146266507Y-97559478D01*
X146249206Y-97539511D01*
X146246918Y-97528996D01*
X146243023Y-97522935D01*
X146238000Y-97488000D01*
X146238000Y-97437000D01*
X146257685Y-97369961D01*
X146310489Y-97324206D01*
X146362000Y-97313000D01*
X147528186Y-97313000D01*
X147528194Y-97313000D01*
X147565069Y-97310098D01*
X147565071Y-97310097D01*
X147565073Y-97310097D01*
X147606691Y-97298005D01*
X147722898Y-97264244D01*
X147864365Y-97180581D01*
X147929073Y-97115872D01*
X147990394Y-97082389D01*
X148060086Y-97087373D01*
X148116020Y-97129244D01*
X148134458Y-97164549D01*
X148140183Y-97181827D01*
X148140187Y-97181836D01*
X148154953Y-97205775D01*
X148232288Y-97331156D01*
X148356344Y-97455212D01*
X148505666Y-97547314D01*
X148672203Y-97602499D01*
X148774991Y-97613000D01*
X149400008Y-97612999D01*
X149400016Y-97612998D01*
X149400019Y-97612998D01*
X149456302Y-97607248D01*
X149502797Y-97602499D01*
X149669334Y-97547314D01*
X149818656Y-97455212D01*
X149912675Y-97361192D01*
X149973994Y-97327710D01*
X150043686Y-97332694D01*
X150088034Y-97361195D01*
X150181654Y-97454815D01*
X150330875Y-97546856D01*
X150330880Y-97546858D01*
X150497302Y-97602005D01*
X150497309Y-97602006D01*
X150600019Y-97612499D01*
X151162500Y-97612499D01*
X151224972Y-97612499D01*
X151224986Y-97612498D01*
X151327697Y-97602005D01*
X151494119Y-97546858D01*
X151494124Y-97546856D01*
X151643345Y-97454815D01*
X151767315Y-97330845D01*
X151859356Y-97181624D01*
X151859358Y-97181619D01*
X151914505Y-97015197D01*
X151914506Y-97015190D01*
X151924999Y-96912486D01*
X151925000Y-96912473D01*
X151925000Y-96662500D01*
X151162500Y-96662500D01*
X151162500Y-97612499D01*
X150600019Y-97612499D01*
X150662499Y-97612498D01*
X150662500Y-97612498D01*
X150662500Y-96162500D01*
X151162500Y-96162500D01*
X151924999Y-96162500D01*
X151924999Y-95912528D01*
X151924998Y-95912513D01*
X151914505Y-95809802D01*
X151859358Y-95643380D01*
X151859356Y-95643375D01*
X151767315Y-95494154D01*
X151643345Y-95370184D01*
X151494124Y-95278143D01*
X151494119Y-95278141D01*
X151327697Y-95222994D01*
X151327690Y-95222993D01*
X151224986Y-95212500D01*
X151162500Y-95212500D01*
X151162500Y-96162500D01*
X150662500Y-96162500D01*
X150662500Y-95212500D01*
X150662499Y-95212499D01*
X150600028Y-95212500D01*
X150600011Y-95212501D01*
X150497302Y-95222994D01*
X150330880Y-95278141D01*
X150330875Y-95278143D01*
X150181657Y-95370182D01*
X150088034Y-95463805D01*
X150026710Y-95497289D01*
X149957019Y-95492305D01*
X149912672Y-95463804D01*
X149818657Y-95369789D01*
X149818656Y-95369788D01*
X149669334Y-95277686D01*
X149502797Y-95222501D01*
X149502795Y-95222500D01*
X149400010Y-95212000D01*
X148774998Y-95212000D01*
X148774980Y-95212001D01*
X148672203Y-95222500D01*
X148672200Y-95222501D01*
X148505668Y-95277685D01*
X148505663Y-95277687D01*
X148356342Y-95369789D01*
X148232289Y-95493842D01*
X148140187Y-95643163D01*
X148140185Y-95643168D01*
X148140115Y-95643380D01*
X148105477Y-95747913D01*
X148104121Y-95752004D01*
X148090250Y-95772036D01*
X148080128Y-95794203D01*
X148070715Y-95800251D01*
X148064348Y-95809449D01*
X148041848Y-95818803D01*
X148021350Y-95831977D01*
X148004249Y-95834435D01*
X147999833Y-95836272D01*
X147986415Y-95837000D01*
X147885742Y-95837000D01*
X147822621Y-95819732D01*
X147821050Y-95818803D01*
X147722898Y-95760756D01*
X147722897Y-95760755D01*
X147722896Y-95760755D01*
X147722893Y-95760754D01*
X147565073Y-95714902D01*
X147565067Y-95714901D01*
X147528201Y-95712000D01*
X147528194Y-95712000D01*
X146221806Y-95712000D01*
X146221798Y-95712000D01*
X146184932Y-95714901D01*
X146184926Y-95714902D01*
X146027106Y-95760754D01*
X146027103Y-95760755D01*
X145885637Y-95844417D01*
X145885629Y-95844423D01*
X145769423Y-95960629D01*
X145769417Y-95960637D01*
X145685755Y-96102103D01*
X145685754Y-96102106D01*
X145639902Y-96259926D01*
X145639901Y-96259932D01*
X145637000Y-96296798D01*
X145637000Y-96538000D01*
X145617315Y-96605039D01*
X145564511Y-96650794D01*
X145513000Y-96662000D01*
X144346798Y-96662000D01*
X144309932Y-96664901D01*
X144309926Y-96664902D01*
X144152106Y-96710754D01*
X144152103Y-96710755D01*
X144010637Y-96794417D01*
X144010633Y-96794420D01*
X143982503Y-96822550D01*
X143954371Y-96850682D01*
X143893051Y-96884166D01*
X143866692Y-96887000D01*
X141481734Y-96887000D01*
X141335363Y-96926219D01*
X141204135Y-97001985D01*
X141204132Y-97001987D01*
X136287181Y-101918939D01*
X136225858Y-101952424D01*
X136156166Y-101947440D01*
X136100233Y-101905568D01*
X136075816Y-101840104D01*
X136075500Y-101831258D01*
X136075500Y-89107940D01*
X136095185Y-89040901D01*
X136111822Y-89020256D01*
X136121787Y-89010291D01*
X136121789Y-89010289D01*
X136209394Y-88879179D01*
X136269737Y-88733497D01*
X136300500Y-88578842D01*
X136300500Y-88451153D01*
X152199500Y-88451153D01*
X152199500Y-88608846D01*
X152230261Y-88763489D01*
X152230264Y-88763501D01*
X152290602Y-88909172D01*
X152290609Y-88909185D01*
X152378210Y-89040288D01*
X152378213Y-89040292D01*
X152489707Y-89151786D01*
X152489711Y-89151789D01*
X152620814Y-89239390D01*
X152620827Y-89239397D01*
X152766498Y-89299735D01*
X152766503Y-89299737D01*
X152921153Y-89330499D01*
X152921156Y-89330500D01*
X152921158Y-89330500D01*
X152935258Y-89330500D01*
X153002297Y-89350185D01*
X153022939Y-89366819D01*
X154388181Y-90732061D01*
X154421666Y-90793384D01*
X154424500Y-90819742D01*
X154424500Y-91392059D01*
X154404815Y-91459098D01*
X154388181Y-91479740D01*
X154378213Y-91489707D01*
X154378210Y-91489711D01*
X154290609Y-91620814D01*
X154290602Y-91620827D01*
X154230264Y-91766498D01*
X154230261Y-91766510D01*
X154199500Y-91921153D01*
X154199500Y-92078846D01*
X154230261Y-92233489D01*
X154230264Y-92233501D01*
X154290602Y-92379172D01*
X154290609Y-92379185D01*
X154378210Y-92510288D01*
X154378213Y-92510292D01*
X154489707Y-92621786D01*
X154489711Y-92621789D01*
X154620814Y-92709390D01*
X154620827Y-92709397D01*
X154766498Y-92769735D01*
X154766503Y-92769737D01*
X154921153Y-92800499D01*
X154921156Y-92800500D01*
X154921158Y-92800500D01*
X155078844Y-92800500D01*
X155078845Y-92800499D01*
X155233497Y-92769737D01*
X155379179Y-92709394D01*
X155510289Y-92621789D01*
X155621789Y-92510289D01*
X155709394Y-92379179D01*
X155769737Y-92233497D01*
X155800500Y-92078842D01*
X155800500Y-91921158D01*
X155800500Y-91921155D01*
X155800499Y-91921153D01*
X155769738Y-91766510D01*
X155769737Y-91766503D01*
X155767163Y-91760288D01*
X155709397Y-91620827D01*
X155709390Y-91620814D01*
X155621789Y-91489711D01*
X155621786Y-91489707D01*
X155611819Y-91479740D01*
X155578334Y-91418417D01*
X155575500Y-91392059D01*
X155575500Y-90454233D01*
X155571617Y-90439744D01*
X155571616Y-90439740D01*
X155555130Y-90378213D01*
X155536281Y-90307865D01*
X155460515Y-90176635D01*
X155455033Y-90171153D01*
X165449500Y-90171153D01*
X165449500Y-90328846D01*
X165480261Y-90483489D01*
X165480264Y-90483501D01*
X165540602Y-90629172D01*
X165540609Y-90629185D01*
X165575304Y-90681109D01*
X165596182Y-90747786D01*
X165577698Y-90815167D01*
X165575304Y-90818891D01*
X165540609Y-90870814D01*
X165540602Y-90870827D01*
X165480264Y-91016498D01*
X165480261Y-91016510D01*
X165449500Y-91171153D01*
X165449500Y-91328846D01*
X165480261Y-91483489D01*
X165480264Y-91483501D01*
X165540602Y-91629172D01*
X165540609Y-91629185D01*
X165628210Y-91760288D01*
X165628213Y-91760292D01*
X165739707Y-91871786D01*
X165739711Y-91871789D01*
X165870814Y-91959390D01*
X165870827Y-91959397D01*
X166016498Y-92019735D01*
X166016503Y-92019737D01*
X166171153Y-92050499D01*
X166171156Y-92050500D01*
X166171158Y-92050500D01*
X166328844Y-92050500D01*
X166328845Y-92050499D01*
X166483497Y-92019737D01*
X166629179Y-91959394D01*
X166760289Y-91871789D01*
X166871789Y-91760289D01*
X166959394Y-91629179D01*
X166962854Y-91620827D01*
X167017163Y-91489711D01*
X167019737Y-91483497D01*
X167050500Y-91328842D01*
X167050500Y-91171158D01*
X167050500Y-91171155D01*
X167050499Y-91171153D01*
X167019737Y-91016503D01*
X166959794Y-90871786D01*
X166959396Y-90870825D01*
X166959394Y-90870822D01*
X166959394Y-90870821D01*
X166924694Y-90818889D01*
X166903816Y-90752215D01*
X166922300Y-90684835D01*
X166924676Y-90681136D01*
X166959394Y-90629179D01*
X167019737Y-90483497D01*
X167050500Y-90328842D01*
X167050500Y-90171158D01*
X167050500Y-90171155D01*
X167050499Y-90171153D01*
X167019738Y-90016510D01*
X167019737Y-90016503D01*
X167019735Y-90016498D01*
X166959397Y-89870827D01*
X166959390Y-89870814D01*
X166871789Y-89739711D01*
X166871786Y-89739707D01*
X166760292Y-89628213D01*
X166760288Y-89628210D01*
X166629185Y-89540609D01*
X166629172Y-89540602D01*
X166483501Y-89480264D01*
X166483489Y-89480261D01*
X166328845Y-89449500D01*
X166328842Y-89449500D01*
X166171158Y-89449500D01*
X166171155Y-89449500D01*
X166016510Y-89480261D01*
X166016498Y-89480264D01*
X165870827Y-89540602D01*
X165870814Y-89540609D01*
X165739711Y-89628210D01*
X165739707Y-89628213D01*
X165628213Y-89739707D01*
X165628210Y-89739711D01*
X165540609Y-89870814D01*
X165540602Y-89870827D01*
X165480264Y-90016498D01*
X165480261Y-90016510D01*
X165449500Y-90171153D01*
X155455033Y-90171153D01*
X153836819Y-88552939D01*
X153803334Y-88491616D01*
X153800500Y-88465258D01*
X153800500Y-88451155D01*
X153800499Y-88451153D01*
X153769738Y-88296510D01*
X153769737Y-88296503D01*
X153715689Y-88166018D01*
X153709397Y-88150827D01*
X153709390Y-88150814D01*
X153685290Y-88114746D01*
X153621789Y-88019711D01*
X153621786Y-88019707D01*
X153510292Y-87908213D01*
X153510288Y-87908210D01*
X153379185Y-87820609D01*
X153379172Y-87820602D01*
X153233501Y-87760264D01*
X153233489Y-87760261D01*
X153078845Y-87729500D01*
X153078842Y-87729500D01*
X152921158Y-87729500D01*
X152921155Y-87729500D01*
X152766510Y-87760261D01*
X152766498Y-87760264D01*
X152620827Y-87820602D01*
X152620814Y-87820609D01*
X152489711Y-87908210D01*
X152489707Y-87908213D01*
X152378213Y-88019707D01*
X152378210Y-88019711D01*
X152290609Y-88150814D01*
X152290602Y-88150827D01*
X152230264Y-88296498D01*
X152230261Y-88296510D01*
X152199500Y-88451153D01*
X136300500Y-88451153D01*
X136300500Y-88421158D01*
X136300500Y-88421155D01*
X136300499Y-88421153D01*
X136269737Y-88266503D01*
X136228115Y-88166017D01*
X136209397Y-88120827D01*
X136209390Y-88120814D01*
X136121789Y-87989711D01*
X136121786Y-87989707D01*
X136010292Y-87878213D01*
X136010288Y-87878210D01*
X135879185Y-87790609D01*
X135879172Y-87790602D01*
X135733501Y-87730264D01*
X135733489Y-87730261D01*
X135578845Y-87699500D01*
X135578842Y-87699500D01*
X135421158Y-87699500D01*
X135421155Y-87699500D01*
X135266510Y-87730261D01*
X135266498Y-87730264D01*
X135120827Y-87790602D01*
X135120814Y-87790609D01*
X134989711Y-87878210D01*
X134989707Y-87878213D01*
X134878213Y-87989707D01*
X134878210Y-87989711D01*
X134790609Y-88120814D01*
X134790602Y-88120827D01*
X134730264Y-88266498D01*
X134730261Y-88266510D01*
X134699500Y-88421153D01*
X134699500Y-88578846D01*
X134730261Y-88733489D01*
X134730264Y-88733501D01*
X134790602Y-88879172D01*
X134790609Y-88879185D01*
X134878210Y-89010288D01*
X134878212Y-89010291D01*
X134888178Y-89020256D01*
X134921665Y-89081578D01*
X134924500Y-89107940D01*
X134924500Y-102811258D01*
X134904815Y-102878297D01*
X134852011Y-102924052D01*
X134782853Y-102933996D01*
X134719297Y-102904971D01*
X134712819Y-102898939D01*
X132353367Y-100539487D01*
X132353365Y-100539485D01*
X132287750Y-100501602D01*
X132222136Y-100463719D01*
X132148950Y-100444109D01*
X132075766Y-100424500D01*
X132075765Y-100424500D01*
X130835194Y-100424500D01*
X130768155Y-100404815D01*
X130722400Y-100352011D01*
X130720633Y-100347954D01*
X130712804Y-100329054D01*
X130709394Y-100320821D01*
X130709391Y-100320816D01*
X130709390Y-100320814D01*
X130621789Y-100189711D01*
X130621786Y-100189707D01*
X130510292Y-100078213D01*
X130510288Y-100078210D01*
X130379185Y-99990609D01*
X130379172Y-99990602D01*
X130233501Y-99930264D01*
X130233489Y-99930261D01*
X130078845Y-99899500D01*
X130078842Y-99899500D01*
X129921158Y-99899500D01*
X129921155Y-99899500D01*
X129766510Y-99930261D01*
X129766498Y-99930264D01*
X129620827Y-99990602D01*
X129620814Y-99990609D01*
X129489711Y-100078210D01*
X129489707Y-100078213D01*
X129378213Y-100189707D01*
X129378210Y-100189711D01*
X129290609Y-100320814D01*
X129290602Y-100320827D01*
X129230264Y-100466498D01*
X129230261Y-100466510D01*
X129199500Y-100621153D01*
X119500500Y-100621153D01*
X119500500Y-96155513D01*
X121549500Y-96155513D01*
X121549500Y-96344486D01*
X121579059Y-96531118D01*
X121637454Y-96710836D01*
X121680043Y-96794420D01*
X121723240Y-96879199D01*
X121834310Y-97032073D01*
X121967927Y-97165690D01*
X122120801Y-97276760D01*
X122186229Y-97310097D01*
X122289163Y-97362545D01*
X122289165Y-97362545D01*
X122289168Y-97362547D01*
X122385497Y-97393846D01*
X122468881Y-97420940D01*
X122655514Y-97450500D01*
X122655519Y-97450500D01*
X122844486Y-97450500D01*
X123031118Y-97420940D01*
X123210832Y-97362547D01*
X123213486Y-97361195D01*
X123217014Y-97359396D01*
X123379199Y-97276760D01*
X123532073Y-97165690D01*
X123665690Y-97032073D01*
X123776760Y-96879199D01*
X123862547Y-96710832D01*
X123920940Y-96531118D01*
X123945356Y-96376961D01*
X123950500Y-96344486D01*
X123950500Y-96155513D01*
X123920940Y-95968881D01*
X123893846Y-95885497D01*
X123862547Y-95789168D01*
X123862545Y-95789165D01*
X123862545Y-95789163D01*
X123817290Y-95700347D01*
X123776760Y-95620801D01*
X123665690Y-95467927D01*
X123532073Y-95334310D01*
X123379199Y-95223240D01*
X123377747Y-95222500D01*
X123210836Y-95137454D01*
X123031118Y-95079059D01*
X122844486Y-95049500D01*
X122844481Y-95049500D01*
X122655519Y-95049500D01*
X122655514Y-95049500D01*
X122468881Y-95079059D01*
X122289163Y-95137454D01*
X122120800Y-95223240D01*
X122045234Y-95278143D01*
X121967927Y-95334310D01*
X121967925Y-95334312D01*
X121967924Y-95334312D01*
X121834312Y-95467924D01*
X121834312Y-95467925D01*
X121834310Y-95467927D01*
X121807160Y-95505296D01*
X121723240Y-95620800D01*
X121637454Y-95789163D01*
X121579059Y-95968881D01*
X121549500Y-96155513D01*
X119500500Y-96155513D01*
X119500500Y-86430000D01*
X166800138Y-86430000D01*
X167603012Y-86430000D01*
X167585795Y-86439940D01*
X167529940Y-86495795D01*
X167490444Y-86564204D01*
X167470000Y-86640504D01*
X167470000Y-86719496D01*
X167490444Y-86795796D01*
X167529940Y-86864205D01*
X167585795Y-86920060D01*
X167603012Y-86930000D01*
X166800138Y-86930000D01*
X166808430Y-86971690D01*
X166808430Y-86971692D01*
X166883807Y-87153671D01*
X166883814Y-87153684D01*
X166993248Y-87317462D01*
X166993251Y-87317466D01*
X167132533Y-87456748D01*
X167132537Y-87456751D01*
X167296315Y-87566185D01*
X167296328Y-87566192D01*
X167478306Y-87641569D01*
X167478318Y-87641572D01*
X167671504Y-87679999D01*
X167671508Y-87680000D01*
X168070000Y-87680000D01*
X168070000Y-86980000D01*
X168570000Y-86980000D01*
X168570000Y-87706890D01*
X168550315Y-87773929D01*
X168533681Y-87794571D01*
X168479517Y-87848734D01*
X168479513Y-87848740D01*
X168423498Y-87945760D01*
X168423497Y-87945763D01*
X168394500Y-88053982D01*
X168394500Y-88166018D01*
X168423497Y-88274237D01*
X168479515Y-88371263D01*
X168558737Y-88450485D01*
X168655763Y-88506503D01*
X168763982Y-88535500D01*
X168763984Y-88535500D01*
X168876016Y-88535500D01*
X168876018Y-88535500D01*
X168984237Y-88506503D01*
X169081263Y-88450485D01*
X169160485Y-88371263D01*
X169216503Y-88274237D01*
X169245500Y-88166018D01*
X169245500Y-88053982D01*
X169216503Y-87945763D01*
X169160485Y-87848737D01*
X169145573Y-87833825D01*
X169112088Y-87772502D01*
X169117072Y-87702810D01*
X169158944Y-87646877D01*
X169185802Y-87631583D01*
X169343671Y-87566192D01*
X169343684Y-87566185D01*
X169507462Y-87456751D01*
X169507466Y-87456748D01*
X169646748Y-87317466D01*
X169646751Y-87317462D01*
X169756185Y-87153684D01*
X169756192Y-87153671D01*
X169831569Y-86971692D01*
X169831569Y-86971690D01*
X169839862Y-86930000D01*
X169036988Y-86930000D01*
X169054205Y-86920060D01*
X169110060Y-86864205D01*
X169149556Y-86795796D01*
X169170000Y-86719496D01*
X169170000Y-86640504D01*
X169149556Y-86564204D01*
X169110060Y-86495795D01*
X169054205Y-86439940D01*
X169036988Y-86430000D01*
X169839862Y-86430000D01*
X171130138Y-86430000D01*
X171933012Y-86430000D01*
X171915795Y-86439940D01*
X171859940Y-86495795D01*
X171820444Y-86564204D01*
X171800000Y-86640504D01*
X171800000Y-86719496D01*
X171820444Y-86795796D01*
X171859940Y-86864205D01*
X171915795Y-86920060D01*
X171933012Y-86930000D01*
X171130138Y-86930000D01*
X171138430Y-86971690D01*
X171138430Y-86971692D01*
X171213807Y-87153671D01*
X171213814Y-87153684D01*
X171323248Y-87317462D01*
X171323251Y-87317466D01*
X171462533Y-87456748D01*
X171462537Y-87456751D01*
X171626315Y-87566185D01*
X171626328Y-87566192D01*
X171808306Y-87641569D01*
X171808318Y-87641572D01*
X172001504Y-87679999D01*
X172001508Y-87680000D01*
X172250000Y-87680000D01*
X172250000Y-86980000D01*
X172750000Y-86980000D01*
X172750000Y-87680000D01*
X172998492Y-87680000D01*
X172998495Y-87679999D01*
X173191681Y-87641572D01*
X173191693Y-87641569D01*
X173373671Y-87566192D01*
X173373684Y-87566185D01*
X173537462Y-87456751D01*
X173537466Y-87456748D01*
X173676748Y-87317466D01*
X173676751Y-87317462D01*
X173786185Y-87153684D01*
X173786192Y-87153671D01*
X173861569Y-86971692D01*
X173861569Y-86971690D01*
X173869862Y-86930000D01*
X173066988Y-86930000D01*
X173084205Y-86920060D01*
X173140060Y-86864205D01*
X173179556Y-86795796D01*
X173200000Y-86719496D01*
X173200000Y-86640504D01*
X173179556Y-86564204D01*
X173140060Y-86495795D01*
X173084205Y-86439940D01*
X173066988Y-86430000D01*
X173869862Y-86430000D01*
X173861569Y-86388309D01*
X173861569Y-86388307D01*
X173786192Y-86206328D01*
X173786185Y-86206315D01*
X173676751Y-86042537D01*
X173676748Y-86042533D01*
X173537466Y-85903251D01*
X173537462Y-85903248D01*
X173373684Y-85793814D01*
X173373671Y-85793807D01*
X173191693Y-85718430D01*
X173191681Y-85718427D01*
X172998495Y-85680000D01*
X172750000Y-85680000D01*
X172750000Y-86380000D01*
X172250000Y-86380000D01*
X172250000Y-85680000D01*
X172001504Y-85680000D01*
X171808318Y-85718427D01*
X171808306Y-85718430D01*
X171626328Y-85793807D01*
X171626315Y-85793814D01*
X171462537Y-85903248D01*
X171462533Y-85903251D01*
X171323251Y-86042533D01*
X171323248Y-86042537D01*
X171213814Y-86206315D01*
X171213807Y-86206328D01*
X171138430Y-86388307D01*
X171138430Y-86388309D01*
X171130138Y-86430000D01*
X169839862Y-86430000D01*
X169831569Y-86388309D01*
X169831569Y-86388307D01*
X169756192Y-86206328D01*
X169756185Y-86206315D01*
X169646751Y-86042537D01*
X169646748Y-86042533D01*
X169507466Y-85903251D01*
X169507462Y-85903248D01*
X169343684Y-85793814D01*
X169343671Y-85793807D01*
X169161693Y-85718430D01*
X169161681Y-85718427D01*
X168968495Y-85680000D01*
X168570000Y-85680000D01*
X168570000Y-86380000D01*
X168070000Y-86380000D01*
X168070000Y-85680000D01*
X167671504Y-85680000D01*
X167478318Y-85718427D01*
X167478306Y-85718430D01*
X167296328Y-85793807D01*
X167296315Y-85793814D01*
X167132537Y-85903248D01*
X167132533Y-85903251D01*
X166993251Y-86042533D01*
X166993248Y-86042537D01*
X166883814Y-86206315D01*
X166883807Y-86206328D01*
X166808430Y-86388307D01*
X166808430Y-86388309D01*
X166800138Y-86430000D01*
X119500500Y-86430000D01*
X119500500Y-78249500D01*
X119520185Y-78182461D01*
X119572989Y-78136706D01*
X119624500Y-78125500D01*
X120126000Y-78125500D01*
X120193039Y-78145185D01*
G37*
%TD.AperFunction*%
%TD*%
M02*
